<?xml version="1.0" encoding="utf-8"?>
<!-- Generator: Adobe Illustrator 15.1.0, SVG Export Plug-In . SVG Version: 6.00 Build 0)  -->
<!DOCTYPE svg PUBLIC "-//W3C//DTD SVG 1.1//EN" "http://www.w3.org/Graphics/SVG/1.1/DTD/svg11.dtd">
<svg version="1.1" xmlns="http://www.w3.org/2000/svg" xmlns:xlink="http://www.w3.org/1999/xlink" x="0px" y="0px" width="643px"
	 height="343px" viewBox="0 0 643 343" style="enable-background:new 0 0 643 343;" xml:space="preserve">
<style type="text/css">
<![CDATA[
	#data_layer {opacity: 0; filter: alpha(opacity=0);}
	.floor4_0{fill:none;stroke:#00FFFF;stroke-width:0.7087;stroke-linecap:round;stroke-linejoin:round;stroke-miterlimit:10;}
	.floor4_1{fill:none;stroke:#878686;stroke-width:2;stroke-miterlimit:2;}
	.floor4_2{fill:none;stroke:#FF7F7F;stroke-width:0.1852;stroke-linecap:round;stroke-linejoin:round;stroke-miterlimit:10;}
	.floor4_3{fill:none;stroke:#878686;stroke-width:0.7736;stroke-linecap:round;stroke-miterlimit:2;}
	.floor4_4{font-size:4px;}
	.floor4_5{fill:none;stroke:#000000;stroke-width:0.7087;stroke-linecap:round;stroke-linejoin:round;stroke-miterlimit:10;}
	.floor4_6{opacity:0.25;}
	.floor4_7{fill:none;stroke:#231F20;stroke-width:0.3;}
	.floor4_8{font-size:0.1021px;}
	.floor4_9{fill:none;stroke:#FFBF7F;stroke-width:0.7087;stroke-linecap:round;stroke-linejoin:round;stroke-miterlimit:10;}
	.floor4_10{font-size:1.634px;}
	.floor4_11{fill:none;stroke:#000000;stroke-width:6.940000e-02;stroke-linecap:round;stroke-linejoin:round;stroke-miterlimit:10;}
	.floor4_12{font-family:'MyriadPro-Regular';}
	.floor4_13{fill-rule:evenodd;clip-rule:evenodd;fill:#878686;}
	.floor4_14{font-family:'Arial-BoldMT';}
	.floor4_15{font-size:8px;}
	.floor4_16{fill:url(#SVGID_1_);}
	.floor4_17{fill:#C6C4C4;}
	.floor4_18{fill:none;stroke:#FF00FF;stroke-width:0.7087;stroke-linecap:round;stroke-linejoin:round;stroke-miterlimit:10;}
	.floor4_19{fill:none;stroke:#FF7F7F;stroke-width:0.7087;stroke-linecap:round;stroke-linejoin:round;stroke-miterlimit:10;}
	.floor4_20{fill:#FFFF33;}
	.floor4_21{fill:#FFFFFF;}
	.floor4_22{fill:none;stroke:#994C4C;stroke-width:0.7087;stroke-linecap:round;stroke-linejoin:round;stroke-miterlimit:10;}
	.floor4_23{fill:none;}
	.floor4_24{fill:none;stroke:#7FBFFF;stroke-width:0.7087;stroke-linecap:round;stroke-linejoin:round;stroke-miterlimit:10;}
	.floor4_25{fill:none;stroke:#C0C0C0;stroke-width:0.7087;stroke-linecap:round;stroke-linejoin:round;stroke-miterlimit:10;}
	.floor4_26{fill:none;stroke:#878686;stroke-width:0.7087;stroke-linecap:round;stroke-linejoin:round;stroke-miterlimit:10;}
	.floor4_27{fill:none;stroke:#878686;stroke-width:2;stroke-miterlimit:10;}
	.floor4_28{font-family:'ArialMT';}
	.floor4_29{fill:none;stroke:#FF0000;stroke-width:0.7087;stroke-linecap:round;stroke-linejoin:round;stroke-miterlimit:10;}
	.floor4_30{fill-rule:evenodd;clip-rule:evenodd;fill:#FFFFFF;}
	
		.floor4_31{display:inline;fill:none;stroke:#00FF00;stroke-width:0.7087;stroke-linecap:round;stroke-linejoin:round;stroke-miterlimit:10;}
	.floor4_32{font-size:10px;}
	.floor4_33{fill:none;stroke:#FFFF00;stroke-width:0.7087;stroke-linecap:round;stroke-linejoin:round;stroke-miterlimit:10;}
	.floor4_34{font-size:2.4509px;}
	.floor4_35{display:none;}
	
		.floor4_36{fill:none;stroke:#994C4C;stroke-width:0.7087;stroke-linecap:round;stroke-linejoin:round;stroke-miterlimit:10;stroke-dasharray:1.000000e-02,1000;}
]]>
</style>
<pattern  x="-74" y="478" width="57.6" height="57.6" patternUnits="userSpaceOnUse" id="Crosses" viewBox="0 -57.6 57.6 57.6" style="overflow:visible;">
	<g>
		<polygon class="floor4_23" points="0,-57.6 57.6,-57.6 57.6,0 0,0 		"/>
		<line class="floor4_7" x1="52.5" y1="-54" x2="55.5" y2="-54"/>
		<line class="floor4_7" x1="38.1" y1="-54" x2="41.1" y2="-54"/>
		<line class="floor4_7" x1="23.7" y1="-54" x2="26.7" y2="-54"/>
		<line class="floor4_7" x1="9.3" y1="-54" x2="12.3" y2="-54"/>
		<line class="floor4_7" x1="45.3" y1="-46.8" x2="48.3" y2="-46.8"/>
		<line class="floor4_7" x1="30.9" y1="-46.8" x2="33.9" y2="-46.8"/>
		<line class="floor4_7" x1="16.5" y1="-46.8" x2="19.5" y2="-46.8"/>
		<line class="floor4_7" x1="2.1" y1="-46.8" x2="5.1" y2="-46.8"/>
		<line class="floor4_7" x1="52.5" y1="-39.6" x2="55.5" y2="-39.6"/>
		<line class="floor4_7" x1="38.1" y1="-39.6" x2="41.1" y2="-39.6"/>
		<line class="floor4_7" x1="23.7" y1="-39.6" x2="26.7" y2="-39.6"/>
		<line class="floor4_7" x1="9.3" y1="-39.6" x2="12.3" y2="-39.6"/>
		<line class="floor4_7" x1="45.3" y1="-32.4" x2="48.3" y2="-32.4"/>
		<line class="floor4_7" x1="30.9" y1="-32.4" x2="33.9" y2="-32.4"/>
		<line class="floor4_7" x1="16.5" y1="-32.4" x2="19.5" y2="-32.4"/>
		<line class="floor4_7" x1="2.1" y1="-32.4" x2="5.1" y2="-32.4"/>
		<line class="floor4_7" x1="52.5" y1="-25.2" x2="55.5" y2="-25.2"/>
		<line class="floor4_7" x1="38.1" y1="-25.2" x2="41.1" y2="-25.2"/>
		<line class="floor4_7" x1="23.7" y1="-25.2" x2="26.7" y2="-25.2"/>
		<line class="floor4_7" x1="9.3" y1="-25.2" x2="12.3" y2="-25.2"/>
		<line class="floor4_7" x1="45.3" y1="-18" x2="48.3" y2="-18"/>
		<line class="floor4_7" x1="30.9" y1="-18" x2="33.9" y2="-18"/>
		<line class="floor4_7" x1="16.5" y1="-18" x2="19.5" y2="-18"/>
		<line class="floor4_7" x1="2.1" y1="-18" x2="5.1" y2="-18"/>
		<line class="floor4_7" x1="52.5" y1="-10.8" x2="55.5" y2="-10.8"/>
		<line class="floor4_7" x1="38.1" y1="-10.8" x2="41.1" y2="-10.8"/>
		<line class="floor4_7" x1="23.7" y1="-10.8" x2="26.7" y2="-10.8"/>
		<line class="floor4_7" x1="9.3" y1="-10.8" x2="12.3" y2="-10.8"/>
		<line class="floor4_7" x1="45.3" y1="-3.6" x2="48.3" y2="-3.6"/>
		<line class="floor4_7" x1="30.9" y1="-3.6" x2="33.9" y2="-3.6"/>
		<line class="floor4_7" x1="16.5" y1="-3.6" x2="19.5" y2="-3.6"/>
		<line class="floor4_7" x1="2.1" y1="-3.6" x2="5.1" y2="-3.6"/>
		<line class="floor4_7" x1="54" y1="-55.5" x2="54" y2="-52.5"/>
		<line class="floor4_7" x1="39.6" y1="-55.5" x2="39.6" y2="-52.5"/>
		<line class="floor4_7" x1="25.2" y1="-55.5" x2="25.2" y2="-52.5"/>
		<line class="floor4_7" x1="10.8" y1="-55.5" x2="10.8" y2="-52.5"/>
		<line class="floor4_7" x1="46.8" y1="-48.3" x2="46.8" y2="-45.3"/>
		<line class="floor4_7" x1="32.4" y1="-48.3" x2="32.4" y2="-45.3"/>
		<line class="floor4_7" x1="18" y1="-48.3" x2="18" y2="-45.3"/>
		<line class="floor4_7" x1="3.6" y1="-48.3" x2="3.6" y2="-45.3"/>
		<line class="floor4_7" x1="54" y1="-41.1" x2="54" y2="-38.1"/>
		<line class="floor4_7" x1="39.6" y1="-41.1" x2="39.6" y2="-38.1"/>
		<line class="floor4_7" x1="25.2" y1="-41.1" x2="25.2" y2="-38.1"/>
		<line class="floor4_7" x1="10.8" y1="-41.1" x2="10.8" y2="-38.1"/>
		<line class="floor4_7" x1="46.8" y1="-33.9" x2="46.8" y2="-30.9"/>
		<line class="floor4_7" x1="32.4" y1="-33.9" x2="32.4" y2="-30.9"/>
		<line class="floor4_7" x1="18" y1="-33.9" x2="18" y2="-30.9"/>
		<line class="floor4_7" x1="3.6" y1="-33.9" x2="3.6" y2="-30.9"/>
		<line class="floor4_7" x1="54" y1="-26.7" x2="54" y2="-23.7"/>
		<line class="floor4_7" x1="39.6" y1="-26.7" x2="39.6" y2="-23.7"/>
		<line class="floor4_7" x1="25.2" y1="-26.7" x2="25.2" y2="-23.7"/>
		<line class="floor4_7" x1="10.8" y1="-26.7" x2="10.8" y2="-23.7"/>
		<line class="floor4_7" x1="46.8" y1="-19.5" x2="46.8" y2="-16.5"/>
		<line class="floor4_7" x1="32.4" y1="-19.5" x2="32.4" y2="-16.5"/>
		<line class="floor4_7" x1="18" y1="-19.5" x2="18" y2="-16.5"/>
		<line class="floor4_7" x1="3.6" y1="-19.5" x2="3.6" y2="-16.5"/>
		<line class="floor4_7" x1="54" y1="-12.3" x2="54" y2="-9.3"/>
		<line class="floor4_7" x1="39.6" y1="-12.3" x2="39.6" y2="-9.3"/>
		<line class="floor4_7" x1="25.2" y1="-12.3" x2="25.2" y2="-9.3"/>
		<line class="floor4_7" x1="10.8" y1="-12.3" x2="10.8" y2="-9.3"/>
		<line class="floor4_7" x1="46.8" y1="-5.1" x2="46.8" y2="-2.1"/>
		<line class="floor4_7" x1="32.4" y1="-5.1" x2="32.4" y2="-2.1"/>
		<line class="floor4_7" x1="18" y1="-5.1" x2="18" y2="-2.1"/>
		<line class="floor4_7" x1="3.6" y1="-5.1" x2="3.6" y2="-2.1"/>
	</g>
</pattern>
<g id="Stairs">
	<line class="floor4_26" x1="377.6" y1="166.6" x2="382.5" y2="163.8"/>
	<line class="floor4_26" x1="378.2" y1="167.5" x2="383" y2="164.6"/>
	<line class="floor4_26" x1="378.7" y1="168.4" x2="383.5" y2="165.5"/>
	<line class="floor4_26" x1="377.1" y1="165.7" x2="382" y2="162.9"/>
	<line class="floor4_26" x1="372.2" y1="160.1" x2="367.4" y2="163"/>
	<line class="floor4_26" x1="376.3" y1="167.2" x2="371.5" y2="170"/>
	<line class="floor4_26" x1="374.8" y1="164.5" x2="369.9" y2="167.4"/>
	<line class="floor4_26" x1="375.3" y1="165.4" x2="370.5" y2="168.2"/>
	<line class="floor4_26" x1="375.8" y1="166.3" x2="371" y2="169.1"/>
	<line class="floor4_26" x1="374.3" y1="163.7" x2="369.4" y2="166.5"/>
	<line class="floor4_26" x1="372.7" y1="161" x2="367.9" y2="163.8"/>
	<line class="floor4_26" x1="373.2" y1="161.9" x2="368.4" y2="164.7"/>
	<line class="floor4_26" x1="373.8" y1="162.8" x2="368.9" y2="165.6"/>
	<line class="floor4_26" x1="376.8" y1="168.1" x2="372" y2="170.9"/>
	<line class="floor4_26" x1="377.3" y1="169" x2="372.5" y2="171.8"/>
	<line class="floor4_26" x1="374.6" y1="161.3" x2="379.5" y2="158.5"/>
	<line class="floor4_26" x1="375.1" y1="162.2" x2="380" y2="159.4"/>
	<line class="floor4_26" x1="375.6" y1="163.1" x2="380.5" y2="160.2"/>
	<line class="floor4_26" x1="376.1" y1="163.9" x2="381" y2="161.1"/>
	<line class="floor4_26" x1="376.6" y1="164.8" x2="381.5" y2="162"/>
	<line class="floor4_26" x1="377.8" y1="169.8" x2="373" y2="172.7"/>
	<line class="floor4_26" x1="374.1" y1="160.4" x2="379" y2="157.6"/>
	<line class="floor4_26" x1="373.1" y1="158.6" x2="377.9" y2="155.8"/>
	<line class="floor4_26" x1="373.6" y1="159.5" x2="378.5" y2="156.7"/>
</g>
<g id="Dead_Space">
	<pattern  id="SVGID_1_" xlink:href="#Crosses" patternTransform="matrix(0.32 0 0 0.32 -5232.9541 -5906.0361)">
	</pattern>
	<polygon class="floor4_16" points="400.7,191.3 367,212 387.3,247 385.7,248.7 421.7,312 458.3,290.7 	"/>
</g>
<g id="grey_blocks">
	<polygon class="floor4_17" points="77.7,73.2 60.3,91 56.7,87.7 45,99.7 99,153.8 104.5,147.5 114,156.8 137.2,133 	"/>
	<polygon class="floor4_17" points="353.2,192.3 364.5,212.3 401.2,191.2 389.8,171.2 375,180.2 377.3,184.2 370.3,188 367.5,183.7 	"/>
	<polygon class="floor4_17" points="332.2,155.8 346.7,147.2 310.5,85 296.3,93.3 	"/>
	<polygon class="floor4_17" points="332,72.3 317.5,81 344.8,128.8 350.5,125.8 355.7,135.7 350.8,138.5 361.3,156.7 376.8,149 	"/>
	<polygon class="floor4_17" points="284.8,25.2 301.2,53.3 316.1,44.5 304.9,25.2 	"/>
</g>
<g id="numbers">
	<g id="MTEXT_8_">
		<text transform="matrix(1 0 0 1 110.373 147.5527)" class="floor4_21 floor4_28 floor4_4">4101A</text>
	</g>
	<g id="MTEXT_9_">
		<text transform="matrix(1 0 0 1 85.3491 114.8486)" class="floor4_21 floor4_28 floor4_4">4101</text>
	</g>
	<g id="A-Area-Iden">
		<g id="MTEXT_10_">
			<text transform="matrix(1 0 0 1 374.666 194.4629)" class="floor4_21 floor4_28 floor4_4">4217</text>
		</g>
		<g id="MTEXT_11_">
			<text transform="matrix(1 0 0 1 335.4512 101.8516)" class="floor4_21 floor4_28 floor4_4">4208</text>
		</g>
		<g id="MTEXT_12_">
			<text transform="matrix(0.8632 -0.5049 0.5049 0.8632 336.291 151.3896)" class="floor4_21 floor4_28 floor4_4">4215</text>
		</g>
		<g id="MTEXT_13_">
			<text transform="matrix(1 0 0 1 331.4688 143.5723)" class="floor4_21 floor4_28 floor4_4">4213</text>
		</g>
		<g id="MTEXT_14_">
			<text transform="matrix(1 0 0 1 325.7656 133.2852)" class="floor4_21 floor4_28 floor4_4">4211</text>
		</g>
		<g id="MTEXT_15_">
			<text transform="matrix(1 0 0 1 319.9629 123.7402)" class="floor4_21 floor4_28 floor4_4">4209</text>
		</g>
		<g id="MTEXT_16_">
			<text transform="matrix(1 0 0 1 314.3774 113.9629)" class="floor4_21 floor4_28 floor4_4">4207</text>
		</g>
		<g id="MTEXT_17_">
			<text transform="matrix(1 0 0 1 308.6733 104.4844)" class="floor4_21 floor4_28 floor4_4">4205</text>
		</g>
		<g id="MTEXT_18_">
			<text transform="matrix(1 0 0 1 347.9219 120.6963)" class="floor4_21 floor4_28 floor4_4">4212</text>
		</g>
		<g id="MTEXT_19_">
			<text transform="matrix(1 0 0 1 341.1826 111.4766)" class="floor4_21 floor4_28 floor4_4">4210</text>
		</g>
		<g id="MTEXT_20_">
			<text transform="matrix(1 0 0 1 303.9443 95.1689)" class="floor4_21 floor4_28 floor4_4">4203</text>
		</g>
		<g id="MTEXT_21_">
			<text transform="matrix(1 0 0 1 296.7832 35.1797)" class="floor4_21 floor4_28 floor4_4">4202</text>
		</g>
		<g id="MTEXT_22_">
			<text transform="matrix(1 0 0 1 330.5977 92.5)" class="floor4_21 floor4_28 floor4_4">4206</text>
		</g>
		<g id="MTEXT_23_">
			<text transform="matrix(1 0 0 1 324.7168 81.8877)" class="floor4_21 floor4_28 floor4_4">4204</text>
		</g>
		<g id="MTEXT_24_">
			<text transform="matrix(1 0 0 1 359.6426 138.584)" class="floor4_21 floor4_28 floor4_4">4214</text>
		</g>
		<g id="MTEXT_25_">
			<text transform="matrix(1 0 0 1 358.7646 150.457)" class="floor4_21 floor4_28 floor4_4">4216</text>
		</g>
		<g id="MTEXT_26_">
			<text transform="matrix(0.88 -0.475 0.475 0.88 306.1592 48.4023)" class="floor4_21 floor4_28 floor4_10">4202A</text>
		</g>
		<g id="MTEXT_32_">
			<text transform="matrix(1 0 0 1 97.894 193.502)" class="floor4_21 floor4_28 floor4_10">4EL3</text>
		</g>
		<g id="MTEXT_33_">
			<text transform="matrix(1 0 0 1 262.9141 35.9551)" class="floor4_21 floor4_28 floor4_8">[BG]4000</text>
		</g>
		<g id="MTEXT_34_">
			<text transform="matrix(1 0 0 1 285.2363 24.7129)" class="floor4_21 floor4_28 floor4_8">[BG]4001</text>
		</g>
		<g id="MTEXT_37_">
			<text transform="matrix(1 0 0 1 95.2827 186.6641)" class="floor4_21 floor4_28 floor4_8">[BG]4004</text>
		</g>
		<g id="MTEXT_38_">
			<text transform="matrix(1 0 0 1 44.4351 99.6982)" class="floor4_21 floor4_28 floor4_8">[BG]4005</text>
		</g>
		<g id="MTEXT_40_">
			<text transform="matrix(1 0 0 1 38.1758 89.5977)" class="floor4_21 floor4_28 floor4_8">[CG]4001</text>
		</g>
		<g id="MTEXT_41_">
			<text transform="matrix(1 0 0 1 337.3223 131.2725)" class="floor4_17 floor4_28 floor4_4">4000</text>
		</g>
		<g id="MTEXT_42_">
			<text transform="matrix(1 0 0 1 102.1768 158.8672)" class="floor4_21 floor4_28 floor4_8">[CG]4002</text>
		</g>
		<g id="MTEXT_44_">
			<text transform="matrix(1 0 0 1 277.8125 26.7891)" class="floor4_21 floor4_28 floor4_8">[CG]4003</text>
		</g>
	</g>
</g>
<g id="overlay">
	<g>
		<g>
			<line class="floor4_3" x1="284.2" y1="51.8" x2="286.7" y2="50.4"/>
			<line class="floor4_3" x1="284.6" y1="50.2" x2="284.2" y2="51.8"/>
			<line class="floor4_3" x1="285.8" y1="52.3" x2="284.2" y2="51.8"/>
		</g>
		<g>
			<line class="floor4_3" x1="285.3" y1="47.7" x2="282.8" y2="49.2"/>
			<line class="floor4_3" x1="284.9" y1="49.3" x2="285.3" y2="47.7"/>
			<line class="floor4_3" x1="283.7" y1="47.3" x2="285.3" y2="47.7"/>
		</g>
	</g>
	<line class="floor4_26" x1="276.5" y1="56.9" x2="281.3" y2="54"/>
	<line class="floor4_26" x1="276" y1="56" x2="280.7" y2="53.1"/>
	<line class="floor4_26" x1="275.5" y1="55.1" x2="280.2" y2="52.2"/>
	<line class="floor4_26" x1="274.9" y1="54.3" x2="279.7" y2="51.4"/>
	<line class="floor4_26" x1="274.4" y1="53.4" x2="279.1" y2="50.5"/>
	<line class="floor4_26" x1="273.9" y1="52.5" x2="278.6" y2="49.6"/>
	<line class="floor4_26" x1="272.9" y1="52.6" x2="278.4" y2="48"/>
	<line class="floor4_26" x1="280.8" y1="37.5" x2="280.9" y2="43.1"/>
	<line class="floor4_26" x1="279.8" y1="37.5" x2="279.8" y2="43.1"/>
	<line class="floor4_26" x1="278.8" y1="37.5" x2="278.8" y2="43.1"/>
	<line class="floor4_26" x1="277.8" y1="37.5" x2="277.8" y2="43.1"/>
	<line class="floor4_26" x1="276.8" y1="37.5" x2="276.8" y2="43.1"/>
	<line class="floor4_26" x1="275.7" y1="37.5" x2="275.8" y2="43.1"/>
	<line class="floor4_26" x1="275.1" y1="36.9" x2="274.1" y2="43.6"/>
	<line class="floor4_26" x1="289.9" y1="52.7" x2="292.6" y2="57.3"/>
	<line class="floor4_26" x1="289" y1="53.2" x2="291.7" y2="57.8"/>
	<line class="floor4_26" x1="288.1" y1="53.7" x2="290.8" y2="58.3"/>
	<line class="floor4_26" x1="287.3" y1="54.2" x2="289.9" y2="58.9"/>
	<line class="floor4_26" x1="286.4" y1="54.7" x2="289.1" y2="59.4"/>
	<line class="floor4_26" x1="285.5" y1="55.2" x2="288.2" y2="59.9"/>
	<line class="floor4_26" x1="284.6" y1="55.7" x2="287.3" y2="60.4"/>
	<polyline class="floor4_27" points="295.5,56.4 280.6,65 264.2,36.6 283.3,37.1 276.6,25.6 	"/>
	<polyline class="floor4_1" points="268.5,43.4 287,43.6 278.4,48.6 	"/>
	<polyline class="floor4_1" points="275.1,43.8 282.4,56.5 291.7,51.2 	"/>
	<path class="floor4_1" d="M316,44.6"/>
	<polyline class="floor4_1" points="255.9,25.2 304.8,25.2 316,44.6 	"/>
	<line class="floor4_27" x1="303.6" y1="46.9" x2="313.9" y2="41"/>
	<polyline class="floor4_27" points="316.9,44.2 301.2,53.2 289.3,33.2 	"/>
	<line class="floor4_26" x1="310.4" y1="83.7" x2="295.3" y2="57.5"/>
	<line class="floor4_26" x1="316.8" y1="79.9" x2="301.6" y2="53.7"/>
	<line class="floor4_26" x1="303.9" y1="58.3" x2="299.9" y2="64.7"/>
	<line class="floor4_26" x1="304.5" y1="72.8" x2="310.4" y2="69.4"/>
	<line class="floor4_26" x1="308.5" y1="79.5" x2="314.4" y2="76.1"/>
	<line class="floor4_26" x1="302.2" y1="68.9" x2="308.2" y2="65.5"/>
	<line class="floor4_26" x1="300" y1="65.1" x2="306" y2="61.7"/>
	<line class="floor4_26" x1="297.8" y1="61.3" x2="303.7" y2="57.8"/>
	<line class="floor4_27" x1="287.7" y1="30.3" x2="284.8" y2="25.3"/>
	<polyline class="floor4_27" points="314.3,91 310.7,84.7 296.3,93.2 332,155.8 346.7,147 	"/>
	<line class="floor4_27" x1="344.7" y1="143.8" x2="340.7" y2="136.7"/>
	<line class="floor4_27" x1="339.3" y1="134.3" x2="338.2" y2="132.5"/>
	<line class="floor4_27" x1="330.1" y1="151.3" x2="345.1" y2="142.6"/>
	<line class="floor4_27" x1="324.2" y1="141.7" x2="338.6" y2="133.5"/>
	<line class="floor4_27" x1="319" y1="131.8" x2="333.1" y2="123.6"/>
	<line class="floor4_27" x1="313.4" y1="122" x2="327.5" y2="113.9"/>
	<line class="floor4_27" x1="307.8" y1="112.3" x2="321.9" y2="104.2"/>
	<line class="floor4_27" x1="302.3" y1="102.5" x2="316.3" y2="94.5"/>
	<line class="floor4_27" x1="316.9" y1="95.4" x2="315.8" y2="93.4"/>
	<line class="floor4_27" x1="318.2" y1="97.7" x2="325.7" y2="110.7"/>
	<line class="floor4_27" x1="327.1" y1="113" x2="328.1" y2="114.8"/>
	<line class="floor4_27" x1="329.4" y1="117.2" x2="336.8" y2="130.1"/>
	<line class="floor4_27" x1="349.1" y1="151.3" x2="346.2" y2="146.2"/>
	<line class="floor4_27" x1="350.3" y1="153.6" x2="354.8" y2="161.7"/>
	<polyline class="floor4_27" points="353.2,162.3 357.2,169.3 360.7,167.2 	"/>
	<line class="floor4_27" x1="352.3" y1="162.8" x2="377.1" y2="148.5"/>
	<line class="floor4_27" x1="360.7" y1="155.5" x2="361.4" y2="156.8"/>
	<polyline class="floor4_27" points="359.3,153.1 350.9,138.4 352.4,137.5 	"/>
	<line class="floor4_27" x1="356.7" y1="147.8" x2="371.1" y2="139.5"/>
	<polyline class="floor4_27" points="368.9,152.8 367.3,149.9 375,145.5 	"/>
	<polyline class="floor4_27" points="364.1,165.2 367.2,163.5 363.5,156.8 	"/>
	<line class="floor4_27" x1="354.7" y1="136.2" x2="355.8" y2="135.5"/>
	<line class="floor4_27" x1="349.1" y1="126.5" x2="350" y2="126"/>
	<line class="floor4_27" x1="348.2" y1="122.6" x2="357.6" y2="138.8"/>
	<line class="floor4_27" x1="353.4" y1="130.4" x2="362.9" y2="125.1"/>
	<polyline class="floor4_27" points="361.6,126.5 363.8,130.8 365.7,129.7 	"/>
	<line class="floor4_27" x1="346.8" y1="127.8" x2="345.2" y2="128.7"/>
	<line class="floor4_27" x1="336.4" y1="113.3" x2="345.7" y2="129.5"/>
	<line class="floor4_27" x1="354.5" y1="111.3" x2="340.7" y2="119.3"/>
	<line class="floor4_27" x1="335" y1="111" x2="333.8" y2="109"/>
	<line class="floor4_27" x1="334.7" y1="109.8" x2="349.1" y2="101.4"/>
	<line class="floor4_27" x1="332.5" y1="106.6" x2="325.1" y2="93.8"/>
	<line class="floor4_27" x1="343.4" y1="91.7" x2="329.2" y2="100"/>
	<line class="floor4_27" x1="323.8" y1="91.5" x2="322.7" y2="89.5"/>
	<line class="floor4_27" x1="337.9" y1="82" x2="323.5" y2="90.3"/>
	<line class="floor4_27" x1="321.3" y1="87.2" x2="317.1" y2="80"/>
	<line class="floor4_27" x1="332.8" y1="71.7" x2="316.7" y2="81.2"/>
	<line class="floor4_27" x1="317.4" y1="86.5" x2="319.3" y2="85.4"/>
	<line class="floor4_27" x1="315" y1="87.8" x2="313.5" y2="88.6"/>
	<polyline class="floor4_27" points="331.7,71.3 458.3,290.7 422,312 332,155.8 	"/>
	<line class="floor4_27" x1="367.1" y1="210.2" x2="364.5" y2="211.9"/>
	<line class="floor4_27" x1="369.5" y1="209" x2="400.1" y2="191.4"/>
	<line class="floor4_27" x1="399.5" y1="192.8" x2="420.8" y2="229.4"/>
	<line class="floor4_27" x1="385.2" y1="247.4" x2="419.2" y2="228"/>
	<polyline class="floor4_27" points="365.9,210.2 387.9,248.2 385.9,249.4 	"/>
	<polyline class="floor4_27" points="352.1,192.5 367.8,183.9 370.2,188.1 372.4,186.9 	"/>
	<polyline class="floor4_27" points="374.8,185.6 377.4,184.1 375,179.9 389.4,171.4 	"/>
	<line class="floor4_26" x1="312.1" y1="73.1" x2="308.1" y2="79.4"/>
	<line class="floor4_26" x1="306.7" y1="75.9" x2="312.7" y2="72.5"/>
	<polyline class="floor4_27" points="108.5,162.2 113.4,205.6 89.3,205.3 89.1,181.5 104,179.8 101.2,155.5 	"/>
	<polyline class="floor4_27" points="104.7,195 104.8,197.6 95.2,197.7 95,187 104.6,186 105.2,191 	"/>
	<g id="LINE_1501_">
		<line class="floor4_26" x1="88.6" y1="198.2" x2="93.7" y2="198.3"/>
	</g>
	<g id="LINE_1500_">
		<line class="floor4_26" x1="88.6" y1="197.2" x2="93.7" y2="197.2"/>
	</g>
	<g id="LINE_1499_">
		<line class="floor4_26" x1="88.6" y1="196.2" x2="93.7" y2="196.2"/>
	</g>
	<g id="LINE_1498_">
		<line class="floor4_26" x1="88.6" y1="195.2" x2="93.7" y2="195.2"/>
	</g>
	<g id="LINE_1497_">
		<line class="floor4_26" x1="88.6" y1="194.2" x2="93.7" y2="194.2"/>
	</g>
	<g id="LINE_1496_">
		<line class="floor4_26" x1="88.5" y1="193.1" x2="93.7" y2="193.2"/>
	</g>
	<g id="LINE_1495_">
		<line class="floor4_26" x1="88.5" y1="192.1" x2="93.7" y2="192.1"/>
	</g>
	<g id="LINE_1494_">
		<line class="floor4_26" x1="88.5" y1="191.1" x2="93.7" y2="191.1"/>
	</g>
	<g id="LINE_1493_">
		<line class="floor4_26" x1="88.5" y1="190.1" x2="93.7" y2="190.1"/>
	</g>
	<g id="LINE_1492_">
		<line class="floor4_26" x1="88.5" y1="189.1" x2="93.7" y2="189.1"/>
	</g>
	<g id="LINE_1491_">
		<line class="floor4_26" x1="88.5" y1="188.1" x2="93.7" y2="188.1"/>
	</g>
	<g id="LINE_1490_">
		<line class="floor4_26" x1="88.5" y1="187" x2="93.7" y2="187"/>
	</g>
	<g id="LINE_115_">
		<line class="floor4_26" x1="98.8" y1="199.6" x2="98.8" y2="204.9"/>
	</g>
	<g id="LINE_114_">
		<line class="floor4_26" x1="97.8" y1="199.6" x2="97.8" y2="204.9"/>
	</g>
	<g id="LINE_900_">
		<line class="floor4_26" x1="96.8" y1="199.6" x2="96.7" y2="204.9"/>
	</g>
	<g id="LINE_899_">
		<line class="floor4_26" x1="95.7" y1="199.6" x2="95.7" y2="204.9"/>
	</g>
	<g id="LINE_826_">
		<line class="floor4_26" x1="94.7" y1="199.6" x2="94.7" y2="204.9"/>
	</g>
	<g id="LINE_825_">
		<line class="floor4_26" x1="93.7" y1="199.6" x2="93.7" y2="204.9"/>
	</g>
	<g id="LINE_113_">
		<line class="floor4_26" x1="97.2" y1="180.6" x2="97.8" y2="185.8"/>
	</g>
	<g id="LINE_112_">
		<line class="floor4_26" x1="94.2" y1="181" x2="94.8" y2="186.2"/>
	</g>
	<g id="LINE_111_">
		<line class="floor4_26" x1="95.2" y1="180.9" x2="95.8" y2="186"/>
	</g>
	<g id="LINE_110_">
		<line class="floor4_26" x1="96.2" y1="180.8" x2="96.8" y2="185.9"/>
	</g>
	<g id="LINE_109_">
		<line class="floor4_26" x1="98.2" y1="180.5" x2="98.8" y2="185.7"/>
	</g>
	<g id="LINE_108_">
		<line class="floor4_26" x1="99.2" y1="180.4" x2="99.8" y2="185.6"/>
	</g>
	<g>
		<g>
			<line class="floor4_3" x1="99.2" y1="193.4" x2="102.1" y2="193.4"/>
			<line class="floor4_3" x1="100.4" y1="192.3" x2="99.2" y2="193.5"/>
			<line class="floor4_3" x1="100.4" y1="194.6" x2="99.2" y2="193.5"/>
		</g>
		<g>
			<line class="floor4_3" x1="102.2" y1="190.4" x2="99.3" y2="190.4"/>
			<line class="floor4_3" x1="101" y1="191.6" x2="102.2" y2="190.4"/>
			<line class="floor4_3" x1="101" y1="189.2" x2="102.2" y2="190.4"/>
		</g>
	</g>
	<line class="floor4_27" x1="103.1" y1="205.1" x2="102.9" y2="197.7"/>
	<line class="floor4_27" x1="112.1" y1="197.3" x2="110.6" y2="197.3"/>
	<line class="floor4_27" x1="106.9" y1="197.1" x2="104.7" y2="197.1"/>
	<path class="floor4_27" d="M285.3,281.6"/>
	<polyline class="floor4_27" points="102.7,157.3 34.8,89.2 64.4,59.7 164.3,160.1 	"/>
	<line class="floor4_27" x1="45" y1="99" x2="57.4" y2="86.7"/>
	<line class="floor4_27" x1="63.7" y1="87.2" x2="77.3" y2="73.7"/>
	<line class="floor4_26" x1="57.2" y1="67.2" x2="60.8" y2="70.8"/>
	<line class="floor4_26" x1="55.8" y1="68.6" x2="59.3" y2="72.2"/>
	<line class="floor4_26" x1="56.5" y1="67.9" x2="60.1" y2="71.5"/>
	<line class="floor4_26" x1="55.1" y1="69.3" x2="58.6" y2="72.9"/>
	<line class="floor4_26" x1="58" y1="66.4" x2="61.5" y2="70"/>
	<line class="floor4_26" x1="58.6" y1="65.8" x2="62.2" y2="69.4"/>
	<line class="floor4_26" x1="60.6" y1="72.1" x2="64.2" y2="75.8"/>
	<line class="floor4_26" x1="57.7" y1="75" x2="61.3" y2="78.6"/>
	<line class="floor4_26" x1="57" y1="75.7" x2="60.6" y2="79.3"/>
	<line class="floor4_26" x1="59.9" y1="72.8" x2="63.5" y2="76.5"/>
	<line class="floor4_26" x1="59.2" y1="73.5" x2="62.8" y2="77.2"/>
	<line class="floor4_26" x1="58.4" y1="74.3" x2="62" y2="77.9"/>
	<line class="floor4_26" x1="47.8" y1="76.5" x2="51.4" y2="80.1"/>
	<line class="floor4_26" x1="50.7" y1="73.6" x2="54.3" y2="77.2"/>
	<line class="floor4_26" x1="48.5" y1="75.7" x2="52.1" y2="79.4"/>
	<line class="floor4_26" x1="49.3" y1="75" x2="52.8" y2="78.6"/>
	<line class="floor4_26" x1="50" y1="74.3" x2="53.5" y2="77.9"/>
	<line class="floor4_26" x1="51.4" y1="72.9" x2="55" y2="76.5"/>
	<line class="floor4_26" x1="52.2" y1="72.2" x2="55.7" y2="75.8"/>
	<line class="floor4_26" x1="52.9" y1="71.5" x2="56.4" y2="75.1"/>
	<line class="floor4_26" x1="53.6" y1="70.7" x2="57.2" y2="74.3"/>
	<line class="floor4_26" x1="62.8" y1="70" x2="66.4" y2="73.6"/>
	<line class="floor4_26" x1="62.1" y1="70.7" x2="65.7" y2="74.3"/>
	<line class="floor4_26" x1="54.3" y1="70" x2="57.9" y2="73.6"/>
	<line class="floor4_26" x1="61.3" y1="71.4" x2="64.9" y2="75"/>
	<line class="floor4_27" x1="65.3" y1="85.7" x2="56.5" y2="76.3"/>
	<line class="floor4_27" x1="62" y1="82.3" x2="74.5" y2="69.7"/>
	<line class="floor4_27" x1="60.8" y1="91.5" x2="56.7" y2="87.3"/>
	<line class="floor4_27" x1="61.7" y1="89.8" x2="59.7" y2="91.7"/>
	<line class="floor4_27" x1="101.8" y1="150.3" x2="98.7" y2="153.8"/>
	<line class="floor4_27" x1="109.7" y1="160.5" x2="107.3" y2="162.8"/>
	<polyline class="floor4_27" points="107.3,161.5 135,189.5 164.8,159.5 	"/>
	<line class="floor4_27" x1="137.3" y1="133" x2="111.8" y2="158.7"/>
	<polyline class="floor4_27" points="114,156.8 104.3,147.3 116.3,136 122.2,142 	"/>
	<line class="floor4_27" x1="124.2" y1="144.2" x2="125.3" y2="145.3"/>
	<g>
		<g>
			<line class="floor4_3" x1="358.5" y1="162.5" x2="359.9" y2="165"/>
			<line class="floor4_3" x1="360.1" y1="162.9" x2="358.5" y2="162.5"/>
			<line class="floor4_3" x1="358" y1="164.1" x2="358.5" y2="162.5"/>
		</g>
		<g>
			<line class="floor4_3" x1="362.6" y1="163.6" x2="361.1" y2="161.1"/>
			<line class="floor4_3" x1="361" y1="163.2" x2="362.6" y2="163.6"/>
			<line class="floor4_3" x1="363" y1="161.9" x2="362.6" y2="163.6"/>
		</g>
	</g>
	<g id="THMOaa_3_">
		<g>
			<path class="floor4_13" d="M351.5,131c0.4,0.7,0.9,1.5,1.3,2.2c0.3,0.5,0.2,1-0.3,1.3c-1.5,0.9-3,1.7-4.4,2.6c-0.5,0.3-1,0.2-1.3-0.3
				c-0.9-1.5-1.8-3-2.6-4.5c-0.3-0.5-0.2-1,0.3-1.2c1.5-0.9,3-1.8,4.5-2.7c0.5-0.3,0.9-0.1,1.2,0.3
				C350.6,129.5,351.1,130.2,351.5,131L351.5,131z M351.4,131c-0.4-0.7-0.8-1.4-1.3-2.2c-0.3-0.5-0.7-0.6-1.2-0.3
				c-1.5,0.9-2.9,1.7-4.4,2.6c-0.5,0.3-0.6,0.6-0.3,1.1c0.9,1.5,1.7,2.9,2.6,4.4c0.3,0.5,0.6,0.6,1.1,0.3c1.5-0.9,2.9-1.7,4.4-2.6
				c0.5-0.3,0.6-0.7,0.3-1.2C352.2,132.5,351.8,131.8,351.4,131z"/>
			<path class="floor4_30" d="M351.4,131c0.4,0.7,0.9,1.5,1.3,2.2c0.3,0.5,0.2,0.9-0.3,1.2c-1.5,0.9-2.9,1.7-4.4,2.6
				c-0.5,0.3-0.9,0.2-1.1-0.3c-0.9-1.5-1.7-2.9-2.6-4.4c-0.3-0.5-0.2-0.8,0.3-1.1c1.5-0.9,2.9-1.7,4.4-2.6c0.5-0.3,0.9-0.2,1.2,0.3
				C350.5,129.6,351,130.3,351.4,131z M348.6,131.1C348.6,131.1,348.7,131.1,348.6,131.1c0.1,0.1,0.1,0.2,0,0.2
				c-0.2,0.2-0.4,0.4-0.5,0.6c-0.1,0.1-0.2,0.2-0.1,0.3c0.1,0.1,0.2,0,0.3-0.1c0.2-0.2,0.5-0.5,0.7-0.7c0.2-0.2,0.2-0.4,0.1-0.7
				c-0.1-0.2-0.2-0.4-0.4-0.6c-0.1-0.2-0.3-0.3-0.6-0.2c-0.3,0.1-0.6,0.1-1,0.2c-0.1,0-0.3,0.1-0.2,0.2c0,0.2,0.2,0.1,0.3,0.1
				c0.3-0.1,0.5-0.1,0.8-0.2c0.1,0,0.1,0,0.2,0c0,0,0,0,0,0.1c-0.6,0.2-1.1,0.3-1.7,0.5c0.1,0.1,0.1,0.3,0.2,0.4
				c-0.1,0.1-0.2,0.1-0.2,0.1c-0.3,0.2-0.6,0.4-0.9,0.6c-0.1,0-0.1,0.2-0.1,0.2c0,0,0.1,0.1,0.2,0.1c0.1,0,0.2-0.1,0.2-0.1
				c0.3-0.2,0.6-0.4,0.9-0.6c0,0,0,0,0.1,0.1c0,0.1-0.1,0.1-0.1,0.2c-0.3,0.2-0.7,0.4-1,0.6c-0.1,0.1-0.2,0.1-0.1,0.2
				c0.1,0.1,0.2,0.1,0.3,0.1c0.1-0.1,0.3-0.2,0.4-0.2c0.2-0.1,0.5-0.3,0.7-0.4c0.1,0.1,0.2,0.3,0.3,0.4
				C347.8,131.9,348.2,131.5,348.6,131.1z M349.2,135.1C349.2,135.1,349.2,135.1,349.2,135.1c0.4-0.2,0.8-0.5,1.2-0.7
				c0.1,0,0.1,0,0.2,0c0,0.1-0.1,0.1-0.1,0.2c-0.2,0.2-0.5,0.3-0.8,0.5c-0.1,0-0.1,0.2-0.1,0.2c0.1,0,0.2,0,0.2,0
				c0.3-0.2,0.7-0.4,1-0.6c0.2-0.1,0.3-0.4,0.2-0.6c-0.2-0.3-0.4-0.7-0.6-1c-0.1-0.2-0.4-0.3-0.6-0.1c-0.4,0.2-0.7,0.4-1,0.6
				c-0.1,0-0.1,0.1-0.1,0.2c0.1,0,0.2,0,0.2,0c0.1,0,0.2-0.1,0.2-0.1c0.2-0.1,0.4-0.2,0.6-0.3c0,0,0.1,0,0.2,0c0,0,0,0.1-0.1,0.1
				c0,0-0.1,0-0.1,0.1c-0.8,0.5-1.6,0.9-2.3,1.4c-0.1,0.1-0.3,0.2-0.2,0.3c0.1,0.2,0.3,0.1,0.4,0c0.4-0.2,0.8-0.5,1.2-0.7
				c0,0,0.1,0,0.1-0.1c0.1,0,0.1,0,0.2,0c0,0,0,0.1-0.1,0.1c0,0-0.1,0.1-0.1,0.1c-0.4,0.2-0.8,0.5-1.2,0.7c-0.1,0-0.1,0.2-0.1,0.3
				c0,0,0.1,0.1,0.2,0.1c0.1,0,0.1,0,0.2-0.1C348.4,135.6,348.8,135.3,349.2,135.1z M346.6,134.1c1.3-0.8,2.7-1.6,4-2.4
				c-0.1-0.1-0.1-0.2-0.2-0.3c-1.3,0.8-2.7,1.6-4,2.4C346.5,133.9,346.5,133.9,346.6,134.1C346.6,134,346.6,134.1,346.6,134.1z
				 M351.4,133.7c0.2-0.1,0.2-0.3,0.1-0.5c-0.1-0.2-0.3-0.3-0.5-0.2c-0.2,0.1-0.2,0.3-0.1,0.5C350.9,133.7,351.2,133.8,351.4,133.7z
				 M349.6,130c-0.1-0.2-0.3-0.2-0.5-0.1c-0.2,0.1-0.2,0.3-0.1,0.5c0.1,0.2,0.3,0.2,0.5,0.1C349.7,130.4,349.7,130.1,349.6,130z"/>
			<path class="floor4_13" d="M348.6,131.1c-0.4,0.4-0.8,0.8-1.2,1.3c-0.1-0.1-0.2-0.2-0.3-0.4c-0.3,0.1-0.5,0.3-0.7,0.4
				c-0.1,0.1-0.3,0.2-0.4,0.2c-0.1,0.1-0.2,0.1-0.3-0.1c-0.1-0.1,0-0.2,0.1-0.2c0.3-0.2,0.7-0.4,1-0.6c0.1,0,0.1-0.1,0.1-0.2
				c0,0,0,0-0.1-0.1c-0.3,0.2-0.6,0.4-0.9,0.6c-0.1,0-0.2,0.1-0.2,0.1c-0.1,0-0.2,0-0.2-0.1c0-0.1,0-0.2,0.1-0.2
				c0.3-0.2,0.6-0.4,0.9-0.6c0.1,0,0.1-0.1,0.2-0.1c-0.1-0.1-0.1-0.3-0.2-0.4c0.6-0.2,1.1-0.3,1.7-0.5c0,0,0,0,0-0.1
				c-0.1,0-0.1-0.1-0.2,0c-0.3,0.1-0.5,0.1-0.8,0.2c-0.1,0-0.2,0.1-0.3-0.1c0-0.2,0.1-0.2,0.2-0.2c0.3-0.1,0.6-0.2,1-0.2
				c0.3-0.1,0.4,0,0.6,0.2c0.1,0.2,0.2,0.4,0.4,0.6c0.1,0.2,0.1,0.5-0.1,0.7c-0.2,0.2-0.4,0.5-0.7,0.7c-0.1,0.1-0.2,0.2-0.3,0.1
				c-0.1-0.1,0-0.2,0.1-0.3c0.2-0.2,0.4-0.4,0.5-0.6C348.7,131.2,348.7,131.1,348.6,131.1C348.7,131.1,348.6,131.1,348.6,131.1z"/>
			<path class="floor4_13" d="M349.2,135.1c-0.4,0.2-0.8,0.5-1.2,0.7c-0.1,0-0.2,0.1-0.2,0.1c-0.1,0-0.2-0.1-0.2-0.1c0-0.1,0-0.2,0.1-0.3
				c0.4-0.3,0.8-0.5,1.2-0.7c0,0,0.1,0,0.1-0.1c0,0,0-0.1,0.1-0.1c-0.1,0-0.1,0-0.2,0c0,0-0.1,0-0.1,0.1c-0.4,0.2-0.8,0.5-1.2,0.7
				c-0.1,0.1-0.3,0.2-0.4,0c-0.1-0.2,0-0.3,0.2-0.3c0.8-0.5,1.6-0.9,2.3-1.4c0,0,0.1,0,0.1-0.1c0,0,0.1-0.1,0.1-0.1
				c-0.1,0-0.1,0-0.2,0c-0.2,0.1-0.4,0.2-0.6,0.3c-0.1,0-0.2,0.1-0.2,0.1c-0.1,0-0.2,0-0.2,0c0-0.1,0-0.2,0.1-0.2
				c0.3-0.2,0.7-0.4,1-0.6c0.2-0.1,0.5-0.1,0.6,0.1c0.2,0.3,0.4,0.6,0.6,1c0.1,0.2,0,0.5-0.2,0.6c-0.3,0.2-0.7,0.4-1,0.6
				c-0.1,0-0.2,0-0.2,0c0-0.1,0-0.2,0.1-0.2c0.2-0.2,0.5-0.3,0.8-0.5c0.1,0,0.1-0.1,0.1-0.2c-0.1,0-0.2,0-0.2,0
				C350,134.6,349.6,134.9,349.2,135.1C349.2,135.1,349.2,135.1,349.2,135.1z"/>
			<path class="floor4_13" d="M346.6,134.1C346.6,134.1,346.6,134,346.6,134.1c-0.1-0.1-0.1-0.2-0.2-0.3c1.3-0.8,2.7-1.6,4-2.4
				c0.1,0.1,0.1,0.2,0.2,0.3C349.3,132.5,348,133.3,346.6,134.1z"/>
			<path class="floor4_13" d="M351.4,133.7c-0.2,0.1-0.4,0-0.5-0.2c-0.1-0.2,0-0.4,0.1-0.5c0.2-0.1,0.4,0,0.5,0.2
				C351.6,133.4,351.5,133.6,351.4,133.7z"/>
			<path class="floor4_13" d="M349.6,130c0.1,0.2,0,0.4-0.1,0.5c-0.2,0.1-0.4,0-0.5-0.1c-0.1-0.2,0-0.4,0.1-0.5
				C349.3,129.7,349.5,129.8,349.6,130z"/>
		</g>
	</g>
	<g>
		<text transform="matrix(0.5029 0.8644 -0.8644 0.5029 337.3262 68.8096)" class="floor4_14 floor4_15">History Faculty Offices</text>
	</g>
	<g>
		<text transform="matrix(0.5029 0.8644 -0.8644 0.5029 342.0713 194.9688)"><tspan x="0" y="0" class="floor4_14 floor4_15">History </tspan><tspan x="0" y="8" class="floor4_14 floor4_15">Library</tspan></text>
	</g>
	<text transform="matrix(1 0 0 1 233.0005 181.834)" class="floor4_12 floor4_32">FLOOR 4</text>
</g>
<g id="data_layer">
	<g id="Rooms" class="floor4_6">
		<a id="R4213" xlink:href="#" >
			<g>
				<polygon class="floor4_20" points="324.5,141.9 326.7,145.7 328.4,144.8 329.5,146.7 327.9,147.7 329.9,151.2 344.1,143 338.7,133.7 
									"/>
			</g>
		</a>
		<a id="R4202" xlink:href="#" >
			<g>
				<polygon class="floor4_20" points="286.1,26.5 305.8,26.5 311.2,35.7 310.4,35.7 313,40.3 299.1,48.3 291.9,35.7 291.4,35.7 				"/>
			</g>
		</a>
		<a id="R4216" xlink:href="#" >
			<g>
				<polygon class="floor4_20" points="356.7,148 370.8,139.8 374.1,145.5 366.8,149.7 368.8,153.3 362,157.2 				"/>
			</g>
		</a>
		<a id="R4214" xlink:href="#" >
			<g>
				<polygon class="floor4_20" points="351.2,138.5 356.4,147.5 370.6,139.3 365.4,130.3 363.8,131.2 361,126.4 353.3,130.8 357.6,138.4 
					357.3,138.7 355.7,135.9 				"/>
			</g>
		</a>
		<a id="R4212" xlink:href="#" >
			<g>
				<polygon class="floor4_20" points="340.4,119.7 353.7,112.1 354.6,111.6 362.3,125.1 353,130.4 348.6,122.8 348.2,123 349.8,125.8 
					345.3,128.4 				"/>
			</g>
		</a>
		<a id="R4210" xlink:href="#" >
			<g>
				<polygon class="floor4_20" points="348.9,101.8 334.8,110 340.1,119.3 354.3,111.1 				"/>
			</g>
		</a>
		<a id="R4208" xlink:href="#" >
			<g>
				<polygon class="floor4_20" points="329.2,100.3 343.4,92.1 348.7,101.4 334.6,109.6 				"/>
			</g>
		</a>
		<a id="R4206" xlink:href="#" >
			<g>
				<polygon class="floor4_20" points="323.6,90.5 337.7,82.4 343.1,91.7 329,99.9 				"/>
			</g>
		</a>
		<a id="R4204" xlink:href="#" >
			<g>
				<polygon class="floor4_20" points="317.9,80.8 330.5,73.5 331.4,75.2 333.1,74.2 337.5,81.9 323.4,90.1 				"/>
			</g>
		</a>
		<a id="R4203" xlink:href="#" >
			<g>
				<polygon class="floor4_20" points="298.1,92.3 310.6,85 316,94.4 301.9,102.5 297.4,94.8 299,93.9 				"/>
			</g>
		</a>
		<a id="R4205" xlink:href="#" >
			<g>
				<polygon class="floor4_20" points="302.1,102.9 316.3,94.8 321.6,104.1 307.5,112.3 				"/>
			</g>
		</a>
		<a id="R4207" xlink:href="#" >
			<g>
				<polygon class="floor4_20" points="307.7,112.7 321.9,104.5 327.2,113.8 313.1,122 				"/>
			</g>
		</a>
		<a id="R4209" xlink:href="#" >
			<g>
				<polygon class="floor4_20" points="313.3,122.4 318.7,131.7 332.8,123.6 327.5,114.2 				"/>
			</g>
		</a>
		<a id="R4211" xlink:href="#" >
			<g>
				<polygon class="floor4_20" points="318.9,132.1 333.1,124 338.4,133.3 324.3,141.5 				"/>
			</g>
		</a>
		<a id="R4217_1_" xlink:href="#" >
			<g>
				<polygon class="floor4_20" points="353.7,192.5 367.7,184.4 370.2,188.8 377.9,184.1 375.5,179.9 389.4,171.9 391.3,175.4 
					389.8,176.3 390.9,178.3 392.5,177.3 400.3,190.8 364.6,211.3 356.9,197.9 358.5,197 357.3,195 355.7,196 				"/>
			</g>
		</a>
		<a id="R4215" xlink:href="#" >
			<g>
				<polygon class="floor4_20" points="330.1,151.6 332.2,155.1 346.4,147 344.3,143.4 				"/>
			</g>
		</a>
		<a id="R4202A" xlink:href="#" >
			<g>
				<polygon class="floor4_20" points="299.5,49 301.2,51.9 315.1,43.9 313.4,40.9 				"/>
			</g>
		</a>
	</g>
	<g id="Portals">
		<line id="Elev.1.floor5" class="floor4_5" x1="287.6" y1="46.4" x2="287.1" y2="49.2"/>
		<line id="Elev.1.floor3" class="floor4_5" x1="287.5" y1="46.4" x2="285.4" y2="48.6"/>
		<line id="Elev.1.floor2" class="floor4_5" x1="287.5" y1="46.4" x2="283.7" y2="48.1"/>
		<line id="Elev.1.floor1" class="floor4_5" x1="287.5" y1="46.4" x2="282.2" y2="47.1"/>
		<line id="Elev.1.floor0" class="floor4_5" x1="287.5" y1="46.4" x2="281.6" y2="45.4"/>
		<line id="Stair.2.floor5" class="floor4_5" x1="377.5" y1="160.4" x2="377.5" y2="157.4"/>
		<line id="Stair.2.floor3" class="floor4_5" x1="371.7" y1="164.9" x2="372.7" y2="162.1"/>
		<line id="Stair.2.floor2" class="floor4_5" x1="371.7" y1="164.9" x2="370.8" y2="160.4"/>
		<line id="Stair.2.floor1" class="floor4_5" x1="371.7" y1="164.9" x2="367.5" y2="160.5"/>
		<line id="Elev.2.floor3" class="floor4_5" x1="361.3" y1="165.8" x2="362.6" y2="162.8"/>
		<line id="Elev.2.floor2" class="floor4_5" x1="361.3" y1="165.8" x2="360.3" y2="161.7"/>
		<line id="Elev.2.floor1" class="floor4_5" x1="361.3" y1="165.8" x2="358.1" y2="161.7"/>
		<line id="Elev.2.floor0" class="floor4_5" x1="361.3" y1="165.8" x2="355.1" y2="161.9"/>
		<line id="Stair.6.floor3" class="floor4_5" x1="94" y1="183.6" x2="93.7" y2="188.5"/>
		<line id="Stair.6.floor2" class="floor4_5" x1="94" y1="183.6" x2="91.4" y2="189.6"/>
		<line id="Stair.6.floor1" class="floor4_5" x1="94" y1="183.6" x2="88.2" y2="190"/>
		<line id="Stair.6.floor0" class="floor4_5" x1="94" y1="183.6" x2="86.1" y2="188.8"/>
		<line id="Elev.6.floor3" class="floor4_5" x1="102.1" y1="193.4" x2="101.1" y2="195.4"/>
		<line id="Elev.6.floor2" class="floor4_5" x1="102.1" y1="193.4" x2="99" y2="195.4"/>
		<line id="Elev.6.floor1" class="floor4_5" x1="102.1" y1="193.4" x2="97.3" y2="194.4"/>
		<line id="Elev.6.floor0" class="floor4_5" x1="102.1" y1="193.4" x2="95.7" y2="192"/>
		<line id="Stair.7.floor3" class="floor4_5" x1="53.8" y1="77.3" x2="54.2" y2="74.8"/>
		<line id="Stair.7.floor2" class="floor4_5" x1="53.8" y1="77.3" x2="56.3" y2="74.2"/>
		<line id="Stair.7.floor1" class="floor4_5" x1="53.8" y1="77.3" x2="57.8" y2="74.2"/>
		<line id="Stair.1.floor5" class="floor4_5" x1="289.7" y1="53.5" x2="288.7" y2="56.3"/>
		<line id="Stair.1.floor3" class="floor4_5" x1="277.8" y1="39.5" x2="276.9" y2="38"/>
		<line id="Stair.1.floor2" class="floor4_5" x1="277.8" y1="39.5" x2="274.6" y2="40"/>
		<line id="Stair.1.floor1" class="floor4_5" x1="277.8" y1="39.5" x2="272.6" y2="41.4"/>
	</g>
	<g id="Doors">
		<line id="R4217" class="floor4_5" x1="373" y1="185.1" x2="379" y2="191.1"/>
		<line id="R4216_1_" class="floor4_5" x1="360.8" y1="154.4" x2="363.3" y2="148.4"/>
		<line id="R4214_1_" class="floor4_5" x1="353.7" y1="137.9" x2="358.1" y2="141.5"/>
		<line id="R4215_1_" class="floor4_5" x1="344.1" y1="146.1" x2="338.7" y2="148.5"/>
		<line id="R4213_1_" class="floor4_5" x1="338.4" y1="136.1" x2="335.9" y2="141.8"/>
		<line id="R4212_1_" class="floor4_5" x1="346.5" y1="125.2" x2="346.7" y2="120.2"/>
		<line id="R4211_1_" class="floor4_5" x1="335.9" y1="131.9" x2="327.5" y2="131.9"/>
		<line id="R4209_1_" class="floor4_5" x1="327.4" y1="116.8" x2="325" y2="121.3"/>
		<line id="R4210_1_" class="floor4_5" x1="337.4" y1="111.6" x2="343.6" y2="111.2"/>
		<line id="R4208_1_" class="floor4_5" x1="335.1" y1="106.8" x2="338.4" y2="101.1"/>
		<line id="R4207_1_" class="floor4_5" x1="324.8" y1="112.7" x2="317.4" y2="112.7"/>
		<line id="R4206_1_" class="floor4_5" x1="326.4" y1="91.3" x2="333.7" y2="91.6"/>
		<line id="R4205_1_" class="floor4_5" x1="315.8" y1="97.4" x2="312.7" y2="101.8"/>
		<line id="R4204_1_" class="floor4_5" x1="324.5" y1="87.8" x2="328.3" y2="81.8"/>
		<line id="R4203_1_" class="floor4_5" x1="313" y1="93" x2="305.4" y2="92.7"/>
		<line id="R4202_1_" class="floor4_5" x1="290.2" y1="29.8" x2="299.9" y2="33.7"/>
		<line id="R4202A_1_" class="floor4_5" x1="300.8" y1="46.6" x2="303.3" y2="48.4"/>
		<line id="R4101_1_" class="floor4_5" x1="65.6" y1="91.2" x2="72.8" y2="98.3"/>
		<line id="R4101A_1_" class="floor4_5" x1="123.4" y1="143" x2="116" y2="144.9"/>
		<line id="R4101_2_" class="floor4_5" x1="100" y1="145.3" x2="100" y2="133.4"/>
	</g>
	<g id="Paths">
		<line class="floor4_5" x1="94" y1="183.6" x2="107.8" y2="182.4"/>
		<line class="floor4_5" x1="107.8" y1="182.4" x2="108.2" y2="192"/>
		<line class="floor4_5" x1="108.2" y1="192" x2="102.1" y2="193.4"/>
		<line class="floor4_5" x1="107.8" y1="182.4" x2="105.2" y2="160.5"/>
		<line class="floor4_5" x1="105.2" y1="160.5" x2="108" y2="156.1"/>
		<line class="floor4_5" x1="108" y1="156.1" x2="103.1" y2="149.3"/>
		<line class="floor4_5" x1="103.1" y1="149.3" x2="100" y2="145.3"/>
		<line class="floor4_5" x1="100" y1="145.3" x2="115.8" y2="130"/>
		<line class="floor4_5" x1="115.8" y1="130" x2="126.7" y2="140.6"/>
		<line class="floor4_5" x1="126.7" y1="140.6" x2="123.4" y2="143"/>
		<line class="floor4_5" x1="100" y1="145.3" x2="78.2" y2="80.4"/>
		<line class="floor4_5" x1="115.8" y1="130" x2="55.4" y2="99.9"/>
		<polyline class="floor4_5" points="55.4,99.9 65.6,91.2 78.2,80.4 		"/>
		<line class="floor4_5" x1="100" y1="145.3" x2="55.4" y2="99.9"/>
		<line class="floor4_5" x1="115.8" y1="130" x2="77.3" y2="80.4"/>
		<line class="floor4_5" x1="65.6" y1="91.2" x2="59.9" y2="85.9"/>
		<line class="floor4_5" x1="59.9" y1="85.9" x2="57.4" y2="83.2"/>
		<line class="floor4_5" x1="57.4" y1="83.2" x2="52" y2="87.4"/>
		<line class="floor4_5" x1="52" y1="87.4" x2="48.2" y2="82.8"/>
		<line class="floor4_5" x1="48.2" y1="82.8" x2="53.8" y2="77.3"/>
		<line class="floor4_5" x1="288" y1="39.1" x2="277.8" y2="39.5"/>
		<line class="floor4_5" x1="288" y1="39.1" x2="285" y2="32.2"/>
		<line class="floor4_5" x1="285" y1="32.2" x2="290.2" y2="29.8"/>
		<line class="floor4_5" x1="290.2" y1="29.8" x2="300.8" y2="46.6"/>
		<line class="floor4_5" x1="288" y1="39.1" x2="291.2" y2="44.3"/>
		<line class="floor4_5" x1="291.2" y1="44.3" x2="287.6" y2="46.4"/>
		<line class="floor4_5" x1="291.2" y1="44.3" x2="294.8" y2="50.8"/>
		<line class="floor4_5" x1="294.8" y1="50.8" x2="289.7" y2="53.5"/>
		<line class="floor4_5" x1="294.8" y1="50.8" x2="316" y2="86.5"/>
		<line class="floor4_5" x1="316" y1="86.5" x2="318.6" y2="90.4"/>
		<line class="floor4_5" x1="318.6" y1="90.4" x2="324.1" y2="87.6"/>
		<line class="floor4_5" x1="318.6" y1="90.4" x2="313" y2="93"/>
		<line class="floor4_5" x1="318.6" y1="90.4" x2="321.2" y2="94.5"/>
		<line class="floor4_5" x1="321.2" y1="94.5" x2="326.4" y2="91.3"/>
		<line class="floor4_5" x1="321.2" y1="94.5" x2="315.8" y2="97.4"/>
		<line class="floor4_5" x1="321.2" y1="94.5" x2="329.7" y2="109.8"/>
		<line class="floor4_5" x1="329.7" y1="109.8" x2="335.1" y2="106.8"/>
		<line class="floor4_5" x1="329.7" y1="109.8" x2="324.8" y2="112.7"/>
		<line class="floor4_5" x1="329.7" y1="109.8" x2="332.2" y2="114.3"/>
		<line class="floor4_5" x1="332.2" y1="114.3" x2="337.4" y2="111.6"/>
		<line class="floor4_5" x1="332.2" y1="114.3" x2="327.4" y2="116.8"/>
		<line class="floor4_5" x1="332.2" y1="114.3" x2="340.6" y2="129.3"/>
		<line class="floor4_5" x1="340.6" y1="129.3" x2="335.9" y2="131.9"/>
		<line class="floor4_5" x1="340.6" y1="129.3" x2="343.1" y2="133.6"/>
		<line class="floor4_5" x1="343.1" y1="133.6" x2="338.4" y2="136.1"/>
		<line class="floor4_5" x1="343.1" y1="133.6" x2="344.3" y2="135.1"/>
		<line class="floor4_5" x1="344.3" y1="135.1" x2="350" y2="132"/>
		<line class="floor4_5" x1="350" y1="132" x2="346.5" y2="125.2"/>
		<line class="floor4_5" x1="350" y1="132" x2="353.7" y2="137.9"/>
		<line class="floor4_5" x1="344.3" y1="135.1" x2="348.6" y2="143.5"/>
		<line class="floor4_5" x1="348.6" y1="143.5" x2="344.1" y2="146.1"/>
		<polyline class="floor4_5" points="348.6,143.5 352.7,150.6 356.2,156.7 		"/>
		<line class="floor4_5" x1="356.2" y1="156.7" x2="360.8" y2="154.4"/>
		<line class="floor4_5" x1="352.7" y1="150.6" x2="347.8" y2="153"/>
		<line class="floor4_5" x1="347.8" y1="153" x2="344.1" y2="155.1"/>
		<line class="floor4_5" x1="344.1" y1="155.1" x2="356.4" y2="174.4"/>
		<line class="floor4_5" x1="356.4" y1="174.4" x2="363.8" y2="169.5"/>
		<line class="floor4_5" x1="363.8" y1="169.5" x2="361.3" y2="165.8"/>
		<line class="floor4_5" x1="363.8" y1="169.5" x2="369.6" y2="179.1"/>
		<line class="floor4_5" x1="369.6" y1="179.1" x2="373" y2="185.1"/>
		<line class="floor4_5" x1="369.6" y1="179.1" x2="377.6" y2="174.4"/>
		<line class="floor4_5" x1="377.6" y1="174.4" x2="371.7" y2="164.9"/>
		<line class="floor4_5" x1="377.6" y1="174.4" x2="383.5" y2="171.3"/>
		<line class="floor4_5" x1="383.5" y1="171.3" x2="377.5" y2="160.4"/>
	</g>
</g>
</svg>
