<?xml version="1.0" encoding="utf-8"?>

<!-- The icon can be used freely in both personal and commercial projects with no attribution required, but always appreciated. 
You may NOT sub-license, resell, rent, redistribute or otherwise transfer the icon without express written permission from iconmonstr.com -->

<!DOCTYPE svg PUBLIC "-//W3C//DTD SVG 1.1//EN" "http://www.w3.org/Graphics/SVG/1.1/DTD/svg11.dtd">
<svg version="1.1" xmlns="http://www.w3.org/2000/svg" xmlns:xlink="http://www.w3.org/1999/xlink" x="0px" y="0px"
	 width="512px" height="512px" viewBox="0 0 512 512" enable-background="new 0 0 512 512" xml:space="preserve">
<path id="location-17-icon" d="M367.988,161.988C367.988,100.14,317.851,50,256,50c-61.849,0-111.988,50.14-111.988,111.988
	S193.024,295.716,256,403.556C318.978,295.716,367.988,223.837,367.988,161.988z M215.838,159.271
	c0-22.181,17.981-40.161,40.162-40.161s40.162,17.98,40.162,40.161c0,22.18-17.981,40.16-40.162,40.16
	S215.838,181.45,215.838,159.271z M394.438,327.556h-58.785c-5.603,9.687-11.48,19.67-17.601,30h57.887l13.346,26.557h-86.997
	c-2.925,4.93-5.887,9.929-8.881,15h37.441L344.457,432h-166.1l14.292-32.888h25.944c-2.994-5.071-5.956-10.07-8.882-15h-53.636
	l-10.784-26.557h48.655c-6.119-10.33-11.996-20.313-17.6-30h-58.785L50,462h412L394.438,327.556z M162.002,432H98.651l33.562-66.785
	l13.766,33.897h30.314L162.002,432z M347.08,399.112h49.741L413.349,432h-52.659L347.08,399.112z"/>
</svg>
