<?xml version="1.0" encoding="utf-8"?>

<!-- License Agreement at http://iconmonstr.com/license/ -->

<!DOCTYPE svg PUBLIC "-//W3C//DTD SVG 1.1//EN" "http://www.w3.org/Graphics/SVG/1.1/DTD/svg11.dtd">
<svg version="1.1" xmlns="http://www.w3.org/2000/svg" xmlns:xlink="http://www.w3.org/1999/xlink" x="0px" y="0px"
	 width="512px" height="512px" viewBox="0 0 512 512" enable-background="new 0 0 512 512" xml:space="preserve">
<path id="cursor-pointer-icon" d="M179.997,83.572V272.42c-15.98-17.393-43.605-38.143-70.619-36.524
	c-32.408,1.941-38.563,36.646-10.562,62.864c47.141,44.139,94.575,109.268,105.167,163.24c0,0,140.646,0,184.41,0
	c0-108.793,35.16-131.914,41.555-188.706c4.786-42.488-6.636-75.721-41.023-80.612l4.742,13.429
	c1.827,6.01-1.573,12.363-7.588,14.185c-6.018,1.82-12.371-1.575-14.188-7.594l-4.521-12.506
	c-4.734-15.642-19.271-17.712-40.844-20.582l5.641,16.599c1.827,6.016-1.581,12.369-7.598,14.194
	c-6.01,1.813-12.363-1.582-14.183-7.597l-4.083-12.843c-4.896-16.162-18.077-17.917-41.978-21.556l5.349,17.832
	c5.002,16.528-26.534,24.509-26.534-21.546V83.572C243.141,65.03,230.11,50,211.569,50S179.997,65.03,179.997,83.572z"/>
</svg>
