<?xml version="1.0" encoding="utf-8"?>
<svg viewBox="0 0 643 343" version="1.1" xmlns="http://www.w3.org/2000/svg" xmlns:xlink="http://www.w3.org/1999/xlink" >
  <g id="data_layer" opacity="1.0">
    <g id="Rooms">
  		<a id="R5207" xlink:href="#" >
  			<g>
  				<polygon class="floor5_23" points="328.1,120.4 330.4,119.1 327.5,114.1 313.3,122.2 318.7,131.6 330.6,124.7 				"/>
  			</g>
  		</a>
  		<a id="R5201" xlink:href="#" >
  			<g>
  				<polygon class="floor5_23" points="297.4,94.7 301.9,102.4 316,94.2 310.6,84.9 298.1,92.2 299,93.8 				"/>
  			</g>
  		</a>
  		<a id="R5202" xlink:href="#" >
  			<g>
  				<polygon class="floor5_23" points="317.9,80.7 323.4,90.1 337.6,81.9 333.1,74.1 331.5,75 330.6,73.4 				"/>
  			</g>
  		</a>
  		<a id="R5203" xlink:href="#" >
  			<g>
  				<polygon class="floor5_23" points="302.1,102.8 307.5,112.2 321.7,104 316.3,94.6 				"/>
  			</g>
  		</a>
  		<a id="R5204" xlink:href="#" >
  			<g>
  				<polygon class="floor5_23" points="323.6,90.5 329,99.9 343.2,91.7 337.8,82.3 				"/>
  			</g>
  		</a>
  		<a id="R5205" xlink:href="#" >
  			<g>
  				<polygon class="floor5_23" points="307.8,112.6 313.1,121.8 327.3,113.7 321.9,104.5 				"/>
  			</g>
  		</a>
  		<a id="R5206" xlink:href="#" >
  			<g>
  				<polygon class="floor5_23" points="329.2,100.3 334.6,109.5 348.8,101.4 343.5,92.1 				"/>
  			</g>
  		</a>
  		<a id="R5208" xlink:href="#" >
  			<g>
  				<polygon class="floor5_23" points="334.8,109.9 340.2,119.2 354.4,111 349.1,101.8 				"/>
  			</g>
  		</a>
  		<a id="R5209" xlink:href="#" >
  			<g>

  					<rect x="324.5" y="124.8" transform="matrix(-0.5001 -0.866 0.866 -0.5001 379.8927 483.3238)" class="floor5_23" width="10" height="14.5"/>
  			</g>
  		</a>
  		<a id="R5210" xlink:href="#" >
  			<g>

  					<rect x="344.4" y="113.2" transform="matrix(-0.4999 -0.8661 0.8661 -0.4999 419.6329 483.3431)" class="floor5_23" width="10" height="14.6"/>
  			</g>
  		</a>
  		<a id="R5211" xlink:href="#" >
  			<g>

  					<rect x="329.1" y="134.7" transform="matrix(-0.5 -0.866 0.866 -0.5 379.8964 503.1827)" class="floor5_23" width="12.2" height="14.5"/>
  			</g>
  		</a>
  		<a id="R5214" xlink:href="#" >
  			<g>

  					<rect x="344.1" y="132.2" transform="matrix(-0.5 -0.866 0.866 -0.5 419.6266 521.1775)" class="floor5_23" width="32.2" height="14.6"/>
  			</g>
  		</a>
  		<a id="R5213" xlink:href="#" >
  			<g>

  					<rect x="336.1" y="146.2" transform="matrix(-0.866 0.5 -0.5 -0.866 718.6351 119.3947)" class="floor5_23" width="14.5" height="19.5"/>
  			</g>
  		</a>
  		<a id="R5215" xlink:href="#" >
  			<g>

  					<rect x="345.6" y="162.3" transform="matrix(-0.5002 -0.8659 0.8659 -0.5002 379.9425 558.4512)" class="floor5_23" width="11.1" height="14.5"/>
  			</g>
  		</a>
  		<a id="R5000" xlink:href="#" >
  			<g>
  				<polygon class="floor5_23" points="313.4,88.8 319.9,85.1 362,157.9 363.3,157.1 365.1,160.3 357.3,164.8 				"/>
  			</g>
  		</a>
  	</g> <!-- End Rooms -->

    <g id="Portals">
  		<line id="Stair.1.floor4" class="floor5_5" x1="275.2" y1="38.9" x2="272" y2="41.1"/>
  		<line id="Stair.1.floor3" class="floor5_5" x1="275.2" y1="38.9" x2="269.4" y2="39.3"/>
  		<line id="Stair.1.floor2" class="floor5_5" x1="275.2" y1="38.9" x2="267.2" y2="37.5"/>
  		<line id="Stair.1.floor1" class="floor5_5" x1="275.2" y1="38.9" x2="266.5" y2="34.8"/>
  		<line id="Elev.1.floor4" class="floor5_5" x1="287.6" y1="46.2" x2="284.2" y2="45.5"/>
  		<line id="Elev.1.floor3" class="floor5_5" x1="287.6" y1="46.2" x2="282.5" y2="47.8"/>
  		<line id="Elev.1.floor2" class="floor5_5" x1="287.6" y1="46.2" x2="282" y2="50.8"/>
  		<line id="Elev.1.floor1" class="floor5_5" x1="287.6" y1="46.2" x2="281.6" y2="54.3"/>
  		<line id="Elev.1.floor0" class="floor5_5" x1="287.6" y1="46.2" x2="283" y2="57.5"/>
  		<line id="Stair.2.floor4" class="floor5_5" x1="376.4" y1="166.1" x2="378.9" y2="163.7"/>
  		<line id="Stair.2.floor3" class="floor5_5" x1="376.4" y1="166.1" x2="375.8" y2="160.4"/>
  		<line id="Stair.2.floor2" class="floor5_5" x1="376.4" y1="166.1" x2="370.9" y2="159.1"/>
  		<line id="Stair.2.floor1" class="floor5_5" x1="376.4" y1="166.1" x2="366.7" y2="159.6"/>
  	</g> <!-- End Portals -->

    <g id="Doors">
  		<line id="R5202_1_" class="floor5_5" x1="324" y1="86.1" x2="327.2" y2="81.8"/>
  		<line id="R5201_1_" class="floor5_5" x1="312.3" y1="92.4" x2="307.1" y2="92.1"/>
  		<line id="R5204_1_" class="floor5_5" x1="327.3" y1="94.3" x2="332.8" y2="90.1"/>
  		<line id="R5203_1_" class="floor5_5" x1="316.5" y1="100.4" x2="311.4" y2="100.4"/>
  		<line id="R5205_1_" class="floor5_5" x1="323.1" y1="108.7" x2="316.4" y2="109.7"/>
  		<line id="R5206_1_" class="floor5_5" x1="332.8" y1="103.8" x2="337.6" y2="100.2"/>
  		<line id="R5207_1_" class="floor5_5" x1="327.2" y1="117.1" x2="324" y2="121.8"/>
  		<line id="R5208_1_" class="floor5_5" x1="337" y1="112.2" x2="344.5" y2="110.3"/>
  		<line id="R5209_1_" class="floor5_5" x1="334.7" y1="129.2" x2="329.4" y2="129.2"/>
  		<line id="R5210_1_" class="floor5_5" x1="344.5" y1="124" x2="348.8" y2="118.7"/>
  		<line id="R5211_1_" class="floor5_5" x1="339" y1="138.7" x2="335.5" y2="144"/>
  		<line id="R5214_1_" class="floor5_5" x1="348.8" y1="132.2" x2="358.8" y2="131"/>
  		<line id="R5214_2_" class="floor5_5" x1="360.9" y1="153.2" x2="363.5" y2="143.7"/>
  		<line id="R5215_1_" class="floor5_5" x1="353.3" y1="163.7" x2="352.1" y2="168.6"/>
  	</g> <!-- End Doors -->

    <g id="Paths">
  		<line class="floor5_5" x1="289" y1="38.9" x2="275.2" y2="38.9"/>
  		<line class="floor5_5" x1="289" y1="38.9" x2="291.4" y2="43.3"/>
  		<line class="floor5_5" x1="291.4" y1="43.3" x2="287.6" y2="46.2"/>
  		<line class="floor5_5" x1="291.4" y1="43.3" x2="316" y2="84.7"/>
  		<line class="floor5_5" x1="316" y1="84.7" x2="318.3" y2="89.6"/>
  		<line class="floor5_5" x1="318.3" y1="89.6" x2="324" y2="86.1"/>
  		<line class="floor5_5" x1="318.3" y1="89.6" x2="312.3" y2="92.4"/>
  		<line class="floor5_5" x1="318.3" y1="89.6" x2="323.1" y2="96.7"/>
  		<line class="floor5_5" x1="323.1" y1="96.7" x2="327.3" y2="94.3"/>
  		<line class="floor5_5" x1="323.1" y1="96.7" x2="316.5" y2="100.4"/>
  		<line class="floor5_5" x1="323.1" y1="96.7" x2="327.7" y2="106.1"/>
  		<line class="floor5_5" x1="327.7" y1="106.1" x2="332.8" y2="103.8"/>
  		<line class="floor5_5" x1="327.7" y1="106.1" x2="323.1" y2="108.7"/>
  		<line class="floor5_5" x1="327.7" y1="106.1" x2="332.8" y2="114.5"/>
  		<line class="floor5_5" x1="332.8" y1="114.5" x2="337" y2="112.2"/>
  		<line class="floor5_5" x1="332.8" y1="114.5" x2="327.2" y2="117.1"/>
  		<line class="floor5_5" x1="332.8" y1="114.5" x2="339.3" y2="126.6"/>
  		<line class="floor5_5" x1="339.3" y1="126.6" x2="344.5" y2="124"/>
  		<line class="floor5_5" x1="339.3" y1="126.6" x2="334.7" y2="129.2"/>
  		<line class="floor5_5" x1="339.3" y1="126.6" x2="344.5" y2="134.8"/>
  		<line class="floor5_5" x1="344.5" y1="134.8" x2="348.8" y2="132.2"/>
  		<line class="floor5_5" x1="344.5" y1="134.8" x2="339" y2="138.7"/>
  		<line class="floor5_5" x1="344.5" y1="134.8" x2="356.8" y2="156.3"/>
  		<line class="floor5_5" x1="356.8" y1="156.3" x2="360.9" y2="153.2"/>
  		<line class="floor5_5" x1="356.8" y1="156.3" x2="358.8" y2="159.9"/>
  		<line class="floor5_5" x1="358.8" y1="159.9" x2="353.3" y2="163.7"/>
  		<line class="floor5_5" x1="358.8" y1="159.9" x2="363" y2="166.9"/>
  		<line class="floor5_5" x1="363" y1="166.9" x2="370.4" y2="180.2"/>
  		<line class="floor5_5" x1="370.4" y1="180.2" x2="380.9" y2="173.8"/>
  		<line class="floor5_5" x1="380.9" y1="173.8" x2="376.4" y2="166.1"/>
  		<line class="floor5_5" x1="360.9" y1="153.2" x2="348.8" y2="132.2"/>
  	</g> <!-- End Paths -->
  </g> <!-- End Data Layer -->

</svg>
