<?xml version="1.0" encoding="utf-8"?>
<svg viewBox="0 0 643 343" version="1.1" xmlns="http://www.w3.org/2000/svg" xmlns:xlink="http://www.w3.org/1999/xlink">

<g id="data_layer" opacity="1.0">
  <g id="Rooms" opacity="0.25">
		<a id="R3213" xlink:href="#" >
			<g>
				<polygon fill="#FFFF00" points="331.9414,151.957 346.0596,143.7891 348.1357,147.3589 333.9727,155.5039 				"/>
			</g>
		</a>
		<a id="R3002" xlink:href="#" >
			<g>
				<polygon fill="#FFFF00" points="188.0479,206.5869 182.8652,211.5996 62.71,91.5391 67.9839,86.2661 120.8408,139.0981
					125.1582,134.8281 133.0449,142.7148 128.7749,146.9858 				"/>
			</g>
		</a>
		<a id="R3130" xlink:href="#" >
			<g>
				<polygon fill="#FFFF00" points="191.8301,209.4111 202.0981,199.1191 200.7212,197.7422 202.0049,196.4824 195.7739,190.2754
					184.2461,201.8018 				"/>
			</g>
		</a>
		<a id="R3128" xlink:href="#" >
			<g>

					<rect x="177.7327" y="186.5833" transform="matrix(0.7071 -0.7071 0.7071 0.7071 -81.2819 187.6609)" fill="#FFFF00" width="16.3035" height="10.725"/>
			</g>
		</a>
		<a id="R3126" xlink:href="#" >
			<g>

					<rect x="169.8283" y="178.5884" transform="matrix(0.7071 -0.7071 0.7071 0.7071 -77.9569 179.7433)" fill="#FFFF00" width="16.3014" height="10.7606"/>
			</g>
		</a>
		<a id="R3124" xlink:href="#" >
			<g>
				<polygon fill="#FFFF00" points="160.4888,178.0469 172.0181,166.52 178.0439,172.5342 176.7778,173.7988 178.3408,175.3633
					168.0742,185.6309 				"/>
			</g>
		</a>
		<a id="R3122" xlink:href="#" >
			<g>
				<polygon fill="#FFFF00" points="164.106,158.6069 171.6899,166.1909 160.1631,177.7207 152.5552,170.1348 				"/>
			</g>
		</a>
		<a id="R3120" xlink:href="#" >
			<g>
				<polygon fill="#FFFF00" points="144.646,162.2451 156.1729,150.6738 163.77,158.2681 152.209,169.8052 				"/>
			</g>
		</a>
		<a id="R3118" xlink:href="#" >
			<g>
				<polygon fill="#FFFF00" points="139.9551,157.5552 147.561,150.02 151.832,154.29 144.2939,161.8979 				"/>
			</g>
		</a>
		<a id="R3116" xlink:href="#" >
			<g>
				<polygon fill="#FFFF00" points="129.4048,147.0088 133.3721,143.042 137.8989,147.5679 138.25,147.2187 132.1348,141.105
					139.3911,133.8691 149.7998,144.2788 144.7139,149.459 146.0908,150.8589 139.6958,157.2769 				"/>
			</g>
		</a>
		<a id="R3114" xlink:href="#" >
			<g>
				<polygon fill="#FFFF00" points="121.6108,126.355 122.9639,127.71 128.0981,122.5762 139.0552,133.5332 131.8091,140.7769
					124.3882,133.3569 124.0381,133.708 124.8311,134.501 120.8169,138.5161 115.146,132.8198 				"/>
			</g>
		</a>
		<a id="R3112" xlink:href="#" >
			<g>
				<polygon fill="#FFFF00" points="107.2119,124.8398 118.811,113.2422 121.7969,116.2749 120.5371,117.5591 122.124,119.1689
					123.3882,117.8892 126.3252,120.8501 114.75,132.4238 				"/>
			</g>
		</a>
		<a id="R3110" xlink:href="#" >
			<g>
				<polygon fill="#FFFF00" points="99.3481,116.9038 110.8882,105.3652 118.4248,112.9019 106.8618,124.4902 				"/>
			</g>
		</a>
		<a id="R3108" xlink:href="#" >
			<g>
				<polygon fill="#FFFF00" points="91.4141,109.0181 102.9419,97.4189 110.561,105.0391 99.021,116.5791 				"/>
			</g>
		</a>
		<a id="R3106" xlink:href="#" >
			<g>
				<polygon fill="#FFFF00" points="93.771,90.7451 94.6572,91.6802 95.894,90.4409 102.6382,97.1162 91.0659,108.688
					83.4561,101.0371 				"/>
			</g>
		</a>
		<a id="R3104" xlink:href="#" >
			<g>
				<polygon fill="#FFFF00" points="75.6021,93.186 87.1431,81.645 94.3311,88.832 93.0698,90.0918 93.4902,90.4893
					83.1758,100.7559 				"/>
			</g>
		</a>
		<a id="R3102" xlink:href="#" >
			<g>
				<polygon fill="#FFFF00" points="78.8579,73.3359 67.3159,84.8789 75.252,92.835 86.793,81.2939 				"/>
			</g>
		</a>
		<a id="R3101" xlink:href="#" >
			<g>
				<polygon fill="#FFFF00" points="47.6582,100.2432 59.186,88.7378 69.2998,98.833 57.7861,110.3711 				"/>
			</g>
		</a>
		<a id="R3103" xlink:href="#" >
			<g>
				<polygon fill="#FFFF00" points="69.627,99.1602 58.1118,110.6738 65.2998,117.8608 66.6768,116.5088 67.0269,116.835
					77.1948,106.7139 				"/>
			</g>
		</a>
		<a id="R3105" xlink:href="#" >
			<g>
				<polygon fill="#FFFF00" points="77.499,107.0181 67.354,117.1621 68.2642,118.0723 66.8872,119.4731 73.6079,126.1929
					85.1372,114.6411 				"/>
			</g>
		</a>
		<a id="R3107" xlink:href="#" >
			<g>
				<polygon fill="#FFFF00" points="85.4639,114.9668 73.958,126.52 81.519,134.0811 93.0552,122.5439 				"/>
			</g>
		</a>
		<a id="R3109" xlink:href="#" >
			<g>
				<polygon fill="#FFFF00" points="100.9502,130.4248 89.4092,141.9902 81.8462,134.4082 93.3818,122.8711 				"/>
			</g>
		</a>
		<a id="R3111" xlink:href="#" >
			<g>
				<polygon fill="#FFFF00" points="101.2891,130.7642 89.7358,142.3159 92.7632,145.3389 94.1509,143.9512 95.7378,145.5381
					94.3511,146.9258 97.605,150.1748 109.1719,138.6309 				"/>
			</g>
		</a>
		<a id="R3115" xlink:href="#" >
			<g>
				<polygon fill="#FFFF00" points="128.915,158.4209 117.3638,169.9258 118.6938,171.2559 130.2231,159.7271 				"/>
			</g>
		</a>
		<a id="R3117" xlink:href="#" >
			<g>
				<polygon fill="#FFFF00" points="130.5488,160.0552 119.021,171.583 120.7461,173.2842 122.123,171.9072 123.709,173.4941
					122.333,174.8945 126.792,179.377 138.3701,167.8682 				"/>
			</g>
		</a>
		<a id="R3119" xlink:href="#" >
			<g>
				<polygon fill="#FFFF00" points="138.6968,168.1948 127.1421,179.7246 134.7261,187.3125 146.2612,175.752 				"/>
			</g>
		</a>
		<a id="R3121" xlink:href="#" >
			<g>
				<polygon fill="#FFFF00" points="154.1748,183.6602 146.5879,176.0791 135.0532,187.6357 142.6602,195.2207 				"/>
			</g>
		</a>
		<a id="R3123" xlink:href="#" >
			<g>
				<polygon fill="#FFFF00" points="142.9868,195.5488 154.5249,184.0098 162.1362,191.6152 151.9712,201.7793 150.3848,200.1934
					149.0078,201.5684 				"/>
			</g>
		</a>
		<a id="R3125" xlink:href="#" >
			<g>
				<polygon fill="#FFFF00" points="170.0498,199.5215 158.5049,211.0664 150.8979,203.46 162.4629,191.9414 				"/>
			</g>
		</a>
		<a id="R3127" xlink:href="#" >
			<g>

					<rect x="160.2357" y="204.0326" transform="matrix(-0.7071 0.7071 -0.7071 -0.7071 435.5384 238.3832)" fill="#FFFF00" width="16.3255" height="10.724"/>
			</g>
		</a>
		<a id="R3129" xlink:href="#" >
			<g>
				<polygon fill="#FFFF00" points="185.9019,215.3613 178.292,207.7568 166.7441,219.3291 172.9512,225.5361 174.3281,224.1592
					175.728,225.5361 				"/>
			</g>
		</a>
		<a id="R3131" xlink:href="#" >
			<g>
				<polygon fill="#FFFF00" points="202.8452,255.4072 214.396,243.8555 217.8501,247.3066 223.7529,241.3574 220.3242,237.9268
					231.8779,226.3799 243.541,238.041 242.2832,239.2812 244.291,241.3125 245.5498,240.0518 249.4102,243.8926 220.3628,272.9395
					216.5889,269.1523 217.9658,267.7754 215.8901,265.7207 214.4771,267.1074 				"/>
			</g>
		</a>
		<a id="R3131A" xlink:href="#" >
			<g>
				<polygon fill="#FFFF00" points="220.689,273.2656 227.0679,266.8867 234.9771,274.7969 228.585,281.1934 				"/>
			</g>
		</a>
		<a id="R3131B" xlink:href="#" >
			<g>
				<polygon fill="#FFFF00" points="244.6641,249.293 252.5649,257.1934 235.3032,274.4687 227.395,266.5625 				"/>
			</g>
		</a>
		<a id="R3131C" xlink:href="#" >
			<g>
				<polygon fill="#FFFF00" points="249.7241,244.209 244.9902,248.9658 252.8921,256.8672 257.6392,252.1162 				"/>
			</g>
		</a>
		<a id="R3000" xlink:href="#" >
			<g>
				<polygon fill="#FFFF00" points="363.376,157.7681 356.7715,161.5962 315.2793,89.5322 321.6973,85.8198 346.9229,129.4819
					351.8467,126.6602 357.167,135.9238 352.291,138.7251 				"/>
			</g>
		</a>
		<a id="R3211" xlink:href="#" >
			<g>
				<polygon fill="#FFFF00" points="326.332,142.2642 340.4824,134.104 345.8486,143.3931 331.708,151.561 329.6689,147.9712
					331.2656,147.0332 330.1445,145.1431 328.5586,146.0762 				"/>
			</g>
		</a>
		<a id="R3209" xlink:href="#" >
			<g>
				<polygon fill="#FFFF00" points="320.7285,132.5571 334.8818,124.396 340.25,133.6841 326.0908,141.8481 				"/>
			</g>
		</a>
		<a id="R3207" xlink:href="#" >
			<g>
				<polygon fill="#FFFF00" points="315.1396,122.855 329.2813,114.688 334.6484,124 320.5068,132.167 				"/>
			</g>
		</a>
		<a id="R3205" xlink:href="#" >
			<g>
				<polygon fill="#FFFF00" points="309.5391,113.1479 323.6816,104.98 329.0479,114.292 314.9063,122.459 				"/>
			</g>
		</a>
		<a id="R3203" xlink:href="#" >
			<g>

					<rect x="308.2659" y="95.83" transform="matrix(0.5003 0.8659 -0.8659 0.5003 246.767 -219.5904)" fill="#FFFF00" width="10.7299" height="16.3347"/>
			</g>
		</a>
		<a id="R3201" xlink:href="#" >
			<g>
				<polygon fill="#FFFF00" points="299.9702,92.752 300.8569,94.292 299.2012,95.249 303.71,103.063 317.8467,94.8979
					312.4775,85.541 				"/>
			</g>
		</a>
		<a id="R3202" xlink:href="#" >
			<g>
				<polygon fill="#FFFF00" points="319.7588,81.3408 332.3164,74.0859 333.2031,75.623 334.7422,74.7129 339.25,82.52
					325.1484,90.688 				"/>
			</g>
		</a>
		<a id="R3204" xlink:href="#" >
			<g>
				<polygon fill="#FFFF00" points="344.8525,92.2251 330.7461,100.396 325.3779,91.085 339.4902,82.936 				"/>
			</g>
		</a>
		<a id="R3206" xlink:href="#" >
			<g>
				<polygon fill="#FFFF00" points="330.9619,100.8027 345.0947,92.6411 350.4697,101.9229 336.3301,110.0908 				"/>
			</g>
		</a>
		<a id="R3208" xlink:href="#" >
			<g>
				<polygon fill="#FFFF00" points="356.0625,111.6348 341.9248,119.792 336.5625,110.4878 350.6807,102.3198 				"/>
			</g>
		</a>
		<a id="R3210" xlink:href="#" >
			<g>
				<polygon fill="#FFFF00" points="351.5684,126.2168 347.1113,128.854 343.2139,122.1108 347.5068,119.6108 346.4326,117.77
					356.2813,112.0752 364.0439,125.4551 354.8125,130.855 350.4004,123.229 350.0029,123.4629 				"/>
			</g>
		</a>
		<a id="R3212" xlink:href="#" >
			<g>
				<polygon fill="#FFFF00" points="352.9678,138.8892 356.4922,144.9561 358.1953,143.9521 359.875,146.8691 372.2939,139.729
					367.0664,130.6948 365.5,131.584 362.7217,126.7998 355.0518,131.271 359.4082,138.8418 359.0107,139.0752 357.4248,136.3198
									"/>
			</g>
		</a>
		<a id="R3214" xlink:href="#" >
			<g>
				<polygon fill="#FFFF00" points="372.5596,140.248 358.4287,148.3628 363.7256,157.5811 370.5166,153.6128 368.5332,150.1348
					375.8125,145.9038 				"/>
			</g>
		</a>
		<a id="R3001" xlink:href="#" >
			<g>
				<polygon fill="#FFFF00" points="436.8389,274.8691 439.6846,279.957 424.376,288.7773 421.4375,283.7363 425.8936,281.1699
					372.2666,188.2207 378.7324,184.4863 420.9229,257.5771 423.0518,256.3711 426.3408,262.1875 428.0029,265.0762
					425.9863,266.2441 426.5908,267.3857 432.3818,277.4375 				"/>
			</g>
		</a>
		<a id="R3234" xlink:href="#" >
			<g>
				<polygon fill="#FFFF00" points="426.8984,267.0049 432.5439,276.7832 446.6875,268.5918 441.0518,258.8203 				"/>
			</g>
		</a>
		<a id="R3228" xlink:href="#" >
			<g>
				<polygon fill="#FFFF00" points="408.9287,235.8271 421.4844,228.5703 422.3711,230.1094 423.957,229.2002 428.041,236.2715
					413.8965,244.4297 				"/>
			</g>
		</a>
		<a id="R3226" xlink:href="#" >
			<g>
				<polygon fill="#FFFF00" points="403.3281,226.1406 417.4473,217.9521 422.8369,227.2607 408.6953,235.4297 				"/>
			</g>
		</a>
		<a id="R3224" xlink:href="#" >
			<g>
				<polygon fill="#FFFF00" points="397.7031,216.4121 411.8818,208.2832 417.2119,217.5527 403.0947,225.7207 				"/>
			</g>
		</a>
		<a id="R3222" xlink:href="#" >
			<g>
				<polygon fill="#FFFF00" points="391.8242,206.167 404.332,198.8613 405.2891,200.5176 406.875,199.6094 411.6377,207.8613
					397.4697,216.0137 				"/>
			</g>
		</a>
		<a id="R3220" xlink:href="#" >
			<g>
				<polygon fill="#FFFF00" points="386.082,196.249 400.2012,188.0508 405.6846,197.5547 391.5664,205.7715 				"/>
			</g>
		</a>
		<a id="R3218" xlink:href="#" >
			<g>
				<polygon fill="#FFFF00" points="382.5107,190.0879 389.4229,186.1016 392.6826,191.8799 385.873,195.8291 				"/>
			</g>
		</a>
		<a id="R3216" xlink:href="#" >
			<g>
				<polygon fill="#FFFF00" points="376.7715,180.1465 390.8896,171.98 392.9658,175.6201 391.4492,176.5059 392.5459,178.4434
					394.1318,177.5332 396.4189,181.4961 382.2793,189.6914 				"/>
			</g>
		</a>
		<a id="R3217" xlink:href="#" >
			<g>
				<polygon fill="#FFFF00" points="355.3467,192.5137 369.4902,184.3457 374.8574,193.6348 360.7158,201.8018 358.5684,198.0684
					360.2256,197.1113 359.1055,195.1758 357.4248,196.1328 				"/>
			</g>
		</a>
		<a id="R3219" xlink:href="#" >
			<g>
				<polygon fill="#FFFF00" points="360.9492,202.2002 375.0908,194.0322 380.458,203.3437 366.3076,211.502 				"/>
			</g>
		</a>
		<a id="R3221" xlink:href="#" >
			<g>
				<polygon fill="#FFFF00" points="366.5498,211.9082 380.6914,203.7402 386.0576,213.0273 373.5742,220.2393 371.7998,217.1582
					370.1211,218.1152 				"/>
			</g>
		</a>
		<a id="R3223" xlink:href="#" >
			<g>

					<rect x="373.7336" y="216.7796" transform="matrix(0.866 -0.5001 0.5001 0.866 -59.9075 220.7755)" fill="#FFFF00" width="16.3297" height="10.7288"/>
			</g>
		</a>
		<a id="R3225" xlink:href="#" >
			<g>
				<polygon fill="#FFFF00" points="391.8916,223.1562 377.751,231.3008 383.125,240.6074 397.2588,232.4434 				"/>
			</g>
		</a>
		<a id="R3227" xlink:href="#" >
			<g>
				<polygon fill="#FFFF00" points="383.3525,241.0068 397.4941,232.8408 402.8613,242.1504 390.4697,249.293 388.8818,246.749
					387.2256,247.7061 				"/>
			</g>
		</a>
		<a id="R3229" xlink:href="#" >
			<g>
				<polygon fill="#FFFF00" points="388.9531,250.7158 403.0947,242.5488 408.457,251.8389 394.3203,260.0039 				"/>
			</g>
		</a>
		<a id="R3231" xlink:href="#" >
			<g>
				<polygon fill="#FFFF00" points="394.5518,260.4238 408.6875,252.2363 414.0557,261.5479 399.9209,269.7119 				"/>
			</g>
		</a>
		<a id="R3233" xlink:href="#" >
			<g>
				<polygon fill="#FFFF00" points="400.1543,270.1074 404.0967,276.9932 405.7793,276.0107 407.1768,278.4395 419.6641,271.252
					414.2871,261.9453 				"/>
			</g>
		</a>
		<a id="R3235" xlink:href="#" >
			<g>
				<polygon fill="#FFFF00" points="405.7324,279.8164 419.8838,271.6543 425.2627,280.9824 411.1465,289.1504 				"/>
			</g>
		</a>
		<a id="R3237" xlink:href="#" >
			<g>
				<polygon fill="#FFFF00" points="421.0625,283.9687 411.3779,289.5703 418.4717,301.8691 420.1543,300.9131 421.1338,302.6162
					429.1846,297.9492 				"/>
			</g>
		</a>
		<a id="R3238" xlink:href="#" >
			<g>
				<polygon fill="#FFFF00" points="424.6113,289.1748 439.9189,280.3516 444.7939,288.96 429.582,297.7393 				"/>
			</g>
		</a>
		<a id="R3236" xlink:href="#" >
			<g>
				<polygon fill="#FFFF00" points="437.2363,274.6348 446.9189,269.0098 454.083,281.3086 452.498,282.2441 453.4775,283.9473
					445.1934,288.7305 				"/>
			</g>
		</a>
		<a id="R3230" xlink:href="#" >
			<g>
				<polygon fill="#FFFF00" points="417.8203,251.2529 421.0869,256.9473 422.9307,255.874 419.6396,250.2246 				"/>
			</g>
		</a>
	</g> <!-- End Rooms -->

  <g id="Portals">

			<line id="Stair.19.floor1" fill="none" stroke="#000000" stroke-miterlimit="10" x1="425.8369" y1="253.1074" x2="421.8037" y2="250.4219"/>

			<line id="Stair.19.floor2" fill="none" stroke="#000000" stroke-miterlimit="10" x1="425.8369" y1="253.1074" x2="426.3408" y2="250.1758"/>

			<line id="Elev.2.floor4" fill="none" stroke="#000000" stroke-miterlimit="10" x1="363.21" y1="165.3071" x2="361.0391" y2="164.418"/>

			<line id="Elev.2.floor2" fill="none" stroke="#000000" stroke-miterlimit="10" x1="363.21" y1="165.3071" x2="361.8691" y2="162.0732"/>

			<line id="Elev.2.floor1" fill="none" stroke="#000000" stroke-miterlimit="10" x1="363.21" y1="165.3071" x2="363.5107" y2="161.0459"/>

			<line id="Elev.2.floor0" fill="none" stroke="#000000" stroke-miterlimit="10" x1="363.21" y1="165.3071" x2="365.3486" y2="160.5161"/>

			<line id="Stair.2.floor4" fill="none" stroke="#000000" stroke-miterlimit="10" x1="381.1113" y1="163.8848" x2="381.3525" y2="161.6431"/>

			<line id="Stair.2.floor5" fill="none" stroke="#000000" stroke-miterlimit="10" x1="381.1113" y1="163.8848" x2="378.3145" y2="162.0732"/>

			<line id="Stair.2.floor2" fill="none" stroke="#000000" stroke-miterlimit="10" x1="374.7832" y1="166.7441" x2="374.6191" y2="164.1519"/>

			<line id="Stair.2.floor1" fill="none" stroke="#000000" stroke-miterlimit="10" x1="374.7832" y1="166.7441" x2="372.8506" y2="163.7861"/>

			<line id="Stair.1.floor4" fill="none" stroke="#000000" stroke-miterlimit="10" x1="290.3901" y1="55.5732" x2="290.1602" y2="57.9639"/>

			<line id="Stair.1.floor5" fill="none" stroke="#000000" stroke-miterlimit="10" x1="290.3901" y1="55.5732" x2="286.957" y2="56.1719"/>

			<line id="Stair.1.floor2" fill="none" stroke="#000000" stroke-miterlimit="10" x1="280.8301" y1="38.875" x2="278.8179" y2="41.2187"/>

			<line id="Stair.1.floor1" fill="none" stroke="#000000" stroke-miterlimit="10" x1="280.8301" y1="38.875" x2="276.7012" y2="39.958"/>

			<line id="Elev.1.floor4" fill="none" stroke="#000000" stroke-miterlimit="10" x1="288.125" y1="47.8418" x2="286.333" y2="46.9648"/>

			<line id="Elev.1.floor5" fill="none" stroke="#000000" stroke-miterlimit="10" x1="288.125" y1="47.8418" x2="285.292" y2="49.2432"/>

			<line id="Elev.1.floor2" fill="none" stroke="#000000" stroke-miterlimit="10" x1="288.125" y1="47.8418" x2="285.7979" y2="50.7451"/>

			<line id="Elev.1.floor1" fill="none" stroke="#000000" stroke-miterlimit="10" x1="288.125" y1="47.8418" x2="286.333" y2="52.5918"/>

			<line id="Elev.1.floor0" fill="none" stroke="#000000" stroke-miterlimit="10" x1="288.125" y1="47.8418" x2="288.125" y2="52.979"/>

			<line id="Stair.7.floor4" fill="none" stroke="#000000" stroke-miterlimit="10" x1="65.563" y1="76.0908" x2="68.0591" y2="76.2393"/>

			<line id="Stair.7.floor2" fill="none" stroke="#000000" stroke-miterlimit="10" x1="56.4292" y1="77.1431" x2="57.8931" y2="73.4531"/>

			<line id="Stair.7.floor1" fill="none" stroke="#000000" stroke-miterlimit="10" x1="56.4292" y1="77.1431" x2="59.9702" y2="74.1709"/>

			<line id="Elev.6.floor4" fill="none" stroke="#000000" stroke-miterlimit="10" x1="105.5742" y1="193.6816" x2="103.8979" y2="190.7324"/>

			<line id="Elev.6.floor2" fill="none" stroke="#000000" stroke-miterlimit="10" x1="105.5742" y1="193.6816" x2="101.2832" y2="191.2529"/>

			<line id="Elev.6.floor1" fill="none" stroke="#000000" stroke-miterlimit="10" x1="105.5742" y1="193.6816" x2="100.5708" y2="193.9727"/>

			<line id="Elev.6.floor0" fill="none" stroke="#000000" stroke-miterlimit="10" x1="105.5742" y1="193.6816" x2="100.8662" y2="196.377"/>

			<line id="Stair.6.floor4" fill="none" stroke="#000000" stroke-miterlimit="10" x1="101.9951" y1="183.291" x2="98.5269" y2="179.377"/>

			<line id="Stair.6.floor2" fill="none" stroke="#000000" stroke-miterlimit="10" x1="100.9829" y1="202.5977" x2="101.2832" y2="207.2852"/>

			<line id="Stair.6.floor1" fill="none" stroke="#000000" stroke-miterlimit="10" x1="100.9829" y1="202.5977" x2="97.165" y2="207.5449"/>

			<line id="Stair.6.floor0" fill="none" stroke="#000000" stroke-miterlimit="10" x1="100.9829" y1="202.5977" x2="92.5" y2="206.5625"/>

			<line id="Elev.5.floor2" fill="none" stroke="#000000" stroke-miterlimit="10" x1="199.792" y1="230.082" x2="203.1641" y2="229.4805"/>

			<line id="Elev.5.floor1" fill="none" stroke="#000000" stroke-miterlimit="10" x1="199.792" y1="230.082" x2="202.5659" y2="227.1836"/>

			<line id="Elev.5.floor0" fill="none" stroke="#000000" stroke-miterlimit="10" x1="199.792" y1="230.082" x2="201.478" y2="224.9502"/>

			<line id="Stair.5.floor2" fill="none" stroke="#000000" stroke-miterlimit="10" x1="205.1689" y1="235.1387" x2="209.0049" y2="234.832"/>

			<line id="Stair.5.floor1" fill="none" stroke="#000000" stroke-miterlimit="10" x1="205.1689" y1="235.1387" x2="209.5112" y2="232.3398"/>

			<line id="Stair.5.floor0" fill="none" stroke="#000000" stroke-miterlimit="10" x1="205.1689" y1="235.1387" x2="210.231" y2="229.4805"/>
	</g>
	<g id="Doors">
		<line id="R3102_1_" fill="none" stroke="#000000" stroke-miterlimit="10" x1="75.376" y1="90.23" x2="75.376" y2="84.541"/>
		<line id="R3101_1_" fill="none" stroke="#000000" stroke-miterlimit="10" x1="67.1392" y1="98.4678" x2="58.999" y2="98.4678"/>
		<line id="R3104_1_" fill="none" stroke="#000000" stroke-miterlimit="10" x1="82.667" y1="97.814" x2="82.667" y2="90.7451"/>
		<line id="R3103_1_" fill="none" stroke="#000000" stroke-miterlimit="10" x1="74.4048" y1="106.0752" x2="65.248" y2="106.0752"/>
		<line id="R3106_1_" fill="none" stroke="#000000" stroke-miterlimit="10" x1="89.5742" y1="106.7749" x2="89.5742" y2="99.48"/>
		<line id="R3105_1_" fill="none" stroke="#000000" stroke-miterlimit="10" x1="83.4199" y1="112.9302" x2="75.376" y2="112.9302"/>
		<line id="R3108_1_" fill="none" stroke="#000000" stroke-miterlimit="10" x1="98.104" y1="113.5898" x2="98.104" y2="106.6108"/>
		<line id="R3107_1_" fill="none" stroke="#000000" stroke-miterlimit="10" x1="90.354" y1="121.3408" x2="82.8188" y2="121.3408"/>

			<line id="R3110_1_" fill="none" stroke="#000000" stroke-miterlimit="10" x1="106.1309" y1="122.1602" x2="106.1309" y2="114.002"/>
		<line id="R3109_1_" fill="none" stroke="#000000" stroke-miterlimit="10" x1="98.7109" y1="129.5801" x2="91.374" y2="129.5801"/>

			<line id="R3112_1_" fill="none" stroke="#000000" stroke-miterlimit="10" x1="114.1079" y1="130.0088" x2="114.1079" y2="122.25"/>
		<line id="R3111_1_" fill="none" stroke="#000000" stroke-miterlimit="10" x1="105.8262" y1="138.291" x2="96.0229" y2="138.291"/>

			<line id="R3114_1_" fill="none" stroke="#000000" stroke-miterlimit="10" x1="120.9941" y1="136.3418" x2="120.9941" y2="131.2471"/>

			<line id="R3116_1_" fill="none" stroke="#000000" stroke-miterlimit="10" x1="131.5449" y1="146.8931" x2="136.271" y2="151.6182"/>
		<line id="R3118_1_" fill="none" stroke="#000000" stroke-miterlimit="10" x1="144.2529" y1="159.064" x2="148.23" y2="155.0869"/>

			<line id="R3117_1_" fill="none" stroke="#000000" stroke-miterlimit="10" x1="135.7339" y1="167.583" x2="128.2261" y2="167.583"/>
		<line id="R3120_1_" fill="none" stroke="#000000" stroke-miterlimit="10" x1="152.02" y1="166.9502" x2="152.02" y2="159.2891"/>

			<line id="R3119_1_" fill="none" stroke="#000000" stroke-miterlimit="10" x1="143.3501" y1="175.6201" x2="134.2612" y2="175.6201"/>

			<line id="R3122_1_" fill="none" stroke="#000000" stroke-miterlimit="10" x1="155.1479" y1="169.561" x2="161.3799" y2="169.561"/>

			<line id="R3121_1_" fill="none" stroke="#000000" stroke-miterlimit="10" x1="146.3179" y1="178.3887" x2="146.3179" y2="185.2773"/>

			<line id="R3124_1_" fill="none" stroke="#000000" stroke-miterlimit="10" x1="167.7549" y1="183.3613" x2="167.7549" y2="176.2939"/>

			<line id="R3123_1_" fill="none" stroke="#000000" stroke-miterlimit="10" x1="160.0889" y1="191.0254" x2="151.1782" y2="191.0254"/>

			<line id="R3126_1_" fill="none" stroke="#000000" stroke-miterlimit="10" x1="170.2012" y1="186.2324" x2="178.7349" y2="186.2324"/>

			<line id="R3125_1_" fill="none" stroke="#000000" stroke-miterlimit="10" x1="162.9819" y1="193.6074" x2="162.9819" y2="201.6426"/>

			<line id="R3128_1_" fill="none" stroke="#000000" stroke-miterlimit="10" x1="182.7939" y1="198.5898" x2="182.7939" y2="192.1484"/>

			<line id="R3127_1_" fill="none" stroke="#000000" stroke-miterlimit="10" x1="174.751" y1="206.6348" x2="167.3389" y2="206.6348"/>

			<line id="R3130_1_" fill="none" stroke="#000000" stroke-miterlimit="10" x1="185.9468" y1="202.6953" x2="195.542" y2="202.6953"/>

			<line id="R3129_1_" fill="none" stroke="#000000" stroke-miterlimit="10" x1="178.3218" y1="210.3184" x2="178.3218" y2="218.25"/>

			<line id="R3131_1_" fill="none" stroke="#000000" stroke-miterlimit="10" x1="227.0181" y1="250.9189" x2="227.0181" y2="241.2187"/>

			<line id="R3131A_1_" fill="none" stroke="#000000" stroke-miterlimit="10" x1="224.9189" y1="269.0312" x2="228.9468" y2="273.0586"/>

			<line id="R3131B_1_" fill="none" stroke="#000000" stroke-miterlimit="10" x1="229.3052" y1="265.4805" x2="237.5142" y2="265.4805"/>

			<line id="R3131C_1_" fill="none" stroke="#000000" stroke-miterlimit="10" x1="248.1709" y1="248.8125" x2="252.5649" y2="248.8125"/>
		<line id="R3236_1_" fill="none" stroke="#000000" stroke-miterlimit="10" x1="440.5254" y1="275.8398" x2="446.6875" y2="279"/>

			<line id="R3238_1_" fill="none" stroke="#000000" stroke-miterlimit="10" x1="427.6396" y1="289.5703" x2="433.0049" y2="289.5703"/>

			<line id="R3237_1_" fill="none" stroke="#000000" stroke-miterlimit="10" x1="421.2852" y1="286.751" x2="421.1338" y2="293.4453"/>
		<line id="R3235_1_" fill="none" stroke="#000000" stroke-miterlimit="10" x1="423.1172" y1="279" x2="414.7852" y2="279.3496"/>

			<line id="R3234_1_" fill="none" stroke="#000000" stroke-miterlimit="10" x1="428.7832" y1="267.8691" x2="437.2363" y2="267.4297"/>

			<line id="R3233_1_" fill="none" stroke="#000000" stroke-miterlimit="10" x1="417.376" y1="269.7119" x2="410.0986" y2="269.3125"/>

			<line id="R3230_1_" fill="none" stroke="#000000" stroke-miterlimit="10" x1="418.2422" y1="255.0625" x2="420.7871" y2="253.7187"/>

			<line id="R3231_1_" fill="none" stroke="#000000" stroke-miterlimit="10" x1="411.3779" y1="260.0039" x2="404.5479" y2="260.0039"/>

			<line id="R3229_1_" fill="none" stroke="#000000" stroke-miterlimit="10" x1="406.2441" y1="250.5176" x2="399.1543" y2="249.832"/>

			<line id="R3228_1_" fill="none" stroke="#000000" stroke-miterlimit="10" x1="410.7549" y1="236.7607" x2="417.4941" y2="236.9238"/>

			<line id="R3227_1_" fill="none" stroke="#000000" stroke-miterlimit="10" x1="400.1543" y1="241.0879" x2="391.9697" y2="241.0068"/>

			<line id="R3226_1_" fill="none" stroke="#000000" stroke-miterlimit="10" x1="406.1279" y1="226.5957" x2="412.1543" y2="226.126"/>

			<line id="R3225_1_" fill="none" stroke="#000000" stroke-miterlimit="10" x1="395.0234" y1="231.3008" x2="387.2256" y2="230.4824"/>

			<line id="R3224_1_" fill="none" stroke="#000000" stroke-miterlimit="10" x1="400.4922" y1="216.9961" x2="407.3467" y2="217.4268"/>

			<line id="R3223_1_" fill="none" stroke="#000000" stroke-miterlimit="10" x1="389.1377" y1="221.6152" x2="380.123" y2="220.8125"/>

			<line id="R3222_1_" fill="none" stroke="#000000" stroke-miterlimit="10" x1="395.0215" y1="207.2617" x2="401.625" y2="206.502"/>

			<line id="R3221_1_" fill="none" stroke="#000000" stroke-miterlimit="10" x1="382.501" y1="212.3203" x2="376.9043" y2="212.3203"/>

			<line id="R3220_1_" fill="none" stroke="#000000" stroke-miterlimit="10" x1="389.1377" y1="197.3574" x2="396.1826" y2="196.8457"/>
		<line id="R3219_1_" fill="none" stroke="#000000" stroke-miterlimit="10" x1="377.623" y1="202.5137" x2="370.5" y2="202.5137"/>

			<line id="R3218_1_" fill="none" stroke="#000000" stroke-miterlimit="10" x1="385.5391" y1="192.9932" x2="388.1914" y2="190.4258"/>

			<line id="R3217_1_" fill="none" stroke="#000000" stroke-miterlimit="10" x1="372.4063" y1="191.4766" x2="364.9063" y2="192.9229"/>

			<line id="R3216_1_" fill="none" stroke="#000000" stroke-miterlimit="10" x1="381.8799" y1="186.2607" x2="386.8301" y2="181.2588"/>

			<line id="R3214_1_" fill="none" stroke="#000000" stroke-miterlimit="10" x1="363.5107" y1="153.6372" x2="365.6299" y2="147.9902"/>

			<line id="R3213_1_" fill="none" stroke="#000000" stroke-miterlimit="10" x1="345.0947" y1="146.4258" x2="338.4434" y2="149.3701"/>
		<line id="r3212" fill="none" stroke="#000000" stroke-miterlimit="10" x1="356.1006" y1="138.3979" x2="359.4082" y2="141.9448"/>

			<line id="R3211_1_" fill="none" stroke="#000000" stroke-miterlimit="10" x1="339.9697" y1="136.2471" x2="336.7773" y2="141.436"/>

			<line id="R3210_1_" fill="none" stroke="#000000" stroke-miterlimit="10" x1="348.5273" y1="124.7998" x2="347.748" y2="121.689"/>
		<line id="r3209" fill="none" stroke="#000000" stroke-miterlimit="10" x1="338.2119" y1="132.2749" x2="329.0537" y2="132.0142"/>

			<line id="R3207_1_" fill="none" stroke="#000000" stroke-miterlimit="10" x1="328.9902" y1="116.9941" x2="325.6377" y2="122.5659"/>
		<line id="R3206_1_" fill="none" stroke="#000000" stroke-miterlimit="10" x1="336.5" y1="107.4619" x2="340.7754" y2="101.333"/>
		<line id="R3204_1_" fill="none" stroke="#000000" stroke-miterlimit="10" x1="327.75" y1="92.0352" x2="336.0518" y2="91.3521"/>
		<line id="R3203_1_" fill="none" stroke="#000000" stroke-miterlimit="10" x1="317.5" y1="98.4839" x2="313.5" y2="103.5752"/>
		<line id="R3202_1_" fill="none" stroke="#000000" stroke-miterlimit="10" x1="325.1191" y1="87.707" x2="329.4375" y2="81.3408"/>
		<line id="R3201_1_" fill="none" stroke="#000000" stroke-miterlimit="10" x1="314.6133" y1="93.521" x2="308.6875" y2="93.6709"/>
	</g> <!-- End Portals -->

  <g id="Paths">
		<line fill="none" stroke="#000000" stroke-miterlimit="10" x1="430.5908" y1="281.3086" x2="440.5254" y2="275.8398"/>
		<line fill="none" stroke="#000000" stroke-miterlimit="10" x1="430.5908" y1="281.3086" x2="424.9941" y2="284.7305"/>
		<line fill="none" stroke="#000000" stroke-miterlimit="10" x1="424.9941" y1="284.7305" x2="427.6396" y2="289.5703"/>
		<line fill="none" stroke="#000000" stroke-miterlimit="10" x1="424.9941" y1="284.7305" x2="421.2852" y2="286.751"/>
		<line fill="none" stroke="#000000" stroke-miterlimit="10" x1="430.5908" y1="281.3086" x2="427.6396" y2="276.5029"/>
		<line fill="none" stroke="#000000" stroke-miterlimit="10" x1="427.6396" y1="276.5029" x2="423.1172" y2="279"/>
		<line fill="none" stroke="#000000" stroke-miterlimit="10" x1="427.6396" y1="276.5029" x2="424.0371" y2="270.2734"/>
		<line fill="none" stroke="#000000" stroke-miterlimit="10" x1="424.0371" y1="270.2734" x2="428.7832" y2="267.8691"/>
		<line fill="none" stroke="#000000" stroke-miterlimit="10" x1="424.0371" y1="270.2734" x2="422.3711" y2="267.0049"/>
		<line fill="none" stroke="#000000" stroke-miterlimit="10" x1="422.3711" y1="267.0049" x2="417.376" y2="269.7119"/>
		<line fill="none" stroke="#000000" stroke-miterlimit="10" x1="422.3711" y1="267.0049" x2="422.1602" y2="266.3574"/>
		<line fill="none" stroke="#000000" stroke-miterlimit="10" x1="422.1602" y1="266.3574" x2="429.1152" y2="262.4951"/>
		<line fill="none" stroke="#000000" stroke-miterlimit="10" x1="422.1602" y1="266.3574" x2="417.0215" y2="257.4639"/>
		<line fill="none" stroke="#000000" stroke-miterlimit="10" x1="417.0215" y1="257.4639" x2="411.3779" y2="260.0039"/>
		<line fill="none" stroke="#000000" stroke-miterlimit="10" x1="417.0215" y1="257.4639" x2="415.9023" y2="256.6309"/>
		<line fill="none" stroke="#000000" stroke-miterlimit="10" x1="415.9023" y1="256.6309" x2="418.2422" y2="255.0625"/>
		<line fill="none" stroke="#000000" stroke-miterlimit="10" x1="415.9023" y1="256.6309" x2="410.7549" y2="247.6465"/>
		<line fill="none" stroke="#000000" stroke-miterlimit="10" x1="410.7549" y1="247.6465" x2="406.2441" y2="250.5176"/>
		<line fill="none" stroke="#000000" stroke-miterlimit="10" x1="410.7549" y1="247.6465" x2="406.291" y2="239.6777"/>
		<line fill="none" stroke="#000000" stroke-miterlimit="10" x1="406.291" y1="239.6777" x2="410.7549" y2="236.7607"/>
		<line fill="none" stroke="#000000" stroke-miterlimit="10" x1="406.291" y1="239.6777" x2="405.333" y2="237.9727"/>
		<line fill="none" stroke="#000000" stroke-miterlimit="10" x1="405.333" y1="237.9727" x2="400.1543" y2="241.0879"/>
		<line fill="none" stroke="#000000" stroke-miterlimit="10" x1="405.333" y1="237.9727" x2="400.6436" y2="229.3633"/>
		<line fill="none" stroke="#000000" stroke-miterlimit="10" x1="400.6436" y1="229.3633" x2="406.1279" y2="226.5957"/>
		<line fill="none" stroke="#000000" stroke-miterlimit="10" x1="400.6436" y1="229.3633" x2="399.75" y2="228.2656"/>
		<line fill="none" stroke="#000000" stroke-miterlimit="10" x1="399.75" y1="228.2656" x2="395.0234" y2="231.3008"/>
		<line fill="none" stroke="#000000" stroke-miterlimit="10" x1="399.75" y1="228.2656" x2="395.0215" y2="220.043"/>
		<line fill="none" stroke="#000000" stroke-miterlimit="10" x1="395.0215" y1="220.043" x2="400.4922" y2="216.9961"/>
		<line fill="none" stroke="#000000" stroke-miterlimit="10" x1="395.0215" y1="220.043" x2="394.625" y2="218.6992"/>
		<line fill="none" stroke="#000000" stroke-miterlimit="10" x1="394.625" y1="218.6992" x2="389.1377" y2="221.6152"/>
		<line fill="none" stroke="#000000" stroke-miterlimit="10" x1="394.625" y1="218.6992" x2="389.6748" y2="210.3242"/>
		<line fill="none" stroke="#000000" stroke-miterlimit="10" x1="389.6748" y1="210.3242" x2="395.0215" y2="207.2617"/>
		<line fill="none" stroke="#000000" stroke-miterlimit="10" x1="389.6748" y1="210.3242" x2="388.9531" y2="208.6172"/>
		<line fill="none" stroke="#000000" stroke-miterlimit="10" x1="388.9531" y1="208.6172" x2="382.501" y2="212.3203"/>
		<line fill="none" stroke="#000000" stroke-miterlimit="10" x1="388.9531" y1="208.6172" x2="384.0908" y2="199.5879"/>
		<line fill="none" stroke="#000000" stroke-miterlimit="10" x1="384.0908" y1="199.5879" x2="389.1377" y2="197.3574"/>
		<line fill="none" stroke="#000000" stroke-miterlimit="10" x1="384.0908" y1="199.5879" x2="383.2275" y2="197.9883"/>
		<line fill="none" stroke="#000000" stroke-miterlimit="10" x1="383.2275" y1="197.9883" x2="377.623" y2="202.5137"/>
		<line fill="none" stroke="#000000" stroke-miterlimit="10" x1="383.2275" y1="197.9883" x2="381.6211" y2="195.1133"/>
		<line fill="none" stroke="#000000" stroke-miterlimit="10" x1="381.6211" y1="195.1133" x2="385.5391" y2="192.9932"/>
		<line fill="none" stroke="#000000" stroke-miterlimit="10" x1="381.6211" y1="195.1133" x2="377.5166" y2="188.249"/>
		<line fill="none" stroke="#000000" stroke-miterlimit="10" x1="377.5166" y1="188.249" x2="381.8799" y2="186.2607"/>
		<line fill="none" stroke="#000000" stroke-miterlimit="10" x1="377.5166" y1="188.249" x2="372.4063" y2="191.4766"/>
		<line fill="none" stroke="#000000" stroke-miterlimit="10" x1="377.5166" y1="188.249" x2="372.8506" y2="183.4336"/>
		<line fill="none" stroke="#000000" stroke-miterlimit="10" x1="372.8506" y1="183.4336" x2="370.1211" y2="178.4434"/>
		<line fill="none" stroke="#000000" stroke-miterlimit="10" x1="370.1211" y1="178.4434" x2="378.6436" y2="173.9512"/>
		<line fill="none" stroke="#000000" stroke-miterlimit="10" x1="378.6436" y1="173.9512" x2="374.7832" y2="166.7441"/>
		<line fill="none" stroke="#000000" stroke-miterlimit="10" x1="378.6436" y1="173.9512" x2="384.5049" y2="170.6089"/>
		<line fill="none" stroke="#000000" stroke-miterlimit="10" x1="384.5049" y1="170.6089" x2="381.1113" y2="163.8848"/>
		<line fill="none" stroke="#000000" stroke-miterlimit="10" x1="370.1211" y1="178.4434" x2="366.5186" y2="170.9209"/>
		<line fill="none" stroke="#000000" stroke-miterlimit="10" x1="366.5186" y1="170.9209" x2="363.1846" y2="165.2622"/>
		<line fill="none" stroke="#000000" stroke-miterlimit="10" x1="366.5186" y1="170.9209" x2="355.8301" y2="177.2305"/>
		<line fill="none" stroke="#000000" stroke-miterlimit="10" x1="370.1211" y1="178.4434" x2="355.8301" y2="177.2305"/>
		<line fill="none" stroke="#000000" stroke-miterlimit="10" x1="355.8301" y1="177.2305" x2="344.1436" y2="155.7319"/>
		<line fill="none" stroke="#000000" stroke-miterlimit="10" x1="344.1436" y1="155.7319" x2="354.3223" y2="150.1152"/>
		<line fill="none" stroke="#000000" stroke-miterlimit="10" x1="354.3223" y1="150.1152" x2="358.0186" y2="155.877"/>
		<line fill="none" stroke="#000000" stroke-miterlimit="10" x1="358.0186" y1="155.877" x2="363.5107" y2="153.6372"/>
		<line fill="none" stroke="#000000" stroke-miterlimit="10" x1="354.3223" y1="150.1152" x2="350.4004" y2="143.8809"/>
		<line fill="none" stroke="#000000" stroke-miterlimit="10" x1="350.4004" y1="143.8809" x2="345.0947" y2="146.4258"/>
		<line fill="none" stroke="#000000" stroke-miterlimit="10" x1="350.4004" y1="143.8809" x2="346.876" y2="135.625"/>
		<line fill="none" stroke="#000000" stroke-miterlimit="10" x1="346.876" y1="135.625" x2="352.8301" y2="132.999"/>
		<line fill="none" stroke="#000000" stroke-miterlimit="10" x1="352.8301" y1="132.999" x2="348.5273" y2="124.7998"/>
		<line fill="none" stroke="#000000" stroke-miterlimit="10" x1="352.8301" y1="132.999" x2="356.1006" y2="138.3979"/>
		<line fill="none" stroke="#000000" stroke-miterlimit="10" x1="346.876" y1="135.625" x2="345.4346" y2="133.8711"/>
		<line fill="none" stroke="#000000" stroke-miterlimit="10" x1="345.4346" y1="133.8711" x2="339.9697" y2="136.2471"/>
		<line fill="none" stroke="#000000" stroke-miterlimit="10" x1="345.4346" y1="133.8711" x2="341.9287" y2="128.854"/>
		<line fill="none" stroke="#000000" stroke-miterlimit="10" x1="341.9287" y1="128.854" x2="338.2119" y2="132.2749"/>
		<line fill="none" stroke="#000000" stroke-miterlimit="10" x1="341.9287" y1="128.854" x2="334.4824" y2="114.2822"/>
		<line fill="none" stroke="#000000" stroke-miterlimit="10" x1="334.4824" y1="114.2822" x2="339.748" y2="111.6309"/>
		<line fill="none" stroke="#000000" stroke-miterlimit="10" x1="334.4824" y1="114.2822" x2="328.9902" y2="116.9941"/>
		<line fill="none" stroke="#000000" stroke-miterlimit="10" x1="334.4824" y1="114.2822" x2="331.7363" y2="109.6289"/>
		<line fill="none" stroke="#000000" stroke-miterlimit="10" x1="331.7363" y1="109.6289" x2="336.5" y2="107.4619"/>
		<line fill="none" stroke="#000000" stroke-miterlimit="10" x1="331.7363" y1="109.6289" x2="325.9883" y2="113.3501"/>
		<line fill="none" stroke="#000000" stroke-miterlimit="10" x1="331.7363" y1="109.6289" x2="323.2402" y2="95.0698"/>
		<line fill="none" stroke="#000000" stroke-miterlimit="10" x1="323.2402" y1="95.0698" x2="327.75" y2="92.0352"/>
		<line fill="none" stroke="#000000" stroke-miterlimit="10" x1="323.2402" y1="95.0698" x2="317.5" y2="98.4839"/>
		<line fill="none" stroke="#000000" stroke-miterlimit="10" x1="323.2402" y1="95.0698" x2="320.2979" y2="90"/>
		<line fill="none" stroke="#000000" stroke-miterlimit="10" x1="320.2979" y1="90" x2="325.1191" y2="87.707"/>
		<line fill="none" stroke="#000000" stroke-miterlimit="10" x1="320.2979" y1="90" x2="314.6133" y2="93.521"/>
		<line fill="none" stroke="#000000" stroke-miterlimit="10" x1="320.2979" y1="90" x2="315.6436" y2="82.936"/>
		<line fill="none" stroke="#000000" stroke-miterlimit="10" x1="315.6436" y1="82.936" x2="297.6211" y2="51.5708"/>
		<line fill="none" stroke="#000000" stroke-miterlimit="10" x1="297.6211" y1="51.5708" x2="290.3901" y2="55.5732"/>
		<line fill="none" stroke="#000000" stroke-miterlimit="10" x1="297.6211" y1="51.5708" x2="293.1318" y2="44.4121"/>
		<line fill="none" stroke="#000000" stroke-miterlimit="10" x1="293.1318" y1="44.4121" x2="288.125" y2="47.8418"/>
		<line fill="none" stroke="#000000" stroke-miterlimit="10" x1="293.1318" y1="44.4121" x2="289.6499" y2="37.5059"/>
		<line fill="none" stroke="#000000" stroke-miterlimit="10" x1="289.6499" y1="37.5059" x2="280.5762" y2="38.875"/>
		<line fill="none" stroke="#000000" stroke-miterlimit="10" x1="70.959" y1="94.6479" x2="63.6191" y2="87.3379"/>
		<line fill="none" stroke="#000000" stroke-miterlimit="10" x1="63.6191" y1="87.3379" x2="58.9678" y2="82.688"/>
		<line fill="none" stroke="#000000" stroke-miterlimit="10" x1="58.9678" y1="82.688" x2="65.563" y2="76.0908"/>
		<line fill="none" stroke="#000000" stroke-miterlimit="10" x1="58.9678" y1="82.688" x2="53.9902" y2="87.665"/>
		<line fill="none" stroke="#000000" stroke-miterlimit="10" x1="53.9902" y1="87.665" x2="49.9482" y2="83.623"/>
		<line fill="none" stroke="#000000" stroke-miterlimit="10" x1="49.9482" y1="83.623" x2="56.4292" y2="77.1431"/>
		<line fill="none" stroke="#000000" stroke-miterlimit="10" x1="70.959" y1="94.6479" x2="75.376" y2="90.23"/>
		<line fill="none" stroke="#000000" stroke-miterlimit="10" x1="70.959" y1="94.6479" x2="67.1392" y2="98.4678"/>
		<line fill="none" stroke="#000000" stroke-miterlimit="10" x1="70.959" y1="94.6479" x2="78.396" y2="102.084"/>
		<line fill="none" stroke="#000000" stroke-miterlimit="10" x1="78.396" y1="102.084" x2="82.667" y2="97.814"/>
		<line fill="none" stroke="#000000" stroke-miterlimit="10" x1="78.396" y1="102.084" x2="74.4048" y2="106.0752"/>
		<line fill="none" stroke="#000000" stroke-miterlimit="10" x1="78.396" y1="102.084" x2="86.3311" y2="110.02"/>
		<line fill="none" stroke="#000000" stroke-miterlimit="10" x1="86.3311" y1="110.02" x2="89.5742" y2="106.7749"/>
		<line fill="none" stroke="#000000" stroke-miterlimit="10" x1="86.3311" y1="110.02" x2="83.4199" y2="112.9302"/>
		<line fill="none" stroke="#000000" stroke-miterlimit="10" x1="86.3311" y1="110.02" x2="94.0029" y2="117.6909"/>
		<line fill="none" stroke="#000000" stroke-miterlimit="10" x1="94.0029" y1="117.6909" x2="98.104" y2="113.5898"/>
		<line fill="none" stroke="#000000" stroke-miterlimit="10" x1="94.0029" y1="117.6909" x2="90.354" y2="121.3408"/>
		<line fill="none" stroke="#000000" stroke-miterlimit="10" x1="94.0029" y1="117.6909" x2="102.3008" y2="125.9902"/>
		<line fill="none" stroke="#000000" stroke-miterlimit="10" x1="102.3008" y1="125.9902" x2="106.1309" y2="122.1602"/>
		<line fill="none" stroke="#000000" stroke-miterlimit="10" x1="102.3008" y1="125.9902" x2="98.7109" y2="129.5801"/>
		<line fill="none" stroke="#000000" stroke-miterlimit="10" x1="102.3008" y1="125.9902" x2="110.2139" y2="133.9019"/>
		<line fill="none" stroke="#000000" stroke-miterlimit="10" x1="110.2139" y1="133.9019" x2="114.1079" y2="130.0088"/>
		<line fill="none" stroke="#000000" stroke-miterlimit="10" x1="110.2139" y1="133.9019" x2="105.8262" y2="138.291"/>
		<line fill="none" stroke="#000000" stroke-miterlimit="10" x1="110.2139" y1="133.9019" x2="121.5542" y2="145.2432"/>
		<line fill="none" stroke="#000000" stroke-miterlimit="10" x1="121.5542" y1="145.2432" x2="117.0532" y2="149.7441"/>
		<line fill="none" stroke="#000000" stroke-miterlimit="10" x1="121.5542" y1="145.2432" x2="125.7251" y2="141.0723"/>
		<line fill="none" stroke="#000000" stroke-miterlimit="10" x1="125.7251" y1="141.0723" x2="120.9941" y2="136.3418"/>
		<line fill="none" stroke="#000000" stroke-miterlimit="10" x1="125.7251" y1="141.0723" x2="131.5449" y2="146.8931"/>
		<line fill="none" stroke="#000000" stroke-miterlimit="10" x1="121.5542" y1="145.2432" x2="139.814" y2="163.5029"/>
		<line fill="none" stroke="#000000" stroke-miterlimit="10" x1="139.814" y1="163.5029" x2="144.2529" y2="159.064"/>
		<line fill="none" stroke="#000000" stroke-miterlimit="10" x1="139.814" y1="163.5029" x2="135.7339" y2="167.583"/>
		<line fill="none" stroke="#000000" stroke-miterlimit="10" x1="139.814" y1="163.5029" x2="147.6411" y2="171.3291"/>
		<line fill="none" stroke="#000000" stroke-miterlimit="10" x1="147.6411" y1="171.3291" x2="152.02" y2="166.9502"/>
		<line fill="none" stroke="#000000" stroke-miterlimit="10" x1="147.6411" y1="171.3291" x2="143.3501" y2="175.6201"/>
		<line fill="none" stroke="#000000" stroke-miterlimit="10" x1="147.6411" y1="171.3291" x2="150.5098" y2="174.1982"/>
		<line fill="none" stroke="#000000" stroke-miterlimit="10" x1="150.5098" y1="174.1982" x2="155.1479" y2="169.561"/>
		<line fill="none" stroke="#000000" stroke-miterlimit="10" x1="150.5098" y1="174.1982" x2="146.3179" y2="178.3887"/>
		<line fill="none" stroke="#000000" stroke-miterlimit="10" x1="150.5098" y1="174.1982" x2="163.7139" y2="187.4023"/>
		<line fill="none" stroke="#000000" stroke-miterlimit="10" x1="163.7139" y1="187.4023" x2="167.7549" y2="183.3613"/>
		<line fill="none" stroke="#000000" stroke-miterlimit="10" x1="163.7139" y1="187.4023" x2="160.0889" y2="191.0254"/>
		<line fill="none" stroke="#000000" stroke-miterlimit="10" x1="163.7139" y1="187.4023" x2="166.373" y2="190.0625"/>
		<line fill="none" stroke="#000000" stroke-miterlimit="10" x1="166.373" y1="190.0625" x2="170.2012" y2="186.2324"/>
		<line fill="none" stroke="#000000" stroke-miterlimit="10" x1="166.373" y1="190.0625" x2="162.46" y2="193.9727"/>
		<line fill="none" stroke="#000000" stroke-miterlimit="10" x1="166.373" y1="190.0625" x2="178.8491" y2="202.5371"/>
		<line fill="none" stroke="#000000" stroke-miterlimit="10" x1="178.8491" y1="202.5371" x2="182.7939" y2="198.5898"/>
		<line fill="none" stroke="#000000" stroke-miterlimit="10" x1="178.8491" y1="202.5371" x2="174.751" y2="206.6348"/>
		<line fill="none" stroke="#000000" stroke-miterlimit="10" x1="178.8491" y1="202.5371" x2="182.4771" y2="206.165"/>
		<line fill="none" stroke="#000000" stroke-miterlimit="10" x1="182.4771" y1="206.165" x2="185.9468" y2="202.6953"/>
		<line fill="none" stroke="#000000" stroke-miterlimit="10" x1="182.4771" y1="206.165" x2="178.3218" y2="210.3184"/>
		<line fill="none" stroke="#000000" stroke-miterlimit="10" x1="182.4771" y1="206.165" x2="191" y2="214.6875"/>
		<line fill="none" stroke="#000000" stroke-miterlimit="10" x1="191" y1="214.6875" x2="180.5801" y2="225.1055"/>
		<line fill="none" stroke="#000000" stroke-miterlimit="10" x1="180.5801" y1="225.1055" x2="186.064" y2="230.5908"/>
		<path fill="none" stroke="#000000" stroke-miterlimit="10" d="M194.6802,221.9746"/>
		<path fill="none" stroke="#000000" stroke-miterlimit="10" d="M186.064,230.5908"/>
		<line fill="none" stroke="#000000" stroke-miterlimit="10" x1="186.064" y1="230.5908" x2="192.6729" y2="237.2002"/>
		<line fill="none" stroke="#000000" stroke-miterlimit="10" x1="192.6729" y1="237.2002" x2="199.792" y2="230.082"/>
		<line fill="none" stroke="#000000" stroke-miterlimit="10" x1="192.6729" y1="237.2002" x2="197.8921" y2="242.418"/>
		<line fill="none" stroke="#000000" stroke-miterlimit="10" x1="197.8921" y1="242.418" x2="205.1689" y2="235.1387"/>
		<line fill="none" stroke="#000000" stroke-miterlimit="10" x1="197.8921" y1="242.418" x2="203.7378" y2="248.2637"/>
		<line fill="none" stroke="#000000" stroke-miterlimit="10" x1="203.7378" y1="248.2637" x2="213.8779" y2="237.7793"/>
		<line fill="none" stroke="#000000" stroke-miterlimit="10" x1="213.8779" y1="237.7793" x2="220.8691" y2="244.7676"/>
		<line fill="none" stroke="#000000" stroke-miterlimit="10" x1="220.8691" y1="244.7676" x2="227.0181" y2="250.9189"/>
		<line fill="none" stroke="#000000" stroke-miterlimit="10" x1="227.0181" y1="250.9189" x2="224.9189" y2="269.0312"/>
		<line fill="none" stroke="#000000" stroke-miterlimit="10" x1="227.0181" y1="250.9189" x2="229.3052" y2="265.4805"/>
		<line fill="none" stroke="#000000" stroke-miterlimit="10" x1="227.0181" y1="250.9189" x2="245.7251" y2="246.7061"/>
		<line fill="none" stroke="#000000" stroke-miterlimit="10" x1="245.7251" y1="246.7061" x2="248.1709" y2="248.8125"/>
		<line fill="none" stroke="#000000" stroke-miterlimit="10" x1="248.1709" y1="248.8125" x2="256.4351" y2="257.0752"/>
		<line fill="none" stroke="#000000" stroke-miterlimit="10" x1="117.0532" y1="149.7441" x2="114.5161" y2="152.2812"/>
		<line fill="none" stroke="#000000" stroke-miterlimit="10" x1="114.5161" y1="152.2812" x2="123.083" y2="160.8501"/>
		<line fill="none" stroke="#000000" stroke-miterlimit="10" x1="114.5161" y1="152.2812" x2="111.9009" y2="154.896"/>
		<line fill="none" stroke="#000000" stroke-miterlimit="10" x1="111.9009" y1="154.896" x2="119.4229" y2="162.418"/>
		<line fill="none" stroke="#000000" stroke-miterlimit="10" x1="111.9009" y1="154.896" x2="108.0068" y2="158.79"/>
		<line fill="none" stroke="#000000" stroke-miterlimit="10" x1="108.0068" y1="158.79" x2="109.1719" y2="182.3643"/>
		<line fill="none" stroke="#000000" stroke-miterlimit="10" x1="109.1719" y1="182.3643" x2="101.9951" y2="183.291"/>
		<line fill="none" stroke="#000000" stroke-miterlimit="10" x1="109.1719" y1="182.3643" x2="110.2139" y2="192.4336"/>
		<line fill="none" stroke="#000000" stroke-miterlimit="10" x1="110.2139" y1="192.4336" x2="105.625" y2="193.6816"/>
		<line fill="none" stroke="#000000" stroke-miterlimit="10" x1="110.2139" y1="192.4336" x2="111.7021" y2="201.6426"/>
		<line fill="none" stroke="#000000" stroke-miterlimit="10" x1="111.7021" y1="201.6426" x2="100.9829" y2="202.5977"/>
		<line fill="none" stroke="#000000" stroke-miterlimit="10" x1="429.1152" y1="262.4951" x2="429.9678" y2="260.6758"/>
		<line fill="none" stroke="#000000" stroke-miterlimit="10" x1="429.9678" y1="260.6758" x2="425.8369" y2="253.1074"/>
	</g> <!-- End Paths -->

</g> <!-- End Data Layer -->


</svg>
