<?xml version="1.0" encoding="utf-8"?>
<svg viewBox="0 0 643 343" version="1.1" xmlns="http://www.w3.org/2000/svg" xmlns:xlink="http://www.w3.org/1999/xlink">

	<g id="data_layer">
		<g id="Rooms" opacity="0.25">
			<a id="R4213" xlink:href="#" >
				<g>
					<polygon fill="#FFFF33" points="324.5098,141.8711 326.7305,145.7178 328.3672,144.7852 329.4902,146.7271 327.8535,147.6621
						329.8887,151.1909 344.0605,143.0049 338.6816,133.6992 				"/>
				</g>
			</a>
			<a id="R4202" xlink:href="#" >
				<g>
					<polygon fill="#FFFF33" points="286.0889,26.4751 305.8232,26.4751 311.2012,35.7051 310.3589,35.7051 313.0161,40.2939
						299.1328,48.333 291.8589,35.7051 291.415,35.7158 				"/>
				</g>
			</a>
			<a id="R4216" xlink:href="#" >
				<g>
					<polygon fill="#FFFF33" points="356.7129,147.9639 370.8145,139.8018 374.084,145.4771 366.793,149.7422 368.8047,153.2959
						361.9521,157.2271 				"/>
				</g>
			</a>
			<a id="R4214" xlink:href="#" >
				<g>
					<polygon fill="#FFFF33" points="351.1934,138.4941 356.4092,147.498 370.5586,139.313 365.3799,130.3301 363.7529,131.1709
						360.9932,126.354 353.252,130.8198 357.6484,138.4448 357.251,138.6821 355.6602,135.9189 				"/>
				</g>
			</a>
			<a id="R4212" xlink:href="#" >
				<g>
					<polygon fill="#FFFF33" points="340.4023,119.7422 353.7168,112.063 354.5586,111.5762 362.3125,125.063 353.0195,130.4229
						348.6211,122.7998 348.2246,123.0332 349.79,125.792 345.3477,128.3672 				"/>
				</g>
			</a>
			<a id="R4210" xlink:href="#" >
				<g>
					<polygon fill="#FFFF33" points="348.9453,101.813 334.7988,109.9819 340.123,119.2529 354.2773,111.0869 				"/>
				</g>
			</a>
			<a id="R4208" xlink:href="#" >
				<g>
					<polygon fill="#FFFF33" points="329.1855,100.2529 343.3555,92.0928 348.7148,101.4141 334.5645,109.585 				"/>
				</g>
			</a>
			<a id="R4206" xlink:href="#" >
				<g>
					<polygon fill="#FFFF33" points="323.5732,90.5229 337.7461,82.3608 343.1162,91.6748 328.9521,99.855 				"/>
				</g>
			</a>
			<a id="R4204" xlink:href="#" >
				<g>
					<polygon fill="#FFFF33" points="317.938,80.7959 330.4551,73.5332 331.4082,75.1602 333.0684,74.2012 337.5117,81.9409
						323.3613,90.126 				"/>
				</g>
			</a>
			<a id="R4203" xlink:href="#" >
				<g>
					<polygon fill="#FFFF33" points="298.0811,92.2549 310.6401,85.0049 316.0391,94.375 301.8691,102.5459 297.4019,94.8071
						298.9932,93.8691 				"/>
				</g>
			</a>
			<a id="R4205" xlink:href="#" >
				<g>
					<polygon fill="#FFFF33" points="302.104,102.9429 316.2642,94.7661 321.6309,104.0801 307.459,112.251 				"/>
				</g>
			</a>
			<a id="R4207" xlink:href="#" >
				<g>
					<polygon fill="#FFFF33" points="307.6929,112.6709 321.8608,104.479 327.2393,113.813 313.0962,121.98 				"/>
				</g>
			</a>
			<a id="R4209" xlink:href="#" >
				<g>
					<polygon fill="#FFFF33" points="313.3291,122.3779 318.6802,131.748 332.834,123.5698 327.4707,114.2119 				"/>
				</g>
			</a>
			<a id="R4211" xlink:href="#" >
				<g>
					<polygon fill="#FFFF33" points="318.9038,132.1357 333.0684,123.9678 338.4473,133.2749 324.251,141.4619 				"/>
				</g>
			</a>
			<a id="R4217" xlink:href="#" >
				<g>
					<polygon fill="#FFFF33" points="353.7207,192.4707 367.6816,184.4023 370.208,188.7754 377.9258,184.1445 375.4707,179.9121
						389.3613,171.8911 391.3496,175.3965 389.7598,176.3105 390.8574,178.251 392.4746,177.3203 400.2607,190.7637
						364.6182,211.3457 356.8828,197.916 358.4668,196.96 357.3457,195.0215 355.7305,195.9551 				"/>
				</g>
			</a>
			<a id="R4215" xlink:href="#" >
				<g>
					<polygon fill="#FFFF33" points="330.1211,151.5889 332.1631,155.1431 346.3535,146.98 344.2852,143.396 				"/>
				</g>
			</a>
			<a id="R4202A" xlink:href="#" >
				<g>
					<polygon fill="#FFFF33" points="299.4839,48.9639 301.168,51.8652 315.083,43.8672 313.4019,40.9409 				"/>
				</g>
			</a>
		</g> <!-- End Rooms -->

		<g id="Portals" style="display:none;">

				<line id="Elev.1.floor5" fill="none" stroke="#000000" stroke-width="0.7087" stroke-linecap="round" stroke-linejoin="round" stroke-miterlimit="10" x1="287.5859" y1="46.396" x2="287.0962" y2="49.1768"/>

				<line id="Elev.1.floor3" fill="none" stroke="#000000" stroke-width="0.7087" stroke-linecap="round" stroke-linejoin="round" stroke-miterlimit="10" x1="287.4971" y1="46.4473" x2="285.4331" y2="48.623"/>

				<line id="Elev.1.floor2" fill="none" stroke="#000000" stroke-width="0.7087" stroke-linecap="round" stroke-linejoin="round" stroke-miterlimit="10" x1="287.4971" y1="46.4473" x2="283.6689" y2="48.1318"/>

				<line id="Elev.1.floor1" fill="none" stroke="#000000" stroke-width="0.7087" stroke-linecap="round" stroke-linejoin="round" stroke-miterlimit="10" x1="287.4971" y1="46.4473" x2="282.2168" y2="47.105"/>

				<line id="Elev.1.floor0" fill="none" stroke="#000000" stroke-width="0.7087" stroke-linecap="round" stroke-linejoin="round" stroke-miterlimit="10" x1="287.4971" y1="46.4473" x2="281.6011" y2="45.438"/>

				<line id="Stair.2.floor5" fill="none" stroke="#000000" stroke-width="0.7087" stroke-linecap="round" stroke-linejoin="round" stroke-miterlimit="10" x1="377.5391" y1="160.4141" x2="377.5391" y2="157.373"/>

				<line id="Stair.2.floor3" fill="none" stroke="#000000" stroke-width="0.7087" stroke-linecap="round" stroke-linejoin="round" stroke-miterlimit="10" x1="371.7041" y1="164.9268" x2="372.7363" y2="162.063"/>

				<line id="Stair.2.floor2" fill="none" stroke="#000000" stroke-width="0.7087" stroke-linecap="round" stroke-linejoin="round" stroke-miterlimit="10" x1="371.7041" y1="164.9268" x2="370.8145" y2="160.4141"/>

				<line id="Stair.2.floor1" fill="none" stroke="#000000" stroke-width="0.7087" stroke-linecap="round" stroke-linejoin="round" stroke-miterlimit="10" x1="371.7041" y1="164.9268" x2="367.5029" y2="160.5371"/>

				<line id="Elev.2.floor3" fill="none" stroke="#000000" stroke-width="0.7087" stroke-linecap="round" stroke-linejoin="round" stroke-miterlimit="10" x1="361.2637" y1="165.7891" x2="362.6035" y2="162.7769"/>

				<line id="Elev.2.floor2" fill="none" stroke="#000000" stroke-width="0.7087" stroke-linecap="round" stroke-linejoin="round" stroke-miterlimit="10" x1="361.2637" y1="165.7891" x2="360.3379" y2="161.6748"/>

				<line id="Elev.2.floor1" fill="none" stroke="#000000" stroke-width="0.7087" stroke-linecap="round" stroke-linejoin="round" stroke-miterlimit="10" x1="361.2637" y1="165.7891" x2="358.1348" y2="161.6748"/>

				<line id="Elev.2.floor0" fill="none" stroke="#000000" stroke-width="0.7087" stroke-linecap="round" stroke-linejoin="round" stroke-miterlimit="10" x1="361.2637" y1="165.7891" x2="355.1465" y2="161.895"/>

				<line id="Stair.6.floor3" fill="none" stroke="#000000" stroke-width="0.7087" stroke-linecap="round" stroke-linejoin="round" stroke-miterlimit="10" x1="94" y1="183.6338" x2="93.688" y2="188.46"/>

				<line id="Stair.6.floor2" fill="none" stroke="#000000" stroke-width="0.7087" stroke-linecap="round" stroke-linejoin="round" stroke-miterlimit="10" x1="94" y1="183.6338" x2="91.438" y2="189.6035"/>

				<line id="Stair.6.floor1" fill="none" stroke="#000000" stroke-width="0.7087" stroke-linecap="round" stroke-linejoin="round" stroke-miterlimit="10" x1="94" y1="183.6338" x2="88.188" y2="190.0176"/>

				<line id="Stair.6.floor0" fill="none" stroke="#000000" stroke-width="0.7087" stroke-linecap="round" stroke-linejoin="round" stroke-miterlimit="10" x1="94" y1="183.6338" x2="86.063" y2="188.8223"/>

				<line id="Elev.6.floor3" fill="none" stroke="#000000" stroke-width="0.7087" stroke-linecap="round" stroke-linejoin="round" stroke-miterlimit="10" x1="102.124" y1="193.4189" x2="101.1318" y2="195.3965"/>

				<line id="Elev.6.floor2" fill="none" stroke="#000000" stroke-width="0.7087" stroke-linecap="round" stroke-linejoin="round" stroke-miterlimit="10" x1="102.124" y1="193.4189" x2="99.0439" y2="195.3965"/>

				<line id="Elev.6.floor1" fill="none" stroke="#000000" stroke-width="0.7087" stroke-linecap="round" stroke-linejoin="round" stroke-miterlimit="10" x1="102.124" y1="193.4189" x2="97.3198" y2="194.4082"/>

				<line id="Elev.6.floor0" fill="none" stroke="#000000" stroke-width="0.7087" stroke-linecap="round" stroke-linejoin="round" stroke-miterlimit="10" x1="102.124" y1="193.4189" x2="95.71" y2="192.0293"/>

				<line id="Stair.7.floor3" fill="none" stroke="#000000" stroke-width="0.7087" stroke-linecap="round" stroke-linejoin="round" stroke-miterlimit="10" x1="53.8472" y1="77.2529" x2="54.1851" y2="74.8262"/>

				<line id="Stair.7.floor2" fill="none" stroke="#000000" stroke-width="0.7087" stroke-linecap="round" stroke-linejoin="round" stroke-miterlimit="10" x1="53.8472" y1="77.2529" x2="56.2529" y2="74.2139"/>

				<line id="Stair.7.floor1" fill="none" stroke="#000000" stroke-width="0.7087" stroke-linecap="round" stroke-linejoin="round" stroke-miterlimit="10" x1="53.8472" y1="77.2529" x2="57.8452" y2="74.2139"/>

				<line id="Stair.1.floor5" fill="none" stroke="#000000" stroke-width="0.7087" stroke-linecap="round" stroke-linejoin="round" stroke-miterlimit="10" x1="289.6602" y1="53.5029" x2="288.749" y2="56.3262"/>

				<line id="Stair.1.floor3" fill="none" stroke="#000000" stroke-width="0.7087" stroke-linecap="round" stroke-linejoin="round" stroke-miterlimit="10" x1="277.813" y1="39.479" x2="276.897" y2="38"/>

				<line id="Stair.1.floor2" fill="none" stroke="#000000" stroke-width="0.7087" stroke-linecap="round" stroke-linejoin="round" stroke-miterlimit="10" x1="277.813" y1="39.479" x2="274.606" y2="40.0459"/>

				<line id="Stair.1.floor1" fill="none" stroke="#000000" stroke-width="0.7087" stroke-linecap="round" stroke-linejoin="round" stroke-miterlimit="10" x1="277.813" y1="39.479" x2="272.644" y2="41.375"/>
		</g> <!-- End Portals -->

		<g id="Doors">
				<line id="R4217" fill="none" stroke="#000000" stroke-width="0.7087" stroke-linecap="round" stroke-linejoin="round" stroke-miterlimit="10" x1="373.0049" y1="185.1016" x2="379.0273" y2="191.125"/>

				<line id="R4216" fill="none" stroke="#000000" stroke-width="0.7087" stroke-linecap="round" stroke-linejoin="round" stroke-miterlimit="10" x1="360.7617" y1="154.4448" x2="363.3457" y2="148.373"/>

				<line id="R4214" fill="none" stroke="#000000" stroke-width="0.7087" stroke-linecap="round" stroke-linejoin="round" stroke-miterlimit="10" x1="353.7031" y1="137.875" x2="358.0703" y2="141.4619"/>

				<line id="R4215" fill="none" stroke="#000000" stroke-width="0.7087" stroke-linecap="round" stroke-linejoin="round" stroke-miterlimit="10" x1="344.126" y1="146.0698" x2="338.6816" y2="148.4902"/>

				<line id="R4213" fill="none" stroke="#000000" stroke-width="0.7087" stroke-linecap="round" stroke-linejoin="round" stroke-miterlimit="10" x1="338.4473" y1="136.146" x2="335.9209" y2="141.771"/>

				<line id="R4212" fill="none" stroke="#000000" stroke-width="0.7087" stroke-linecap="round" stroke-linejoin="round" stroke-miterlimit="10" x1="346.498" y1="125.23" x2="346.6543" y2="120.188"/>

				<line id="R4211" fill="none" stroke="#000000" stroke-width="0.7087" stroke-linecap="round" stroke-linejoin="round" stroke-miterlimit="10" x1="335.9209" y1="131.895" x2="327.4707" y2="131.9492"/>

				<line id="R4209" fill="none" stroke="#000000" stroke-width="0.7087" stroke-linecap="round" stroke-linejoin="round" stroke-miterlimit="10" x1="327.3867" y1="116.8198" x2="324.998" y2="121.3091"/>

				<line id="R4210" fill="none" stroke="#000000" stroke-width="0.7087" stroke-linecap="round" stroke-linejoin="round" stroke-miterlimit="10" x1="337.3574" y1="111.563" x2="343.5566" y2="111.25"/>

				<line id="R4208" fill="none" stroke="#000000" stroke-width="0.7087" stroke-linecap="round" stroke-linejoin="round" stroke-miterlimit="10" x1="335.1309" y1="106.813" x2="338.4229" y2="101.1172"/>

				<line id="R4207" fill="none" stroke="#000000" stroke-width="0.7087" stroke-linecap="round" stroke-linejoin="round" stroke-miterlimit="10" x1="324.8125" y1="112.6709" x2="317.439" y2="112.6709"/>

				<line id="R4206" fill="none" stroke="#000000" stroke-width="0.7087" stroke-linecap="round" stroke-linejoin="round" stroke-miterlimit="10" x1="326.3887" y1="91.271" x2="333.7441" y2="91.604"/>

				<line id="R4205" fill="none" stroke="#000000" stroke-width="0.7087" stroke-linecap="round" stroke-linejoin="round" stroke-miterlimit="10" x1="315.7607" y1="97.3979" x2="312.71" y2="101.813"/>

				<line id="R4204" fill="none" stroke="#000000" stroke-width="0.7087" stroke-linecap="round" stroke-linejoin="round" stroke-miterlimit="10" x1="324.4902" y1="87.7568" x2="328.3359" y2="81.8262"/>

				<line id="R4203" fill="none" stroke="#000000" stroke-width="0.7087" stroke-linecap="round" stroke-linejoin="round" stroke-miterlimit="10" x1="312.9648" y1="92.979" x2="305.3691" y2="92.7139"/>

				<line id="R4202" fill="none" stroke="#000000" stroke-width="0.7087" stroke-linecap="round" stroke-linejoin="round" stroke-miterlimit="10" x1="290.1641" y1="29.8447" x2="299.939" y2="33.688"/>

				<line id="R4202A" fill="none" stroke="#000000" stroke-width="0.7087" stroke-linecap="round" stroke-linejoin="round" stroke-miterlimit="10" x1="300.8301" y1="46.605" x2="303.251" y2="48.438"/>

				<line id="R4101" fill="none" stroke="#000000" stroke-width="0.7087" stroke-linecap="round" stroke-linejoin="round" stroke-miterlimit="10" x1="65.6392" y1="91.1641" x2="72.7788" y2="98.3052"/>

				<line id="R4101A" fill="none" stroke="#000000" stroke-width="0.7087" stroke-linecap="round" stroke-linejoin="round" stroke-miterlimit="10" x1="123.3999" y1="143.0088" x2="116.0122" y2="144.939"/>

				<line id="R4101" fill="none" stroke="#000000" stroke-width="0.7087" stroke-linecap="round" stroke-linejoin="round" stroke-miterlimit="10" x1="100.019" y1="145.251" x2="100.019" y2="133.3818"/>
		</g> <!-- End Doors -->

		<g id="Paths" style="opacity: 1">

				<line fill="none" stroke="#000000" stroke-width="0.7087" stroke-linecap="round" stroke-linejoin="round" stroke-miterlimit="10" x1="94" y1="183.6338" x2="107.7651" y2="182.375"/>

				<line fill="none" stroke="#000000" stroke-width="0.7087" stroke-linecap="round" stroke-linejoin="round" stroke-miterlimit="10" x1="107.7651" y1="182.375" x2="108.249" y2="191.9551"/>

				<line fill="none" stroke="#000000" stroke-width="0.7087" stroke-linecap="round" stroke-linejoin="round" stroke-miterlimit="10" x1="108.249" y1="191.9551" x2="102.124" y2="193.4189"/>

				<line fill="none" stroke="#000000" stroke-width="0.7087" stroke-linecap="round" stroke-linejoin="round" stroke-miterlimit="10" x1="107.7651" y1="182.375" x2="105.2368" y2="160.5229"/>

				<line fill="none" stroke="#000000" stroke-width="0.7087" stroke-linecap="round" stroke-linejoin="round" stroke-miterlimit="10" x1="105.2368" y1="160.5229" x2="108.0068" y2="156.104"/>

				<line fill="none" stroke="#000000" stroke-width="0.7087" stroke-linecap="round" stroke-linejoin="round" stroke-miterlimit="10" x1="108.0068" y1="156.104" x2="103.146" y2="149.2939"/>

				<line fill="none" stroke="#000000" stroke-width="0.7087" stroke-linecap="round" stroke-linejoin="round" stroke-miterlimit="10" x1="103.146" y1="149.2939" x2="100.019" y2="145.251"/>

				<line fill="none" stroke="#000000" stroke-width="0.7087" stroke-linecap="round" stroke-linejoin="round" stroke-miterlimit="10" x1="100.019" y1="145.251" x2="115.835" y2="129.9619"/>

				<line fill="none" stroke="#000000" stroke-width="0.7087" stroke-linecap="round" stroke-linejoin="round" stroke-miterlimit="10" x1="115.835" y1="129.9619" x2="126.6719" y2="140.585"/>

				<line fill="none" stroke="#000000" stroke-width="0.7087" stroke-linecap="round" stroke-linejoin="round" stroke-miterlimit="10" x1="126.6719" y1="140.585" x2="123.3999" y2="143.0088"/>

				<line fill="none" stroke="#000000" stroke-width="0.7087" stroke-linecap="round" stroke-linejoin="round" stroke-miterlimit="10" x1="100.019" y1="145.251" x2="78.207" y2="80.4492"/>

				<line fill="none" stroke="#000000" stroke-width="0.7087" stroke-linecap="round" stroke-linejoin="round" stroke-miterlimit="10" x1="115.835" y1="129.9619" x2="55.3901" y2="99.9019"/>

				<polyline fill="none" stroke="#000000" stroke-width="0.7087" stroke-linecap="round" stroke-linejoin="round" stroke-miterlimit="10" points="
				55.3901,99.9019 65.6392,91.1641 78.207,80.4492 		"/>

				<line fill="none" stroke="#000000" stroke-width="0.7087" stroke-linecap="round" stroke-linejoin="round" stroke-miterlimit="10" x1="100.019" y1="145.251" x2="55.3901" y2="99.9019"/>

				<line fill="none" stroke="#000000" stroke-width="0.7087" stroke-linecap="round" stroke-linejoin="round" stroke-miterlimit="10" x1="115.835" y1="129.9619" x2="77.3042" y2="80.4492"/>

				<line fill="none" stroke="#000000" stroke-width="0.7087" stroke-linecap="round" stroke-linejoin="round" stroke-miterlimit="10" x1="65.6392" y1="91.1641" x2="59.9048" y2="85.875"/>

				<line fill="none" stroke="#000000" stroke-width="0.7087" stroke-linecap="round" stroke-linejoin="round" stroke-miterlimit="10" x1="59.9048" y1="85.875" x2="57.3838" y2="83.2231"/>

				<line fill="none" stroke="#000000" stroke-width="0.7087" stroke-linecap="round" stroke-linejoin="round" stroke-miterlimit="10" x1="57.3838" y1="83.2231" x2="51.9912" y2="87.3569"/>

				<line fill="none" stroke="#000000" stroke-width="0.7087" stroke-linecap="round" stroke-linejoin="round" stroke-miterlimit="10" x1="51.9912" y1="87.3569" x2="48.2441" y2="82.8159"/>

				<line fill="none" stroke="#000000" stroke-width="0.7087" stroke-linecap="round" stroke-linejoin="round" stroke-miterlimit="10" x1="48.2441" y1="82.8159" x2="53.8472" y2="77.2529"/>

				<line fill="none" stroke="#000000" stroke-width="0.7087" stroke-linecap="round" stroke-linejoin="round" stroke-miterlimit="10" x1="287.9902" y1="39.104" x2="277.813" y2="39.479"/>

				<line fill="none" stroke="#000000" stroke-width="0.7087" stroke-linecap="round" stroke-linejoin="round" stroke-miterlimit="10" x1="287.9902" y1="39.104" x2="284.9741" y2="32.1621"/>

				<line fill="none" stroke="#000000" stroke-width="0.7087" stroke-linecap="round" stroke-linejoin="round" stroke-miterlimit="10" x1="284.9741" y1="32.1621" x2="290.1641" y2="29.8447"/>

				<line fill="none" stroke="#000000" stroke-width="0.7087" stroke-linecap="round" stroke-linejoin="round" stroke-miterlimit="10" x1="290.1641" y1="29.8447" x2="300.8301" y2="46.605"/>

				<line fill="none" stroke="#000000" stroke-width="0.7087" stroke-linecap="round" stroke-linejoin="round" stroke-miterlimit="10" x1="287.9902" y1="39.104" x2="291.1602" y2="44.3481"/>

				<line fill="none" stroke="#000000" stroke-width="0.7087" stroke-linecap="round" stroke-linejoin="round" stroke-miterlimit="10" x1="291.1602" y1="44.3481" x2="287.5859" y2="46.396"/>

				<line fill="none" stroke="#000000" stroke-width="0.7087" stroke-linecap="round" stroke-linejoin="round" stroke-miterlimit="10" x1="291.1602" y1="44.3481" x2="294.7681" y2="50.8071"/>

				<line fill="none" stroke="#000000" stroke-width="0.7087" stroke-linecap="round" stroke-linejoin="round" stroke-miterlimit="10" x1="294.7681" y1="50.8071" x2="289.6602" y2="53.5029"/>

				<line fill="none" stroke="#000000" stroke-width="0.7087" stroke-linecap="round" stroke-linejoin="round" stroke-miterlimit="10" x1="294.7681" y1="50.8071" x2="315.9712" y2="86.4922"/>

				<line fill="none" stroke="#000000" stroke-width="0.7087" stroke-linecap="round" stroke-linejoin="round" stroke-miterlimit="10" x1="315.9712" y1="86.4922" x2="318.6143" y2="90.375"/>

				<line fill="none" stroke="#000000" stroke-width="0.7087" stroke-linecap="round" stroke-linejoin="round" stroke-miterlimit="10" x1="318.6143" y1="90.375" x2="324.1367" y2="87.6499"/>

				<line fill="none" stroke="#000000" stroke-width="0.7087" stroke-linecap="round" stroke-linejoin="round" stroke-miterlimit="10" x1="318.6143" y1="90.375" x2="312.9648" y2="92.979"/>

				<line fill="none" stroke="#000000" stroke-width="0.7087" stroke-linecap="round" stroke-linejoin="round" stroke-miterlimit="10" x1="318.6143" y1="90.375" x2="321.188" y2="94.5371"/>

				<line fill="none" stroke="#000000" stroke-width="0.7087" stroke-linecap="round" stroke-linejoin="round" stroke-miterlimit="10" x1="321.188" y1="94.5371" x2="326.3887" y2="91.271"/>

				<line fill="none" stroke="#000000" stroke-width="0.7087" stroke-linecap="round" stroke-linejoin="round" stroke-miterlimit="10" x1="321.188" y1="94.5371" x2="315.7607" y2="97.3979"/>

				<line fill="none" stroke="#000000" stroke-width="0.7087" stroke-linecap="round" stroke-linejoin="round" stroke-miterlimit="10" x1="321.188" y1="94.5371" x2="329.7393" y2="109.8301"/>

				<line fill="none" stroke="#000000" stroke-width="0.7087" stroke-linecap="round" stroke-linejoin="round" stroke-miterlimit="10" x1="329.7393" y1="109.8301" x2="335.1309" y2="106.813"/>

				<line fill="none" stroke="#000000" stroke-width="0.7087" stroke-linecap="round" stroke-linejoin="round" stroke-miterlimit="10" x1="329.7393" y1="109.8301" x2="324.8125" y2="112.6709"/>

				<line fill="none" stroke="#000000" stroke-width="0.7087" stroke-linecap="round" stroke-linejoin="round" stroke-miterlimit="10" x1="329.7393" y1="109.8301" x2="332.1563" y2="114.2729"/>

				<line fill="none" stroke="#000000" stroke-width="0.7087" stroke-linecap="round" stroke-linejoin="round" stroke-miterlimit="10" x1="332.1563" y1="114.2729" x2="337.3574" y2="111.563"/>

				<line fill="none" stroke="#000000" stroke-width="0.7087" stroke-linecap="round" stroke-linejoin="round" stroke-miterlimit="10" x1="332.1563" y1="114.2729" x2="327.3867" y2="116.8198"/>

				<line fill="none" stroke="#000000" stroke-width="0.7087" stroke-linecap="round" stroke-linejoin="round" stroke-miterlimit="10" x1="332.1563" y1="114.2729" x2="340.6445" y2="129.3369"/>

				<line fill="none" stroke="#000000" stroke-width="0.7087" stroke-linecap="round" stroke-linejoin="round" stroke-miterlimit="10" x1="340.6445" y1="129.3369" x2="335.9209" y2="131.895"/>

				<line fill="none" stroke="#000000" stroke-width="0.7087" stroke-linecap="round" stroke-linejoin="round" stroke-miterlimit="10" x1="340.6445" y1="129.3369" x2="343.1318" y2="133.6411"/>

				<line fill="none" stroke="#000000" stroke-width="0.7087" stroke-linecap="round" stroke-linejoin="round" stroke-miterlimit="10" x1="343.1318" y1="133.6411" x2="338.4473" y2="136.146"/>

				<line fill="none" stroke="#000000" stroke-width="0.7087" stroke-linecap="round" stroke-linejoin="round" stroke-miterlimit="10" x1="343.1318" y1="133.6411" x2="344.2656" y2="135.104"/>

				<line fill="none" stroke="#000000" stroke-width="0.7087" stroke-linecap="round" stroke-linejoin="round" stroke-miterlimit="10" x1="344.2656" y1="135.104" x2="349.9727" y2="132.0498"/>

				<line fill="none" stroke="#000000" stroke-width="0.7087" stroke-linecap="round" stroke-linejoin="round" stroke-miterlimit="10" x1="349.9727" y1="132.0498" x2="346.498" y2="125.23"/>

				<line fill="none" stroke="#000000" stroke-width="0.7087" stroke-linecap="round" stroke-linejoin="round" stroke-miterlimit="10" x1="349.9727" y1="132.0498" x2="353.7031" y2="137.875"/>

				<line fill="none" stroke="#000000" stroke-width="0.7087" stroke-linecap="round" stroke-linejoin="round" stroke-miterlimit="10" x1="344.2656" y1="135.104" x2="348.6211" y2="143.5049"/>

				<line fill="none" stroke="#000000" stroke-width="0.7087" stroke-linecap="round" stroke-linejoin="round" stroke-miterlimit="10" x1="348.6211" y1="143.5049" x2="344.126" y2="146.0698"/>

				<polyline fill="none" stroke="#000000" stroke-width="0.7087" stroke-linecap="round" stroke-linejoin="round" stroke-miterlimit="10" points="
				348.6211,143.5049 352.7305,150.625 356.2471,156.7158 		"/>

				<path fill="none" stroke="#000000" stroke-width="0.7087" stroke-linecap="round" stroke-linejoin="round" stroke-miterlimit="10" d="
				M360.7617,154.4448"/>

				<path fill="none" stroke="#000000" stroke-width="0.7087" stroke-linecap="round" stroke-linejoin="round" stroke-miterlimit="10" d="
				M356.2471,156.7158"/>

				<line fill="none" stroke="#000000" stroke-width="0.7087" stroke-linecap="round" stroke-linejoin="round" stroke-miterlimit="10" x1="352.7305" y1="150.625" x2="347.8027" y2="153.041"/>

				<line fill="none" stroke="#000000" stroke-width="0.7087" stroke-linecap="round" stroke-linejoin="round" stroke-miterlimit="10" x1="347.8027" y1="153.041" x2="344.126" y2="155.146"/>

				<line fill="none" stroke="#000000" stroke-width="0.7087" stroke-linecap="round" stroke-linejoin="round" stroke-miterlimit="10" x1="344.126" y1="155.146" x2="356.375" y2="174.3594"/>

				<line fill="none" stroke="#000000" stroke-width="0.7087" stroke-linecap="round" stroke-linejoin="round" stroke-miterlimit="10" x1="356.375" y1="174.3594" x2="363.7637" y2="169.4839"/>

				<line fill="none" stroke="#000000" stroke-width="0.7087" stroke-linecap="round" stroke-linejoin="round" stroke-miterlimit="10" x1="363.7637" y1="169.4839" x2="361.2637" y2="165.7891"/>

				<line fill="none" stroke="#000000" stroke-width="0.7087" stroke-linecap="round" stroke-linejoin="round" stroke-miterlimit="10" x1="363.7637" y1="169.4839" x2="369.6465" y2="179.0566"/>

				<line fill="none" stroke="#000000" stroke-width="0.7087" stroke-linecap="round" stroke-linejoin="round" stroke-miterlimit="10" x1="369.6465" y1="179.0566" x2="373.0049" y2="185.1016"/>

				<line fill="none" stroke="#000000" stroke-width="0.7087" stroke-linecap="round" stroke-linejoin="round" stroke-miterlimit="10" x1="369.6465" y1="179.0566" x2="377.6465" y2="174.3594"/>

				<line fill="none" stroke="#000000" stroke-width="0.7087" stroke-linecap="round" stroke-linejoin="round" stroke-miterlimit="10" x1="377.6465" y1="174.3594" x2="371.7041" y2="164.9268"/>

				<line fill="none" stroke="#000000" stroke-width="0.7087" stroke-linecap="round" stroke-linejoin="round" stroke-miterlimit="10" x1="377.6465" y1="174.3594" x2="383.5498" y2="171.251"/>

				<line fill="none" stroke="#000000" stroke-width="0.7087" stroke-linecap="round" stroke-linejoin="round" stroke-miterlimit="10" x1="383.5498" y1="171.251" x2="377.5391" y2="160.4141"/>
				<line fill="none" stroke="#000000" stroke-width="0.7087" stroke-linecap="round" stroke-linejoin="round" stroke-miterlimit="10" x1="356.2471" y1="156.7158" x2="360.7617" y2="154.4448"/>
		</g> <!-- End Paths -->

	</g> <!-- End Data Layer -->

</svg>
