<svg viewBox="0 0 643 343" xmlns="http://www.w3.org/2000/svg" xmlns:xlink="http://www.w3.org/1999/xlink"><pattern x="-74" y="478" width="57.6" height="57.6" patternUnits="userSpaceOnUse" id="a" viewBox="0 -57.5996 57.5996 57.5996" overflow="visible"><g fill="none"><path d="M0-57.6h57.6V0H0z"/><path stroke="#231F20" stroke-width=".3" d="M52.5-54h3M38.1-54h3M23.7-54h3M9.3-54h3M45.3-46.8h3M30.9-46.8h3M16.5-46.8h3M2.1-46.8h3M52.5-39.6h3M38.1-39.6h3M23.7-39.6h3M9.3-39.6h3M45.3-32.4h3M30.9-32.4h3M16.5-32.4h3M2.1-32.4h3M52.5-25.2h3M38.1-25.2h3M23.7-25.2h3M9.3-25.2h3M45.3-18h3M30.9-18h3M16.5-18h3M2.1-18h3M52.5-10.8h3M38.1-10.8h3M23.7-10.8h3M9.3-10.8h3M45.3-3.6h3M30.9-3.6h3M16.5-3.6h3M2.1-3.6h3M54-55.5v3M39.6-55.5v3M25.2-55.5v3M10.8-55.5v3M46.8-48.3v3M32.4-48.3v3M18-48.3v3M3.6-48.3v3M54-41.1v3M39.6-41.1v3M25.2-41.1v3M10.8-41.1v3M46.8-33.9v3M32.4-33.9v3M18-33.9v3M3.6-33.9v3M54-26.7v3M39.6-26.7v3M25.2-26.7v3M10.8-26.7v3M46.8-19.5v3M32.4-19.5v3M18-19.5v3M3.6-19.5v3M54-12.3v3M39.6-12.3v3M25.2-12.3v3M10.8-12.3v3M46.8-5.1v3M32.4-5.1v3M18-5.1v3M3.6-5.1v3"/></g></pattern><g fill="none" stroke="#878686" stroke-width=".709" stroke-linecap="round" stroke-linejoin="round" stroke-miterlimit="10"><path d="M377.647 166.587l4.882-2.816M378.154 167.468l4.886-2.818M378.665 168.352l4.885-2.817M377.137 165.707l4.882-2.816M372.228 160.126l-4.831 2.832M376.286 167.191l-4.809 2.825M374.766 164.542l-4.821 2.827M375.272 165.427l-4.817 2.823M375.779 166.311l-4.814 2.821M374.258 163.66l-4.823 2.824M372.736 161.009l-4.83 2.832M373.243 161.895l-4.827 2.83M373.75 162.775l-4.824 2.829M376.794 168.078l-4.81 2.818M377.301 168.96l-4.806 2.815M374.589 161.296l4.882-2.816M375.1 162.18l4.881-2.819M375.607 163.061l4.883-2.817M376.117 163.939l4.883-2.813M376.627 164.824l4.883-2.817M377.809 169.843l-4.804 2.817M374.079 160.414l4.882-2.814M373.06 158.648l4.881-2.813M373.57 159.533l4.881-2.817"/></g><pattern id="b" xlink:href="#a" patternTransform="matrix(.32 0 0 .32 -5232.955 -5906.036)"/><path fill="url(#b)" d="M400.667 191.334L367 212l20.333 35-1.666 1.667 36 63.333 36.666-21.333z"/><g fill="#C6C4C4"><path d="M77.666 73.167L60.334 91l-3.668-3.333-11.666 12 54 54.166 5.5-6.333 9.5 9.333L137.167 133zM353.167 192.334l11.333 20 36.667-21.167-11.334-20-14.833 9 2.333 4-7 3.833-2.833-4.333zM332.167 155.833l14.5-8.666L310.5 85l-14.166 8.334zM332 72.334L317.5 81l27.333 47.833 5.667-3 5.167 9.834-4.834 2.833 10.5 18.167 15.5-7.667zM284.75 25.25l16.416 28.084 14.918-8.834-11.168-19.333z"/></g><g fill="#FFF"><path d="M111.43 147.553v-.56h-1.015v-.263l1.067-1.516h.235v1.515h.316v.263h-.316v.56h-.288zm0-.823v-1.055l-.733 1.054h.732zM113.408 147.553h-.287v-1.83c-.07.065-.16.131-.272.197a1.83 1.83 0 0 1-.303.148v-.277c.161-.075.301-.167.421-.274.12-.108.206-.212.256-.313h.185v2.349zM114.144 146.4c0-.278.028-.5.085-.669a.829.829 0 0 1 .253-.39.652.652 0 0 1 .424-.137c.126 0 .236.026.33.075a.64.64 0 0 1 .235.22c.062.095.11.211.145.347.035.136.053.321.053.553 0 .275-.028.497-.085.665a.837.837 0 0 1-.253.391.65.65 0 0 1-.425.138.64.64 0 0 1-.531-.243c-.154-.195-.231-.511-.231-.95zm.294 0c0 .383.045.639.135.766.09.127.202.19.333.19s.243-.063.333-.191.135-.383.135-.766c0-.385-.045-.641-.135-.767-.09-.127-.202-.19-.336-.19a.367.367 0 0 0-.316.167c-.099.143-.148.406-.148.79zM117.043 147.553h-.288v-1.83c-.068.065-.16.131-.272.197a1.83 1.83 0 0 1-.302.148v-.277c.16-.075.301-.167.421-.274.12-.108.206-.212.256-.313h.185v2.349zM117.638 147.553l.898-2.34h.334l.957 2.34h-.352l-.273-.708h-.978l-.258.708h-.328zm.675-.961h.793l-.244-.648a6.286 6.286 0 0 1-.166-.485c-.03.15-.072.299-.126.447l-.257.686z"/></g><g fill="#FFF"><path d="M86.405 114.849v-.56h-1.014v-.264l1.067-1.515h.235v1.515h.316v.263h-.316v.56h-.288zm0-.824v-1.054l-.732 1.054h.732zM88.384 114.849h-.287v-1.83c-.07.065-.16.131-.272.197a1.83 1.83 0 0 1-.303.148v-.277c.161-.075.301-.167.421-.275.121-.107.206-.211.256-.312h.185v2.349zM89.12 113.695c0-.277.028-.499.085-.668a.829.829 0 0 1 .253-.39.652.652 0 0 1 .424-.137c.126 0 .236.025.33.075a.64.64 0 0 1 .235.219c.062.096.11.212.145.348.035.136.053.321.053.553 0 .275-.028.496-.085.664a.837.837 0 0 1-.253.392.65.65 0 0 1-.425.138.64.64 0 0 1-.531-.243c-.154-.195-.231-.511-.231-.95zm.295 0c0 .384.044.64.134.767.09.127.202.19.333.19s.243-.063.333-.191.135-.383.135-.766c0-.385-.045-.641-.135-.767-.09-.127-.202-.19-.336-.19a.367.367 0 0 0-.316.167c-.099.143-.148.406-.148.79zM92.019 114.849h-.287v-1.83c-.07.065-.16.131-.272.197a1.83 1.83 0 0 1-.303.148v-.277c.16-.075.301-.167.421-.275.12-.107.206-.211.256-.312h.185v2.349z"/></g><g fill="#FFF"><path d="M375.723 194.463v-.56h-1.016v-.263l1.068-1.516h.235v1.516h.316v.262h-.316v.56h-.287zm0-.823v-1.055l-.733 1.055h.733zM378.129 194.186v.277h-1.547a.528.528 0 0 1 .033-.2 1.09 1.09 0 0 1 .19-.31 3.13 3.13 0 0 1 .376-.355c.255-.208.427-.373.515-.495s.134-.238.134-.346c0-.113-.04-.21-.122-.288s-.188-.117-.318-.117c-.138 0-.25.042-.332.125s-.125.197-.126.344l-.295-.03c.02-.22.095-.389.228-.504.131-.115.309-.173.531-.173.225 0 .403.063.534.187s.195.278.195.463c0 .093-.02.185-.057.276-.039.09-.102.185-.191.285-.088.1-.236.237-.442.412-.173.145-.284.242-.332.294s-.09.104-.122.155h1.148zM379.518 194.463h-.287v-1.83c-.069.065-.16.132-.272.197a1.814 1.814 0 0 1-.303.149v-.278c.161-.075.301-.167.422-.274a1.08 1.08 0 0 0 .255-.313h.185v2.349zM380.273 192.43v-.276h1.514v.223a3.862 3.862 0 0 0-.781 1.443c-.059.196-.095.41-.111.643h-.295c.003-.184.039-.406.109-.667.068-.26.168-.512.297-.754s.268-.446.412-.612h-1.145z"/></g><g fill="#FFF"><path d="M336.508 101.852v-.56h-1.016v-.264l1.069-1.515h.234v1.515h.316v.263h-.316v.56h-.287zm0-.824v-1.054l-.733 1.054h.733zM338.914 101.575v.277h-1.547a.528.528 0 0 1 .033-.2 1.09 1.09 0 0 1 .19-.311 3.13 3.13 0 0 1 .376-.355c.255-.208.427-.373.516-.495s.133-.237.133-.345c0-.114-.04-.21-.122-.288s-.187-.118-.318-.118c-.138 0-.25.042-.332.125s-.125.198-.126.345l-.295-.03c.02-.221.096-.389.228-.504.131-.115.309-.173.532-.173.224 0 .402.062.533.186s.195.279.195.463c0 .094-.02.186-.056.277-.04.09-.103.185-.192.285-.088.1-.236.237-.442.412-.173.144-.283.242-.332.294s-.09.103-.121.155h1.147zM339.222 100.698c0-.277.028-.499.085-.668s.141-.299.254-.39a.653.653 0 0 1 .423-.137.7.7 0 0 1 .33.075c.095.05.173.124.235.219.062.096.11.212.145.348.036.136.053.32.053.553 0 .275-.028.496-.085.664a.842.842 0 0 1-.252.392.652.652 0 0 1-.426.138.641.641 0 0 1-.53-.244c-.155-.194-.232-.51-.232-.95zm.295 0c0 .384.044.64.134.767.091.127.202.19.333.19s.243-.063.332-.191.135-.383.135-.766c0-.386-.045-.641-.135-.767-.09-.127-.2-.19-.335-.19a.368.368 0 0 0-.316.167c-.099.143-.148.406-.148.79zM341.48 100.583a.534.534 0 0 1-.263-.186.482.482 0 0 1-.087-.292c0-.17.061-.312.184-.428s.285-.174.488-.174c.204 0 .368.06.493.178s.186.262.186.433a.48.48 0 0 1-.084.283.54.54 0 0 1-.26.186.63.63 0 0 1 .328.227.627.627 0 0 1 .112.373c0 .2-.071.368-.212.505-.141.135-.328.204-.558.204s-.417-.069-.559-.205-.213-.308-.213-.512c0-.152.04-.28.116-.382s.187-.173.33-.21zm-.149.594c0 .082.02.16.058.237.039.077.097.136.173.178a.493.493 0 0 0 .248.063.46.46 0 0 0 .473-.468.463.463 0 0 0-.137-.344.474.474 0 0 0-.345-.136.45.45 0 0 0-.336.135.451.451 0 0 0-.134.335zm.093-1.08a.361.361 0 0 0 .385.376c.109 0 .2-.034.271-.105a.346.346 0 0 0 .106-.256.37.37 0 0 0-.38-.373c-.11 0-.202.036-.274.105a.337.337 0 0 0-.108.253z"/></g><g fill="#FFF"><path d="M336.975 150.99l-.212-.363-.657.385-.1-.171.117-1.386.152-.089.575.982.204-.12.1.17-.205.12.212.363-.186.108zm-.312-.533l-.4-.683-.074.96.474-.277zM338.428 149.9l.105.178-1.002.586a.394.394 0 0 1-.053-.142.808.808 0 0 1 .004-.273c.018-.1.055-.223.11-.371.086-.232.135-.404.146-.517a.446.446 0 0 0-.045-.274.287.287 0 0 0-.187-.14.327.327 0 0 0-.25.045.338.338 0 0 0-.169.205.358.358 0 0 0 .05.271l-.203.093a.548.548 0 0 1-.043-.413.584.584 0 0 1 .278-.313.56.56 0 0 1 .417-.081c.13.031.232.106.3.225a.52.52 0 0 1 .07.2c.008.073.003.159-.016.257s-.064.244-.131.435a3.64 3.64 0 0 0-.104.317.804.804 0 0 0-.02.146l.743-.435zM339.433 149.552l-.186.109-.693-1.185a1.445 1.445 0 0 1-.241.441l-.105-.18c.075-.11.132-.221.169-.337s.053-.214.047-.298l.119-.07.89 1.52zM339.677 148.876l.186-.13c.07.087.145.138.226.155a.317.317 0 0 0 .232-.04.346.346 0 0 0 .168-.234.444.444 0 0 0-.063-.322.4.4 0 0 0-.236-.199.358.358 0 0 0-.289.045.37.37 0 0 0-.137.135.355.355 0 0 0-.053.173l-.188.08-.308-.865.754-.44.103.178-.603.353.155.455a.567.567 0 0 1 .231-.262.519.519 0 0 1 .415-.058c.144.038.26.128.343.273.08.137.11.278.088.426a.558.558 0 0 1-.29.416.564.564 0 0 1-.405.08.52.52 0 0 1-.33-.219z"/></g><g fill="#FFF"><path d="M332.525 143.572v-.56h-1.015v-.263l1.068-1.515h.235v1.515h.316v.263h-.316v.56h-.288zm0-.823v-1.055l-.732 1.055h.732zM334.932 143.296v.276h-1.547a.528.528 0 0 1 .033-.199 1.09 1.09 0 0 1 .19-.311 3.13 3.13 0 0 1 .375-.355c.255-.208.427-.373.516-.495s.134-.237.134-.346c0-.113-.041-.21-.122-.288s-.188-.117-.319-.117c-.137 0-.249.042-.332.125s-.125.197-.126.345l-.295-.03c.02-.221.096-.39.229-.505.13-.115.309-.172.531-.172.225 0 .402.062.533.186s.196.278.196.463c0 .094-.02.185-.057.276-.04.09-.102.186-.191.286-.088.1-.237.237-.443.412-.173.144-.283.242-.332.294s-.089.103-.12.155h1.147zM336.32 143.572h-.287v-1.83c-.068.066-.159.132-.271.198a1.814 1.814 0 0 1-.303.148v-.277c.161-.076.3-.167.422-.275a1.08 1.08 0 0 0 .255-.312h.184v2.348zM337.059 142.955l.287-.039c.033.163.089.28.168.352.079.072.176.108.289.108.136 0 .25-.047.343-.14s.14-.21.14-.348a.442.442 0 0 0-.459-.456.81.81 0 0 0-.202.033l.031-.252.047.003c.122 0 .233-.033.33-.096s.147-.162.147-.295a.346.346 0 0 0-.108-.262.375.375 0 0 0-.275-.103.395.395 0 0 0-.28.104.533.533 0 0 0-.143.317l-.287-.051a.74.74 0 0 1 .24-.448.695.695 0 0 1 .464-.159c.127 0 .244.028.352.082a.587.587 0 0 1 .332.526c0 .101-.027.193-.081.276s-.134.15-.241.198a.537.537 0 0 1 .322.199c.077.1.115.226.115.377a.69.69 0 0 1-.223.52.785.785 0 0 1-.565.212.73.73 0 0 1-.51-.182.704.704 0 0 1-.233-.476z"/></g><g fill="#FFF"><path d="M326.822 133.285v-.56h-1.015v-.263l1.068-1.516h.234v1.516h.317v.263h-.317v.56h-.287zm0-.823v-1.055l-.732 1.055h.732zM329.228 133.009v.276h-1.546a.528.528 0 0 1 .033-.199 1.09 1.09 0 0 1 .19-.311 3.13 3.13 0 0 1 .375-.355c.255-.208.427-.373.516-.495s.134-.237.134-.346c0-.113-.041-.21-.122-.288s-.188-.117-.319-.117c-.137 0-.249.042-.332.125s-.125.197-.126.345l-.295-.03c.02-.221.096-.39.229-.505.13-.115.308-.172.531-.172.225 0 .402.062.533.186s.196.278.196.463c0 .094-.02.185-.057.276-.04.09-.103.186-.191.286-.088.1-.237.237-.443.412-.173.144-.283.242-.332.294s-.089.103-.121.155h1.147zM330.617 133.285h-.287v-1.83c-.068.066-.16.132-.271.197a1.814 1.814 0 0 1-.303.149v-.277c.161-.076.3-.167.422-.275a1.08 1.08 0 0 0 .255-.312h.184v2.348zM332.192 133.285h-.287v-1.83c-.069.066-.159.132-.272.197a1.805 1.805 0 0 1-.302.149v-.277c.161-.076.3-.167.42-.275.122-.107.206-.212.257-.312h.184v2.348z"/></g><g fill="#FFF"><path d="M321.019 123.74v-.56h-1.015v-.263l1.068-1.516h.235v1.516h.316v.263h-.316v.56h-.288zm0-.823v-1.055l-.732 1.055h.732zM323.426 123.464v.276h-1.547a.501.501 0 0 1 .034-.199 1.08 1.08 0 0 1 .189-.311 3.13 3.13 0 0 1 .376-.355c.254-.208.426-.373.515-.495s.134-.237.134-.346c0-.113-.041-.21-.122-.288s-.188-.117-.318-.117c-.138 0-.25.042-.332.125s-.125.197-.126.345l-.295-.03c.02-.221.095-.39.228-.504.131-.116.309-.173.531-.173.225 0 .403.062.534.186s.195.278.195.463c0 .094-.02.186-.057.276-.039.09-.102.186-.191.286-.088.1-.236.237-.443.412-.172.144-.283.242-.332.294s-.088.103-.12.155h1.147zM323.733 122.587c0-.277.029-.5.085-.668s.142-.299.254-.39a.653.653 0 0 1 .424-.137.7.7 0 0 1 .33.075c.095.05.173.124.235.219s.11.211.145.347c.035.137.053.322.053.554 0 .274-.028.496-.085.664a.842.842 0 0 1-.252.392.652.652 0 0 1-.426.137.641.641 0 0 1-.531-.243c-.154-.194-.232-.51-.232-.95zm.295 0c0 .384.045.64.135.766.09.128.201.19.333.19s.242-.063.332-.19.135-.383.135-.766c0-.386-.045-.642-.135-.768-.09-.127-.201-.19-.336-.19a.368.368 0 0 0-.315.168c-.099.142-.149.405-.149.79zM325.594 123.2l.275-.026c.024.13.069.223.135.282s.15.088.254.088a.443.443 0 0 0 .395-.223.949.949 0 0 0 .107-.273 1.42 1.42 0 0 0 .043-.352l-.001-.056a.67.67 0 0 1-.559.307.652.652 0 0 1-.491-.21c-.135-.141-.201-.326-.201-.555 0-.237.07-.429.21-.573s.315-.217.525-.217a.755.755 0 0 1 .704.473c.067.152.099.37.099.658 0 .298-.032.537-.097.714a.843.843 0 0 1-.29.405.754.754 0 0 1-.451.138.657.657 0 0 1-.448-.152.66.66 0 0 1-.21-.429zm1.175-1.033c0-.165-.043-.296-.13-.393s-.194-.145-.318-.145a.437.437 0 0 0-.333.156.577.577 0 0 0-.142.405c0 .15.044.27.134.364s.202.14.333.14a.425.425 0 0 0 .327-.14.547.547 0 0 0 .13-.387z"/></g><g fill="#FFF"><path d="M315.434 113.963v-.56h-1.015v-.263l1.067-1.516h.235v1.516h.316v.262h-.316v.56h-.287zm0-.823v-1.055l-.733 1.055h.733zM317.84 113.686v.277h-1.546a.501.501 0 0 1 .033-.2c.04-.105.103-.208.19-.31.086-.102.212-.22.375-.355.255-.208.426-.373.516-.495s.134-.238.134-.346c0-.113-.041-.21-.123-.288s-.187-.117-.318-.117a.45.45 0 0 0-.332.125.472.472 0 0 0-.126.344l-.295-.03c.02-.22.096-.389.228-.504s.31-.173.531-.173c.225 0 .403.063.534.187s.196.278.196.463c0 .093-.02.185-.058.276-.038.09-.102.185-.19.285-.09.1-.237.238-.443.412-.172.145-.283.243-.332.294s-.09.104-.121.155h1.147zM318.148 112.81c0-.278.028-.5.085-.668a.829.829 0 0 1 .254-.391.652.652 0 0 1 .423-.137c.126 0 .236.026.33.075a.64.64 0 0 1 .236.22c.061.095.11.211.145.347.035.137.052.321.052.554 0 .274-.028.496-.084.664a.837.837 0 0 1-.253.391.65.65 0 0 1-.426.138.64.64 0 0 1-.53-.243c-.155-.195-.232-.511-.232-.95zm.295 0c0 .383.045.64.135.766.09.127.2.19.333.19s.242-.063.332-.19.135-.384.135-.766c0-.386-.045-.642-.135-.768-.09-.127-.201-.19-.336-.19a.367.367 0 0 0-.316.168c-.098.142-.148.405-.148.79zM319.984 111.93v-.276h1.515v.223c-.15.16-.297.37-.443.632-.146.263-.26.533-.34.811-.057.196-.093.41-.11.643h-.295c.003-.184.04-.406.109-.667s.168-.512.298-.754c.129-.242.266-.446.412-.612h-1.146z"/></g><g fill="#FFF"><path d="M309.73 104.484v-.56h-1.015v-.263l1.067-1.515h.235v1.515h.316v.263h-.316v.56h-.288zm0-.823v-1.055l-.733 1.055h.732zM312.136 104.208v.276h-1.546a.501.501 0 0 1 .033-.199c.04-.105.102-.209.189-.311.087-.102.212-.22.376-.355.254-.208.426-.373.516-.495s.133-.237.133-.346c0-.113-.04-.21-.122-.288s-.187-.117-.318-.117a.45.45 0 0 0-.332.125.472.472 0 0 0-.126.345l-.295-.03c.02-.221.096-.39.228-.504s.31-.173.531-.173c.225 0 .403.062.533.186s.197.279.197.463c0 .094-.02.186-.058.277-.038.09-.102.185-.19.285-.09.1-.237.237-.443.412-.173.144-.283.242-.332.294s-.09.103-.121.155h1.147zM312.444 103.331c0-.277.028-.499.085-.668a.829.829 0 0 1 .254-.39.652.652 0 0 1 .423-.137c.126 0 .236.025.33.075a.64.64 0 0 1 .235.219c.062.095.11.212.145.347.036.137.053.322.053.554 0 .275-.028.496-.084.664a.837.837 0 0 1-.253.392.65.65 0 0 1-.426.138.64.64 0 0 1-.53-.244c-.155-.194-.232-.51-.232-.95zm.295 0c0 .384.045.64.135.767.09.127.2.19.333.19s.242-.063.332-.191.135-.383.135-.766c0-.386-.045-.642-.135-.768-.09-.127-.202-.19-.336-.19a.367.367 0 0 0-.316.168c-.098.143-.148.405-.148.79zM314.261 103.872l.301-.026a.537.537 0 0 0 .156.33c.082.075.18.112.295.112.138 0 .255-.052.35-.156s.144-.242.144-.415a.531.531 0 0 0-.138-.388.48.48 0 0 0-.361-.141.502.502 0 0 0-.426.226l-.27-.035.227-1.202h1.163v.274h-.933l-.126.63a.76.76 0 0 1 .442-.147.7.7 0 0 1 .517.212c.14.141.21.323.21.546a.85.85 0 0 1-.185.548.741.741 0 0 1-.614.285c-.213 0-.386-.06-.521-.18s-.212-.277-.23-.473z"/></g><g fill="#FFF"><path d="M348.978 120.696v-.56h-1.015v-.263l1.068-1.516h.235v1.516h.316v.263h-.316v.56h-.288zm0-.823v-1.055l-.732 1.055h.733zM351.385 120.42v.276h-1.547a.528.528 0 0 1 .033-.199 1.09 1.09 0 0 1 .19-.311 3.13 3.13 0 0 1 .376-.355c.254-.208.426-.373.515-.495s.134-.237.134-.346c0-.113-.041-.21-.122-.288s-.188-.117-.318-.117c-.138 0-.25.042-.332.125s-.125.197-.126.345l-.295-.03c.02-.221.095-.39.228-.504.131-.116.309-.173.531-.173.225 0 .403.062.534.186s.195.278.195.463c0 .094-.02.186-.057.276-.039.09-.102.186-.191.286-.088.1-.236.237-.443.412-.172.144-.283.242-.332.294s-.088.103-.12.155h1.147zM352.773 120.696h-.287v-1.83c-.068.066-.159.132-.271.197a1.814 1.814 0 0 1-.303.149v-.277c.161-.076.3-.167.422-.275a1.08 1.08 0 0 0 .255-.312h.184v2.348zM355.02 120.42v.276h-1.547a.528.528 0 0 1 .033-.199 1.09 1.09 0 0 1 .19-.311 3.13 3.13 0 0 1 .375-.355c.255-.208.427-.373.516-.495s.134-.237.134-.346c0-.113-.041-.21-.122-.288s-.188-.117-.319-.117c-.137 0-.249.042-.332.125s-.125.197-.126.345l-.295-.03c.02-.221.096-.39.229-.504.13-.116.308-.173.531-.173.225 0 .402.062.533.186s.196.278.196.463c0 .094-.02.186-.057.276-.04.09-.103.186-.191.286-.088.1-.237.237-.443.412-.173.144-.283.242-.332.294s-.089.103-.121.155h1.147z"/></g><g fill="#FFF"><path d="M342.238 111.477v-.56h-1.013v-.264l1.066-1.515h.235v1.515h.316v.263h-.316v.56h-.288zm0-.824V109.6l-.732 1.054h.732zM344.644 111.2v.277H343.1a.476.476 0 0 1 .033-.2c.039-.105.101-.209.188-.311.087-.102.212-.22.376-.355.254-.208.426-.373.516-.495s.134-.237.134-.345c0-.114-.04-.21-.122-.288s-.188-.118-.319-.118a.448.448 0 0 0-.332.125.474.474 0 0 0-.126.345l-.295-.03c.02-.221.097-.389.228-.504.133-.115.31-.173.531-.173.225 0 .402.062.533.186s.198.279.198.463c0 .094-.02.186-.06.277-.036.09-.1.185-.189.285-.09.1-.237.237-.443.412-.172.144-.283.242-.332.294s-.09.103-.121.155h1.147zM346.035 111.477h-.287v-1.83c-.07.065-.16.131-.272.197a1.843 1.843 0 0 1-.302.148v-.277c.16-.075.3-.167.42-.275a1.07 1.07 0 0 0 .256-.312h.185v2.349zM346.77 110.323c0-.277.029-.499.086-.668s.141-.299.253-.39a.653.653 0 0 1 .424-.137.7.7 0 0 1 .33.075c.095.05.173.124.235.219.062.096.11.212.145.348.035.136.053.32.053.553 0 .275-.028.496-.085.664a.842.842 0 0 1-.252.392.652.652 0 0 1-.426.138.641.641 0 0 1-.531-.244c-.154-.194-.231-.51-.231-.95zm.295 0c0 .384.045.64.135.767.091.127.201.19.333.19s.242-.063.332-.191.135-.383.135-.766c0-.385-.045-.641-.135-.767-.09-.127-.201-.19-.336-.19a.368.368 0 0 0-.315.167c-.099.143-.149.406-.149.79z"/></g><g fill="#FFF"><path d="M305 95.169v-.56h-1.014v-.263l1.067-1.516h.235v1.516h.316v.262h-.316v.56H305zm0-.823V93.29l-.732 1.055h.733zM307.407 94.893v.276h-1.546a.501.501 0 0 1 .033-.2c.04-.105.102-.208.189-.31.087-.102.212-.22.376-.355.254-.208.426-.373.516-.495s.133-.238.133-.346c0-.113-.04-.21-.122-.288s-.187-.117-.318-.117a.45.45 0 0 0-.332.125.472.472 0 0 0-.126.344l-.295-.03c.02-.22.096-.389.228-.504s.31-.173.531-.173c.225 0 .403.063.533.187s.197.278.197.463c0 .094-.02.185-.058.276-.038.09-.102.186-.19.285-.09.1-.237.238-.443.412-.173.145-.283.243-.332.294s-.09.104-.121.156h1.147zM307.715 94.016c0-.278.028-.5.085-.668a.829.829 0 0 1 .254-.391.652.652 0 0 1 .423-.137c.126 0 .236.026.33.075a.64.64 0 0 1 .235.22c.062.095.11.211.145.347.036.137.053.321.053.554 0 .274-.028.496-.084.664a.837.837 0 0 1-.253.391.65.65 0 0 1-.426.138.64.64 0 0 1-.53-.243c-.155-.194-.232-.51-.232-.95zm.295 0c0 .383.045.64.135.766.09.127.2.19.333.19s.242-.063.332-.19.135-.384.135-.766c0-.386-.045-.642-.135-.768-.09-.127-.202-.19-.336-.19a.367.367 0 0 0-.316.168c-.098.142-.148.405-.148.79zM309.534 94.552l.287-.04c.033.164.09.281.168.353.08.072.176.108.29.108.135 0 .249-.047.342-.141s.14-.209.14-.348a.44.44 0 0 0-.458-.455.817.817 0 0 0-.203.032l.032-.252a.595.595 0 0 0 .377-.093c.098-.063.146-.161.146-.294 0-.106-.035-.193-.106-.262s-.164-.103-.276-.103a.395.395 0 0 0-.28.104.533.533 0 0 0-.143.316l-.287-.05a.742.742 0 0 1 .239-.449.694.694 0 0 1 .464-.158c.128 0 .245.028.353.082a.586.586 0 0 1 .332.526c0 .101-.027.193-.082.276s-.134.15-.24.198c.138.031.245.098.322.198s.115.227.115.377a.689.689 0 0 1-.223.52.783.783 0 0 1-.565.213.71.71 0 0 1-.744-.658z"/></g><g fill="#FFF"><path d="M297.84 35.18v-.56h-1.015v-.263l1.067-1.516h.235v1.515h.316v.263h-.316v.56h-.288zm0-.824v-1.054l-.733 1.054h.732zM300.246 34.903v.277H298.7a.501.501 0 0 1 .033-.2c.04-.105.102-.208.189-.311.087-.102.212-.22.376-.354.254-.208.426-.373.516-.496s.133-.237.133-.345c0-.114-.04-.21-.122-.288s-.187-.118-.318-.118a.45.45 0 0 0-.332.125.472.472 0 0 0-.126.345l-.295-.03c.02-.22.096-.389.228-.504s.309-.173.531-.173c.225 0 .402.063.533.187s.197.278.197.462c0 .094-.02.186-.058.277-.038.09-.102.185-.19.285-.09.1-.237.237-.443.412-.173.145-.283.242-.332.294s-.09.104-.121.155h1.147zM300.554 34.026c0-.277.028-.499.085-.668a.829.829 0 0 1 .253-.39.652.652 0 0 1 .424-.137c.126 0 .236.026.33.075a.64.64 0 0 1 .235.22c.062.095.11.211.145.347.035.137.053.321.053.554 0 .274-.028.496-.085.664a.837.837 0 0 1-.252.391.65.65 0 0 1-.426.138.64.64 0 0 1-.53-.243c-.155-.195-.232-.511-.232-.95zm.295 0c0 .384.044.64.134.767.09.127.202.19.333.19s.243-.063.333-.191.135-.383.135-.766c0-.385-.045-.641-.135-.767-.09-.127-.202-.19-.336-.19a.367.367 0 0 0-.316.167c-.099.143-.148.406-.148.79zM303.88 34.903v.277h-1.545a.501.501 0 0 1 .033-.2c.04-.105.102-.208.189-.311.087-.102.212-.22.376-.354.254-.208.426-.373.515-.496s.134-.237.134-.345c0-.114-.04-.21-.122-.288s-.187-.118-.318-.118a.45.45 0 0 0-.332.125.472.472 0 0 0-.126.345l-.295-.03c.02-.22.096-.389.228-.504s.309-.173.53-.173c.226 0 .403.063.534.187s.196.278.196.462c0 .094-.02.186-.057.277-.038.09-.102.185-.19.285-.09.1-.237.237-.443.412-.173.145-.284.242-.332.294s-.09.104-.122.155h1.147z"/></g><g fill="#FFF"><path d="M331.654 92.5v-.56h-1.015v-.263l1.068-1.516h.234v1.516h.317v.262h-.317v.561h-.287zm0-.823v-1.055l-.732 1.055h.732zM334.06 92.224v.276h-1.546a.528.528 0 0 1 .033-.2 1.09 1.09 0 0 1 .19-.31 3.13 3.13 0 0 1 .375-.355c.255-.208.427-.373.516-.495s.134-.238.134-.346c0-.113-.041-.21-.122-.288s-.188-.117-.319-.117c-.137 0-.249.042-.332.125s-.125.197-.126.344l-.295-.03c.02-.22.096-.389.229-.504.13-.115.308-.173.531-.173.225 0 .402.063.533.187s.196.278.196.463c0 .094-.02.185-.057.276-.04.09-.103.186-.191.285-.088.1-.237.238-.443.412-.173.145-.283.243-.332.294s-.089.104-.121.156h1.147zM334.368 91.347c0-.278.029-.5.085-.668s.142-.3.254-.39a.653.653 0 0 1 .424-.138.7.7 0 0 1 .33.076c.095.05.173.124.234.218.063.096.11.212.146.348.035.137.053.321.053.554 0 .274-.029.496-.085.664a.842.842 0 0 1-.252.391.652.652 0 0 1-.426.138.641.641 0 0 1-.531-.243c-.155-.194-.232-.51-.232-.95zm.295 0c0 .384.045.64.135.766.09.127.201.19.333.19s.242-.063.332-.19.135-.384.135-.766c0-.386-.045-.642-.135-.768-.09-.127-.201-.19-.336-.19a.368.368 0 0 0-.315.168c-.1.142-.149.405-.149.79zM337.676 90.733l-.285.023a.546.546 0 0 0-.11-.246.38.38 0 0 0-.287-.122.391.391 0 0 0-.24.076.659.659 0 0 0-.215.289c-.052.126-.078.307-.08.541a.65.65 0 0 1 .253-.234.677.677 0 0 1 .804.134c.134.141.2.323.2.546a.905.905 0 0 1-.093.41.7.7 0 0 1-.262.29.71.71 0 0 1-.377.1.735.735 0 0 1-.585-.264c-.151-.176-.226-.466-.226-.87 0-.453.083-.78.25-.987a.717.717 0 0 1 .589-.267c.183 0 .335.051.453.154a.66.66 0 0 1 .21.427zm-1.173 1.01c0 .098.02.193.063.283a.464.464 0 0 0 .414.278.406.406 0 0 0 .313-.147.582.582 0 0 0 .13-.4.541.541 0 0 0-.128-.38.428.428 0 0 0-.326-.14c-.13 0-.24.046-.33.14s-.136.214-.136.365z"/></g><g fill="#FFF"><path d="M325.773 81.888v-.56h-1.015v-.264l1.068-1.515h.235v1.515h.316v.263h-.316v.56h-.288zm0-.824V80.01l-.732 1.054h.732zM328.18 81.611v.277h-1.547a.528.528 0 0 1 .033-.2 1.09 1.09 0 0 1 .19-.311 3.13 3.13 0 0 1 .376-.354c.254-.209.426-.374.515-.496s.134-.237.134-.345c0-.114-.041-.21-.122-.288s-.188-.118-.319-.118c-.137 0-.249.042-.332.125s-.125.198-.126.345l-.294-.03c.019-.22.095-.389.228-.504.13-.115.309-.173.531-.173.225 0 .403.063.533.187s.196.278.196.462c0 .094-.02.186-.057.277-.039.09-.102.185-.191.285-.088.1-.237.237-.443.412-.173.145-.283.242-.332.294s-.089.103-.12.155h1.147zM328.487 80.734c0-.277.029-.499.085-.668s.142-.298.254-.39a.653.653 0 0 1 .424-.137.7.7 0 0 1 .33.075c.095.051.173.124.235.22.062.095.11.211.145.347.035.136.053.321.053.553 0 .275-.029.497-.085.665a.842.842 0 0 1-.252.391.652.652 0 0 1-.426.138.641.641 0 0 1-.531-.243c-.154-.195-.232-.511-.232-.95zm.295 0c0 .384.045.64.135.767.09.127.201.19.333.19s.242-.063.332-.191.135-.383.135-.766c0-.385-.045-.641-.135-.767-.09-.127-.201-.19-.336-.19a.368.368 0 0 0-.315.167c-.099.143-.149.406-.149.79zM331.225 81.888v-.56h-1.014v-.264l1.066-1.515h.236v1.515h.315v.263h-.315v.56h-.288zm0-.824V80.01l-.733 1.054h.733z"/></g><g fill="#FFF"><path d="M360.7 138.584v-.56h-1.016v-.263l1.068-1.516h.234v1.516h.317v.263h-.317v.56h-.287zm0-.823v-1.055l-.733 1.055h.732zM363.106 138.308v.276h-1.547a.528.528 0 0 1 .033-.2 1.09 1.09 0 0 1 .19-.31 3.13 3.13 0 0 1 .375-.355c.255-.208.427-.373.516-.495s.134-.238.134-.346c0-.113-.041-.21-.122-.288s-.188-.117-.319-.117c-.137 0-.249.042-.332.125s-.125.197-.126.344l-.295-.03c.02-.22.096-.389.229-.504.13-.115.308-.173.531-.173.225 0 .402.063.533.187s.196.278.196.463c0 .093-.02.185-.057.276-.04.09-.103.186-.191.285-.088.1-.237.238-.443.412-.173.145-.283.243-.332.294s-.089.104-.121.156h1.147zM364.494 138.584h-.287v-1.83c-.068.065-.16.132-.272.197a1.814 1.814 0 0 1-.302.149v-.278c.16-.075.3-.167.422-.274a1.08 1.08 0 0 0 .255-.313h.184v2.349zM366.15 138.584v-.56h-1.013v-.263l1.066-1.516h.236v1.516h.315v.263h-.315v.56h-.289zm0-.823v-1.055l-.732 1.055h.732z"/></g><g fill="#FFF"><path d="M359.82 150.457v-.56h-1.013v-.263l1.066-1.516h.235v1.516h.316v.263h-.316v.56h-.288zm0-.823v-1.055l-.732 1.055h.732zM362.227 150.18v.277h-1.545a.476.476 0 0 1 .033-.2c.039-.105.102-.208.188-.31.087-.102.212-.22.376-.355.254-.208.426-.373.516-.495s.134-.238.134-.346c0-.113-.04-.21-.122-.288s-.188-.117-.319-.117a.448.448 0 0 0-.332.125.474.474 0 0 0-.126.345l-.295-.03c.02-.221.097-.39.228-.505.133-.115.31-.173.531-.173.225 0 .402.063.533.187s.198.278.198.463c0 .094-.02.185-.059.276-.037.09-.102.186-.19.285-.09.1-.237.238-.443.413-.172.144-.283.242-.332.293s-.09.104-.121.156h1.147zM363.617 150.457h-.287v-1.83c-.07.065-.16.132-.272.197a1.843 1.843 0 0 1-.302.149v-.278c.16-.075.3-.167.42-.274a1.07 1.07 0 0 0 .256-.313h.185v2.349zM365.843 148.69l-.286.023a.547.547 0 0 0-.108-.246.384.384 0 0 0-.287-.122.402.402 0 0 0-.242.076.656.656 0 0 0-.213.289c-.053.126-.08.307-.082.541a.666.666 0 0 1 .569-.311.65.65 0 0 1 .489.211.76.76 0 0 1 .202.546.895.895 0 0 1-.096.41c-.062.126-.15.222-.26.29s-.236.1-.376.1a.733.733 0 0 1-.586-.265c-.152-.175-.227-.465-.227-.87 0-.452.084-.78.25-.986a.721.721 0 0 1 .59-.268.66.66 0 0 1 .451.155.657.657 0 0 1 .212.427zm-1.173 1.01c0 .098.021.193.062.283.043.09.102.16.177.206a.437.437 0 0 0 .238.072.405.405 0 0 0 .313-.147.582.582 0 0 0 .13-.4c0-.16-.043-.288-.129-.38s-.194-.14-.325-.14c-.13 0-.24.046-.33.14s-.136.214-.136.365z"/></g><g fill="#FFF"><path d="M306.625 48.151l-.134-.247-.447.242-.063-.116.11-.92.104-.056.36.667.138-.075.063.116-.139.074.134.247-.126.068zm-.196-.362l-.25-.465-.073.639.323-.174zM307.618 47.459l.066.12-.681.368a.236.236 0 0 1-.032-.095.504.504 0 0 1 .009-.182 1.37 1.37 0 0 1 .08-.245 1.62 1.62 0 0 0 .11-.34.304.304 0 0 0-.023-.185c-.028-.05-.068-.083-.122-.098s-.11-.006-.168.025a.222.222 0 0 0-.117.134c-.017.055-.007.116.027.18l-.138.058a.363.363 0 0 1-.019-.276.39.39 0 0 1 .193-.203.373.373 0 0 1 .278-.044.307.307 0 0 1 .196.157.352.352 0 0 1 .041.135.519.519 0 0 1-.016.17 2.076 2.076 0 0 1-.097.288 2.577 2.577 0 0 0-.076.208.401.401 0 0 0-.016.098l.505-.273zM307.545 46.999a1.065 1.065 0 0 1-.122-.315.41.41 0 0 1 .02-.23.322.322 0 0 1 .153-.162.318.318 0 0 1 .318-.004.57.57 0 0 1 .146.118c.05.052.1.13.155.23.066.122.105.225.12.314a.413.413 0 0 1-.017.232.326.326 0 0 1-.155.16.318.318 0 0 1-.291.02c-.114-.048-.224-.17-.327-.363zm.129-.07c.092.17.172.271.242.305.07.035.134.036.191.005.059-.03.092-.086.101-.164.01-.077-.031-.2-.122-.369-.092-.168-.172-.27-.242-.305-.07-.034-.134-.035-.193-.004a.187.187 0 0 0-.1.15c-.008.086.032.213.123.382zM309.217 46.595l.065.121-.68.368a.252.252 0 0 1-.033-.096.506.506 0 0 1 .01-.181c.013-.066.04-.148.081-.245.062-.153.098-.266.11-.341a.304.304 0 0 0-.024-.184.193.193 0 0 0-.122-.098.222.222 0 0 0-.168.024.218.218 0 0 0-.116.135.23.23 0 0 0 .025.18l-.136.058a.368.368 0 0 1-.02-.276.39.39 0 0 1 .193-.203.372.372 0 0 1 .279-.044.312.312 0 0 1 .196.157.352.352 0 0 1 .041.135.579.579 0 0 1-.017.17 2.223 2.223 0 0 1-.096.287 2.172 2.172 0 0 0-.076.209.4.4 0 0 0-.017.097l.505-.273zM309.356 46.677l-.16-1.243.146-.08.977.803-.155.083-.29-.246-.429.232.056.373-.145.078zm.068-.583l.35-.189-.262-.227a3.03 3.03 0 0 1-.188-.173c.023.072.04.148.051.227l.049.362z"/></g><g fill="#FFF"><path d="M98.422 193.502v-.28h-.507v-.132l.534-.758h.117v.758h.158v.132h-.158v.28h-.144zm0-.412v-.528l-.366.528h.366zM98.932 193.502v-1.17h.846v.139h-.691v.357h.647v.138h-.647v.398h.718v.138h-.873zM100.012 193.502v-1.17h.155v1.032h.576v.138h-.73zM100.87 193.193l.144-.02a.31.31 0 0 0 .084.177c.04.036.088.054.145.054a.24.24 0 0 0 .24-.244.222.222 0 0 0-.064-.164.227.227 0 0 0-.165-.063.404.404 0 0 0-.1.015l.015-.126.023.002a.3.3 0 0 0 .165-.048c.049-.032.073-.082.073-.148a.176.176 0 0 0-.053-.13.191.191 0 0 0-.138-.053c-.056 0-.102.018-.14.053s-.06.088-.071.158l-.144-.025a.368.368 0 0 1 .12-.224.342.342 0 0 1 .232-.08c.064 0 .123.014.176.041a.292.292 0 0 1 .166.264c0 .05-.013.097-.04.138a.28.28 0 0 1-.121.098c.069.017.123.05.161.1.038.05.057.113.057.188a.345.345 0 0 1-.111.26.39.39 0 0 1-.283.106.353.353 0 0 1-.371-.329z"/></g><g fill="#FFF"><path d="M262.92 35.976v-.094h.02v.008h-.01v.078h.01v.007h-.02zM262.95 35.955v-.073h.027c.006 0 .01 0 .014.002a.022.022 0 0 1 .008.007.021.021 0 0 1 .002.01.015.015 0 0 1-.002.008.022.022 0 0 1-.008.007c.005.002.008.004.01.007s.004.007.004.01l-.002.01-.006.007-.007.004-.013.001h-.027zm.01-.042h.025a.014.014 0 0 0 .005-.005l.002-.007c0-.002 0-.004-.002-.006l-.005-.003-.01-.001h-.015v.022zm0 .033h.024c.002 0 .004 0 .006-.002l.004-.004a.014.014 0 0 0 0-.013l-.007-.004a.032.032 0 0 0-.01-.002h-.017v.025zM263.052 35.927v-.009h.031v.027l-.015.008a.04.04 0 0 1-.015.003.043.043 0 0 1-.02-.004c-.005-.004-.01-.008-.013-.014s-.004-.012-.004-.02.001-.013.004-.019a.032.032 0 0 1 .013-.014.04.04 0 0 1 .02-.004c.005 0 .01 0 .013.003.005 0 .008.004.01.007s.005.006.006.011l-.009.003a.025.025 0 0 0-.004-.009c-.001-.003-.003-.004-.006-.006a.03.03 0 0 0-.01-.002.035.035 0 0 0-.012.002l-.008.006-.005.007a.038.038 0 0 0-.002.015.04.04 0 0 0 .003.016.02.02 0 0 0 .01.01c.004.002.009.003.013.003s.009 0 .013-.002l.009-.005v-.014h-.022zM263.112 35.976h-.02v-.008h.01v-.078h-.01v-.008h.02v.094zM263.151 35.955v-.017h-.031v-.008l.033-.048h.007v.048h.01v.007h-.01v.018h-.009zm0-.025v-.034l-.022.034h.022zM263.18 35.919c0-.009 0-.016.002-.02a.027.027 0 0 1 .007-.013.021.021 0 0 1 .014-.004c.004 0 .007 0 .01.002l.008.007a.035.035 0 0 1 .004.01.089.089 0 0 1 0 .038c-.003.006-.005.01-.009.013s-.008.004-.013.004a.021.021 0 0 1-.017-.007.055.055 0 0 1-.007-.03zm.008 0c0 .012.001.02.004.024s.007.006.01.006c.005 0 .008-.002.011-.006s.004-.012.004-.024 0-.02-.004-.023c-.003-.005-.006-.007-.01-.007s-.008.002-.01.006c-.003.003-.005.012-.005.024zM263.236 35.919c0-.009 0-.016.002-.02a.027.027 0 0 1 .008-.013.021.021 0 0 1 .013-.004c.005 0 .008 0 .01.002.004.002.006.004.008.007l.005.01a.089.089 0 0 1-.001.038c-.002.006-.005.01-.008.013s-.008.004-.014.004a.021.021 0 0 1-.016-.007.056.056 0 0 1-.007-.03zm.01 0c0 .012 0 .02.003.024s.006.006.01.006c.005 0 .008-.002.011-.006s.004-.012.004-.024-.001-.02-.004-.023c-.003-.005-.006-.007-.01-.007-.005 0-.008.002-.01.006-.003.003-.005.012-.005.024zM263.293 35.919c0-.009 0-.016.002-.02a.027.027 0 0 1 .008-.013.021.021 0 0 1 .013-.004c.004 0 .008 0 .01.002l.008.007a.035.035 0 0 1 .004.01.089.089 0 0 1 0 .038l-.008.013c-.003.003-.009.004-.014.004a.021.021 0 0 1-.017-.007.055.055 0 0 1-.006-.03zm.009 0c0 .012 0 .02.004.024s.006.006.01.006.008-.002.01-.006.005-.012.005-.024-.001-.02-.004-.023c-.003-.005-.007-.007-.011-.007-.004 0-.007.002-.01.006-.003.003-.004.012-.004.024z"/></g><g fill="#FFF"><path d="M285.243 24.733v-.093h.02v.007h-.01v.078h.01v.008h-.02zM285.272 24.713v-.073h.027c.006 0 .01 0 .014.002a.022.022 0 0 1 .008.007.021.021 0 0 1 .003.01.015.015 0 0 1-.003.008.022.022 0 0 1-.008.007c.005.002.008.004.01.007s.004.006.004.01l-.002.01-.005.007-.008.004h-.04zm.01-.042h.015l.01-.001a.014.014 0 0 0 .005-.004l.002-.007c0-.002 0-.004-.002-.006l-.004-.004H285.282v.022zm0 .033H285.307c.002 0 .003 0 .005-.002l.004-.004a.014.014 0 0 0 0-.013l-.006-.004a.027.027 0 0 0-.011-.002h-.017v.025zM285.375 24.685v-.01h.03v.028l-.014.008a.04.04 0 0 1-.016.003.043.043 0 0 1-.019-.004c-.006-.004-.01-.008-.014-.014s-.004-.013-.004-.02.001-.013.004-.019a.032.032 0 0 1 .014-.014.04.04 0 0 1 .019-.004c.005 0 .01 0 .014.003.004 0 .008.003.01.006s.004.007.005.012l-.008.003a.025.025 0 0 0-.004-.009l-.007-.006a.03.03 0 0 0-.01-.002.035.035 0 0 0-.012.002l-.007.006-.005.007a.038.038 0 0 0-.003.015.04.04 0 0 0 .003.016.02.02 0 0 0 .01.01c.004.002.01.003.014.003s.008 0 .012-.002l.01-.005v-.014h-.022zM285.434 24.733h-.02v-.007h.01v-.078h-.01v-.008h.02v.093zM285.474 24.713v-.018h-.032v-.008l.033-.047h.007v.048h.01v.007h-.01v.018h-.008zm0-.026v-.033l-.023.033h.023zM285.502 24.677c0-.009 0-.016.002-.02a.027.027 0 0 1 .008-.013.021.021 0 0 1 .013-.004c.004 0 .008 0 .01.002l.008.007a.035.035 0 0 1 .004.01.089.089 0 0 1 0 .038l-.008.013c-.003.003-.009.004-.014.004a.021.021 0 0 1-.017-.007.056.056 0 0 1-.006-.03zm.009 0c0 .012 0 .02.004.024s.006.006.01.006.008-.002.01-.006.004-.013.004-.024 0-.02-.003-.024-.007-.006-.011-.006c-.004 0-.007.002-.01.006-.003.003-.004.012-.004.024zM285.558 24.677c0-.009 0-.016.003-.02a.027.027 0 0 1 .007-.013.021.021 0 0 1 .014-.004c.004 0 .007 0 .01.002l.008.007a.035.035 0 0 1 .004.01.089.089 0 0 1-.001.038c-.002.006-.004.01-.008.013s-.008.004-.014.004a.021.021 0 0 1-.016-.007.056.056 0 0 1-.007-.03zm.01 0c0 .012 0 .02.003.024s.007.006.01.006c.005 0 .008-.002.011-.006s.004-.013.004-.024 0-.02-.004-.024c-.003-.004-.006-.006-.01-.006s-.008.002-.01.006c-.003.003-.005.012-.005.024zM285.648 24.713h-.008v-.058l-.01.007-.009.005v-.009a.151.151 0 0 0 .014-.009c.003-.004.006-.006.007-.01h.006v.074z"/></g><g fill="#FFF"><path d="M95.29 186.685v-.094h.02v.008h-.011v.078h.01v.008h-.02zM95.318 186.664v-.073h.028c.006 0 .01 0 .013.002a.022.022 0 0 1 .008.007.021.021 0 0 1 .003.01.015.015 0 0 1-.002.008.022.022 0 0 1-.008.007c.004.002.008.004.01.007s.004.007.004.01l-.002.01-.006.007-.008.004-.012.001h-.028zm.01-.042h.025a.014.014 0 0 0 .006-.005l.002-.007-.002-.006c-.001-.002-.003-.002-.005-.003l-.011-.001h-.015v.022zm0 .033H95.353c.002 0 .004 0 .005-.002l.004-.004a.014.014 0 0 0 0-.013l-.006-.004a.027.027 0 0 0-.01-.002h-.018v.025zM95.42 186.636v-.01h.032v.028l-.015.008a.04.04 0 0 1-.015.003.043.043 0 0 1-.02-.004c-.006-.004-.01-.008-.013-.014s-.005-.012-.005-.02.002-.013.005-.019a.032.032 0 0 1 .013-.014.04.04 0 0 1 .019-.004c.005 0 .01 0 .014.003.005 0 .008.004.01.007s.005.006.006.011l-.009.003a.025.025 0 0 0-.004-.009c-.001-.003-.004-.004-.007-.006a.03.03 0 0 0-.01-.002.035.035 0 0 0-.011.002l-.008.006-.005.007a.038.038 0 0 0-.002.015.04.04 0 0 0 .003.016.02.02 0 0 0 .01.01c.004.002.009.003.013.003s.008 0 .013-.002l.009-.005v-.014h-.022zM95.48 186.685h-.02v-.008h.011v-.078h-.01v-.008h.02v.094zM95.52 186.664v-.017h-.032v-.008l.033-.048h.008v.048h.01v.007h-.01v.018h-.009zm0-.025v-.034l-.023.034h.023zM95.548 186.628c0-.009 0-.016.002-.02a.027.027 0 0 1 .008-.013.021.021 0 0 1 .013-.004c.005 0 .008 0 .011.002l.007.007a.035.035 0 0 1 .005.01.089.089 0 0 1-.001.038c-.002.006-.005.01-.008.013s-.008.004-.014.004a.021.021 0 0 1-.016-.007.055.055 0 0 1-.007-.03zm.01 0c0 .012 0 .02.003.024s.006.006.01.006c.005 0 .008-.002.011-.006s.004-.012.004-.024-.001-.02-.004-.023c-.003-.005-.006-.007-.01-.007-.005 0-.008.002-.01.006-.003.003-.005.012-.005.024zM95.605 186.628c0-.009 0-.016.002-.02a.027.027 0 0 1 .008-.013.021.021 0 0 1 .013-.004c.004 0 .008 0 .01.002l.008.007a.035.035 0 0 1 .004.01.089.089 0 0 1 0 .038l-.008.013c-.003.003-.009.004-.014.004a.021.021 0 0 1-.017-.007.055.055 0 0 1-.007-.03zm.009 0c0 .012 0 .02.004.024s.006.006.01.006.008-.002.01-.006.005-.012.005-.024-.001-.02-.004-.023c-.003-.005-.007-.007-.011-.007-.004 0-.007.002-.01.006-.003.003-.004.012-.004.024zM95.69 186.664v-.017h-.032v-.008l.033-.048h.008v.048h.01v.007h-.01v.018h-.01zm0-.025v-.034l-.023.034h.023z"/></g><g fill="#FFF"><path d="M44.442 99.719v-.094h.02v.008h-.01v.078h.01v.008h-.02zM44.47 99.698v-.073h.028l.014.002a.022.022 0 0 1 .007.007.021.021 0 0 1 .003.01.015.015 0 0 1-.002.008.022.022 0 0 1-.008.007c.005.002.008.004.01.007s.004.007.004.01l-.002.01-.006.007-.007.004-.013.001h-.027zm.01-.042H44.507a.014.014 0 0 0 .005-.005l.002-.007c0-.002 0-.003-.002-.005l-.005-.004-.01-.001h-.015v.022zm0 .033h.025l.006-.001.004-.004a.014.014 0 0 0 0-.014l-.007-.004a.032.032 0 0 0-.01-.002h-.017v.025zM44.573 99.67v-.009h.031v.027l-.015.008a.04.04 0 0 1-.015.003.043.043 0 0 1-.02-.004c-.005-.004-.01-.008-.013-.013s-.004-.013-.004-.02.001-.014.004-.02a.032.032 0 0 1 .013-.014.04.04 0 0 1 .02-.004c.005 0 .01.001.013.003.005 0 .008.004.01.007s.005.007.006.011l-.009.003a.025.025 0 0 0-.004-.008c-.001-.003-.004-.004-.006-.006a.03.03 0 0 0-.01-.002.035.035 0 0 0-.012.002l-.008.006-.005.006a.038.038 0 0 0-.002.015.04.04 0 0 0 .003.017.02.02 0 0 0 .01.01l.013.002c.004 0 .009 0 .013-.002l.009-.005v-.013h-.022zM44.633 99.719h-.02v-.008h.01v-.078h-.01v-.008h.02v.094zM44.672 99.698v-.017h-.031v-.008l.033-.048h.007v.048h.01v.008h-.01v.017h-.009zm0-.025v-.033l-.022.033h.022zM44.7 99.662c0-.009 0-.016.003-.02a.027.027 0 0 1 .007-.013.021.021 0 0 1 .014-.004l.01.002.008.007a.035.035 0 0 1 .004.01.089.089 0 0 1 0 .039c-.003.005-.005.01-.009.012s-.008.004-.013.004a.021.021 0 0 1-.017-.007.056.056 0 0 1-.007-.03zm.01 0c0 .012 0 .02.003.024s.007.006.01.006c.005 0 .009-.002.011-.006s.004-.012.004-.024 0-.02-.004-.023c-.003-.005-.006-.007-.01-.007s-.008.002-.01.006c-.003.004-.005.012-.005.024zM44.757 99.662c0-.009 0-.016.002-.02a.027.027 0 0 1 .008-.013.021.021 0 0 1 .013-.004l.01.002c.004.002.006.004.008.007l.005.01a.089.089 0 0 1-.001.039c-.002.005-.005.01-.008.012s-.008.004-.014.004a.021.021 0 0 1-.016-.007.057.057 0 0 1-.007-.03zm.01 0c0 .012 0 .02.003.024s.006.006.01.006c.005 0 .008-.002.011-.006s.004-.012.004-.024-.001-.02-.004-.023c-.003-.005-.006-.007-.01-.007-.005 0-.008.002-.01.006-.003.004-.005.012-.005.024zM44.813 99.679h.01c0 .004.002.008.005.01.002.002.005.003.009.003a.015.015 0 0 0 .01-.004.021.021 0 0 0 .005-.014.018.018 0 0 0-.004-.012.016.016 0 0 0-.012-.005.013.013 0 0 0-.007.003.017.017 0 0 0-.006.005l-.008-.001.007-.038h.036v.009h-.029l-.004.02a.025.025 0 0 1 .014-.006c.006 0 .012.003.016.007a.027.027 0 0 1 0 .034.023.023 0 0 1-.018.01.03.03 0 0 1-.017-.006.023.023 0 0 1-.007-.015z"/></g><g fill="#FFF"><path d="M38.183 89.618v-.094h.02v.008h-.011v.078h.01v.008h-.02zM38.264 89.572l.01.002a.034.034 0 0 1-.011.019.03.03 0 0 1-.02.006c-.007 0-.013-.001-.019-.005a.03.03 0 0 1-.01-.014.053.053 0 0 1-.005-.02c0-.007.002-.014.005-.019.002-.006.007-.01.012-.013s.011-.004.018-.004a.03.03 0 0 1 .018.006c.005.002.009.008.01.015l-.009.002a.035.035 0 0 0-.007-.012.024.024 0 0 0-.012-.004.03.03 0 0 0-.014.004.022.022 0 0 0-.008.012.03.03 0 0 0-.002.014c0 .006 0 .011.002.016a.022.022 0 0 0 .009.01.02.02 0 0 0 .012.004c.005 0 .01-.002.014-.005a.027.027 0 0 0 .007-.014zM38.32 89.57v-.01h.031v.028l-.015.008a.04.04 0 0 1-.015.003.043.043 0 0 1-.02-.004c-.006-.004-.01-.008-.013-.014s-.005-.013-.005-.02.002-.013.005-.02a.032.032 0 0 1 .013-.014.04.04 0 0 1 .019-.004c.005 0 .01.001.014.003.004.001.008.004.01.007s.005.007.006.012l-.01.003a.025.025 0 0 0-.003-.01l-.007-.005a.03.03 0 0 0-.01-.002.035.035 0 0 0-.011.002l-.008.006-.005.007a.038.038 0 0 0-.002.014.04.04 0 0 0 .003.017.02.02 0 0 0 .01.01c.004.002.009.003.013.003s.008 0 .013-.002l.008-.005v-.014h-.021zM38.38 89.618h-.02v-.008h.01v-.078h-.01v-.008h.02v.094zM38.419 89.598v-.018h-.032v-.008l.033-.048h.008v.048h.01v.008h-.01v.018h-.01zm0-.026v-.033l-.023.033h.023zM38.447 89.561c0-.008 0-.015.002-.02a.027.027 0 0 1 .008-.013.021.021 0 0 1 .013-.004l.01.002c.004.002.006.004.008.007l.005.01a.089.089 0 0 1-.001.039c-.002.006-.005.01-.008.013s-.008.004-.014.004a.021.021 0 0 1-.016-.007.055.055 0 0 1-.007-.03zm.01 0c0 .012 0 .021.003.025s.006.006.01.006c.005 0 .008-.002.011-.006s.004-.013.004-.025-.001-.019-.004-.023c-.003-.005-.006-.007-.01-.007-.005 0-.008.002-.01.006-.003.004-.005.013-.005.024zM38.503 89.561c0-.008 0-.015.003-.02a.027.027 0 0 1 .008-.013.021.021 0 0 1 .013-.004l.01.002.008.007a.035.035 0 0 1 .004.01.089.089 0 0 1 0 .039c-.003.006-.005.01-.009.013s-.008.004-.013.004a.021.021 0 0 1-.017-.007.056.056 0 0 1-.007-.03zm.01 0c0 .012 0 .021.004.025s.006.006.01.006.008-.002.01-.006.005-.013.005-.025-.001-.019-.004-.023c-.003-.005-.007-.007-.011-.007-.004 0-.007.002-.01.006s-.004.013-.004.024zM38.594 89.598h-.009v-.058c-.002.003-.005.005-.009.007l-.01.005v-.009a.151.151 0 0 0 .014-.009l.008-.01h.006v.074z"/></g><g fill="#C6C4C4"><path d="M338.379 131.273v-.561h-1.016v-.263l1.069-1.515h.234v1.515h.316v.263h-.316v.56h-.287zm0-.824v-1.055l-.733 1.055h.733zM339.275 130.12c0-.278.029-.5.086-.669a.828.828 0 0 1 .253-.39.651.651 0 0 1 .424-.137c.126 0 .235.025.33.075.095.05.173.124.236.219.06.095.109.212.144.347.035.137.053.322.053.554 0 .275-.029.496-.084.664a.83.83 0 0 1-.254.392.647.647 0 0 1-.425.138.64.64 0 0 1-.531-.244c-.154-.194-.232-.51-.232-.95zm.295 0c0 .383.045.639.135.766s.201.19.333.19.243-.063.333-.191.135-.383.135-.766c0-.386-.045-.641-.135-.767-.09-.127-.202-.19-.336-.19a.366.366 0 0 0-.316.167c-.099.143-.149.405-.149.79zM341.093 130.12c0-.278.028-.5.085-.669s.141-.299.254-.39a.653.653 0 0 1 .423-.137.7.7 0 0 1 .33.075c.095.05.174.124.235.219.063.095.11.212.145.347.036.137.053.322.053.554 0 .275-.028.496-.085.664a.842.842 0 0 1-.252.392.652.652 0 0 1-.426.138.641.641 0 0 1-.53-.244c-.155-.194-.232-.51-.232-.95zm.295 0c0 .383.045.639.135.766.09.127.2.19.332.19s.243-.063.332-.191.135-.383.135-.766c0-.386-.045-.641-.135-.767-.09-.127-.2-.19-.335-.19a.368.368 0 0 0-.316.167c-.099.143-.148.405-.148.79zM342.91 130.12c0-.278.028-.5.086-.669a.828.828 0 0 1 .253-.39.651.651 0 0 1 .424-.137c.126 0 .235.025.33.075.095.05.173.124.235.219.06.095.11.212.145.347.035.137.053.322.053.554 0 .275-.029.496-.084.664a.83.83 0 0 1-.254.392.647.647 0 0 1-.425.138.64.64 0 0 1-.531-.244c-.155-.194-.232-.51-.232-.95zm.295 0c0 .383.045.639.135.766s.201.19.333.19.243-.063.333-.191.135-.383.135-.766c0-.386-.045-.641-.135-.767-.09-.127-.202-.19-.336-.19a.366.366 0 0 0-.316.167c-.1.143-.149.405-.149.79z"/></g><g fill="#FFF"><path d="M102.184 158.888v-.094h.02v.008h-.011v.078h.01v.008h-.02zM102.265 158.842l.01.002a.034.034 0 0 1-.011.018.03.03 0 0 1-.02.006c-.007 0-.014 0-.019-.005a.03.03 0 0 1-.011-.013.053.053 0 0 1-.004-.02c0-.008.002-.014.005-.02.002-.005.007-.01.012-.013s.011-.004.018-.004a.03.03 0 0 1 .018.006c.005.003.009.009.01.016l-.009.002a.035.035 0 0 0-.007-.012.024.024 0 0 0-.012-.004.03.03 0 0 0-.014.004.022.022 0 0 0-.008.012.03.03 0 0 0-.003.013c0 .006.002.012.003.017a.022.022 0 0 0 .009.01.02.02 0 0 0 .012.004c.005 0 .01-.002.014-.005a.026.026 0 0 0 .007-.014zM102.32 158.839v-.009h.032v.027l-.015.008a.04.04 0 0 1-.015.003.043.043 0 0 1-.02-.004c-.006-.004-.01-.008-.013-.013s-.005-.013-.005-.02.002-.014.005-.02a.032.032 0 0 1 .013-.014.04.04 0 0 1 .019-.004c.005 0 .01.001.014.003.004 0 .008.004.01.007s.005.007.006.011l-.01.003a.025.025 0 0 0-.003-.008c-.001-.003-.004-.004-.007-.006a.03.03 0 0 0-.01-.002.035.035 0 0 0-.011.002l-.008.006-.005.006a.038.038 0 0 0-.002.015.04.04 0 0 0 .003.017.02.02 0 0 0 .01.01l.013.002c.004 0 .008 0 .013-.002l.008-.005v-.013h-.021zM102.38 158.888h-.02v-.008h.011v-.078h-.01v-.008h.02v.094zM102.42 158.867v-.017h-.032v-.008l.033-.048h.008v.048h.01v.008h-.01v.017h-.01zm0-.025v-.033l-.023.033h.023zM102.448 158.831c0-.009 0-.015.002-.02a.027.027 0 0 1 .008-.013.021.021 0 0 1 .013-.004l.01.002c.004.002.006.004.008.007l.005.01a.089.089 0 0 1-.001.039c-.002.006-.005.01-.008.012s-.008.004-.014.004a.021.021 0 0 1-.016-.007.056.056 0 0 1-.007-.03zm.009 0c0 .012.001.02.004.025s.006.005.01.005c.005 0 .008-.002.01-.005s.005-.013.005-.025-.001-.02-.004-.023c-.003-.005-.006-.007-.01-.007-.005 0-.008.002-.01.006-.004.004-.005.012-.005.024zM102.504 158.831c0-.009 0-.015.003-.02a.027.027 0 0 1 .008-.013.021.021 0 0 1 .013-.004l.01.002.008.007a.035.035 0 0 1 .004.01.089.089 0 0 1 0 .039c-.003.006-.005.01-.008.012s-.009.004-.014.004a.021.021 0 0 1-.017-.007.056.056 0 0 1-.007-.03zm.01 0c0 .012 0 .02.004.025s.006.005.01.005.008-.002.01-.005.005-.013.005-.025-.002-.02-.004-.023c-.003-.005-.007-.007-.011-.007-.004 0-.007.002-.01.006s-.004.012-.004.024zM102.608 158.858v.01h-.048v-.007a.027.027 0 0 1 .007-.01l.012-.011a.083.083 0 0 0 .016-.016.017.017 0 0 0 .004-.01.012.012 0 0 0-.004-.01.016.016 0 0 0-.01-.003.017.017 0 0 0-.01.004.015.015 0 0 0-.004.01h-.01c0-.007.003-.012.007-.016a.03.03 0 0 1 .017-.005c.007 0 .013.002.017.006a.02.02 0 0 1 .006.014c0 .003 0 .006-.002.008a.036.036 0 0 1-.006.01l-.014.013-.01.008-.004.005h.036z"/></g><g fill="#FFF"><path d="M277.82 26.81v-.094h.02v.008h-.011v.078h.01v.007h-.02zM277.9 26.764l.01.002a.034.034 0 0 1-.01.018.03.03 0 0 1-.02.006c-.007 0-.014 0-.019-.005a.03.03 0 0 1-.011-.013.053.053 0 0 1-.004-.02c0-.008.001-.015.004-.02.003-.005.008-.01.013-.013s.011-.004.018-.004a.03.03 0 0 1 .018.006c.005.003.009.009.01.015l-.009.002a.035.035 0 0 0-.007-.011.024.024 0 0 0-.012-.004.03.03 0 0 0-.014.004.022.022 0 0 0-.008.011.03.03 0 0 0-.003.014c0 .006.001.012.003.017a.022.022 0 0 0 .009.01.02.02 0 0 0 .012.003c.005 0 .01-.002.013-.004a.027.027 0 0 0 .008-.014zM277.957 26.76v-.008h.03v.027l-.014.008a.04.04 0 0 1-.016.003.043.043 0 0 1-.019-.004c-.006-.004-.01-.008-.014-.014s-.004-.012-.004-.02.001-.013.004-.019a.032.032 0 0 1 .014-.014.04.04 0 0 1 .019-.004c.005 0 .01 0 .014.003.004 0 .008.004.01.007s.004.006.005.011l-.008.003a.025.025 0 0 0-.004-.009l-.007-.006a.03.03 0 0 0-.01-.002.035.035 0 0 0-.012.002l-.007.006-.005.007a.038.038 0 0 0-.003.015.04.04 0 0 0 .003.016.02.02 0 0 0 .01.01c.004.002.01.003.014.003s.008 0 .012-.002l.01-.005v-.014h-.022zM278.016 26.81h-.02v-.008h.01v-.078h-.01v-.008h.02v.094zM278.056 26.79v-.018h-.032v-.008l.033-.048h.008v.048h.01v.008h-.01v.017h-.01zm0-.026v-.033l-.023.033h.023zM278.084 26.753c0-.009 0-.016.002-.02a.027.027 0 0 1 .008-.013.021.021 0 0 1 .013-.004c.004 0 .008 0 .01.002l.008.007a.035.035 0 0 1 .004.01.089.089 0 0 1 0 .038l-.008.013c-.003.003-.009.004-.014.004a.021.021 0 0 1-.017-.007.055.055 0 0 1-.006-.03zm.009 0c0 .012 0 .02.004.024s.006.006.01.006.008-.002.01-.006.005-.012.005-.024-.001-.02-.004-.023c-.003-.005-.007-.007-.011-.007-.004 0-.007.002-.01.006-.003.003-.004.012-.004.024zM278.14 26.753c0-.009 0-.016.003-.02a.027.027 0 0 1 .007-.013.021.021 0 0 1 .014-.004c.004 0 .007 0 .01.002l.008.007a.035.035 0 0 1 .004.01.089.089 0 0 1-.001.038c-.002.006-.004.01-.008.013s-.008.004-.014.004a.021.021 0 0 1-.016-.007.056.056 0 0 1-.007-.03zm.01 0c0 .012 0 .02.003.024s.007.006.01.006c.005 0 .008-.002.011-.006s.004-.012.004-.024 0-.02-.004-.023c-.003-.005-.006-.007-.01-.007s-.008.002-.01.006c-.003.003-.005.012-.005.024zM278.197 26.77l.009-.001c0 .004.002.008.005.01a.01.01 0 0 0 .009.004c.004 0 .008-.002.01-.005s.005-.006.005-.01-.001-.008-.004-.01c-.002-.003-.006-.004-.01-.004h-.007l.001-.007h.002c.004 0 .007-.001.01-.003s.005-.006.005-.01a.012.012 0 0 0-.003-.007c-.003-.002-.006-.004-.01-.004s-.005.002-.008.004-.004.004-.004.01l-.01-.003c.002-.006.004-.01.008-.013s.009-.005.015-.005c.004 0 .007 0 .01.002.004.002.006.005.008.008s.003.005.003.008c0 .004 0 .006-.003.01a.011.011 0 0 1-.007.005.017.017 0 0 1 .01.007.018.018 0 0 1 .004.012.025.025 0 0 1-.007.016.028.028 0 0 1-.018.006.021.021 0 0 1-.016-.006c-.004-.003-.007-.009-.007-.014z"/></g><g><g fill="none" stroke="#878686" stroke-width=".774" stroke-linecap="round" stroke-miterlimit="2"><path d="M284.21 51.829l2.477-1.424M284.646 50.219l-.438 1.623M285.846 52.27l-1.622-.437"/><g><path d="M285.308 47.733l-2.475 1.423M284.874 49.344l.438-1.623M283.675 47.292l1.621.439"/></g></g><path fill="none" stroke="#878686" stroke-width=".709" stroke-linecap="round" stroke-linejoin="round" stroke-miterlimit="10" d="M276.523 56.864l4.74-2.896M275.992 55.998l4.739-2.9M275.462 55.127l4.737-2.897M274.929 54.259l4.74-2.898M274.398 53.39l4.74-2.898M273.866 52.52l4.738-2.897M272.921 52.606l5.478-4.638M280.834 37.532l.017 5.554M279.815 37.535l.014 5.554M278.798 37.538l.015 5.554M277.777 37.54l.015 5.555M276.761 37.543l.015 5.554M275.74 37.545l.017 5.556M275.12 36.899l-1.027 6.67M289.897 52.685l2.684 4.638M289.014 53.196l2.686 4.638M288.134 53.706l2.686 4.638M287.251 54.217l2.687 4.636M286.369 54.729l2.689 4.637M285.49 55.238l2.687 4.637M284.61 55.749l2.685 4.638"/><path fill="none" stroke="#878686" stroke-width="2" stroke-miterlimit="10" d="M295.501 56.432l-14.883 8.598-16.416-28.41 19.074.528-6.691-11.58"/><path fill="none" stroke="#878686" stroke-width="2" stroke-miterlimit="2" d="M268.476 43.39l18.552.252-8.658 5.003"/><path fill="none" stroke="#878686" stroke-width="2" stroke-miterlimit="2" d="M275.083 43.831l7.349 12.718 9.307-5.379M255.917 25.167l48.868-.014 11.257 19.483"/><path fill="none" stroke="#878686" stroke-width="2" stroke-miterlimit="10" d="M303.557 46.94l10.358-5.985M316.917 44.156l-15.703 9.047-11.88-20.037"/><path fill="none" stroke="#878686" stroke-width=".709" stroke-linecap="round" stroke-linejoin="round" stroke-miterlimit="10" d="M310.446 83.671l-15.134-26.192M316.771 79.873l-15.135-26.192M303.875 58.306l-3.985 6.345M304.472 72.831l5.952-3.44M308.472 79.498l5.952-3.44M302.22 68.935l5.953-3.44M300.032 65.147l5.951-3.441M297.78 61.251l5.952-3.441"/><path fill="none" stroke="#878686" stroke-width="2" stroke-miterlimit="10" d="M287.667 30.333l-2.833-5M314.334 91l-3.667-6.334-14.333 8.5L332 155.833 346.667 147M344.667 143.833l-4-7.167M339.334 134.333l-1.167-1.833M330.084 151.333l15-8.75M324.25 141.708l14.375-8.208M318.959 131.792l14.166-8.167M313.417 122l14.125-8.125M307.75 112.291l14.167-8.125M302.292 102.5l14.042-8M316.875 95.375l-1.083-1.959M318.25 97.709l7.459 13M327.125 112.959l1 1.875M329.417 117.209l7.417 12.874M349.084 151.292l-2.917-5.084M350.334 153.625l4.5 8.083M353.167 162.333l4.042 7 3.458-2.166M352.292 162.833l24.792-14.375M360.709 155.458l.708 1.375M359.334 153.125l-8.417-14.708 1.458-.875M356.667 147.792l14.417-8.334M368.875 152.792l-1.583-2.917 7.75-4.375M364.125 165.25l3.084-1.75-3.709-6.667M354.667 136.167l1.125-.625M349.125 126.459L350 126M348.208 122.625l9.417 16.208M353.417 130.417l9.5-5.292M361.583 126.541l2.25 4.209 1.875-1.083M346.792 127.791l-1.584.876M336.375 113.292l9.292 16.208M354.458 111.292l-13.791 8M335 110.959l-1.208-2M334.667 109.792l14.416-8.375M332.5 106.625l-7.375-12.875M343.375 91.709l-14.208 8.25M323.75 91.459l-1.083-1.918M337.875 81.959L323.5 90.334M321.334 87.166l-4.209-7.125M332.792 71.709l-16.126 9.5M317.375 86.542l1.959-1.125M314.959 87.75l-1.459.875"/><path fill="none" stroke="#878686" stroke-width="2" stroke-miterlimit="10" d="M331.667 71.334l126.666 219.333L422 312l-90-156.167M367.125 210.25l-2.625 1.625M369.5 209l30.625-17.625M399.5 192.75l21.25 36.625M385.25 247.375l34-19.375"/><path fill="none" stroke="#878686" stroke-width="2" stroke-miterlimit="10" d="M365.875 210.25l22 38-2 1.125M352.125 192.5l15.625-8.625 2.5 4.25 2.125-1.25M374.75 185.625l2.625-1.5-2.375-4.25 14.375-8.5"/><path fill="none" stroke="#878686" stroke-width=".709" stroke-linecap="round" stroke-linejoin="round" stroke-miterlimit="10" d="M312.125 73.056l-3.985 6.345M306.72 75.935l5.953-3.44"/><path fill="none" stroke="#878686" stroke-width="2" stroke-miterlimit="10" d="M108.5 162.167l4.92 43.42-24.129-.318-.212-23.778 14.941-1.646-2.853-24.345"/><path fill="none" stroke="#878686" stroke-width="2" stroke-miterlimit="10" d="M104.688 195l.124 2.563-9.59.14L95 187l9.625-1 .625 5"/><path fill="none" stroke="#878686" stroke-width=".709" stroke-linecap="round" stroke-linejoin="round" stroke-miterlimit="10" d="M88.612 198.24l5.082.012M88.598 197.221l5.098.011M88.584 196.203l5.115.013M88.571 195.186l5.13.01M88.556 194.167l5.147.01M88.541 193.149l5.165.01M88.527 192.13l5.181.012M88.514 191.112l5.196.01M88.499 190.092l5.213.011M88.484 189.073l5.23.013M88.47 188.054l5.247.012M88.457 187.036l5.262.012M98.794 199.582l-.011 5.345M97.775 199.579l-.011 5.345M96.756 199.576l-.011 5.345M95.738 199.575l-.012 5.343M94.72 199.572l-.013 5.345M93.701 199.571l-.012 5.345M97.217 180.645l.589 5.163M94.182 180.991l.587 5.161M95.194 180.878l.588 5.16M96.206 180.762l.588 5.162M98.229 180.53l.588 5.163M99.237 180.378l.592 5.198"/><g fill="none" stroke="#878686" stroke-width=".774" stroke-linecap="round" stroke-miterlimit="2"><path d="M99.198 193.441l2.856.006M100.38 192.266l-1.191 1.185M100.393 194.641l-1.186-1.19"/><g><path d="M102.198 190.445l-2.855-.006M101.016 191.622l1.191-1.186M101.003 189.245l1.185 1.193"/></g></g><path fill="none" stroke="#878686" stroke-width="2" stroke-miterlimit="10" d="M103.125 205.125l-.187-7.437M112.125 197.313h-1.562M106.938 197.063h-2.25M102.666 157.333L34.784 89.191 64.37 59.735l99.893 100.334M45.044 98.993l12.313-12.259M63.666 87.167l13.643-13.474"/><path fill="none" stroke="#878686" stroke-width=".709" stroke-linecap="round" stroke-linejoin="round" stroke-miterlimit="10" d="M57.229 67.154l3.562 3.599M55.781 68.585l3.562 3.601M56.504 67.869l3.565 3.602M55.056 69.301l3.564 3.602M57.953 66.436l3.563 3.603M58.597 65.754l3.563 3.602M60.576 72.085l3.642 3.667M57.713 74.97l3.608 3.65M56.988 75.685l3.61 3.647M59.856 72.801l3.638 3.666M59.16 73.537l3.61 3.648M58.437 74.253l3.608 3.648M47.815 76.466l3.564 3.598M50.713 73.601l3.562 3.598M48.541 75.749l3.561 3.602M49.264 75.032l3.564 3.602M49.988 74.314l3.562 3.603M51.436 72.883l3.562 3.602M52.16 72.167l3.563 3.601M52.884 71.451l3.563 3.602M53.608 70.733l3.563 3.603M62.781 69.956l3.608 3.646M62.056 70.67l3.609 3.648M54.333 70.019l3.562 3.601M61.333 71.387l3.551 3.581"/><path fill="none" stroke="#878686" stroke-width="2" stroke-miterlimit="10" d="M65.334 85.667L56.5 76.334M62 82.334l12.5-12.667M60.834 91.5l-4.168-4.166M61.666 89.834l-2 1.833M101.834 150.333l-3.168 3.5M109.666 160.5l-2.332 2.333M107.334 161.5l27.666 28 29.833-30M137.333 133l-25.499 25.667M114 156.833l-9.666-9.5 12-11.333 5.832 6M124.166 144.167l1.168 1.166"/><g fill="none" stroke="#878686" stroke-width=".774" stroke-linecap="round" stroke-miterlimit="2"><path d="M358.481 162.504l1.438 2.467M360.093 162.93l-1.625-.428M358.05 164.142l.428-1.624"/><g><path d="M362.583 163.577l-1.437-2.466M360.971 163.152l1.624.428M363.015 161.94l-.431 1.625"/></g></g><g fill-rule="evenodd" clip-rule="evenodd"><path fill="#878686" d="M351.507 130.986c.432.737.866 1.471 1.296 2.21.315.542.198.986-.345 1.305-1.478.868-2.956 1.736-4.436 2.6-.516.303-.972.184-1.276-.332-.877-1.49-1.752-2.982-2.623-4.474-.292-.498-.18-.956.314-1.25a779.56 779.56 0 0 1 4.53-2.656c.463-.27.922-.148 1.199.316.453.756.894 1.52 1.34 2.281zm-.131.05l-1.262-2.153c-.315-.535-.654-.621-1.195-.303l-4.36 2.558c-.475.277-.577.646-.3 1.119.862 1.473 1.726 2.944 2.59 4.415.286.486.65.578 1.14.29l4.378-2.567c.5-.295.594-.655.303-1.152l-1.294-2.208z"/><path fill="#FFF" d="M351.376 131.035l1.294 2.208c.29.497.197.857-.303 1.152-1.459.855-2.919 1.71-4.379 2.568-.489.287-.853.195-1.138-.291-.865-1.47-1.729-2.943-2.591-4.415-.277-.473-.175-.842.3-1.12l4.36-2.557c.541-.318.88-.232 1.195.303.421.718.84 1.435 1.262 2.152zm-2.77.016l.082.025c-.021.063-.024.14-.065.186-.173.2-.356.392-.536.588-.077.084-.187.175-.07.29.114.112.213.014.293-.07.225-.24.452-.481.667-.73a.538.538 0 0 0 .074-.658 11.279 11.279 0 0 0-.36-.613c-.137-.217-.318-.289-.57-.232-.324.072-.644.15-.966.227-.117.03-.265.053-.218.224.042.151.173.112.288.083.257-.064.514-.132.774-.186.057-.011.123.027.186.042-.004.024-.01.047-.013.07l-1.71.459.212.412-.236.139c-.31.183-.62.361-.92.558-.051.033-.076.162-.053.229.012.04.141.071.21.058.086-.017.166-.08.246-.128l.94-.55.068.062c-.037.058-.063.135-.114.167-.33.203-.667.397-1.001.592-.098.058-.159.13-.101.247.067.13.173.108.276.054.132-.073.261-.15.39-.227.246-.142.492-.287.745-.435.09.135.169.25.257.383.419-.433.821-.85 1.225-1.266zm.61 4.045c.396-.23.789-.466 1.19-.692.057-.033.143-.016.214-.023-.046.06-.078.137-.137.174-.249.157-.511.293-.755.457-.062.042-.076.157-.112.238.084.006.186.043.25.008.332-.18.66-.374.983-.575.222-.14.305-.388.185-.618a11.45 11.45 0 0 0-.565-.963.443.443 0 0 0-.595-.141 19.12 19.12 0 0 0-1.037.611c-.05.032-.053.14-.077.212.076.01.158.044.228.027.087-.023.164-.086.244-.133.199-.115.393-.238.595-.346.047-.023.12.003.179.006-.025.049-.049.1-.082.143-.022.026-.06.037-.092.055l-2.338 1.371c-.133.08-.289.162-.183.347.114.195.27.098.41.016l1.205-.707c.031-.02.06-.048.093-.053.054-.008.11 0 .166 0-.024.05-.036.107-.07.145-.039.04-.096.06-.146.09-.414.243-.833.48-1.24.736-.07.044-.117.17-.12.261-.003.045.112.124.182.135.066.012.15-.037.217-.075.405-.233.805-.47 1.208-.706zm-2.594-1.01l4.028-2.361a93.41 93.41 0 0 0-.173-.296l-4.035 2.368c.04.075.074.144.114.212.015.028.043.052.066.078zm4.73-.4a.382.382 0 0 0 .146-.504.379.379 0 0 0-.533-.153.372.372 0 0 0-.131.506c.106.19.333.256.519.15zm-1.748-3.725a.377.377 0 0 0-.523-.125.365.365 0 0 0-.128.503.377.377 0 0 0 .65-.378z"/><path fill="#878686" d="M348.606 131.05l-1.225 1.267-.257-.383c-.253.148-.499.293-.744.435-.13.076-.259.154-.39.227-.104.054-.21.076-.277-.054-.058-.116.003-.189.1-.247.335-.195.671-.389 1.001-.592.052-.032.078-.11.115-.167l-.068-.062-.94.55c-.08.048-.16.11-.246.128-.069.013-.198-.018-.21-.058-.023-.067.002-.196.053-.229.3-.197.61-.375.92-.558l.236-.139-.211-.412 1.709-.458.013-.07c-.063-.016-.13-.054-.186-.043-.26.054-.517.122-.774.186-.115.03-.246.068-.288-.083-.047-.17.101-.194.218-.224.322-.078.642-.155.965-.227.253-.057.434.015.571.232.126.2.246.405.36.613.128.232.1.46-.074.658-.215.249-.442.49-.667.73-.08.084-.18.182-.292.07-.118-.115-.008-.206.069-.29.18-.196.363-.387.536-.588.041-.046.044-.123.064-.186l-.082-.025zM349.216 135.096c-.403.236-.803.473-1.208.706-.068.038-.15.087-.217.075-.07-.01-.185-.09-.183-.135.004-.09.05-.217.122-.262.406-.255.825-.492 1.239-.735.05-.03.107-.05.146-.09.034-.038.046-.095.07-.144-.055-.001-.112-.009-.166-.001-.034.005-.062.034-.093.052l-1.205.707c-.14.083-.296.18-.41-.015-.106-.185.05-.268.183-.347l2.338-1.37c.031-.02.07-.03.092-.057.033-.042.056-.093.082-.142-.06-.003-.132-.03-.179-.006-.202.107-.396.23-.595.346-.08.047-.157.11-.244.132-.07.018-.152-.015-.228-.026.024-.072.026-.18.077-.212.34-.214.685-.42 1.037-.611a.443.443 0 0 1 .595.14c.203.311.393.634.565.963.12.23.037.48-.185.619-.323.2-.65.394-.984.575-.063.035-.165-.002-.249-.008.036-.081.05-.196.112-.238.244-.164.506-.3.755-.457.059-.037.091-.115.137-.174-.071.007-.157-.01-.214.023-.401.226-.794.461-1.19.694v-.002zM346.622 134.087c-.023-.026-.05-.05-.066-.078-.04-.068-.075-.137-.114-.212l4.035-2.368.173.296-4.028 2.362zM351.353 133.685a.375.375 0 0 1-.519-.15.372.372 0 0 1 .13-.506.379.379 0 0 1 .534.153.382.382 0 0 1-.145.504zM349.603 129.96a.377.377 0 1 1-.65.379.365.365 0 0 1 .128-.503.377.377 0 0 1 .522.125z"/></g><path d="M337.621 69.316l4.95-2.88.581 1-1.948 1.133 1.14 1.958 1.948-1.133.581 1-4.95 2.88-.581-1 2.164-1.26-1.139-1.957-2.164 1.258-.582-.999zM340.52 74.3l3.586-2.086.552.948-3.586 2.087-.551-.95zm4.073-2.37l.878-.51.552.95-.878.51-.552-.95zM342.467 75.292l.699.867a.813.813 0 0 0-.276.491c-.025.18.029.38.159.604.142.245.295.403.456.475.111.046.22.04.326-.022.072-.042.12-.1.14-.173.017-.073-.002-.203-.06-.39-.276-.863-.404-1.438-.384-1.723.029-.397.215-.695.559-.896.31-.18.644-.21.998-.088.354.124.681.442.981.958.286.49.418.9.398 1.233-.022.331-.162.634-.424.905l-.686-.799a.642.642 0 0 0 .195-.404c.012-.15-.04-.323-.155-.522-.145-.25-.285-.409-.418-.476a.26.26 0 0 0-.254.004c-.068.039-.107.104-.118.194-.012.123.07.47.25 1.042.178.572.243 1.007.194 1.304-.055.297-.232.533-.534.708-.329.191-.69.219-1.087.081-.396-.137-.75-.475-1.063-1.013-.285-.488-.41-.932-.378-1.333.033-.4.193-.742.482-1.027zM348.418 79.625l-.756.44-.377-.648-1.445.84c-.293.17-.46.276-.501.316a.245.245 0 0 0-.071.155.31.31 0 0 0 .046.188c.051.088.155.196.313.328l-.689.509a2.172 2.172 0 0 1-.578-.667 1.37 1.37 0 0 1-.182-.513c-.023-.17-.007-.314.047-.431s.151-.233.292-.348c.098-.085.315-.225.651-.42l1.563-.91-.253-.436.756-.44.253.436.712-.414 1.109.63-1.267.736.377.649zM346.932 81.077a2.23 2.23 0 0 1 1.05-.299c.385-.016.738.073 1.059.267.321.195.584.468.788.82.315.54.398 1.088.247 1.64-.15.552-.494.983-1.032 1.297-.542.315-1.095.402-1.654.26-.56-.143-.995-.48-1.305-1.011a2.411 2.411 0 0 1-.324-1.07c-.025-.385.061-.739.258-1.061s.5-.603.913-.843zm.514 1.002c-.355.207-.579.45-.67.729s-.063.542.08.79c.145.248.36.4.646.458.287.056.61-.019.97-.229.352-.204.573-.445.665-.723s.065-.54-.08-.788a.93.93 0 0 0-.647-.459c-.287-.06-.608.015-.964.222zM348.201 87.501l-.552-.948 3.586-2.086.513.88-.51.298c.328.01.567.053.712.13.148.076.265.19.355.343.125.216.187.46.183.729l-.998.187c.01-.22-.023-.398-.103-.536a.609.609 0 0 0-.307-.273c-.127-.05-.302-.046-.523.013s-.638.265-1.248.62l-1.108.643z"/><path d="M352.563 86.749l.587 1.01-2.046 2.338 3.033-.644.571.983-4.186.742-.757.136c-.258.04-.464.053-.618.041a1.2 1.2 0 0 1-.42-.103 1.319 1.319 0 0 1-.37-.269 2.107 2.107 0 0 1-.34-.45 2.92 2.92 0 0 1-.255-.57l.694-.517c.058.165.12.308.19.428.128.22.288.346.479.376s.402.016.636-.045l2.802-3.456zM352.602 95.065l4.949-2.88 1.974 3.393-.837.487-1.393-2.394-1.171.681 1.202 2.067-.838.488-1.201-2.066-2.103 1.223-.582-.999zM357.955 98.534l-.346-.951c.404-.105.757-.087 1.06.053.306.138.593.441.864.907.246.423.38.767.4 1.032.02.267-.023.486-.127.66s-.364.381-.776.62l-1.113.634c-.315.184-.54.334-.671.452-.132.117-.26.268-.382.45l-.546-.939c.05-.06.124-.145.227-.254.048-.048.078-.081.092-.098a1.976 1.976 0 0 1-.657-.314 1.727 1.727 0 0 1-.462-.522c-.215-.37-.284-.718-.207-1.048.077-.329.268-.582.574-.76.203-.118.412-.175.627-.17.215.004.415.068.6.194.187.125.407.333.661.626.341.395.597.656.77.785l.094-.054c.181-.106.286-.227.311-.362.025-.134-.035-.328-.18-.578-.098-.168-.208-.28-.33-.337s-.282-.064-.483-.026zm-.031 1.718a6.944 6.944 0 0 1-.48-.493c-.21-.23-.366-.371-.467-.42a.456.456 0 0 0-.442.009.534.534 0 0 0-.258.348.602.602 0 0 0 .075.463c.1.171.25.301.454.39.151.066.3.08.445.045.096-.023.257-.1.483-.233l.19-.109zM361.633 104.778l-.713-.838c.169-.14.267-.293.298-.459a.75.75 0 0 0-.112-.516c-.137-.238-.328-.378-.573-.423-.245-.046-.558.042-.941.264-.426.249-.686.495-.777.74s-.069.488.072.728c.104.181.241.298.41.354.17.054.393.033.67-.065l.384 1.024c-.484.152-.915.155-1.293.006-.378-.147-.702-.452-.97-.913-.306-.524-.383-1.039-.233-1.543s.516-.926 1.101-1.267c.593-.344 1.144-.456 1.656-.335.512.12.923.448 1.234.981.254.438.361.84.323 1.206-.037.368-.216.72-.536 1.056zM360.9 109.327l.536-.312a1.607 1.607 0 0 1-.752-.252 1.665 1.665 0 0 1-.557-.577 1.513 1.513 0 0 1-.219-.742 1.08 1.08 0 0 1 .204-.674c.142-.197.381-.393.719-.59l2.269-1.32.552.949-1.648.959c-.504.294-.803.49-.897.59a.585.585 0 0 0-.158.349.675.675 0 0 0 .105.41.855.855 0 0 0 .386.357c.163.077.326.1.485.07.158-.028.495-.192 1.009-.49l1.511-.881.553.949-3.586 2.086-.513-.88zM361.983 111.19l4.95-2.88.552.95-4.95 2.88-.552-.95zM367.644 112.67l-.756.44-.378-.648-1.446.84c-.292.17-.459.276-.5.316a.243.243 0 0 0-.07.154.316.316 0 0 0 .045.189c.052.088.155.196.314.328l-.689.509a2.172 2.172 0 0 1-.578-.667 1.39 1.39 0 0 1-.184-.513c-.021-.17-.005-.314.048-.431s.152-.233.292-.348c.099-.085.316-.225.65-.42l1.564-.91-.253-.436.756-.44.254.436.712-.414 1.108.629-1.266.737.377.649zM367.766 112.879l.586 1.01-2.046 2.339 3.033-.644.571.982-4.186.742-.757.136c-.258.04-.464.053-.618.041a1.217 1.217 0 0 1-.42-.103 1.303 1.303 0 0 1-.37-.268 2.194 2.194 0 0 1-.34-.451 2.888 2.888 0 0 1-.254-.57l.693-.517c.058.165.12.308.19.427.129.22.288.347.48.377.19.031.402.015.635-.045l2.803-3.456zM370.127 119.564c.504-.294.97-.464 1.4-.513.318-.034.634-.012.948.065.313.08.586.206.818.381.31.233.582.55.816.953.424.73.538 1.446.34 2.146s-.7 1.286-1.506 1.755c-.798.464-1.55.61-2.253.44-.705-.173-1.27-.622-1.692-1.35-.428-.735-.544-1.452-.348-2.147s.689-1.272 1.477-1.73zm.633 1.01c-.56.325-.91.702-1.049 1.13s-.092.839.14 1.237.565.642 1 .73.941-.033 1.515-.367c.568-.33.918-.701 1.052-1.112.135-.41.082-.823-.157-1.235-.24-.411-.574-.661-1.003-.749-.43-.088-.929.034-1.498.365zM374.27 124.059l.306.526.27-.156c.301-.176.545-.276.731-.297a.877.877 0 0 1 .57.142c.193.119.367.31.519.573.158.27.271.558.34.864l-.736.257a2.112 2.112 0 0 0-.2-.467c-.079-.138-.169-.218-.267-.24-.1-.022-.24.02-.422.126l-.253.147.413.71-.747.433-.413-.709-2.84 1.652-.551-.949 2.839-1.651-.306-.527.746-.434zM375.61 126.361l.306.527.27-.157c.301-.175.545-.275.73-.296a.877.877 0 0 1 .57.142c.194.118.367.309.52.573.157.269.271.558.34.864l-.736.257a2.112 2.112 0 0 0-.2-.467c-.08-.138-.169-.218-.268-.24-.098-.022-.239.02-.422.126l-.252.147.412.71-.746.433-.414-.71-2.838 1.653-.552-.95 2.839-1.65-.306-.527.746-.435zM373.604 131.165l3.586-2.086.552.95-3.586 2.085-.552-.949zm4.073-2.37l.878-.51.552.95-.878.51-.552-.95zM379.066 134.743l-.711-.836c.167-.14.266-.294.296-.46a.749.749 0 0 0-.11-.516.823.823 0 0 0-.574-.424c-.245-.045-.559.043-.942.266-.425.248-.684.494-.777.739a.814.814 0 0 0 .072.728c.106.181.242.298.41.354.17.055.394.033.67-.066l.384 1.026c-.483.151-.915.154-1.293.006-.378-.148-.7-.452-.97-.913-.305-.526-.382-1.04-.233-1.543.15-.505.517-.927 1.103-1.268.591-.345 1.143-.456 1.655-.335s.923.448 1.233.981c.254.437.362.84.325 1.207-.039.367-.217.718-.538 1.054zM379.309 138.345l.391 1.038c-.417.08-.793.042-1.126-.115-.334-.158-.615-.433-.844-.827-.363-.623-.428-1.204-.195-1.74.189-.426.531-.784 1.03-1.073.594-.346 1.15-.46 1.668-.347.516.115.914.41 1.189.886.31.533.379 1.057.206 1.57-.173.513-.626.974-1.361 1.384l-1.383-2.377c-.277.17-.452.374-.522.611a.827.827 0 0 0 .083.684c.085.148.199.25.34.304.139.055.314.055.524.002zm.99-.504c.271-.167.438-.36.503-.577a.754.754 0 0 0-.073-.619.76.76 0 0 0-.524-.38c-.23-.048-.473.006-.73.158l.824 1.418zM380.025 139.849l.7.867a.813.813 0 0 0-.277.491c-.024.18.03.38.16.604.142.245.294.403.456.475.112.047.22.04.327-.022a.285.285 0 0 0 .138-.172c.018-.074-.002-.204-.06-.39-.276-.863-.404-1.438-.383-1.725.028-.396.215-.695.56-.895.31-.18.643-.21.997-.087.354.122.681.441.982.956.285.491.417.902.396 1.234-.021.332-.162.633-.422.905l-.686-.798a.647.647 0 0 0 .194-.404c.012-.15-.04-.325-.155-.523-.145-.25-.284-.408-.417-.476a.259.259 0 0 0-.256.004c-.067.04-.106.104-.117.195-.013.122.07.47.249 1.042.179.571.244 1.006.194 1.303-.053.296-.231.533-.533.707-.329.192-.691.22-1.087.082-.396-.137-.75-.475-1.063-1.013-.285-.488-.41-.933-.378-1.332.032-.4.192-.743.481-1.028z"/><g><path d="M342.365 195.476l4.95-2.88.582.999-1.948 1.133 1.139 1.958 1.948-1.133.581 1-4.949 2.88-.581-1 2.164-1.26-1.14-1.957-2.164 1.259-.582-1zM345.266 200.458l3.585-2.086.552.95-3.586 2.085-.551-.949zm4.07-2.368l.879-.51.552.947-.878.511-.552-.948zM347.21 201.45l.701.867a.814.814 0 0 0-.277.493c-.025.178.03.38.159.603.143.244.295.403.457.475.111.047.22.039.326-.023a.28.28 0 0 0 .139-.172c.018-.073-.002-.203-.059-.39-.277-.863-.404-1.438-.385-1.724.03-.396.215-.694.56-.894.31-.181.644-.211.998-.088.354.122.68.441.981.957.286.49.417.901.397 1.232-.022.332-.162.635-.423.906l-.685-.798a.642.642 0 0 0 .194-.405c.012-.15-.04-.324-.155-.522-.146-.25-.285-.409-.417-.476a.26.26 0 0 0-.256.004.241.241 0 0 0-.117.194c-.013.122.07.47.248 1.042.18.572.245 1.006.195 1.304-.054.296-.23.532-.533.708-.329.191-.69.218-1.087.081-.397-.138-.751-.475-1.064-1.013-.284-.488-.41-.932-.377-1.333.032-.399.193-.743.48-1.028zM353.163 205.783l-.757.44-.377-.648-1.445.841c-.292.17-.459.276-.5.316a.24.24 0 0 0-.071.155.313.313 0 0 0 .046.187c.05.088.155.197.313.328l-.69.51a2.18 2.18 0 0 1-.577-.667c-.1-.17-.16-.342-.183-.513s-.007-.315.047-.431c.053-.117.152-.234.293-.349.097-.084.314-.223.65-.419l1.564-.909-.253-.435.756-.44.254.435.711-.415 1.108.63-1.266.737.377.647zM351.676 207.236a2.246 2.246 0 0 1 1.05-.3 1.85 1.85 0 0 1 1.06.268c.321.194.583.467.788.818.316.542.398 1.09.247 1.641-.15.552-.495.984-1.032 1.297-.543.316-1.094.402-1.655.26-.56-.143-.995-.479-1.304-1.01a2.394 2.394 0 0 1-.324-1.07c-.025-.385.06-.739.257-1.06.197-.323.5-.604.913-.844zm.515 1.002c-.356.207-.579.45-.67.729s-.064.542.08.79c.144.247.36.4.646.457.287.058.61-.018.97-.227.351-.205.573-.446.664-.723a.926.926 0 0 0-.078-.789.935.935 0 0 0-.648-.46c-.287-.058-.608.016-.964.223zM352.946 213.66l-.552-.948 3.586-2.087.512.882-.51.297c.33.01.567.053.713.129a.873.873 0 0 1 .354.343c.126.217.187.46.184.73l-.998.186c.011-.22-.024-.398-.104-.535-.077-.133-.179-.224-.306-.274s-.302-.045-.523.014c-.222.057-.639.264-1.248.619l-1.108.644z"/><path d="M357.308 212.908l.587 1.009-2.047 2.34 3.033-.645.572.983-4.187.742-.757.137c-.257.039-.464.052-.618.04a1.2 1.2 0 0 1-.42-.104 1.303 1.303 0 0 1-.37-.267 2.175 2.175 0 0 1-.34-.452 2.918 2.918 0 0 1-.254-.57l.694-.517c.057.166.12.309.19.428.127.22.287.346.478.376s.403.017.636-.044l2.803-3.456zM335.465 199.522l4.909-2.857.581 1-4.075 2.371 1.446 2.485-.834.485-2.027-3.484zM337.902 203.712l3.586-2.086.552.95-3.586 2.085-.552-.95zm4.073-2.37l.877-.51.552.95-.878.51-.551-.95zM338.996 205.593l4.951-2.88.552.948-1.783 1.037c.503.1.872.35 1.104.75.254.437.307.89.157 1.36s-.52.877-1.114 1.221c-.612.357-1.168.486-1.669.386s-.872-.356-1.114-.773a1.51 1.51 0 0 1-.198-.696 1.666 1.666 0 0 1 .154-.779l-.526.307-.514-.881zm2.419-.147c-.371.216-.612.435-.722.655-.156.311-.155.603.003.875.122.21.316.336.58.379.265.043.59-.047.974-.271.41-.238.663-.484.758-.738a.819.819 0 0 0-.06-.729.826.826 0 0 0-.596-.413c-.264-.048-.577.032-.937.242zM342.006 210.766l-.552-.95 3.586-2.085.513.88-.51.297c.328.011.566.054.713.13.145.076.263.19.353.344.125.216.187.459.184.728l-.998.188c.01-.22-.024-.398-.104-.536a.615.615 0 0 0-.306-.275c-.127-.048-.301-.044-.524.014-.22.059-.638.266-1.248.62l-1.107.645zM345.947 211.808l-.345-.952c.403-.105.756-.087 1.06.051.305.14.592.443.863.908.246.424.38.768.4 1.034s-.023.485-.127.659-.365.38-.776.62l-1.113.635a4.522 4.522 0 0 0-.67.45c-.133.118-.26.269-.383.451l-.546-.938c.048-.062.124-.147.227-.254.047-.05.078-.081.092-.099a2 2 0 0 1-.657-.313 1.729 1.729 0 0 1-.462-.523c-.215-.369-.283-.719-.207-1.048.077-.329.268-.583.574-.76.203-.119.411-.175.626-.171.215.005.416.07.602.195s.406.334.66.626c.34.395.598.657.77.786l.094-.055c.182-.106.286-.227.311-.362s-.035-.327-.18-.577c-.098-.169-.208-.281-.33-.338-.121-.056-.282-.064-.483-.025zm-.031 1.716a6.546 6.546 0 0 1-.48-.493c-.21-.23-.366-.37-.466-.42a.46.46 0 0 0-.443.01.537.537 0 0 0-.258.348.601.601 0 0 0 .075.463c.1.17.25.301.453.391.153.065.302.08.446.043.095-.021.257-.1.485-.231l.188-.11zM345.809 217.302l-.552-.948 3.586-2.087.512.881-.51.297c.329.01.567.054.713.13.147.075.265.19.354.343.126.217.188.46.184.729l-.998.188c.01-.22-.024-.4-.104-.537a.615.615 0 0 0-.306-.273c-.127-.05-.301-.045-.523.012-.222.059-.639.266-1.249.62l-1.107.645z"/><path d="M350.17 216.55l.588 1.01-2.047 2.338 3.033-.644.572.982-4.187.742-.756.137a2.938 2.938 0 0 1-.62.04 1.173 1.173 0 0 1-.418-.103 1.286 1.286 0 0 1-.37-.268 2.158 2.158 0 0 1-.34-.451 2.865 2.865 0 0 1-.255-.57l.694-.516c.057.165.12.307.19.426.128.22.287.347.478.377.192.031.403.016.637-.044l2.802-3.456z"/></g><g><path d="M233.75 175.098h3.628v.73h-2.749v2.239h2.539v.72h-2.539v3.047h-.879v-6.736zM238.62 175.098h.88v6.006h2.878v.73h-3.758v-6.736zM248.717 178.395c0 2.31-1.409 3.55-3.128 3.55-1.79 0-3.028-1.39-3.028-3.43 0-2.138 1.319-3.537 3.118-3.537 1.849 0 3.038 1.409 3.038 3.417zm-5.237.101c0 1.45.78 2.738 2.159 2.738 1.38 0 2.158-1.27 2.158-2.798 0-1.349-.699-2.748-2.148-2.748s-2.169 1.338-2.169 2.808zM255.607 178.395c0 2.31-1.409 3.55-3.128 3.55-1.79 0-3.028-1.39-3.028-3.43 0-2.138 1.319-3.537 3.118-3.537 1.849 0 3.038 1.409 3.038 3.417zm-5.237.101c0 1.45.78 2.738 2.159 2.738 1.38 0 2.159-1.27 2.159-2.798 0-1.349-.7-2.748-2.149-2.748s-2.169 1.338-2.169 2.808zM256.74 175.188a10.1 10.1 0 0 1 1.67-.14c.93 0 1.539.18 1.948.55.33.3.53.76.53 1.289 0 .88-.56 1.469-1.26 1.709v.03c.51.18.82.66.98 1.36.22.939.38 1.588.52 1.848h-.9c-.11-.2-.26-.77-.44-1.61-.2-.929-.569-1.279-1.359-1.308h-.82v2.918h-.868v-6.647zm.87 3.068h.89c.93 0 1.518-.51 1.518-1.28 0-.869-.629-1.248-1.548-1.248-.42 0-.71.03-.86.069v2.459zM266.65 181.834v-1.78h-3.02v-.569l2.9-4.147h.949v4.037h.91v.68h-.91v1.779h-.83zm0-2.459v-2.169c0-.339.01-.679.03-1.018h-.03c-.2.378-.36.659-.54.959l-1.59 2.209v.019h2.13z"/></g><g><path d="M112.948 70.472l.682-.682 1.763 1.762-1.613 1.613c-.338-.006-.732-.107-1.183-.307-.45-.199-.843-.465-1.176-.798-.424-.424-.705-.881-.841-1.373a2.4 2.4 0 0 1 .052-1.473c.172-.49.452-.928.841-1.316.421-.422.885-.71 1.39-.86s1.014-.143 1.53.023c.394.125.784.38 1.17.767.503.503.79 1.001.863 1.494s-.038.967-.33 1.42l-.963-.66c.142-.255.192-.52.15-.793s-.182-.526-.418-.763c-.357-.356-.755-.527-1.192-.511-.437.015-.878.246-1.324.691-.481.481-.735.948-.761 1.402-.027.453.133.854.479 1.2.171.171.376.31.616.415.24.104.469.17.688.198l.513-.514-.936-.935zM113.97 74.472l2.934-2.934.776.776-2.934 2.933-.776-.775zm3.331-3.332l.719-.718.776.776-.719.718-.776-.776zM118.16 74.585l-.577-.832c.363-.205.709-.277 1.039-.22.33.056.685.276 1.066.657.346.346.562.645.65.895.088.252.103.475.046.67-.057.195-.254.462-.591.799l-.915.898c-.257.258-.435.46-.533.608a2.335 2.335 0 0 0-.254.533l-.768-.769c.031-.071.083-.173.156-.304a1.98 1.98 0 0 0 .063-.119c-.262-.004-.5-.048-.716-.134s-.408-.215-.58-.387c-.302-.303-.458-.622-.468-.96-.01-.339.11-.632.36-.883.166-.165.354-.274.562-.324a1.1 1.1 0 0 1 .632.034c.211.074.478.219.798.437.43.294.745.483.944.563l.078-.078c.149-.148.219-.291.208-.429-.01-.136-.117-.307-.322-.512-.138-.138-.272-.218-.404-.242-.132-.022-.29.01-.473.099zm.409 1.668a7.031 7.031 0 0 1-.591-.354c-.261-.17-.448-.265-.558-.287a.455.455 0 0 0-.425.121.536.536 0 0 0-.16.403.604.604 0 0 0 .19.43c.14.138.32.226.538.261.165.024.312 0 .442-.072.087-.045.223-.162.41-.348l.154-.154zM121.356 81.856l-.776-.775 1.497-1.497c.317-.317.505-.538.565-.665a.61.61 0 0 0 .055-.378.659.659 0 0 0-.192-.347.886.886 0 0 0-.472-.252.793.793 0 0 0-.513.074c-.161.082-.405.288-.733.615l-1.329 1.329-.776-.777 2.934-2.934.72.722-.43.43c.587-.075 1.075.082 1.464.471.17.17.296.357.377.56.08.206.108.391.085.56-.023.168-.08.327-.173.478-.094.15-.254.338-.48.564l-1.823 1.822zM124.811 85.313l-.776-.777 1.497-1.497c.317-.316.505-.538.566-.664a.615.615 0 0 0 .055-.378.658.658 0 0 0-.193-.348.891.891 0 0 0-.472-.25.795.795 0 0 0-.513.072c-.16.082-.405.288-.732.616l-1.329 1.328-.776-.777 2.933-2.933.721.722-.43.43c.587-.075 1.074.081 1.463.47.171.17.297.358.377.561.08.204.108.39.085.558-.023.169-.08.328-.173.478-.093.15-.253.338-.48.565l-1.823 1.823zM125.599 86.1l2.933-2.934.777.776-2.934 2.934-.776-.776zm3.33-3.331l.719-.72.776.778-.718.718-.776-.776zM129.838 90.339l-.775-.776 1.497-1.497c.316-.316.504-.538.564-.665a.61.61 0 0 0 .056-.378.658.658 0 0 0-.192-.346.886.886 0 0 0-.472-.251.787.787 0 0 0-.513.073c-.162.082-.406.287-.733.614l-1.33 1.33-.775-.777 2.934-2.934.72.721-.43.43c.587-.074 1.074.083 1.463.471.171.171.297.358.377.562.08.204.108.39.086.558a1.215 1.215 0 0 1-.174.478c-.093.15-.253.338-.48.565l-1.823 1.822zM130.626 91.127l2.934-2.934.776.777-2.934 2.933-.776-.776zm3.331-3.331l.718-.719.776.777-.718.717-.776-.775zM133.797 94.298l4.016-4.016.817.817-3.334 3.334 2.034 2.033-.683.682-2.85-2.85zM137.225 97.726l2.933-2.934.776.775-2.933 2.934-.776-.775zm3.33-3.332l.719-.717.776.775-.718.719-.776-.777zM138.763 99.265l4.05-4.05.775.776-1.458 1.458c.512-.033.932.114 1.26.443.357.357.523.782.498 1.273-.025.493-.28.982-.763 1.467-.501.5-1.006.767-1.516.799-.509.033-.934-.121-1.274-.463a1.51 1.51 0 0 1-.37-.621 1.674 1.674 0 0 1-.05-.793l-.431.431-.72-.72zm2.301-.76c-.304.303-.481.576-.53.816-.072.341.004.623.226.846.171.172.39.244.657.219.268-.027.559-.196.873-.512.335-.334.516-.637.543-.907a.815.815 0 0 0-.245-.689c-.186-.186-.413-.27-.68-.248s-.55.18-.844.475zM142.995 103.495l-.777-.775 2.934-2.934.721.72-.417.419c.32-.074.561-.094.722-.057.16.035.304.115.43.241.176.177.298.396.364.658l-.917.435c-.046-.215-.125-.379-.237-.49a.614.614 0 0 0-.366-.188c-.136-.015-.304.034-.503.147-.2.113-.55.42-1.049.919l-.905.905zM147.072 103.495l-.578-.831c.363-.204.71-.277 1.04-.22.328.056.684.276 1.065.656.346.347.563.645.65.897s.104.475.046.67c-.057.195-.254.46-.59.798l-.915.897c-.258.258-.435.461-.534.608a2.396 2.396 0 0 0-.253.533l-.768-.768c.03-.071.082-.173.155-.303.033-.059.054-.099.063-.119-.261-.004-.5-.048-.716-.135s-.408-.216-.58-.387c-.302-.302-.458-.622-.467-.96-.01-.338.11-.633.36-.883a1.18 1.18 0 0 1 .561-.324c.21-.05.42-.04.632.035.212.072.478.219.798.436.431.295.746.482.945.564l.077-.078c.15-.148.219-.293.209-.43-.01-.136-.118-.307-.322-.511-.139-.139-.273-.22-.405-.243-.131-.023-.29.01-.473.098zm.409 1.67a6.826 6.826 0 0 1-.592-.355c-.261-.17-.447-.264-.557-.287a.459.459 0 0 0-.426.122.535.535 0 0 0-.16.403.6.6 0 0 0 .19.428c.14.14.32.228.54.263a.694.694 0 0 0 .441-.072c.086-.047.223-.162.409-.348l.155-.155zM148.342 108.843l-.776-.776 2.933-2.933.722.72-.418.418c.32-.074.562-.093.722-.057a.864.864 0 0 1 .43.242c.177.177.298.396.365.657l-.917.436c-.047-.215-.126-.38-.238-.491a.612.612 0 0 0-.366-.187c-.135-.015-.303.033-.503.147s-.549.42-1.048.919l-.906.905z"/><path d="M152.367 107.001l.826.826-1.382 2.783 2.768-1.397.804.804-3.859 1.787-.696.326c-.24.103-.435.17-.587.197-.152.03-.296.031-.432.008a1.326 1.326 0 0 1-.427-.165 2.184 2.184 0 0 1-.443-.349c-.15-.15-.28-.312-.392-.486l.539-.678c.097.147.194.268.292.366.18.18.367.261.56.242.192-.02.393-.088.603-.206l1.826-4.058zM121.398 92.46c.258-.258.571-.443.94-.559.368-.113.732-.117 1.092-.011s.684.302.97.59c.445.443.664.95.66 1.523-.005.571-.227 1.077-.667 1.517-.444.444-.956.668-1.534.674-.577.006-1.084-.209-1.518-.643a2.405 2.405 0 0 1-.588-.952 1.769 1.769 0 0 1-.022-1.091c.108-.362.33-.711.667-1.048zm.754.837c-.29.29-.444.583-.461.876a.931.931 0 0 0 .28.742c.202.203.45.295.74.278.292-.018.586-.174.88-.468.288-.287.44-.577.458-.869.017-.292-.075-.539-.278-.742s-.45-.295-.743-.28c-.292.019-.585.172-.876.463zM126.12 94.33l.43.43.221-.22c.247-.247.457-.404.63-.474a.885.885 0 0 1 .588-.006c.217.064.434.204.65.42.22.22.403.47.548.748l-.646.435a2.172 2.172 0 0 0-.312-.4c-.112-.112-.22-.166-.32-.162-.101.003-.226.08-.376.229l-.207.207.58.58-.61.61-.58-.58-2.323 2.323-.776-.776 2.322-2.323-.43-.43.61-.61zM71.36 59.015l-.889-.89.567-1.272-1.62-1.62-1.253.586-.868-.867 5.627-2.473.864.866-2.427 5.67zm.097-3.108l.945-2.06-2.05.956 1.105 1.104zM71.523 59.565l.78.994c-.089.118-.126.223-.11.315.017.129.106.273.264.43.203.203.385.324.547.365a.536.536 0 0 0 .35-.041c.09-.041.22-.147.393-.32l.428-.428c-.548.084-1-.05-1.353-.404-.394-.394-.54-.873-.437-1.436.084-.444.321-.862.713-1.254.492-.492.986-.749 1.482-.772s.92.141 1.272.493c.363.362.503.82.42 1.375l.412-.411.726.727-2.632 2.631c-.346.347-.634.577-.862.692a1.352 1.352 0 0 1-.644.162 1.49 1.49 0 0 1-.642-.184c-.227-.117-.473-.306-.736-.57-.498-.497-.765-.936-.803-1.313-.037-.378.075-.699.336-.96l.096-.091zm2.415-1.028c-.312.312-.479.599-.503.864a.79.79 0 0 0 .23.663c.189.19.423.277.703.26.279-.018.563-.173.854-.464.304-.304.467-.591.49-.865a.843.843 0 0 0-.255-.695.808.808 0 0 0-.677-.243c-.265.024-.546.183-.843.48zM75.987 63.642l-.776-.777 2.934-2.933.72.721-.416.416c.32-.073.56-.092.721-.056a.881.881 0 0 1 .43.242c.177.177.299.395.365.657l-.917.437c-.047-.215-.126-.38-.238-.493-.108-.107-.23-.17-.366-.185s-.303.033-.503.146-.549.42-1.047.918l-.907.907zM77.446 65.1l2.933-2.933.776.775-2.933 2.934-.776-.775zm3.33-3.331l.72-.718.775.776-.718.718-.776-.776zM83.642 67.163l-.904-.627c.127-.179.183-.351.17-.52a.752.752 0 0 0-.24-.471.82.82 0 0 0-.662-.263c-.248.019-.529.184-.843.498-.347.348-.535.652-.561.912a.812.812 0 0 0 .255.686c.147.148.31.226.487.236.178.01.388-.067.632-.232l.632.891c-.429.27-.845.384-1.249.337-.402-.047-.793-.258-1.17-.635-.43-.43-.636-.906-.62-1.432.015-.526.263-1.028.741-1.507.484-.484.99-.733 1.515-.747s1.007.197 1.444.634c.357.357.563.719.62 1.083.058.364-.025.75-.247 1.157zM84.094 71.749l.44-.44a1.607 1.607 0 0 1-.792-.051 1.658 1.658 0 0 1-.686-.415 1.532 1.532 0 0 1-.401-.66 1.091 1.091 0 0 1 .025-.706c.086-.226.268-.477.544-.754l1.857-1.855.775.775-1.348 1.348c-.412.413-.65.68-.715.802a.586.586 0 0 0-.065.377c.022.13.09.253.206.368a.862.862 0 0 0 .952.192c.146-.069.43-.313.849-.733l1.238-1.237.776.776-2.934 2.934-.72-.721zM85.619 73.272l4.049-4.048.776.776-4.049 4.05-.776-.778zM91.47 73.257l-.62.618-.53-.53-1.182 1.182c-.24.24-.374.384-.404.434s-.038.104-.028.167a.31.31 0 0 0 .092.17c.072.072.2.15.386.237l-.535.669a2.19 2.19 0 0 1-.73-.498 1.352 1.352 0 0 1-.307-.45.773.773 0 0 1-.065-.428c.022-.128.086-.265.193-.411.074-.107.248-.297.522-.572l1.28-1.28-.357-.355.619-.62.356.357.583-.583 1.232.326-1.036 1.036.53.53zM91.005 78.66l.44-.44c-.264.05-.528.033-.792-.051a1.673 1.673 0 0 1-.687-.416 1.52 1.52 0 0 1-.4-.66 1.092 1.092 0 0 1 .025-.704c.086-.226.268-.478.544-.754l1.856-1.857.777.777-1.349 1.348c-.412.412-.65.679-.715.801a.584.584 0 0 0-.065.377c.022.129.09.252.206.368a.856.856 0 0 0 .465.247.79.79 0 0 0 .486-.054c.146-.07.43-.315.85-.734l1.237-1.237.777.775-2.934 2.934-.721-.72zM93.272 80.927l-.775-.776 2.933-2.933.72.72-.416.416c.32-.072.56-.091.722-.055a.87.87 0 0 1 .43.241c.177.177.298.396.364.658l-.917.436c-.046-.215-.125-.38-.237-.492-.11-.108-.231-.17-.367-.186s-.302.033-.502.146c-.2.114-.55.42-1.048.918l-.907.907zM97.35 80.927l-.577-.831c.362-.204.708-.279 1.038-.222.33.058.685.276 1.066.658.347.346.563.645.65.897.088.25.103.474.046.669-.057.196-.254.461-.591.797l-.914.899a4.51 4.51 0 0 0-.533.607 2.374 2.374 0 0 0-.254.533l-.768-.767c.03-.072.083-.174.154-.305.034-.058.055-.098.064-.117-.261-.005-.5-.05-.716-.137a1.712 1.712 0 0 1-.58-.385c-.302-.302-.457-.623-.468-.96-.01-.338.11-.633.361-.883.166-.166.353-.274.562-.324a1.1 1.1 0 0 1 .631.034c.212.073.478.219.798.436.431.295.746.483.945.564l.077-.077c.15-.15.219-.293.209-.43s-.118-.309-.322-.512c-.138-.138-.274-.219-.405-.242-.132-.023-.29.01-.473.098zm.408 1.668a6.516 6.516 0 0 1-.59-.354c-.262-.169-.448-.264-.559-.287a.46.46 0 0 0-.425.121c-.109.11-.162.244-.16.405s.065.302.19.427c.14.14.32.228.539.263.164.023.311 0 .442-.071.087-.047.223-.162.409-.349l.154-.155zM97.877 85.531l4.05-4.05.776.778-4.05 4.048-.776-.776zM103.64 87.216l-.578-.831c.362-.204.71-.279 1.039-.221s.685.276 1.066.657c.346.346.562.645.65.897s.103.474.046.67c-.058.195-.254.46-.591.798l-.915.897c-.258.258-.435.46-.533.608a2.372 2.372 0 0 0-.254.533l-.768-.768c.031-.072.083-.174.155-.304.033-.058.054-.098.063-.118-.26-.004-.5-.05-.715-.136a1.737 1.737 0 0 1-.58-.386c-.302-.302-.458-.622-.468-.96s.11-.633.36-.883c.166-.166.354-.274.563-.324.208-.051.419-.04.63.034.212.073.479.22.799.436.43.295.745.483.944.565l.078-.078c.149-.149.218-.293.208-.43-.01-.137-.117-.308-.322-.512-.138-.138-.273-.218-.404-.242-.132-.023-.29.01-.474.098zm.408 1.669a6.95 6.95 0 0 1-.59-.354c-.263-.17-.449-.264-.559-.288a.459.459 0 0 0-.425.122c-.11.109-.162.244-.16.404s.064.302.19.427c.14.14.32.228.538.264.165.023.312 0 .442-.072.087-.047.223-.162.41-.348l.154-.155zM106.835 94.49l-.776-.777 1.497-1.497c.317-.317.505-.54.565-.664a.611.611 0 0 0 .055-.38.652.652 0 0 0-.192-.345.88.88 0 0 0-.472-.252c-.181-.033-.352-.009-.513.073s-.406.286-.733.615l-1.329 1.328-.776-.776 2.934-2.933.72.72-.43.432c.587-.076 1.075.08 1.464.469.171.172.296.358.377.562.08.203.108.39.085.559-.023.168-.081.326-.174.477s-.252.338-.479.565l-1.823 1.823zM110.313 97.967l-.722-.722.432-.43a1.636 1.636 0 0 1-.799-.05 1.547 1.547 0 0 1-.616-.37c-.337-.337-.49-.761-.458-1.273.03-.513.29-1.012.776-1.498.497-.497.992-.758 1.485-.783.492-.023.917.142 1.275.499.327.327.474.748.441 1.26l1.459-1.458.776.775-4.05 4.05zm-.542-3.603c-.313.314-.497.583-.55.81-.077.328-.004.604.221.829.179.178.407.254.684.227s.567-.19.869-.493c.337-.336.519-.64.545-.91s-.055-.499-.245-.69a.824.824 0 0 0-.681-.242c-.271.022-.552.178-.843.47zM112.657 100.311l4.05-4.048 1.72 1.72c.433.432.712.784.835 1.052.123.27.151.556.083.86s-.222.575-.462.815c-.303.303-.644.465-1.02.484s-.769-.123-1.175-.426c.073.28.106.539.097.777-.008.238-.072.612-.192 1.122l-.295 1.285-.978-.978.29-1.472c.105-.524.16-.866.164-1.026a.893.893 0 0 0-.077-.415c-.056-.117-.178-.269-.366-.457l-.165-.166-1.69 1.692-.819-.819zm3.155-1.519l.605.606c.392.392.653.62.784.684s.264.085.4.059a.753.753 0 0 0 .387-.222.688.688 0 0 0 .222-.44.71.71 0 0 0-.15-.466 10.012 10.012 0 0 0-.583-.61l-.638-.638-1.027 1.027zM119.367 105.153l.643.905c-.383.183-.756.242-1.118.175-.363-.066-.706-.26-1.028-.582-.51-.51-.72-1.054-.633-1.632.074-.461.315-.895.722-1.301.485-.486.993-.74 1.523-.762.529-.02.988.162 1.377.55.437.438.637.927.6 1.467-.035.54-.356 1.102-.962 1.686l-1.945-1.945c-.225.236-.34.477-.349.725a.829.829 0 0 0 .255.64c.122.121.257.19.406.207s.319-.027.509-.133zm.828-.74c.22-.23.332-.459.339-.685a.753.753 0 0 0-.228-.58.766.766 0 0 0-.605-.235c-.234.014-.456.127-.666.34l1.16 1.16zM120.444 106.425l.897.66a.808.808 0 0 0-.142.545c.023.18.126.36.308.543.201.2.389.314.564.342a.345.345 0 0 0 .309-.105c.059-.06.09-.126.091-.202-.001-.075-.055-.195-.158-.361-.487-.764-.758-1.287-.812-1.569-.073-.39.031-.726.313-1.007.254-.255.568-.37.942-.341s.772.253 1.193.674c.402.401.635.764.699 1.09.064.327.005.655-.177.985l-.867-.598a.64.64 0 0 0 .084-.44c-.026-.148-.121-.304-.283-.466-.204-.203-.38-.321-.525-.353a.26.26 0 0 0-.246.07c-.055.054-.076.127-.063.216.018.123.187.438.507.944.319.508.493.912.52 1.212.024.3-.087.573-.334.82-.27.269-.612.388-1.03.356-.419-.03-.847-.266-1.288-.707-.4-.399-.634-.797-.705-1.191a1.585 1.585 0 0 1 .203-1.117zM124.355 108.993c.258-.258.57-.444.94-.558a1.852 1.852 0 0 1 1.092-.012c.36.105.683.302.971.59.443.443.664.95.658 1.523-.004.571-.227 1.077-.667 1.518-.444.443-.954.668-1.533.673-.578.005-1.085-.209-1.519-.643a2.403 2.403 0 0 1-.586-.952 1.766 1.766 0 0 1-.023-1.09c.107-.363.33-.713.667-1.049zm.754.837c-.29.291-.444.583-.461.876s.076.54.279.742.45.295.741.278.585-.174.88-.468c.287-.288.44-.577.457-.868.018-.293-.075-.54-.277-.743s-.45-.295-.743-.279c-.293.018-.585.171-.876.462zM128.413 116.067l.44-.44a1.596 1.596 0 0 1-.792-.05 1.661 1.661 0 0 1-.687-.416 1.526 1.526 0 0 1-.4-.66 1.088 1.088 0 0 1 .025-.705c.086-.227.268-.478.544-.754l1.856-1.856.776.776-1.348 1.347c-.413.414-.651.68-.716.802-.064.122-.085.247-.064.377s.09.253.205.368a.864.864 0 0 0 .466.249.79.79 0 0 0 .486-.056c.146-.07.43-.314.85-.734l1.237-1.237.776.776-2.934 2.934-.72-.72zM130.68 118.335l-.776-.776 2.934-2.934.72.72-.416.418c.32-.074.56-.092.722-.057.16.036.304.116.43.242.176.176.298.396.364.657l-.917.437c-.047-.216-.125-.379-.238-.492a.61.61 0 0 0-.366-.186c-.135-.016-.302.033-.503.147-.199.113-.549.419-1.048.918l-.906.906zM136.763 120.284l-.904-.627c.127-.178.184-.351.17-.52a.75.75 0 0 0-.239-.471c-.193-.193-.414-.281-.663-.263s-.529.184-.842.498c-.348.348-.536.653-.562.912-.027.261.058.49.255.687.148.147.31.227.488.236s.388-.067.631-.233l.632.891c-.428.272-.845.384-1.248.337-.403-.046-.794-.257-1.172-.634-.429-.43-.635-.907-.62-1.432.016-.527.264-1.03.742-1.508.484-.484.99-.732 1.516-.746s1.006.197 1.443.633c.357.357.564.719.621 1.084.058.363-.026.75-.248 1.156zM137.917 123.704l.644.903c-.383.184-.756.244-1.119.177-.363-.066-.706-.26-1.027-.582-.51-.51-.721-1.054-.633-1.633.073-.46.314-.894.721-1.301.486-.486.994-.74 1.523-.761.53-.022.99.162 1.377.55.437.437.637.925.601 1.466-.036.54-.356 1.103-.962 1.687l-1.945-1.945c-.225.236-.341.477-.35.724a.831.831 0 0 0 .256.64c.121.122.257.191.406.208.15.016.318-.027.508-.133zm.83-.74c.218-.23.33-.46.337-.687a.755.755 0 0 0-.228-.579c-.17-.169-.37-.247-.605-.234s-.456.127-.665.34l1.16 1.16zM140.008 127.662l4.05-4.05 3.001 3.003-.685.685-2.184-2.184-.898.897 2.033 2.033-.682.681-2.033-2.032-1.102 1.103 2.262 2.261-.682.683-3.08-3.08zM148.4 131.92l-.903-.626c.127-.178.183-.352.169-.52a.747.747 0 0 0-.239-.47c-.193-.194-.414-.283-.663-.264-.248.02-.53.184-.843.498-.347.348-.535.652-.561.912-.027.26.058.49.255.687.148.147.31.226.487.236.179.01.389-.068.632-.234l.633.893c-.43.27-.846.383-1.25.336-.402-.046-.793-.257-1.17-.635-.43-.429-.636-.906-.62-1.431.015-.526.263-1.029.741-1.507.485-.485.99-.734 1.515-.747s1.007.197 1.444.632c.357.358.564.72.62 1.084.059.364-.025.75-.247 1.157zM148.25 132.888c.258-.258.571-.444.94-.558s.732-.118 1.092-.013c.36.107.684.303.971.59.444.444.664.951.659 1.524s-.227 1.078-.667 1.517c-.444.444-.955.668-1.534.674-.577.006-1.084-.208-1.519-.643-.269-.27-.464-.586-.586-.952s-.13-.73-.023-1.09c.108-.362.33-.711.667-1.05zm.754.838c-.29.29-.444.582-.461.875s.077.54.28.743.449.296.74.277c.293-.018.586-.173.88-.468.288-.287.44-.577.457-.869.018-.29-.074-.539-.277-.741s-.45-.296-.743-.28-.585.172-.876.463zM153.045 140.7l-.776-.777 1.497-1.496c.317-.318.506-.54.565-.665s.079-.253.055-.378a.65.65 0 0 0-.192-.347.878.878 0 0 0-.472-.25c-.18-.034-.351-.01-.513.071s-.405.288-.732.616l-1.33 1.328-.775-.776 2.933-2.933.72.72-.43.431c.587-.075 1.076.081 1.464.47.171.17.297.357.377.562.08.203.108.39.085.558s-.08.327-.173.477-.253.338-.48.565l-1.823 1.824zM155.161 139.799c.258-.258.57-.445.94-.558.368-.114.732-.119 1.092-.012.36.106.683.301.971.59.444.443.664.952.658 1.523-.004.571-.227 1.077-.667 1.517-.443.445-.954.67-1.532.675-.578.004-1.085-.209-1.52-.644a2.406 2.406 0 0 1-.587-.951 1.773 1.773 0 0 1-.022-1.091c.108-.363.33-.712.667-1.05zm.754.837c-.291.29-.444.583-.46.876s.075.54.278.743c.202.202.45.295.742.277s.585-.174.879-.469c.288-.287.44-.576.457-.868s-.075-.539-.277-.741c-.203-.203-.45-.296-.743-.28s-.585.17-.876.462zM160.164 141.95l.715.716-.4.4c.566-.055 1.027.094 1.38.448.188.188.312.39.373.605s.057.446-.01.69c.284-.027.54-.005.767.067.226.072.425.191.594.361.216.216.354.442.416.678.062.237.044.477-.051.72-.073.178-.248.408-.528.688l-1.876 1.875-.776-.775 1.677-1.678c.29-.29.452-.505.483-.642.039-.183-.016-.348-.166-.498a.755.755 0 0 0-.405-.207.786.786 0 0 0-.499.084c-.17.085-.394.267-.67.543l-1.409 1.409-.776-.777 1.608-1.607c.285-.285.455-.483.511-.594.055-.111.074-.215.057-.313s-.077-.198-.176-.297a.789.789 0 0 0-.42-.227c-.16-.031-.321-.007-.484.073s-.386.261-.668.543l-1.425 1.425-.776-.776 2.934-2.934zM162.318 149.972l2.933-2.934.776.776-2.933 2.934-.776-.776zm3.33-3.33l.72-.72.775.776-.718.719-.776-.775zM168.514 152.035l-.904-.627c.127-.178.183-.352.17-.52a.752.752 0 0 0-.239-.471.82.82 0 0 0-.663-.263c-.248.019-.529.185-.842.497-.348.348-.536.653-.562.913s.058.49.255.687c.147.146.31.227.487.236.179.01.389-.068.632-.234l.632.893c-.429.271-.845.382-1.248.337-.403-.047-.794-.257-1.172-.635-.429-.429-.635-.908-.62-1.433.016-.525.264-1.027.742-1.506.485-.484.99-.734 1.515-.748s1.007.197 1.444.634c.357.357.564.718.62 1.083.058.364-.025.75-.247 1.157zM167.6 153.58l.897.66a.812.812 0 0 0-.143.545c.023.179.126.36.309.542.2.201.388.317.563.344.12.016.223-.02.31-.105a.285.285 0 0 0 .09-.202c-.001-.076-.054-.197-.157-.362-.488-.765-.759-1.287-.812-1.57-.073-.39.03-.726.312-1.007.254-.254.569-.367.942-.34s.772.252 1.194.674c.401.401.634.765.698 1.092.064.325.006.653-.177.982l-.867-.596a.644.644 0 0 0 .084-.441c-.026-.148-.12-.303-.283-.465-.204-.205-.38-.322-.525-.353a.257.257 0 0 0-.245.068c-.056.056-.077.129-.064.219.019.121.188.435.507.943.319.507.493.91.52 1.211.024.3-.087.573-.334.82-.27.27-.612.388-1.03.357s-.847-.267-1.288-.707c-.399-.4-.634-.798-.705-1.192a1.586 1.586 0 0 1 .203-1.118z"/></g></g></svg>