<svg viewBox="0 0 643 343" xmlns="http://www.w3.org/2000/svg"><style>#data_layer{opacity:0;filter:alpha(opacity=0)}.floor5_0{fill:#7f7fff}.floor5_1{fill:none;stroke:#878686;stroke-width:2;stroke-miterlimit:2}.floor5_2,.floor5_3{fill:none;stroke-linecap:round}.floor5_2{stroke-linejoin:round;stroke:#ff7f7f;stroke-width:.1852;stroke-miterlimit:10}.floor5_3{stroke:#878686;stroke-width:.7736;stroke-miterlimit:2}.floor5_4{font-size:3.2679px}.floor5_5{fill:none;stroke:#000;stroke-width:.7087;stroke-linecap:round;stroke-linejoin:round;stroke-miterlimit:10}.floor5_6{opacity:.25}.floor5_7{fill:none;stroke:#0f0;stroke-width:.7087;stroke-linecap:round;stroke-linejoin:round;stroke-miterlimit:10}.floor5_8{font-size:.1021px}.floor5_9{fill:none;stroke:#ffbf7f;stroke-width:.7087;stroke-linecap:round;stroke-linejoin:round;stroke-miterlimit:10}.floor5_10{font-family:'Helvetica';}.floor5_11{fill-rule:evenodd;clip-rule:evenodd;fill:#878686}.floor5_12{font-family:'Helvetica'; font-weight:bold;}.floor5_13{font-size:4.0849px}.floor5_14{font-size:8px}.floor5_15{fill:#c6c4c4}.floor5_16{opacity:.5}.floor5_17{fill:none;stroke:#ff7f7f;stroke-width:.7087;stroke-linecap:round;stroke-linejoin:round;stroke-miterlimit:10}.floor5_18{fill:#fff}.floor5_19{fill:none;stroke:#994c4c;stroke-width:.7087;stroke-linecap:round;stroke-linejoin:round;stroke-miterlimit:10}.floor5_20,.floor5_21{fill:none;stroke:#878686;stroke-miterlimit:10}.floor5_20{stroke-linecap:round;stroke-linejoin:round;stroke-width:.7087}.floor5_21{stroke-width:2}.floor5_22{display:inline}.floor5_23{fill:#ff3;stroke:#000;stroke-miterlimit:10}.floor5_24{font-family:'Helvetica';}.floor5_25{fill:none;stroke:red;stroke-width:.7087;stroke-linecap:round;stroke-linejoin:round;stroke-miterlimit:10}.floor5_26{fill-rule:evenodd;clip-rule:evenodd;fill:#fff}.floor5_27{font-size:10px}.floor5_28{fill:none;stroke:#ff0;stroke-width:.7087;stroke-linecap:round;stroke-linejoin:round;stroke-miterlimit:10}.floor5_29{display:none}.floor5_30,.floor5_31{fill:none;stroke-width:.7087;stroke-linecap:round;stroke-linejoin:round;stroke-miterlimit:10}.floor5_30{stroke-dasharray:1e-2,1000;stroke:#994c4c}.floor5_31{stroke:#c66}</style><g id="grey_blocks"><path class="floor5_15" d="M296.3 93l49.2 86.8 14.3-9.1L310.5 85zM331.7 72.5l-14.4 8.3 46.2 80.3 1.5-.9-2.2-3.5 13.2-7.9z"/></g><g id="overlay"><path class="floor5_3" d="M283.9 51.8l2.5-1.4M284.3 50.2l-.4 1.6M285.5 52.3l-1.6-.5M285 47.7l-2.5 1.5M284.5 49.3l.5-1.6M283.3 47.3l1.7.4"/><path class="floor5_20" d="M276.2 56.9l4.7-2.9M275.7 56l4.7-2.9M275.1 55.1l4.8-2.9M274.6 54.3l4.7-2.9M274.1 53.4l4.7-2.9M273.5 52.5l4.8-2.9M272.6 52.6l5.5-4.6M280.5 37.5v5.6M279.5 37.5v5.6M278.5 37.5v5.6M277.4 37.5l.1 5.6M276.4 37.5v5.6M275.4 37.5v5.6M274.8 36.9l-1 6.7M289.6 52.7l2.6 4.6M288.7 53.2l2.7 4.6M287.8 53.7l2.7 4.6M286.9 54.2l2.7 4.7M286 54.7l2.7 4.7M285.2 55.2l2.6 4.7M284.3 55.7l2.7 4.7"/><path class="floor5_21" d="M295.2 56.4L280.3 65l-16.4-28.4 19 .5-6.6-11.5"/><path class="floor5_1" d="M268.1 43.4l18.6.2-8.7 5"/><path class="floor5_1" d="M274.8 43.8l7.3 12.7 9.3-5.3M255.6 25.2h48.9l11.2 19.4"/><path class="floor5_21" d="M316.6 44.2l-15.7 9"/><path class="floor5_20" d="M310.1 83.7L295 57.5M316.4 79.9l-15.1-26.2M303.5 58.3l-3.9 6.4M304.1 72.8l6-3.4M308.1 79.5l6-3.4M301.9 68.9l5.9-3.4M299.7 65.1l6-3.4M297.4 61.3l6-3.5"/><path class="floor5_21" d="M287.3 30.3l-2.8-5M314 91l-3.7-6.3-14.3 8.5 57.4 100.3M339 134.3l-1.2-1.8M329.8 151.3l15-8.7M323.9 141.7l14.4-8.2M318.6 131.8l14.2-8.2M313.1 122l14.1-8.1M307.4 112.3l14.2-8.1M302 102.5l14-8M316.5 95.4l-1-2M326.8 113l1 1.8M359.2 121.1l-14.1 8.1M354.1 111.3l-13.8 8M334.7 111l-1.2-2M334.3 109.8l14.5-8.4M332.2 106.6l-7.4-12.8M343 91.7l-14.2 8.3M323.4 91.5l-1.1-2M337.5 82l-14.3 8.3M321 87.2l-4.2-7.2M332.5 71.7l-16.2 9.5M317 86.5l2-1.1M314.6 87.8l-1.4.8M331.3 71.3l59.3 102.6"/><path class="floor5_20" d="M311.8 73.1l-4 6.3M305.9 76.2l5.9-3.5"/><text transform="rotate(59.81 104.917 348.449)"><tspan x="0" y="0" class="floor5_12 floor5_14">L&amp;S Deans Office</tspan><tspan x="-8.9" y="8" class="floor5_12 floor5_14">Administrative Offices</tspan></text><path class="floor5_21" d="M391.4 173.4l-38.6 21M355 160.6l-15 8.6M359.9 170.8l-14.7 8.6M375.4 149.2l-14.3 8.3M362.5 161.7l2.4-1.4-2-3.7M360.2 171.6l-3.7-6.4 1.9-1.1M346.8 131.5l-3.2-5.4M359 152.6l-10.9-18.8M345 144.7l-3.1-5.6M354.9 161.8l-7.8-13.5M340 135.9l-3.6-6.4M334.5 126.1l-4.6-8M327.3 114.1l-2.7-4.7M322.8 106.1l-3.4-6.1M317.5 97l-1.7-2.8M336.6 114l5.2 8.9"/><g id="THMOaa_3_"><path class="floor5_11" d="M344.7 123.2c.4.7.9 1.5 1.3 2.2.3.5.2 1-.3 1.3-1.5.9-3 1.7-4.4 2.6-.5.3-1 .2-1.3-.3-.9-1.5-1.8-3-2.6-4.5-.3-.5-.2-1 .3-1.2l4.5-2.7c.5-.3.9-.1 1.2.3.4.8.8 1.5 1.3 2.3zm-.2 0c-.4-.7-.8-1.4-1.3-2.2-.3-.5-.7-.6-1.2-.3-1.5.9-2.9 1.7-4.4 2.6-.5.3-.6.6-.3 1.1.9 1.5 1.7 2.9 2.6 4.4.3.5.6.6 1.1.3 1.5-.9 2.9-1.7 4.4-2.6.5-.3.6-.7.3-1.2-.3-.6-.7-1.3-1.2-2.1z"/><path class="floor5_26" d="M344.5 123.2c.4.7.9 1.5 1.3 2.2.3.5.2.9-.3 1.2-1.5.9-2.9 1.7-4.4 2.6-.5.3-.9.2-1.1-.3-.9-1.5-1.7-2.9-2.6-4.4-.3-.5-.2-.8.3-1.1 1.5-.9 2.9-1.7 4.4-2.6.5-.3.9-.2 1.2.3l1.2 2.1zm-2.7.1c.1.1.1.2 0 .2-.2.2-.4.4-.5.6-.1.1-.2.2-.1.3.1.1.2 0 .3-.1l.7-.7c.2-.2.2-.4.1-.7-.1-.2-.2-.4-.4-.6-.1-.2-.3-.3-.6-.2-.3.1-.6.1-1 .2-.1 0-.3.1-.2.2 0 .2.2.1.3.1.3-.1.5-.1.8-.2h.2v.1c-.6.2-1.1.3-1.7.5.1.1.1.3.2.4-.1.1-.2.1-.2.1l-.9.6c-.1 0-.1.2-.1.2s.1.1.2.1.2-.1.2-.1l.9-.6.1.1c0 .1-.1.1-.1.2-.3.2-.7.4-1 .6-.1.1-.2.1-.1.2s.2.1.3.1c.1-.1.3-.2.4-.2.2-.1.5-.3.7-.4.1.1.2.3.3.4.4-.6.8-1 1.2-1.4zm.6 4c.4-.2.8-.5 1.2-.7h.2c0 .1-.1.1-.1.2-.2.2-.5.3-.8.5-.1 0-.1.2-.1.2h.2c.3-.2.7-.4 1-.6.2-.1.3-.4.2-.6-.2-.3-.4-.7-.6-1-.1-.2-.4-.3-.6-.1-.4.2-.7.4-1 .6-.1 0-.1.1-.1.2h.2c.1 0 .2-.1.2-.1l.6-.3h.2s0 .1-.1.1c0 0-.1 0-.1.1-.8.5-1.6.9-2.3 1.4-.1.1-.3.2-.2.3.1.2.3.1.4 0 .4-.2.8-.5 1.2-.7 0 0 .1 0 .1-.1h.2s0 .1-.1.1l-.1.1c-.4.2-.8.5-1.2.7-.1 0-.1.2-.1.3 0 0 .1.1.2.1s.1 0 .2-.1c.4-.1.8-.4 1.2-.6zm-2.6-1c1.3-.8 2.7-1.6 4-2.4-.1-.1-.1-.2-.2-.3-1.3.8-2.7 1.6-4 2.4 0 .1.1.2.2.3-.1 0 0 0 0 0zm4.7-.4c.2-.1.2-.3.1-.5s-.3-.3-.5-.2c-.2.1-.2.3-.1.5s.3.3.5.2zm-1.7-3.7c-.1-.2-.3-.2-.5-.1s-.2.3-.1.5.3.2.5.1c.1-.1.2-.3.1-.5z"/><path class="floor5_11" d="M341.8 123.3c-.4.4-.8.8-1.2 1.3-.1-.1-.2-.2-.3-.4-.3.1-.5.3-.7.4-.1.1-.3.2-.4.2-.1.1-.2.1-.3-.1-.1-.1 0-.2.1-.2.3-.2.7-.4 1-.6.1 0 .1-.1.1-.2l-.1-.1-.9.6c-.1 0-.2.1-.2.1-.1 0-.2 0-.2-.1s0-.2.1-.2l.9-.6c.1 0 .1-.1.2-.1-.1-.1-.1-.3-.2-.4.6-.2 1.1-.3 1.7-.5v-.1c-.1 0-.1-.1-.2 0-.3.1-.5.1-.8.2-.1 0-.2.1-.3-.1 0-.2.1-.2.2-.2.3-.1.6-.2 1-.2.3-.1.4 0 .6.2.1.2.2.4.4.6.1.2.1.5-.1.7-.2.2-.4.5-.7.7-.1.1-.2.2-.3.1-.1-.1 0-.2.1-.3.2-.2.4-.4.5-.6v-.1zM342.4 127.3c-.4.2-.8.5-1.2.7-.1 0-.2.1-.2.1-.1 0-.2-.1-.2-.1 0-.1 0-.2.1-.3.4-.3.8-.5 1.2-.7 0 0 .1 0 .1-.1 0 0 0-.1.1-.1h-.2s-.1 0-.1.1c-.4.2-.8.5-1.2.7-.1.1-.3.2-.4 0-.1-.2 0-.3.2-.3.8-.5 1.6-.9 2.3-1.4 0 0 .1 0 .1-.1l.1-.1h-.2l-.6.3c-.1 0-.2.1-.2.1h-.2c0-.1 0-.2.1-.2.3-.2.7-.4 1-.6.2-.1.5-.1.6.1.2.3.4.6.6 1 .1.2 0 .5-.2.6-.3.2-.7.4-1 .6h-.2c0-.1 0-.2.1-.2.2-.2.5-.3.8-.5.1 0 .1-.1.1-.2h-.2c-.4.1-.8.4-1.2.6zM339.8 126.3s-.1 0 0 0c-.1-.1-.1-.2-.2-.3 1.3-.8 2.7-1.6 4-2.4.1.1.1.2.2.3-1.3.8-2.7 1.6-4 2.4zM344.5 125.9c-.2.1-.4 0-.5-.2-.1-.2 0-.4.1-.5.2-.1.4 0 .5.2.2.2.1.4-.1.5zM342.8 122.2c.1.2 0 .4-.1.5-.2.1-.4 0-.5-.1-.1-.2 0-.4.1-.5.1-.2.4-.1.5.1z"/></g><path class="floor5_20" d="M374.6 157.9l-4.6 2.8M375.1 158.8l-4.5 2.7M375.6 159.7l-4.4 2.7M376.1 160.6l-4.4 2.7M376.7 161.5l-4.5 2.7M377.2 162.3l-4.5 2.8M377.7 163.2l-4.5 2.7M378.2 164.1l-4.4 2.7M378.7 165l-4.4 2.6M379.3 165.8l-4.5 2.7M379.9 166.7l-4.6 2.7M380.4 167.5l-4.5 2.8"/><path class="floor5_21" d="M369.1 159.9l6.7 11.5"/></g><g id="numbers"><g id="A-Area-Iden"><text transform="translate(301.882 94.936)" class="floor5_18 floor5_24 floor5_13" id="MTEXT_8_">5201</text><text transform="translate(306.677 105.197)" class="floor5_18 floor5_24 floor5_13" id="MTEXT_9_">5203</text><text transform="translate(311.595 114.88)" class="floor5_18 floor5_24 floor5_13" id="MTEXT_10_">5205</text><text transform="translate(317.626 124.97)" class="floor5_18 floor5_24 floor5_13" id="MTEXT_11_">5207</text><text transform="translate(323.416 134.352)" class="floor5_18 floor5_24 floor5_13" id="MTEXT_12_">5209</text><text transform="translate(329.889 143.61)" class="floor5_18 floor5_24 floor5_13" id="MTEXT_13_">5211</text><text transform="translate(337.48 157.344)" class="floor5_18 floor5_24 floor5_13" id="MTEXT_14_">5213</text><text transform="translate(345.715 171.627)" class="floor5_18 floor5_24 floor5_13" id="MTEXT_15_">5215</text><text transform="translate(356.29 140.685)" class="floor5_18 floor5_24 floor5_13" id="MTEXT_16_">5214</text><text transform="translate(344.476 121.748)" class="floor5_18 floor5_24 floor5_13" id="MTEXT_17_">5210</text><text transform="translate(339.626 112.36)" class="floor5_18 floor5_24 floor5_13" id="MTEXT_18_">5208</text><text transform="translate(334.075 102.586)" class="floor5_18 floor5_24 floor5_13" id="MTEXT_19_">5206</text><text transform="translate(328.463 92.916)" class="floor5_18 floor5_24 floor5_13" id="MTEXT_20_">5204</text><text transform="translate(323.01 82.644)" class="floor5_18 floor5_24 floor5_13" id="MTEXT_21_">5202</text><text transform="translate(262.015 36.027)" class="floor5_18 floor5_24 floor5_8" id="MTEXT_22_">[BG]5000</text><text transform="translate(328.36 115.254)" class="floor5_15 floor5_24 floor5_4" id="MTEXT_24_">5000</text></g><text transform="translate(233 181.834)" class="floor5_10 floor5_27">FLOOR 5</text></g></svg>