<?xml version="1.0" encoding="utf-8"?>
<!-- Generator: Adobe Illustrator 15.1.0, SVG Export Plug-In . SVG Version: 6.00 Build 0)  -->
<!DOCTYPE svg PUBLIC "-//W3C//DTD SVG 1.1//EN" "http://www.w3.org/Graphics/SVG/1.1/DTD/svg11.dtd">
<svg version="1.1" xmlns="http://www.w3.org/2000/svg" xmlns:xlink="http://www.w3.org/1999/xlink" x="0px" y="0px" width="643px"
	 height="343px" viewBox="0 0 643 343" style="enable-background:new 0 0 643 343;" xml:space="preserve">
<style type="text/css">
<![CDATA[
	#data_layer {opacity: 0; filter: alpha(opacity=0);}
	.floor5_0{fill:#7F7FFF;}
	.floor5_1{fill:none;stroke:#878686;stroke-width:2;stroke-miterlimit:2;}
	.floor5_2{fill:none;stroke:#FF7F7F;stroke-width:0.1852;stroke-linecap:round;stroke-linejoin:round;stroke-miterlimit:10;}
	.floor5_3{fill:none;stroke:#878686;stroke-width:0.7736;stroke-linecap:round;stroke-miterlimit:2;}
	.floor5_4{font-size:3.2679px;}
	.floor5_5{fill:none;stroke:#000000;stroke-width:0.7087;stroke-linecap:round;stroke-linejoin:round;stroke-miterlimit:10;}
	.floor5_6{opacity:0.25;}
	.floor5_7{fill:none;stroke:#00FF00;stroke-width:0.7087;stroke-linecap:round;stroke-linejoin:round;stroke-miterlimit:10;}
	.floor5_8{font-size:0.1021px;}
	.floor5_9{fill:none;stroke:#FFBF7F;stroke-width:0.7087;stroke-linecap:round;stroke-linejoin:round;stroke-miterlimit:10;}
	.floor5_10{font-family:'MyriadPro-Regular';}
	.floor5_11{fill-rule:evenodd;clip-rule:evenodd;fill:#878686;}
	.floor5_12{font-family:'Arial-BoldMT';}
	.floor5_13{font-size:4.0849px;}
	.floor5_14{font-size:8px;}
	.floor5_15{fill:#C6C4C4;}
	.floor5_16{opacity:0.5;}
	.floor5_17{fill:none;stroke:#FF7F7F;stroke-width:0.7087;stroke-linecap:round;stroke-linejoin:round;stroke-miterlimit:10;}
	.floor5_18{fill:#FFFFFF;}
	.floor5_19{fill:none;stroke:#994C4C;stroke-width:0.7087;stroke-linecap:round;stroke-linejoin:round;stroke-miterlimit:10;}
	.floor5_20{fill:none;stroke:#878686;stroke-width:0.7087;stroke-linecap:round;stroke-linejoin:round;stroke-miterlimit:10;}
	.floor5_21{fill:none;stroke:#878686;stroke-width:2;stroke-miterlimit:10;}
	.floor5_22{display:inline;}
	.floor5_23{fill:#FFFF33;stroke:#000000;stroke-miterlimit:10;}
	.floor5_24{font-family:'ArialMT';}
	.floor5_25{fill:none;stroke:#FF0000;stroke-width:0.7087;stroke-linecap:round;stroke-linejoin:round;stroke-miterlimit:10;}
	.floor5_26{fill-rule:evenodd;clip-rule:evenodd;fill:#FFFFFF;}
	.floor5_27{font-size:10px;}
	.floor5_28{fill:none;stroke:#FFFF00;stroke-width:0.7087;stroke-linecap:round;stroke-linejoin:round;stroke-miterlimit:10;}
	.floor5_29{display:none;}
	
		.floor5_30{fill:none;stroke:#994C4C;stroke-width:0.7087;stroke-linecap:round;stroke-linejoin:round;stroke-miterlimit:10;stroke-dasharray:1.000000e-02,1000;}
	.floor5_31{fill:none;stroke:#CC6666;stroke-width:0.7087;stroke-linecap:round;stroke-linejoin:round;stroke-miterlimit:10;}
]]>
</style>
<g id="grey_blocks">
	<polygon class="floor5_15" points="296.3,93 345.5,179.8 359.8,170.7 310.5,85 	"/>
	<polygon class="floor5_15" points="331.7,72.5 317.3,80.8 363.5,161.1 365,160.2 362.8,156.7 376,148.8 	"/>
</g>
<g id="overlay">
	<g>
		<g>
			<line class="floor5_3" x1="283.9" y1="51.8" x2="286.4" y2="50.4"/>
			<line class="floor5_3" x1="284.3" y1="50.2" x2="283.9" y2="51.8"/>
			<line class="floor5_3" x1="285.5" y1="52.3" x2="283.9" y2="51.8"/>
		</g>
		<g>
			<line class="floor5_3" x1="285" y1="47.7" x2="282.5" y2="49.2"/>
			<line class="floor5_3" x1="284.5" y1="49.3" x2="285" y2="47.7"/>
			<line class="floor5_3" x1="283.3" y1="47.3" x2="285" y2="47.7"/>
		</g>
	</g>
	<line class="floor5_20" x1="276.2" y1="56.9" x2="280.9" y2="54"/>
	<line class="floor5_20" x1="275.7" y1="56" x2="280.4" y2="53.1"/>
	<line class="floor5_20" x1="275.1" y1="55.1" x2="279.9" y2="52.2"/>
	<line class="floor5_20" x1="274.6" y1="54.3" x2="279.3" y2="51.4"/>
	<line class="floor5_20" x1="274.1" y1="53.4" x2="278.8" y2="50.5"/>
	<line class="floor5_20" x1="273.5" y1="52.5" x2="278.3" y2="49.6"/>
	<line class="floor5_20" x1="272.6" y1="52.6" x2="278.1" y2="48"/>
	<line class="floor5_20" x1="280.5" y1="37.5" x2="280.5" y2="43.1"/>
	<line class="floor5_20" x1="279.5" y1="37.5" x2="279.5" y2="43.1"/>
	<line class="floor5_20" x1="278.5" y1="37.5" x2="278.5" y2="43.1"/>
	<line class="floor5_20" x1="277.4" y1="37.5" x2="277.5" y2="43.1"/>
	<line class="floor5_20" x1="276.4" y1="37.5" x2="276.4" y2="43.1"/>
	<line class="floor5_20" x1="275.4" y1="37.5" x2="275.4" y2="43.1"/>
	<line class="floor5_20" x1="274.8" y1="36.9" x2="273.8" y2="43.6"/>
	<line class="floor5_20" x1="289.6" y1="52.7" x2="292.2" y2="57.3"/>
	<line class="floor5_20" x1="288.7" y1="53.2" x2="291.4" y2="57.8"/>
	<line class="floor5_20" x1="287.8" y1="53.7" x2="290.5" y2="58.3"/>
	<line class="floor5_20" x1="286.9" y1="54.2" x2="289.6" y2="58.9"/>
	<line class="floor5_20" x1="286" y1="54.7" x2="288.7" y2="59.4"/>
	<line class="floor5_20" x1="285.2" y1="55.2" x2="287.8" y2="59.9"/>
	<line class="floor5_20" x1="284.3" y1="55.7" x2="287" y2="60.4"/>
	<polyline class="floor5_21" points="295.2,56.4 280.3,65 263.9,36.6 282.9,37.1 276.3,25.6 	"/>
	<polyline class="floor5_1" points="268.1,43.4 286.7,43.6 278,48.6 	"/>
	<polyline class="floor5_1" points="274.8,43.8 282.1,56.5 291.4,51.2 	"/>
	<path class="floor5_1" d="M315.7,44.6"/>
	<polyline class="floor5_1" points="255.6,25.2 304.5,25.2 315.7,44.6 	"/>
	<line class="floor5_21" x1="316.6" y1="44.2" x2="300.9" y2="53.2"/>
	<line class="floor5_20" x1="310.1" y1="83.7" x2="295" y2="57.5"/>
	<line class="floor5_20" x1="316.4" y1="79.9" x2="301.3" y2="53.7"/>
	<line class="floor5_20" x1="303.5" y1="58.3" x2="299.6" y2="64.7"/>
	<line class="floor5_20" x1="304.1" y1="72.8" x2="310.1" y2="69.4"/>
	<line class="floor5_20" x1="308.1" y1="79.5" x2="314.1" y2="76.1"/>
	<line class="floor5_20" x1="301.9" y1="68.9" x2="307.8" y2="65.5"/>
	<line class="floor5_20" x1="299.7" y1="65.1" x2="305.7" y2="61.7"/>
	<line class="floor5_20" x1="297.4" y1="61.3" x2="303.4" y2="57.8"/>
	<line class="floor5_21" x1="287.3" y1="30.3" x2="284.5" y2="25.3"/>
	<polyline class="floor5_21" points="314,91 310.3,84.7 296,93.2 353.4,193.5 	"/>
	<line class="floor5_21" x1="339" y1="134.3" x2="337.8" y2="132.5"/>
	<line class="floor5_21" x1="329.8" y1="151.3" x2="344.8" y2="142.6"/>
	<line class="floor5_21" x1="323.9" y1="141.7" x2="338.3" y2="133.5"/>
	<line class="floor5_21" x1="318.6" y1="131.8" x2="332.8" y2="123.6"/>
	<line class="floor5_21" x1="313.1" y1="122" x2="327.2" y2="113.9"/>
	<line class="floor5_21" x1="307.4" y1="112.3" x2="321.6" y2="104.2"/>
	<line class="floor5_21" x1="302" y1="102.5" x2="316" y2="94.5"/>
	<line class="floor5_21" x1="316.5" y1="95.4" x2="315.5" y2="93.4"/>
	<line class="floor5_21" x1="326.8" y1="113" x2="327.8" y2="114.8"/>
	<line class="floor5_21" x1="359.2" y1="121.1" x2="345.1" y2="129.2"/>
	<line class="floor5_21" x1="354.1" y1="111.3" x2="340.3" y2="119.3"/>
	<line class="floor5_21" x1="334.7" y1="111" x2="333.5" y2="109"/>
	<line class="floor5_21" x1="334.3" y1="109.8" x2="348.8" y2="101.4"/>
	<line class="floor5_21" x1="332.2" y1="106.6" x2="324.8" y2="93.8"/>
	<line class="floor5_21" x1="343" y1="91.7" x2="328.8" y2="100"/>
	<line class="floor5_21" x1="323.4" y1="91.5" x2="322.3" y2="89.5"/>
	<line class="floor5_21" x1="337.5" y1="82" x2="323.2" y2="90.3"/>
	<line class="floor5_21" x1="321" y1="87.2" x2="316.8" y2="80"/>
	<line class="floor5_21" x1="332.5" y1="71.7" x2="316.3" y2="81.2"/>
	<line class="floor5_21" x1="317" y1="86.5" x2="319" y2="85.4"/>
	<line class="floor5_21" x1="314.6" y1="87.8" x2="313.2" y2="88.6"/>
	<line class="floor5_21" x1="331.3" y1="71.3" x2="390.6" y2="173.9"/>
	<line class="floor5_20" x1="311.8" y1="73.1" x2="307.8" y2="79.4"/>
	<line class="floor5_20" x1="305.9" y1="76.2" x2="311.8" y2="72.7"/>
	<g>
		<text transform="matrix(0.5029 0.8644 -0.8644 0.5029 353.3584 82.54)"><tspan x="0" y="0" class="floor5_12 floor5_14">L&amp;S Deans Office</tspan><tspan x="-8.9" y="8" class="floor5_12 floor5_14">Administrative Offices</tspan></text>
	</g>
	<line class="floor5_21" x1="391.4" y1="173.4" x2="352.8" y2="194.4"/>
	<line class="floor5_21" x1="355" y1="160.6" x2="340" y2="169.2"/>
	<line class="floor5_21" x1="359.9" y1="170.8" x2="345.2" y2="179.4"/>
	<line class="floor5_21" x1="375.4" y1="149.2" x2="361.1" y2="157.5"/>
	<polyline class="floor5_21" points="362.5,161.7 364.9,160.3 362.9,156.6 	"/>
	<polyline class="floor5_21" points="360.2,171.6 356.5,165.2 358.4,164.1 	"/>
	<line class="floor5_21" x1="346.8" y1="131.5" x2="343.6" y2="126.1"/>
	<line class="floor5_21" x1="359" y1="152.6" x2="348.1" y2="133.8"/>
	<line class="floor5_21" x1="345" y1="144.7" x2="341.9" y2="139.1"/>
	<line class="floor5_21" x1="354.9" y1="161.8" x2="347.1" y2="148.3"/>
	<line class="floor5_21" x1="340" y1="135.9" x2="336.4" y2="129.5"/>
	<line class="floor5_21" x1="334.5" y1="126.1" x2="329.9" y2="118.1"/>
	<line class="floor5_21" x1="327.3" y1="114.1" x2="324.6" y2="109.4"/>
	<line class="floor5_21" x1="322.8" y1="106.1" x2="319.4" y2="100"/>
	<line class="floor5_21" x1="317.5" y1="97" x2="315.8" y2="94.2"/>
	<line class="floor5_21" x1="336.6" y1="114" x2="341.8" y2="122.9"/>
	<g id="THMOaa_3_">
		<g>
			<path class="floor5_11" d="M344.7,123.2c0.4,0.7,0.9,1.5,1.3,2.2c0.3,0.5,0.2,1-0.3,1.3c-1.5,0.9-3,1.7-4.4,2.6
				c-0.5,0.3-1,0.2-1.3-0.3c-0.9-1.5-1.8-3-2.6-4.5c-0.3-0.5-0.2-1,0.3-1.2c1.5-0.9,3-1.8,4.5-2.7c0.5-0.3,0.9-0.1,1.2,0.3
				C343.8,121.7,344.2,122.4,344.7,123.2L344.7,123.2z M344.5,123.2c-0.4-0.7-0.8-1.4-1.3-2.2c-0.3-0.5-0.7-0.6-1.2-0.3
				c-1.5,0.9-2.9,1.7-4.4,2.6c-0.5,0.3-0.6,0.6-0.3,1.1c0.9,1.5,1.7,2.9,2.6,4.4c0.3,0.5,0.6,0.6,1.1,0.3c1.5-0.9,2.9-1.7,4.4-2.6
				c0.5-0.3,0.6-0.7,0.3-1.2C345.4,124.7,345,124,344.5,123.2z"/>
			<path class="floor5_26" d="M344.5,123.2c0.4,0.7,0.9,1.5,1.3,2.2c0.3,0.5,0.2,0.9-0.3,1.2c-1.5,0.9-2.9,1.7-4.4,2.6
				c-0.5,0.3-0.9,0.2-1.1-0.3c-0.9-1.5-1.7-2.9-2.6-4.4c-0.3-0.5-0.2-0.8,0.3-1.1c1.5-0.9,2.9-1.7,4.4-2.6c0.5-0.3,0.9-0.2,1.2,0.3
				C343.7,121.8,344.1,122.5,344.5,123.2z M341.8,123.3C341.8,123.3,341.8,123.3,341.8,123.3c0.1,0.1,0.1,0.2,0,0.2
				c-0.2,0.2-0.4,0.4-0.5,0.6c-0.1,0.1-0.2,0.2-0.1,0.3c0.1,0.1,0.2,0,0.3-0.1c0.2-0.2,0.5-0.5,0.7-0.7c0.2-0.2,0.2-0.4,0.1-0.7
				c-0.1-0.2-0.2-0.4-0.4-0.6c-0.1-0.2-0.3-0.3-0.6-0.2c-0.3,0.1-0.6,0.1-1,0.2c-0.1,0-0.3,0.1-0.2,0.2c0,0.2,0.2,0.1,0.3,0.1
				c0.3-0.1,0.5-0.1,0.8-0.2c0.1,0,0.1,0,0.2,0c0,0,0,0,0,0.1c-0.6,0.2-1.1,0.3-1.7,0.5c0.1,0.1,0.1,0.3,0.2,0.4
				c-0.1,0.1-0.2,0.1-0.2,0.1c-0.3,0.2-0.6,0.4-0.9,0.6c-0.1,0-0.1,0.2-0.1,0.2c0,0,0.1,0.1,0.2,0.1c0.1,0,0.2-0.1,0.2-0.1
				c0.3-0.2,0.6-0.4,0.9-0.6c0,0,0,0,0.1,0.1c0,0.1-0.1,0.1-0.1,0.2c-0.3,0.2-0.7,0.4-1,0.6c-0.1,0.1-0.2,0.1-0.1,0.2
				c0.1,0.1,0.2,0.1,0.3,0.1c0.1-0.1,0.3-0.2,0.4-0.2c0.2-0.1,0.5-0.3,0.7-0.4c0.1,0.1,0.2,0.3,0.3,0.4
				C341,124.1,341.4,123.7,341.8,123.3z M342.4,127.3C342.4,127.3,342.4,127.3,342.4,127.3c0.4-0.2,0.8-0.5,1.2-0.7
				c0.1,0,0.1,0,0.2,0c0,0.1-0.1,0.1-0.1,0.2c-0.2,0.2-0.5,0.3-0.8,0.5c-0.1,0-0.1,0.2-0.1,0.2c0.1,0,0.2,0,0.2,0
				c0.3-0.2,0.7-0.4,1-0.6c0.2-0.1,0.3-0.4,0.2-0.6c-0.2-0.3-0.4-0.7-0.6-1c-0.1-0.2-0.4-0.3-0.6-0.1c-0.4,0.2-0.7,0.4-1,0.6
				c-0.1,0-0.1,0.1-0.1,0.2c0.1,0,0.2,0,0.2,0c0.1,0,0.2-0.1,0.2-0.1c0.2-0.1,0.4-0.2,0.6-0.3c0,0,0.1,0,0.2,0c0,0,0,0.1-0.1,0.1
				c0,0-0.1,0-0.1,0.1c-0.8,0.5-1.6,0.9-2.3,1.4c-0.1,0.1-0.3,0.2-0.2,0.3c0.1,0.2,0.3,0.1,0.4,0c0.4-0.2,0.8-0.5,1.2-0.7
				c0,0,0.1,0,0.1-0.1c0.1,0,0.1,0,0.2,0c0,0,0,0.1-0.1,0.1c0,0-0.1,0.1-0.1,0.1c-0.4,0.2-0.8,0.5-1.2,0.7c-0.1,0-0.1,0.2-0.1,0.3
				c0,0,0.1,0.1,0.2,0.1c0.1,0,0.1,0,0.2-0.1C341.6,127.8,342,127.5,342.4,127.3z M339.8,126.3c1.3-0.8,2.7-1.6,4-2.4
				c-0.1-0.1-0.1-0.2-0.2-0.3c-1.3,0.8-2.7,1.6-4,2.4C339.6,126.1,339.7,126.2,339.8,126.3C339.7,126.3,339.8,126.3,339.8,126.3z
				 M344.5,125.9c0.2-0.1,0.2-0.3,0.1-0.5c-0.1-0.2-0.3-0.3-0.5-0.2c-0.2,0.1-0.2,0.3-0.1,0.5C344.1,125.9,344.3,126,344.5,125.9z
				 M342.8,122.2c-0.1-0.2-0.3-0.2-0.5-0.1c-0.2,0.1-0.2,0.3-0.1,0.5c0.1,0.2,0.3,0.2,0.5,0.1C342.8,122.6,342.9,122.4,342.8,122.2z
				"/>
			<path class="floor5_11" d="M341.8,123.3c-0.4,0.4-0.8,0.8-1.2,1.3c-0.1-0.1-0.2-0.2-0.3-0.4c-0.3,0.1-0.5,0.3-0.7,0.4
				c-0.1,0.1-0.3,0.2-0.4,0.2c-0.1,0.1-0.2,0.1-0.3-0.1c-0.1-0.1,0-0.2,0.1-0.2c0.3-0.2,0.7-0.4,1-0.6c0.1,0,0.1-0.1,0.1-0.2
				c0,0,0,0-0.1-0.1c-0.3,0.2-0.6,0.4-0.9,0.6c-0.1,0-0.2,0.1-0.2,0.1c-0.1,0-0.2,0-0.2-0.1c0-0.1,0-0.2,0.1-0.2
				c0.3-0.2,0.6-0.4,0.9-0.6c0.1,0,0.1-0.1,0.2-0.1c-0.1-0.1-0.1-0.3-0.2-0.4c0.6-0.2,1.1-0.3,1.7-0.5c0,0,0,0,0-0.1
				c-0.1,0-0.1-0.1-0.2,0c-0.3,0.1-0.5,0.1-0.8,0.2c-0.1,0-0.2,0.1-0.3-0.1c0-0.2,0.1-0.2,0.2-0.2c0.3-0.1,0.6-0.2,1-0.2
				c0.3-0.1,0.4,0,0.6,0.2c0.1,0.2,0.2,0.4,0.4,0.6c0.1,0.2,0.1,0.5-0.1,0.7c-0.2,0.2-0.4,0.5-0.7,0.7c-0.1,0.1-0.2,0.2-0.3,0.1
				c-0.1-0.1,0-0.2,0.1-0.3c0.2-0.2,0.4-0.4,0.5-0.6C341.8,123.4,341.8,123.4,341.8,123.3C341.8,123.3,341.8,123.3,341.8,123.3z"/>
			<path class="floor5_11" d="M342.4,127.3c-0.4,0.2-0.8,0.5-1.2,0.7c-0.1,0-0.2,0.1-0.2,0.1c-0.1,0-0.2-0.1-0.2-0.1c0-0.1,0-0.2,0.1-0.3
				c0.4-0.3,0.8-0.5,1.2-0.7c0,0,0.1,0,0.1-0.1c0,0,0-0.1,0.1-0.1c-0.1,0-0.1,0-0.2,0c0,0-0.1,0-0.1,0.1c-0.4,0.2-0.8,0.5-1.2,0.7
				c-0.1,0.1-0.3,0.2-0.4,0c-0.1-0.2,0-0.3,0.2-0.3c0.8-0.5,1.6-0.9,2.3-1.4c0,0,0.1,0,0.1-0.1c0,0,0.1-0.1,0.1-0.1
				c-0.1,0-0.1,0-0.2,0c-0.2,0.1-0.4,0.2-0.6,0.3c-0.1,0-0.2,0.1-0.2,0.1c-0.1,0-0.2,0-0.2,0c0-0.1,0-0.2,0.1-0.2
				c0.3-0.2,0.7-0.4,1-0.6c0.2-0.1,0.5-0.1,0.6,0.1c0.2,0.3,0.4,0.6,0.6,1c0.1,0.2,0,0.5-0.2,0.6c-0.3,0.2-0.7,0.4-1,0.6
				c-0.1,0-0.2,0-0.2,0c0-0.1,0-0.2,0.1-0.2c0.2-0.2,0.5-0.3,0.8-0.5c0.1,0,0.1-0.1,0.1-0.2c-0.1,0-0.2,0-0.2,0
				C343.2,126.8,342.8,127.1,342.4,127.3C342.4,127.3,342.4,127.3,342.4,127.3z"/>
			<path class="floor5_11" d="M339.8,126.3C339.8,126.3,339.7,126.3,339.8,126.3c-0.1-0.1-0.1-0.2-0.2-0.3c1.3-0.8,2.7-1.6,4-2.4
				c0.1,0.1,0.1,0.2,0.2,0.3C342.5,124.7,341.1,125.5,339.8,126.3z"/>
			<path class="floor5_11" d="M344.5,125.9c-0.2,0.1-0.4,0-0.5-0.2c-0.1-0.2,0-0.4,0.1-0.5c0.2-0.1,0.4,0,0.5,0.2
				C344.8,125.6,344.7,125.8,344.5,125.9z"/>
			<path class="floor5_11" d="M342.8,122.2c0.1,0.2,0,0.4-0.1,0.5c-0.2,0.1-0.4,0-0.5-0.1c-0.1-0.2,0-0.4,0.1-0.5
				C342.4,121.9,342.7,122,342.8,122.2z"/>
		</g>
	</g>
	<line class="floor5_20" x1="374.6" y1="157.9" x2="370" y2="160.7"/>
	<line class="floor5_20" x1="375.1" y1="158.8" x2="370.6" y2="161.5"/>
	<line class="floor5_20" x1="375.6" y1="159.7" x2="371.2" y2="162.4"/>
	<line class="floor5_20" x1="376.1" y1="160.6" x2="371.7" y2="163.3"/>
	<line class="floor5_20" x1="376.7" y1="161.5" x2="372.2" y2="164.2"/>
	<line class="floor5_20" x1="377.2" y1="162.3" x2="372.7" y2="165.1"/>
	<line class="floor5_20" x1="377.7" y1="163.2" x2="373.2" y2="165.9"/>
	<line class="floor5_20" x1="378.2" y1="164.1" x2="373.8" y2="166.8"/>
	<line class="floor5_20" x1="378.7" y1="165" x2="374.3" y2="167.6"/>
	<line class="floor5_20" x1="379.3" y1="165.8" x2="374.8" y2="168.5"/>
	<line class="floor5_20" x1="379.9" y1="166.7" x2="375.3" y2="169.4"/>
	<line class="floor5_20" x1="380.4" y1="167.5" x2="375.9" y2="170.3"/>
	<line class="floor5_21" x1="369.1" y1="159.9" x2="375.8" y2="171.4"/>
</g>
<g id="numbers">
	<g id="A-Area-Iden">
		<g id="MTEXT_8_">
			<text transform="matrix(1 0 0 1 301.8823 94.9355)" class="floor5_18 floor5_24 floor5_13">5201</text>
		</g>
		<g id="MTEXT_9_">
			<text transform="matrix(1 0 0 1 306.6768 105.1973)" class="floor5_18 floor5_24 floor5_13">5203</text>
		</g>
		<g id="MTEXT_10_">
			<text transform="matrix(1 0 0 1 311.5952 114.8809)" class="floor5_18 floor5_24 floor5_13">5205</text>
		</g>
		<g id="MTEXT_11_">
			<text transform="matrix(1 0 0 1 317.626 124.9707)" class="floor5_18 floor5_24 floor5_13">5207</text>
		</g>
		<g id="MTEXT_12_">
			<text transform="matrix(1 0 0 1 323.416 134.3516)" class="floor5_18 floor5_24 floor5_13">5209</text>
		</g>
		<g id="MTEXT_13_">
			<text transform="matrix(1 0 0 1 329.8887 143.6094)" class="floor5_18 floor5_24 floor5_13">5211</text>
		</g>
		<g id="MTEXT_14_">
			<text transform="matrix(1 0 0 1 337.4795 157.3438)" class="floor5_18 floor5_24 floor5_13">5213</text>
		</g>
		<g id="MTEXT_15_">
			<text transform="matrix(1 0 0 1 345.7148 171.627)" class="floor5_18 floor5_24 floor5_13">5215</text>
		</g>
		<g id="MTEXT_16_">
			<text transform="matrix(1 0 0 1 356.2891 140.6855)" class="floor5_18 floor5_24 floor5_13">5214</text>
		</g>
		<g id="MTEXT_17_">
			<text transform="matrix(1 0 0 1 344.4756 121.748)" class="floor5_18 floor5_24 floor5_13">5210</text>
		</g>
		<g id="MTEXT_18_">
			<text transform="matrix(1 0 0 1 339.626 112.3594)" class="floor5_18 floor5_24 floor5_13">5208</text>
		</g>
		<g id="MTEXT_19_">
			<text transform="matrix(1 0 0 1 334.0752 102.5859)" class="floor5_18 floor5_24 floor5_13">5206</text>
		</g>
		<g id="MTEXT_20_">
			<text transform="matrix(1 0 0 1 328.4629 92.916)" class="floor5_18 floor5_24 floor5_13">5204</text>
		</g>
		<g id="MTEXT_21_">
			<text transform="matrix(1 0 0 1 323.0098 82.6445)" class="floor5_18 floor5_24 floor5_13">5202</text>
		</g>
		<g id="MTEXT_22_">
			<text transform="matrix(1 0 0 1 262.0146 36.0273)" class="floor5_18 floor5_24 floor5_8">[BG]5000</text>
		</g>
		<g id="MTEXT_24_">
			<text transform="matrix(1 0 0 1 328.3594 115.2539)" class="floor5_15 floor5_24 floor5_4">5000</text>
		</g>
	</g>
	<text transform="matrix(1 0 0 1 233.0005 181.834)" class="floor5_10 floor5_27">FLOOR 5</text>
</g>
<g id="data_layer">
	<g id="Rooms" class="floor5_6">
		<a id="R5207" xlink:href="#" >
			<g>
				<polygon class="floor5_23" points="328.1,120.4 330.4,119.1 327.5,114.1 313.3,122.2 318.7,131.6 330.6,124.7 				"/>
			</g>
		</a>
		<a id="R5201" xlink:href="#" >
			<g>
				<polygon class="floor5_23" points="297.4,94.7 301.9,102.4 316,94.2 310.6,84.9 298.1,92.2 299,93.8 				"/>
			</g>
		</a>
		<a id="R5202" xlink:href="#" >
			<g>
				<polygon class="floor5_23" points="317.9,80.7 323.4,90.1 337.6,81.9 333.1,74.1 331.5,75 330.6,73.4 				"/>
			</g>
		</a>
		<a id="R5203" xlink:href="#" >
			<g>
				<polygon class="floor5_23" points="302.1,102.8 307.5,112.2 321.7,104 316.3,94.6 				"/>
			</g>
		</a>
		<a id="R5204" xlink:href="#" >
			<g>
				<polygon class="floor5_23" points="323.6,90.5 329,99.9 343.2,91.7 337.8,82.3 				"/>
			</g>
		</a>
		<a id="R5205" xlink:href="#" >
			<g>
				<polygon class="floor5_23" points="307.8,112.6 313.1,121.8 327.3,113.7 321.9,104.5 				"/>
			</g>
		</a>
		<a id="R5206" xlink:href="#" >
			<g>
				<polygon class="floor5_23" points="329.2,100.3 334.6,109.5 348.8,101.4 343.5,92.1 				"/>
			</g>
		</a>
		<a id="R5208" xlink:href="#" >
			<g>
				<polygon class="floor5_23" points="334.8,109.9 340.2,119.2 354.4,111 349.1,101.8 				"/>
			</g>
		</a>
		<a id="R5209" xlink:href="#" >
			<g>
				
					<rect x="324.5" y="124.8" transform="matrix(-0.5001 -0.866 0.866 -0.5001 379.8927 483.3238)" class="floor5_23" width="10" height="14.5"/>
			</g>
		</a>
		<a id="R5210" xlink:href="#" >
			<g>
				
					<rect x="344.4" y="113.2" transform="matrix(-0.4999 -0.8661 0.8661 -0.4999 419.6329 483.3431)" class="floor5_23" width="10" height="14.6"/>
			</g>
		</a>
		<a id="R5211" xlink:href="#" >
			<g>
				
					<rect x="329.1" y="134.7" transform="matrix(-0.5 -0.866 0.866 -0.5 379.8964 503.1827)" class="floor5_23" width="12.2" height="14.5"/>
			</g>
		</a>
		<a id="R5214" xlink:href="#" >
			<g>
				
					<rect x="344.1" y="132.2" transform="matrix(-0.5 -0.866 0.866 -0.5 419.6266 521.1775)" class="floor5_23" width="32.2" height="14.6"/>
			</g>
		</a>
		<a id="R5213" xlink:href="#" >
			<g>
				
					<rect x="336.1" y="146.2" transform="matrix(-0.866 0.5 -0.5 -0.866 718.6351 119.3947)" class="floor5_23" width="14.5" height="19.5"/>
			</g>
		</a>
		<a id="R5215" xlink:href="#" >
			<g>
				
					<rect x="345.6" y="162.3" transform="matrix(-0.5002 -0.8659 0.8659 -0.5002 379.9425 558.4512)" class="floor5_23" width="11.1" height="14.5"/>
			</g>
		</a>
		<a id="R5000" xlink:href="#" >
			<g>
				<polygon class="floor5_23" points="313.4,88.8 319.9,85.1 362,157.9 363.3,157.1 365.1,160.3 357.3,164.8 				"/>
			</g>
		</a>
	</g>
	<g id="Portals">
		<line id="Stair.1.floor4" class="floor5_5" x1="275.2" y1="38.9" x2="272" y2="41.1"/>
		<line id="Stair.1.floor3" class="floor5_5" x1="275.2" y1="38.9" x2="269.4" y2="39.3"/>
		<line id="Stair.1.floor2" class="floor5_5" x1="275.2" y1="38.9" x2="267.2" y2="37.5"/>
		<line id="Stair.1.floor1" class="floor5_5" x1="275.2" y1="38.9" x2="266.5" y2="34.8"/>
		<line id="Elev.1.floor4" class="floor5_5" x1="287.6" y1="46.2" x2="284.2" y2="45.5"/>
		<line id="Elev.1.floor3" class="floor5_5" x1="287.6" y1="46.2" x2="282.5" y2="47.8"/>
		<line id="Elev.1.floor2" class="floor5_5" x1="287.6" y1="46.2" x2="282" y2="50.8"/>
		<line id="Elev.1.floor1" class="floor5_5" x1="287.6" y1="46.2" x2="281.6" y2="54.3"/>
		<line id="Elev.1.floor0" class="floor5_5" x1="287.6" y1="46.2" x2="283" y2="57.5"/>
		<line id="Stair.2.floor4" class="floor5_5" x1="376.4" y1="166.1" x2="378.9" y2="163.7"/>
		<line id="Stair.2.floor3" class="floor5_5" x1="376.4" y1="166.1" x2="375.8" y2="160.4"/>
		<line id="Stair.2.floor2" class="floor5_5" x1="376.4" y1="166.1" x2="370.9" y2="159.1"/>
		<line id="Stair.2.floor1" class="floor5_5" x1="376.4" y1="166.1" x2="366.7" y2="159.6"/>
	</g>
	<g id="Doors">
		<line id="R5202_1_" class="floor5_5" x1="324" y1="86.1" x2="327.2" y2="81.8"/>
		<line id="R5201_1_" class="floor5_5" x1="312.3" y1="92.4" x2="307.1" y2="92.1"/>
		<line id="R5204_1_" class="floor5_5" x1="327.3" y1="94.3" x2="332.8" y2="90.1"/>
		<line id="R5203_1_" class="floor5_5" x1="316.5" y1="100.4" x2="311.4" y2="100.4"/>
		<line id="R5205_1_" class="floor5_5" x1="323.1" y1="108.7" x2="316.4" y2="109.7"/>
		<line id="R5206_1_" class="floor5_5" x1="332.8" y1="103.8" x2="337.6" y2="100.2"/>
		<line id="R5207_1_" class="floor5_5" x1="327.2" y1="117.1" x2="324" y2="121.8"/>
		<line id="R5208_1_" class="floor5_5" x1="337" y1="112.2" x2="344.5" y2="110.3"/>
		<line id="R5209_1_" class="floor5_5" x1="334.7" y1="129.2" x2="329.4" y2="129.2"/>
		<line id="R5210_1_" class="floor5_5" x1="344.5" y1="124" x2="348.8" y2="118.7"/>
		<line id="R5211_1_" class="floor5_5" x1="339" y1="138.7" x2="335.5" y2="144"/>
		<line id="R5214_1_" class="floor5_5" x1="348.8" y1="132.2" x2="358.8" y2="131"/>
		<line id="R5214_2_" class="floor5_5" x1="360.9" y1="153.2" x2="363.5" y2="143.7"/>
		<line id="R5215_1_" class="floor5_5" x1="353.3" y1="163.7" x2="352.1" y2="168.6"/>
	</g>
	<g id="Paths">
		<line class="floor5_5" x1="289" y1="38.9" x2="275.2" y2="38.9"/>
		<line class="floor5_5" x1="289" y1="38.9" x2="291.4" y2="43.3"/>
		<line class="floor5_5" x1="291.4" y1="43.3" x2="287.6" y2="46.2"/>
		<line class="floor5_5" x1="291.4" y1="43.3" x2="316" y2="84.7"/>
		<line class="floor5_5" x1="316" y1="84.7" x2="318.3" y2="89.6"/>
		<line class="floor5_5" x1="318.3" y1="89.6" x2="324" y2="86.1"/>
		<line class="floor5_5" x1="318.3" y1="89.6" x2="312.3" y2="92.4"/>
		<line class="floor5_5" x1="318.3" y1="89.6" x2="323.1" y2="96.7"/>
		<line class="floor5_5" x1="323.1" y1="96.7" x2="327.3" y2="94.3"/>
		<line class="floor5_5" x1="323.1" y1="96.7" x2="316.5" y2="100.4"/>
		<line class="floor5_5" x1="323.1" y1="96.7" x2="327.7" y2="106.1"/>
		<line class="floor5_5" x1="327.7" y1="106.1" x2="332.8" y2="103.8"/>
		<line class="floor5_5" x1="327.7" y1="106.1" x2="323.1" y2="108.7"/>
		<line class="floor5_5" x1="327.7" y1="106.1" x2="332.8" y2="114.5"/>
		<line class="floor5_5" x1="332.8" y1="114.5" x2="337" y2="112.2"/>
		<line class="floor5_5" x1="332.8" y1="114.5" x2="327.2" y2="117.1"/>
		<line class="floor5_5" x1="332.8" y1="114.5" x2="339.3" y2="126.6"/>
		<line class="floor5_5" x1="339.3" y1="126.6" x2="344.5" y2="124"/>
		<line class="floor5_5" x1="339.3" y1="126.6" x2="334.7" y2="129.2"/>
		<line class="floor5_5" x1="339.3" y1="126.6" x2="344.5" y2="134.8"/>
		<line class="floor5_5" x1="344.5" y1="134.8" x2="348.8" y2="132.2"/>
		<line class="floor5_5" x1="344.5" y1="134.8" x2="339" y2="138.7"/>
		<line class="floor5_5" x1="344.5" y1="134.8" x2="356.8" y2="156.3"/>
		<line class="floor5_5" x1="356.8" y1="156.3" x2="360.9" y2="153.2"/>
		<line class="floor5_5" x1="356.8" y1="156.3" x2="358.8" y2="159.9"/>
		<line class="floor5_5" x1="358.8" y1="159.9" x2="353.3" y2="163.7"/>
		<line class="floor5_5" x1="358.8" y1="159.9" x2="363" y2="166.9"/>
		<line class="floor5_5" x1="363" y1="166.9" x2="370.4" y2="180.2"/>
		<line class="floor5_5" x1="370.4" y1="180.2" x2="380.9" y2="173.8"/>
		<line class="floor5_5" x1="380.9" y1="173.8" x2="376.4" y2="166.1"/>
		<line class="floor5_5" x1="360.9" y1="153.2" x2="348.8" y2="132.2"/>
	</g>
</g>
</svg>
