<?xml version="1.0" encoding="utf-8"?>
<!-- Generator: Adobe Illustrator 20.0.0, SVG Export Plug-In . SVG Version: 6.00 Build 0)  -->
<svg version="1.1" id="Layer_1" xmlns="http://www.w3.org/2000/svg" xmlns:xlink="http://www.w3.org/1999/xlink" x="0px" y="0px"
	 viewBox="0 0 643 343" style="enable-background:new 0 0 643 343;" xml:space="preserve">
<style type="text/css">
	.st0{fill:#C6C4C4;}
	.st1{fill:#FFFFFF;}
	.st2{fill:#F9F9F9;}
	.st3{font-family:'Helvetica';}
	.st4{font-size:4.0707px;}
	.st5{fill:#231F20;}
	.st6{fill:none;stroke:#878686;stroke-miterlimit:10;}
	.st7{fill:none;stroke:#878686;stroke-width:0.709;stroke-linecap:round;stroke-linejoin:round;stroke-miterlimit:10;}
	.st8{fill:none;stroke:#878686;stroke-width:0.774;stroke-linecap:round;stroke-miterlimit:2;}
	.st9{fill:none;stroke:#878686;stroke-width:2;stroke-miterlimit:10;}
	.st10{fill:#878686;}
	.st11{font-size:1.6481px;}
	.st12{font-size:2.6179px;}
	.st13{font-size:3.2551px;}
	.st14{font-size:3.0691px;}
	.st15{font-size:3.3766px;}
	.st16{font-size:2.9108px;}
	.st17{font-size:1.8062px;}
	.st18{font-size:1.7452px;}
	.st19{font-size:1.7597px;}
	.st20{font-size:3.2661px;}
	.st21{font-size:3.4666px;}
	.st22{font-size:2.3514px;}
	.st23{font-size:2.1324px;}
	.st24{font-size:4.377px;}
	.st25{font-family:'Helvetica-Bold';}
	.st26{font-size:7.6982px;}
	.st27{enable-background:new    ;}
	.st28{font-size:5.823px;}
</style>
<g>
	<path class="st0" d="M50,98.3L61.7,87l50,49L100,148.7L50,98.3z M67,80.3L78.7,69l56.7,57l-7.7,8l-7-7l-4,3.7L67,80.3z M123.7,114
		l11.7,12l44-44.3l-3.3-2.3l-8.7-8.3L123.7,114z"/>
	<path class="st0" d="M135.3,150l4.3-4.3l-7-6.7l57.7-57.3l-11.7-11.3l11.3-11L212.7,83l-72,72L135.3,150z M153.3,143.3l51,51.3
		l-11.7,12l-52-51.7L153.3,143.3z M120.3,168.7l12-11.7l54.7,55.3l-11.7,11.3L120.3,168.7z"/>
	<path class="st0" d="M203.3,196.7l10,9.7l53.3-53l-12-11.7l-52,51.3l1.7,1.7L203.3,196.7z M278.7,175.7l-12-11.7l-48,48.3
		l11.3,11.3L278.7,175.7z"/>
	<path class="st0" d="M231,222l-11.3,12.3l51.3,51.3l12.3-12L231,222z M203,251.3l11.7-12l56.3,56.3L259.3,308L203,251.3z
		 M288.2,26.3h19.3L377,147.7l-21.2,12.8l2.5,5l1.8-0.7l1.7,2.5l-3.3,2l-6.8-12.5l-2,0.8l-16.8-29.8l10.3-6L319.3,81l-1.8-2.8
		l-5-9.2l5.2-3.8l-3-5l-5.5,2.8l-6.8-11L288.2,26.3z"/>
	<path class="st0" d="M299,90.8l13.2-7.8l18.7,33.7l-12.8,7.5l12.2,20.2l-2.3,1.3l-30.2-51.2l-13.2,7.7l-1-3L299,90.8z M258,74.5
		l2.7,2.2l21.8-12.3l-2.3-3.2L258,74.5z M276.2,42.3l3.7,5.7l9-5.7H276.2z M351.7,156.8l7.7,12.3l-4.2,2.2L348,159L351.7,156.8z
		 M394.8,178.8l-3.3-6l-13.8,8.5L394.8,178.8z M382.8,206.5l-14.7,8.7l47.3,82.8l2.3-1.2l3.8,6.3l11.2-6.5l-1.8-2.5l2-1.2
		L382.8,206.5z M438.8,254l-14.7,8.5l15.8,27.7l2-1.2l0.8,2.2l11.2-6.8l-1.7-2l2.3-1.5L438.8,254z M414.5,239.3l6.7,12.8l-1.7,1.3
		l-1.5-1l-6.5-11.2L414.5,239.3z"/>
	<path class="st0" d="M426.2,232.3l-14.7,9l-11.5-20l39.5-22.8l53.7,0.2v16.7l-54.8,0.2l-16.5,9.5L426.2,232.3z M502.5,198.2l0.3,3
		l17.3,0.3l-0.3,14.2l44.7-0.2v-17L502.5,198.2z M471.2,176.2v14.7h5.3v-14.5L471.2,176.2z"/>
	<path class="st0" d="M389.7,202.7l6.5,12l42-24l33,0.2v-16.5l-32.8-0.2L389.7,202.7z M493.2,174.5l0.2,16.3l9.5,0.3v-6H514l0.3,5.8
		l8-0.2l-0.3-16.2L493.2,174.5z M564.5,191.2V98.3l-16.8-0.2l-0.3,92.7L564.5,191.2z M540.2,190.8l-0.2-77.3l-15.2-0.3v1.8l-1.8,0.2
		l-0.7,75.7L540.2,190.8L540.2,190.8z"/>
	<path class="st0" d="M540,97.8l0.2,5l-3.3,0.3v3.3H533l-0.3-3.2l-7.5,0.2l-0.3,11.5l-85.8-0.2V98.2L540,97.8z M439.2,73.8h11.7V90
		h-11.7V73.8z M475.5,73.7h89.2v16.5h-89.2V73.7z M559,90.7h5.5v7.7H559V90.7z"/>
	<path class="st0" d="M458,87.5h18.2V90H458V87.5z M109.2,182.5L99,184v12.5h11.8l-0.5-4.2l-1.5,0.5v1.2l-7.5,0.5l-0.5-9h7.2
		l0.2,2.2h1.5L109.2,182.5z M274,158.8l7.4,6.9l-2.6,2.8l-7.1-7L274,158.8z"/>
</g>
<g>
	<path class="st1" d="M128.2,168.3v0.3h-1.9c0-0.1,0-0.2,0-0.2c0.1-0.1,0.1-0.3,0.2-0.4c0.1-0.2,0.3-0.3,0.5-0.4
		c0.3-0.3,0.5-0.5,0.6-0.6c0.1-0.2,0.2-0.3,0.2-0.4c0-0.1-0.1-0.3-0.2-0.4s-0.2-0.1-0.4-0.1c-0.2,0-0.3,0-0.4,0.2
		c-0.1,0.1-0.2,0.2-0.2,0.4h-0.4c0-0.3,0.1-0.5,0.3-0.6c0.2-0.1,0.4-0.2,0.7-0.2c0.3,0,0.5,0.1,0.7,0.2c0.2,0.1,0.2,0.4,0.2,0.6
		c0,0.1,0,0.2-0.1,0.3s-0.1,0.2-0.2,0.4c-0.2,0.2-0.4,0.4-0.6,0.5c-0.1,0.1-0.3,0.2-0.4,0.4c-0.1,0.1-0.1,0.1-0.2,0.2L128.2,168.3
		L128.2,168.3z M129.9,168.7h-0.4v-2.3c-0.2,0.2-0.5,0.3-0.7,0.4v-0.3c0.2-0.1,0.4-0.2,0.5-0.3s0.3-0.3,0.3-0.4h0.2L129.9,168.7
		L129.9,168.7z M130.8,167.9h0.4c0,0.2,0.1,0.4,0.2,0.4c0.1,0.1,0.2,0.1,0.4,0.1s0.3-0.1,0.4-0.2s0.2-0.3,0.2-0.4
		c0-0.2-0.1-0.3-0.2-0.4c-0.1-0.1-0.3-0.2-0.4-0.2c-0.1,0-0.2,0-0.3,0v-0.3c0.2,0,0.3,0,0.5-0.1c0.1-0.1,0.2-0.2,0.2-0.4
		c0-0.1,0-0.2-0.1-0.3s-0.2-0.1-0.3-0.1s-0.3,0-0.4,0.1c-0.1,0.1-0.2,0.2-0.2,0.4l-0.4-0.1c0-0.2,0.1-0.4,0.3-0.6
		c0.2-0.1,0.4-0.2,0.6-0.2c0.2,0,0.3,0,0.4,0.1c0.3,0.1,0.4,0.4,0.4,0.7c0,0.1,0,0.2-0.1,0.3s-0.2,0.2-0.3,0.2
		c0.2,0,0.3,0.1,0.4,0.2c0.1,0.1,0.2,0.3,0.1,0.5c0,0.2-0.1,0.5-0.3,0.6c-0.2,0.2-0.4,0.3-0.7,0.3c-0.2,0-0.5-0.1-0.6-0.2
		C130.9,168.3,130.8,168.1,130.8,167.9L130.8,167.9z M134.4,168.7H134v-2.3c-0.2,0.2-0.5,0.3-0.7,0.4v-0.3c0.2-0.1,0.4-0.2,0.5-0.3
		s0.3-0.3,0.3-0.4h0.2L134.4,168.7L134.4,168.7z"/>
</g>
<g>
	<path class="st1" d="M167.6,206.8v0.3h-1.9c0-0.1,0-0.2,0-0.2c0.1-0.1,0.1-0.3,0.2-0.4c0.1-0.2,0.3-0.3,0.5-0.4
		c0.3-0.3,0.5-0.5,0.6-0.6c0.1-0.2,0.2-0.3,0.2-0.4c0-0.1-0.1-0.3-0.2-0.4s-0.2-0.1-0.4-0.1s-0.3,0-0.4,0.2
		c-0.1,0.1-0.2,0.2-0.2,0.4h-0.4c0-0.3,0.1-0.5,0.3-0.6s0.4-0.2,0.7-0.2s0.5,0.1,0.7,0.2c0.2,0.1,0.3,0.4,0.2,0.6
		c0,0.1,0,0.2-0.1,0.3s-0.1,0.2-0.2,0.4c-0.2,0.2-0.4,0.4-0.6,0.5c-0.1,0.1-0.3,0.2-0.4,0.4c-0.1,0.1-0.1,0.1-0.2,0.2L167.6,206.8
		L167.6,206.8z M169.4,207.1H169v-2.3c-0.2,0.2-0.5,0.3-0.7,0.4v-0.3c0.2-0.1,0.4-0.2,0.5-0.3s0.3-0.3,0.3-0.4h0.2L169.4,207.1
		L169.4,207.1z M171.5,207.1v-0.7h-1.3v-0.3l1.3-1.9h0.3v1.9h0.4v0.3h-0.4v0.7H171.5L171.5,207.1z M171.5,206.1v-1.3l-0.9,1.3H171.5
		L171.5,206.1z M173.9,207.1h-0.4v-2.3c-0.2,0.2-0.5,0.3-0.7,0.4v-0.3c0.2-0.1,0.4-0.2,0.5-0.3s0.3-0.3,0.3-0.4h0.2L173.9,207.1
		L173.9,207.1z"/>
</g>
<g>
	<path class="st1" d="M159,199.6v0.3h-2c0-0.1,0-0.2,0-0.2c0.1-0.1,0.1-0.3,0.2-0.4c0.1-0.2,0.3-0.3,0.5-0.4
		c0.3-0.3,0.5-0.5,0.6-0.6c0.1-0.2,0.2-0.3,0.2-0.4c0-0.1-0.1-0.3-0.2-0.4s-0.2-0.1-0.4-0.1s-0.3,0-0.4,0.2
		c-0.1,0.1-0.2,0.2-0.2,0.4h-0.4c0-0.3,0.1-0.5,0.3-0.6s0.4-0.2,0.7-0.2s0.5,0.1,0.7,0.2c0.2,0.1,0.2,0.4,0.2,0.6
		c0,0.1,0,0.2-0.1,0.3s-0.1,0.2-0.2,0.4c-0.2,0.2-0.4,0.4-0.6,0.5c-0.1,0.1-0.3,0.2-0.4,0.4c-0.1,0.1-0.1,0.1-0.2,0.2L159,199.6
		L159,199.6z M160.7,199.9h-0.4v-2.3c-0.2,0.2-0.5,0.3-0.7,0.4v-0.3c0.2-0.1,0.4-0.2,0.5-0.3s0.3-0.3,0.3-0.4h0.2L160.7,199.9
		L160.7,199.9z M161.6,199.1h0.4c0,0.2,0.1,0.4,0.2,0.4c0.1,0.1,0.2,0.1,0.4,0.1s0.3-0.1,0.4-0.2s0.2-0.3,0.2-0.4
		c0-0.2-0.1-0.3-0.2-0.4c-0.1-0.1-0.3-0.2-0.4-0.2c-0.1,0-0.2,0-0.3,0v-0.3c0.2,0,0.3,0,0.5-0.1c0.1-0.1,0.2-0.2,0.2-0.4
		c0-0.1,0-0.2-0.1-0.3s-0.2-0.1-0.3-0.1s-0.3,0-0.4,0.1c-0.1,0.1-0.2,0.2-0.2,0.4l-0.4-0.1c0-0.2,0.1-0.4,0.3-0.6
		c0.2-0.1,0.4-0.2,0.6-0.2c0.2,0,0.3,0,0.4,0.1c0.3,0.1,0.4,0.4,0.4,0.7c0,0.1,0,0.2-0.1,0.3s-0.2,0.2-0.3,0.2
		c0.2,0,0.3,0.1,0.4,0.2c0.1,0.1,0.2,0.3,0.1,0.5c0,0.2-0.1,0.5-0.3,0.6c-0.2,0.2-0.4,0.3-0.7,0.3c-0.2,0-0.5-0.1-0.6-0.2
		C161.7,199.6,161.6,199.4,161.6,199.1L161.6,199.1z M164,199.2h0.3c0,0.2,0.1,0.3,0.2,0.4c0.1,0.1,0.2,0.1,0.3,0.1s0.2,0,0.3-0.1
		s0.2-0.1,0.2-0.2c0.1-0.1,0.1-0.2,0.1-0.3s0.1-0.3,0.1-0.4v-0.1c-0.2,0.2-0.4,0.4-0.7,0.4c-0.2,0-0.5-0.1-0.6-0.3
		c-0.2-0.2-0.3-0.4-0.3-0.7s0.1-0.5,0.3-0.7s0.4-0.3,0.7-0.3c0.4,0,0.7,0.2,0.9,0.6c0.1,0.2,0.1,0.5,0.1,0.8c0,0.4,0,0.7-0.1,0.9
		s-0.2,0.4-0.4,0.5s-0.4,0.2-0.6,0.2c-0.2,0-0.4-0.1-0.6-0.2C164.1,199.6,164,199.4,164,199.2L164,199.2z M165.4,198
		c0-0.2-0.1-0.4-0.2-0.5s-0.2-0.2-0.4-0.2s-0.3,0.1-0.4,0.2c-0.1,0.1-0.2,0.3-0.2,0.5s0.1,0.3,0.2,0.5c0.1,0.1,0.3,0.2,0.4,0.2
		c0.2,0,0.3-0.1,0.4-0.2C165.4,198.3,165.4,198.2,165.4,198L165.4,198z"/>
</g>
<g>
	<path class="st1" d="M151,191.8v0.3h-1.9c0-0.1,0-0.2,0-0.2c0.1-0.1,0.1-0.3,0.2-0.4c0.1-0.2,0.3-0.3,0.5-0.4
		c0.3-0.3,0.5-0.5,0.6-0.6c0.1-0.2,0.2-0.3,0.2-0.4c0-0.1-0.1-0.3-0.2-0.4s-0.2-0.1-0.4-0.1s-0.3,0-0.4,0.2
		c-0.1,0.1-0.2,0.2-0.2,0.4H149c0-0.3,0.1-0.5,0.3-0.6s0.4-0.2,0.7-0.2s0.5,0.1,0.7,0.2c0.2,0.1,0.3,0.4,0.2,0.6
		c0,0.1,0,0.2-0.1,0.3s-0.1,0.2-0.2,0.4c-0.2,0.2-0.4,0.4-0.6,0.5c-0.1,0.1-0.3,0.2-0.4,0.4c-0.1,0.1-0.1,0.1-0.2,0.2L151,191.8
		L151,191.8z M152.8,192.1h-0.4v-2.3c-0.1,0.1-0.2,0.2-0.3,0.2c-0.1,0.1-0.2,0.1-0.4,0.2v-0.3c0.2-0.1,0.4-0.2,0.5-0.3
		s0.3-0.3,0.3-0.4h0.2L152.8,192.1L152.8,192.1z M153.7,191.3h0.4c0,0.2,0.1,0.4,0.2,0.4c0.1,0.1,0.2,0.1,0.4,0.1s0.3-0.1,0.4-0.2
		s0.2-0.3,0.2-0.4c0-0.2-0.1-0.3-0.2-0.4c-0.1-0.1-0.3-0.2-0.4-0.2c-0.1,0-0.2,0-0.3,0v-0.3c0.2,0,0.3,0,0.5-0.1
		c0.1-0.1,0.2-0.2,0.2-0.4c0-0.1,0-0.2-0.1-0.3s-0.2-0.1-0.3-0.1s-0.3,0-0.3,0.1c-0.1,0.1-0.2,0.2-0.2,0.4l-0.4-0.1
		c0-0.2,0.1-0.4,0.3-0.6c0.2-0.1,0.4-0.2,0.6-0.2c0.2,0,0.3,0,0.4,0.1c0.3,0.1,0.4,0.4,0.4,0.7c0,0.1,0,0.2-0.1,0.3
		s-0.2,0.2-0.3,0.2c0.2,0,0.3,0.1,0.4,0.2c0.1,0.1,0.1,0.3,0.1,0.5s-0.1,0.5-0.3,0.6c-0.2,0.2-0.4,0.3-0.7,0.3
		c-0.2,0-0.5-0.1-0.6-0.2C153.8,191.8,153.7,191.6,153.7,191.3L153.7,191.3z M156,189.6v-0.3h1.9v0.3c-0.2,0.2-0.4,0.5-0.6,0.8
		c-0.2,0.3-0.3,0.7-0.4,1c-0.1,0.3-0.1,0.5-0.1,0.8h-0.4c0-0.2,0.1-0.5,0.1-0.8c0.1-0.3,0.2-0.6,0.4-0.9s0.3-0.6,0.5-0.8L156,189.6
		L156,189.6z"/>
</g>
<g>
	<path class="st1" d="M143.1,183.7v0.3h-1.9c0-0.1,0-0.2,0-0.2c0.1-0.1,0.1-0.3,0.2-0.4c0.1-0.2,0.3-0.3,0.5-0.4
		c0.3-0.3,0.5-0.5,0.6-0.6c0.1-0.2,0.2-0.3,0.2-0.4c0-0.1-0.1-0.3-0.2-0.4s-0.2-0.1-0.4-0.1s-0.3,0-0.4,0.2
		c-0.1,0.1-0.2,0.2-0.2,0.4h-0.4c0-0.3,0.1-0.5,0.3-0.6s0.4-0.2,0.7-0.2s0.5,0.1,0.7,0.2c0.2,0.1,0.3,0.4,0.2,0.6
		c0,0.1,0,0.2-0.1,0.3s-0.1,0.2-0.2,0.4c-0.2,0.2-0.4,0.4-0.6,0.5c-0.1,0.1-0.3,0.2-0.4,0.4c-0.1,0.1-0.1,0.1-0.2,0.2L143.1,183.7
		L143.1,183.7z M144.8,184h-0.4v-2.3c-0.2,0.2-0.5,0.3-0.7,0.4v-0.3c0.2-0.1,0.4-0.2,0.5-0.3s0.3-0.3,0.3-0.4h0.2L144.8,184
		L144.8,184z M145.7,183.3h0.4c0,0.2,0.1,0.4,0.2,0.4c0.1,0.1,0.2,0.1,0.4,0.1s0.3-0.1,0.4-0.2s0.2-0.3,0.2-0.4
		c0-0.2-0.1-0.3-0.2-0.4c-0.1-0.1-0.3-0.2-0.4-0.2c-0.1,0-0.2,0-0.3,0v-0.3c0.2,0,0.3,0,0.5-0.1c0.1-0.1,0.2-0.2,0.2-0.4
		c0-0.1,0-0.2-0.1-0.3s-0.2-0.1-0.3-0.1s-0.3,0-0.4,0.1c-0.1,0.1-0.2,0.2-0.2,0.4l-0.4-0.1c0-0.2,0.1-0.4,0.3-0.6
		c0.2-0.1,0.4-0.2,0.6-0.2c0.2,0,0.3,0,0.4,0.1c0.3,0.1,0.4,0.4,0.4,0.7c0,0.1,0,0.2-0.1,0.3s-0.2,0.2-0.3,0.2
		c0.2,0,0.3,0.1,0.4,0.2c0.1,0.1,0.1,0.3,0.1,0.5s-0.1,0.5-0.3,0.6c-0.2,0.2-0.4,0.3-0.7,0.3c-0.2,0-0.5-0.1-0.6-0.2
		C145.8,183.7,145.7,183.5,145.7,183.3L145.7,183.3z M148,183.3h0.4c0,0.2,0.1,0.3,0.2,0.4c0.1,0.1,0.2,0.1,0.4,0.1s0.3-0.1,0.4-0.2
		c0.1-0.1,0.2-0.3,0.2-0.5s-0.1-0.4-0.2-0.5c-0.1-0.1-0.3-0.2-0.5-0.2s-0.4,0.1-0.5,0.3h-0.3l0.3-1.5h1.5v0.3h-1.2l-0.2,0.8
		c0.2-0.1,0.4-0.2,0.6-0.2c0.3,0,0.5,0.1,0.6,0.3c0.2,0.2,0.3,0.4,0.3,0.7s-0.1,0.5-0.2,0.7c-0.2,0.2-0.4,0.4-0.8,0.4
		c-0.3,0-0.5-0.1-0.7-0.2C148.1,183.7,148,183.5,148,183.3L148,183.3z"/>
</g>
<g>
	<path class="st1" d="M136.1,175.3v0.3h-1.9c0-0.1,0-0.2,0-0.2c0.1-0.1,0.1-0.3,0.2-0.4c0.1-0.2,0.3-0.3,0.5-0.4
		c0.3-0.3,0.5-0.5,0.6-0.6c0.1-0.2,0.2-0.3,0.2-0.4c0-0.1-0.1-0.3-0.2-0.4s-0.2-0.1-0.4-0.1s-0.3,0-0.4,0.2
		c-0.1,0.1-0.2,0.2-0.2,0.4h-0.4c0-0.3,0.1-0.5,0.3-0.6s0.4-0.2,0.7-0.2s0.5,0.1,0.7,0.2c0.2,0.1,0.3,0.4,0.2,0.6
		c0,0.1,0,0.2-0.1,0.3s-0.1,0.2-0.2,0.4c-0.2,0.2-0.4,0.4-0.6,0.5c-0.1,0.1-0.3,0.2-0.4,0.4c-0.1,0.1-0.1,0.1-0.2,0.2L136.1,175.3
		L136.1,175.3z M137.8,175.7h-0.4v-2.3c-0.2,0.2-0.5,0.3-0.7,0.4v-0.3c0.2-0.1,0.4-0.2,0.5-0.3s0.3-0.3,0.3-0.4h0.2L137.8,175.7
		L137.8,175.7z M138.8,174.9h0.4c0,0.2,0.1,0.4,0.2,0.4c0.1,0.1,0.2,0.1,0.4,0.1s0.3-0.1,0.4-0.2s0.2-0.3,0.2-0.4
		c0-0.2-0.1-0.3-0.2-0.4c-0.1-0.1-0.3-0.2-0.4-0.2c-0.1,0-0.2,0-0.3,0v-0.3c0.2,0,0.3,0,0.5-0.1c0.1-0.1,0.2-0.2,0.2-0.4
		c0-0.1,0-0.2-0.1-0.3s-0.2-0.1-0.3-0.1s-0.3,0-0.4,0.1c-0.1,0.1-0.2,0.2-0.2,0.4l-0.4-0.1c0-0.2,0.1-0.4,0.3-0.6
		c0.2-0.1,0.4-0.2,0.6-0.2c0.2,0,0.3,0,0.4,0.1c0.3,0.1,0.4,0.4,0.4,0.7c0,0.1,0,0.2-0.1,0.3s-0.2,0.2-0.3,0.2
		c0.2,0,0.3,0.1,0.4,0.2c0.1,0.1,0.1,0.3,0.1,0.5s-0.1,0.5-0.3,0.6c-0.2,0.2-0.4,0.3-0.7,0.3c-0.2,0-0.5-0.1-0.6-0.2
		C138.9,175.3,138.8,175.1,138.8,174.9z M141,174.9h0.4c0,0.2,0.1,0.4,0.2,0.4c0.1,0.1,0.2,0.1,0.4,0.1s0.3-0.1,0.4-0.2
		s0.2-0.3,0.2-0.4c0-0.2-0.1-0.3-0.2-0.4c-0.1-0.1-0.3-0.2-0.4-0.2c-0.1,0-0.2,0-0.3,0v-0.3c0.2,0,0.3,0,0.5-0.1
		c0.1-0.1,0.2-0.2,0.2-0.4c0-0.1,0-0.2-0.1-0.3s-0.2-0.1-0.3-0.1s-0.3,0-0.4,0.1c-0.1,0.1-0.2,0.2-0.2,0.4l-0.4-0.1
		c0-0.2,0.1-0.4,0.3-0.6c0.2-0.1,0.4-0.2,0.6-0.2c0.2,0,0.3,0,0.4,0.1c0.3,0.1,0.4,0.4,0.4,0.7c0,0.1,0,0.2-0.1,0.3
		s-0.2,0.2-0.3,0.2c0.2,0,0.3,0.1,0.4,0.2c0.1,0.1,0.1,0.3,0.1,0.5s-0.1,0.5-0.3,0.6c-0.2,0.2-0.4,0.3-0.7,0.3
		c-0.2,0-0.5-0.1-0.6-0.2C141.2,175.3,141.1,175.1,141,174.9z"/>
</g>
<text transform="matrix(1 -8.827203e-04 8.827203e-04 1 411.6002 233.6075)" class="st2 st3 st4">2236</text>
<text transform="matrix(1 -8.827203e-04 8.827203e-04 1 417.1002 218.6005)" class="st2 st3 st4">2239</text>
<text transform="matrix(1 -8.827203e-04 8.827203e-04 1 404.7999 224.7499)" class="st2 st3 st4">2237</text>
<text transform="matrix(1 -8.827203e-04 8.827203e-04 1 472.6001 210.4005)" class="st2 st3 st4">2249</text>
<text transform="matrix(1 -8.827203e-04 8.827203e-04 1 555.1027 210.6005)" class="st2 st3 st4">2261</text>
<text transform="matrix(1 -8.827203e-04 8.827203e-04 1 532.0877 210.6005)" class="st2 st3 st4">2257</text>
<text transform="matrix(1 -8.827203e-04 8.827203e-04 1 521.0833 210.4005)" class="st2 st3 st4">2255</text>
<text transform="matrix(1 -8.827203e-04 8.827203e-04 1 551.7 131.7001)" class="st2 st3 st4">2273</text>
<text transform="matrix(1 -8.827203e-04 8.827203e-04 1 551.6997 142.6)" class="st2 st3 st4">2271</text>
<text transform="matrix(1 -8.827203e-04 8.827203e-04 1 551.6998 154.0005)" class="st2 st3 st4">2269</text>
<text transform="matrix(1 -8.827203e-04 8.827203e-04 1 551.7003 186.601)" class="st2 st3 st4">2263</text>
<text transform="matrix(1 -8.827203e-04 8.827203e-04 1 526.8503 186.6005)" class="st2 st3 st4">2262</text>
<text transform="matrix(1 -8.827203e-04 8.827203e-04 1 527.0001 176.1005)" class="st2 st3 st4">2264</text>
<text transform="matrix(1 -8.827203e-04 8.827203e-04 1 526.8501 165.0005)" class="st2 st3 st4">2266</text>
<text transform="matrix(1 -8.827203e-04 8.827203e-04 1 526.8502 154.0005)" class="st2 st3 st4">2268</text>
<text transform="matrix(1 -8.827203e-04 8.827203e-04 1 526.8501 142.6)" class="st2 st3 st4">2270</text>
<text transform="matrix(1 -8.827203e-04 8.827203e-04 1 527 120.7)" class="st2 st3 st4">2274</text>
<text transform="matrix(1 -8.827203e-04 8.827203e-04 1 440.33 109.2325)" class="st2 st3 st4">2298</text>
<text transform="matrix(1 -8.827203e-04 8.827203e-04 1 451.4544 109.2325)" class="st2 st3 st4">2296</text>
<text transform="matrix(1 -8.827203e-04 8.827203e-04 1 462.7001 109.3)" class="st2 st3 st4">2294</text>
<text transform="matrix(1 -8.827203e-04 8.827203e-04 1 473.5001 109.1)" class="st2 st3 st4">2292</text>
<text transform="matrix(1 -8.827203e-04 8.827203e-04 1 484.3527 109)" class="st2 st3 st4">2290</text>
<text transform="matrix(1 -8.827203e-04 8.827203e-04 1 495.7001 109.1001)" class="st2 st3 st4">2288</text>
<text transform="matrix(1 -8.827203e-04 8.827203e-04 1 506.8527 109.1001)" class="st2 st3 st4">2286</text>
<text transform="matrix(-8.827203e-04 -1 1 -8.827203e-04 521.7773 111.5006)" class="st2 st3 st4">2284</text>
<text transform="matrix(1 -8.827203e-04 8.827203e-04 1 551.7 114.6)" class="st2 st3 st4">2275</text>
<text transform="matrix(1 -8.827203e-04 8.827203e-04 1 532.0876 83.6672)" class="st2 st3 st4">2283</text>
<text transform="matrix(1 -8.827203e-04 8.827203e-04 1 499.3599 83.6672)" class="st2 st3 st4">2289</text>
<g>
	<path class="st1" d="M49.2,98.3L49.2,98.3L49.2,98.3L49.2,98.3L49.2,98.3L49.2,98.3L49.2,98.3L49.2,98.3L49.2,98.3L49.2,98.3z
		 M49.2,98.3L49.2,98.3L49.2,98.3L49.2,98.3C49.3,98.2,49.3,98.2,49.2,98.3C49.3,98.2,49.3,98.2,49.2,98.3
		C49.3,98.2,49.3,98.2,49.2,98.3C49.3,98.2,49.3,98.2,49.2,98.3C49.3,98.2,49.3,98.2,49.2,98.3C49.3,98.2,49.3,98.2,49.2,98.3
		L49.2,98.3C49.3,98.3,49.3,98.3,49.2,98.3L49.2,98.3L49.2,98.3L49.2,98.3L49.2,98.3z M49.2,98.2L49.2,98.2
		C49.3,98.2,49.3,98.2,49.2,98.2L49.2,98.2C49.3,98.2,49.3,98.2,49.2,98.2L49.2,98.2L49.2,98.2L49.2,98.2L49.2,98.2L49.2,98.2z
		 M49.2,98.3L49.2,98.3L49.2,98.3L49.2,98.3C49.3,98.3,49.3,98.3,49.2,98.3L49.2,98.3C49.3,98.2,49.3,98.2,49.2,98.3L49.2,98.3
		C49.2,98.2,49.2,98.3,49.2,98.3z M49.3,98.2L49.3,98.2L49.3,98.2L49.3,98.2L49.3,98.2C49.3,98.3,49.3,98.3,49.3,98.2
		C49.3,98.3,49.3,98.3,49.3,98.2C49.3,98.3,49.3,98.3,49.3,98.2C49.3,98.3,49.3,98.2,49.3,98.2L49.3,98.2L49.3,98.2L49.3,98.2
		L49.3,98.2C49.4,98.2,49.4,98.2,49.3,98.2C49.4,98.2,49.4,98.2,49.3,98.2L49.3,98.2C49.4,98.2,49.4,98.2,49.3,98.2L49.3,98.2
		L49.3,98.2L49.3,98.2L49.3,98.2L49.3,98.2L49.3,98.2L49.3,98.2C49.3,98.3,49.3,98.3,49.3,98.2C49.3,98.3,49.3,98.3,49.3,98.2
		C49.3,98.3,49.3,98.3,49.3,98.2L49.3,98.2L49.3,98.2L49.3,98.2L49.3,98.2z M49.4,98.3L49.4,98.3L49.4,98.3L49.4,98.3L49.4,98.3
		L49.4,98.3L49.4,98.3L49.4,98.3C49.4,98.2,49.4,98.3,49.4,98.3z M49.5,98.3L49.5,98.3L49.5,98.3L49.5,98.3
		C49.4,98.3,49.4,98.3,49.5,98.3L49.5,98.3C49.4,98.2,49.4,98.2,49.5,98.3C49.4,98.2,49.4,98.2,49.5,98.3
		C49.4,98.2,49.4,98.2,49.5,98.3C49.4,98.2,49.4,98.2,49.5,98.3C49.4,98.2,49.4,98.2,49.5,98.3C49.4,98.2,49.4,98.2,49.5,98.3
		L49.5,98.3C49.4,98.2,49.4,98.2,49.5,98.3C49.4,98.2,49.4,98.2,49.5,98.3C49.4,98.2,49.4,98.2,49.5,98.3
		C49.4,98.2,49.5,98.2,49.5,98.3C49.5,98.2,49.5,98.2,49.5,98.3C49.4,98.2,49.4,98.2,49.5,98.3L49.5,98.3L49.5,98.3L49.5,98.3
		L49.5,98.3L49.5,98.3z M49.5,98.2L49.5,98.2L49.5,98.2L49.5,98.2L49.5,98.2L49.5,98.2L49.5,98.2L49.5,98.2
		C49.5,98.3,49.5,98.3,49.5,98.2C49.5,98.3,49.5,98.3,49.5,98.2C49.5,98.3,49.5,98.3,49.5,98.2C49.5,98.3,49.5,98.2,49.5,98.2
		L49.5,98.2z M49.5,98.2C49.5,98.2,49.5,98.3,49.5,98.2C49.5,98.3,49.5,98.3,49.5,98.2C49.5,98.3,49.5,98.3,49.5,98.2
		C49.5,98.3,49.5,98.2,49.5,98.2L49.5,98.2L49.5,98.2L49.5,98.2L49.5,98.2z M49.5,98.2L49.5,98.2L49.5,98.2L49.5,98.2L49.5,98.2
		C49.6,98.2,49.6,98.2,49.5,98.2L49.5,98.2C49.6,98.2,49.6,98.2,49.5,98.2C49.6,98.3,49.6,98.3,49.5,98.2
		C49.5,98.3,49.5,98.3,49.5,98.2C49.5,98.3,49.5,98.3,49.5,98.2C49.5,98.3,49.5,98.2,49.5,98.2L49.5,98.2z M49.5,98.2
		C49.5,98.2,49.5,98.3,49.5,98.2C49.5,98.3,49.5,98.3,49.5,98.2C49.5,98.3,49.5,98.3,49.5,98.2C49.6,98.3,49.6,98.2,49.5,98.2
		C49.6,98.2,49.6,98.2,49.5,98.2L49.5,98.2L49.5,98.2L49.5,98.2L49.5,98.2z M49.6,98.3L49.6,98.3L49.6,98.3L49.6,98.3L49.6,98.3
		L49.6,98.3L49.6,98.3L49.6,98.3L49.6,98.3L49.6,98.3L49.6,98.3L49.6,98.3L49.6,98.3z M49.6,98.2L49.6,98.2L49.6,98.2L49.6,98.2
		L49.6,98.2z"/>
</g>
<g>
	<path class="st1" d="M188.2,222.3L188.2,222.3L188.2,222.3L188.2,222.3L188.2,222.3L188.2,222.3L188.2,222.3L188.2,222.3
		L188.2,222.3L188.2,222.3z M188.3,222.3L188.3,222.3L188.3,222.3C188.3,222.2,188.3,222.2,188.3,222.3
		C188.3,222.2,188.3,222.2,188.3,222.3C188.3,222.2,188.3,222.2,188.3,222.3C188.3,222.2,188.3,222.2,188.3,222.3
		C188.3,222.2,188.3,222.2,188.3,222.3C188.3,222.2,188.3,222.2,188.3,222.3C188.3,222.2,188.3,222.2,188.3,222.3L188.3,222.3
		L188.3,222.3L188.3,222.3L188.3,222.3L188.3,222.3z M188.3,222.2L188.3,222.2L188.3,222.2L188.3,222.2L188.3,222.2L188.3,222.2
		L188.3,222.2L188.3,222.2L188.3,222.2z M188.3,222.2L188.3,222.2L188.3,222.2L188.3,222.2L188.3,222.2L188.3,222.2L188.3,222.2
		L188.3,222.2L188.3,222.2z M188.4,222.2L188.4,222.2L188.4,222.2L188.4,222.2L188.4,222.2C188.4,222.3,188.4,222.3,188.4,222.2
		C188.4,222.3,188.3,222.3,188.4,222.2C188.3,222.2,188.3,222.2,188.4,222.2C188.3,222.2,188.3,222.2,188.4,222.2
		C188.3,222.2,188.3,222.2,188.4,222.2C188.3,222.2,188.3,222.2,188.4,222.2C188.3,222.2,188.3,222.2,188.4,222.2L188.4,222.2
		L188.4,222.2L188.4,222.2L188.4,222.2L188.4,222.2L188.4,222.2L188.4,222.2C188.4,222.2,188.3,222.2,188.4,222.2L188.4,222.2
		L188.4,222.2C188.3,222.2,188.3,222.2,188.4,222.2C188.3,222.2,188.3,222.2,188.4,222.2C188.3,222.2,188.3,222.2,188.4,222.2
		C188.3,222.2,188.4,222.2,188.4,222.2L188.4,222.2L188.4,222.2L188.4,222.2L188.4,222.2L188.4,222.2z M188.4,222.3L188.4,222.3
		L188.4,222.3L188.4,222.3L188.4,222.3L188.4,222.3L188.4,222.3L188.4,222.3L188.4,222.3z M188.5,222.2L188.5,222.2L188.5,222.2
		L188.5,222.2C188.4,222.2,188.4,222.2,188.5,222.2C188.4,222.2,188.4,222.2,188.5,222.2L188.5,222.2L188.5,222.2L188.5,222.2
		L188.5,222.2C188.4,222.2,188.4,222.2,188.5,222.2C188.4,222.2,188.4,222.2,188.5,222.2L188.5,222.2
		C188.4,222.2,188.4,222.2,188.5,222.2C188.4,222.2,188.4,222.2,188.5,222.2L188.5,222.2L188.5,222.2L188.5,222.2L188.5,222.2
		L188.5,222.2L188.5,222.2L188.5,222.2L188.5,222.2L188.5,222.2z M188.5,222.2L188.5,222.2L188.5,222.2L188.5,222.2L188.5,222.2
		L188.5,222.2L188.5,222.2L188.5,222.2L188.5,222.2C188.5,222.3,188.5,222.3,188.5,222.2C188.5,222.3,188.5,222.3,188.5,222.2
		L188.5,222.2L188.5,222.2z M188.5,222.2L188.5,222.2L188.5,222.2L188.5,222.2L188.5,222.2L188.5,222.2L188.5,222.2L188.5,222.2
		L188.5,222.2L188.5,222.2z M188.5,222.2L188.5,222.2L188.5,222.2C188.6,222.2,188.6,222.2,188.5,222.2
		C188.6,222.2,188.6,222.2,188.5,222.2C188.6,222.2,188.6,222.2,188.5,222.2L188.5,222.2C188.6,222.2,188.6,222.2,188.5,222.2
		C188.6,222.2,188.6,222.2,188.5,222.2C188.6,222.3,188.6,222.3,188.5,222.2C188.6,222.3,188.6,222.3,188.5,222.2L188.5,222.2
		L188.5,222.2z M188.5,222.2L188.5,222.2C188.6,222.2,188.6,222.2,188.5,222.2C188.6,222.2,188.6,222.2,188.5,222.2
		C188.6,222.2,188.6,222.2,188.5,222.2C188.6,222.2,188.6,222.2,188.5,222.2C188.6,222.2,188.6,222.2,188.5,222.2
		C188.6,222.2,188.6,222.2,188.5,222.2L188.5,222.2z M188.6,222.2L188.6,222.2L188.6,222.2L188.6,222.2L188.6,222.2L188.6,222.2
		L188.6,222.2L188.6,222.2L188.6,222.2L188.6,222.2L188.6,222.2L188.6,222.2C188.6,222.3,188.6,222.3,188.6,222.2
		C188.6,222.3,188.6,222.3,188.6,222.2L188.6,222.2L188.6,222.2L188.6,222.2L188.6,222.2z M188.6,222.2L188.6,222.2L188.6,222.2
		L188.6,222.2L188.6,222.2L188.6,222.2L188.6,222.2L188.6,222.2L188.6,222.2L188.6,222.2L188.6,222.2z M188.6,222.2L188.6,222.2
		L188.6,222.2L188.6,222.2L188.6,222.2L188.6,222.2L188.6,222.2L188.6,222.2L188.6,222.2z"/>
</g>
<g>
	<path class="st1" d="M428.7,285.2L428.7,285.2L428.7,285.2L428.7,285.2L428.7,285.2L428.7,285.2L428.7,285.2L428.7,285.2
		L428.7,285.2z M428.8,285.2L428.8,285.2L428.8,285.2L428.8,285.2L428.8,285.2L428.8,285.2L428.8,285.2L428.8,285.2L428.8,285.2
		L428.8,285.2L428.8,285.2L428.8,285.2L428.8,285.2L428.8,285.2L428.8,285.2L428.8,285.2L428.8,285.2L428.8,285.2L428.8,285.2
		L428.8,285.2L428.8,285.2L428.8,285.2L428.8,285.2L428.8,285.2z M428.9,285.2L428.9,285.2L428.9,285.2L428.9,285.2L428.9,285.2
		L428.9,285.2L428.9,285.2C428.8,285.2,428.8,285.2,428.9,285.2C428.8,285.2,428.8,285.2,428.9,285.2
		C428.8,285.2,428.8,285.2,428.9,285.2C428.8,285.2,428.8,285.2,428.9,285.2L428.9,285.2L428.9,285.2L428.9,285.2L428.9,285.2
		L428.9,285.2L428.9,285.2L428.9,285.2L428.9,285.2L428.9,285.2L428.9,285.2C428.8,285.2,428.8,285.2,428.9,285.2
		C428.8,285.2,428.8,285.2,428.9,285.2C428.8,285.2,428.8,285.2,428.9,285.2L428.9,285.2L428.9,285.2L428.9,285.2L428.9,285.2
		L428.9,285.2L428.9,285.2z M428.9,285.2L428.9,285.2L428.9,285.2L428.9,285.2L428.9,285.2L428.9,285.2L428.9,285.2L428.9,285.2
		L428.9,285.2z M429,285.2L429,285.2L429,285.2L429,285.2C428.9,285.2,428.9,285.2,429,285.2C428.9,285.2,428.9,285.2,429,285.2
		L429,285.2L429,285.2L429,285.2L429,285.2L429,285.2C428.9,285.2,428.9,285.2,429,285.2L429,285.2
		C428.9,285.2,428.9,285.2,429,285.2C428.9,285.2,429,285.2,429,285.2L429,285.2L429,285.2L429,285.2L429,285.2L429,285.2L429,285.2
		L429,285.2L429,285.2L429,285.2z M429,285.2L429,285.2L429,285.2L429,285.2L429,285.2L429,285.2L429,285.2L429,285.2L429,285.2
		L429,285.2L429,285.2L429,285.2L429,285.2L429,285.2z M429,285.2L429,285.2L429,285.2L429,285.2L429,285.2L429,285.2L429,285.2
		L429,285.2L429,285.2z M429,285.2L429,285.2C429.1,285.2,429.1,285.2,429,285.2C429.1,285.2,429.1,285.2,429,285.2L429,285.2
		C429.1,285.2,429.1,285.2,429,285.2C429.1,285.2,429.1,285.2,429,285.2C429.1,285.2,429.1,285.2,429,285.2
		C429.1,285.2,429.1,285.2,429,285.2C429.1,285.2,429.1,285.2,429,285.2C429.1,285.2,429.1,285.2,429,285.2
		C429.1,285.2,429.1,285.2,429,285.2C429.1,285.2,429,285.2,429,285.2L429,285.2z M429.1,285.2L429.1,285.2L429.1,285.2L429.1,285.2
		L429.1,285.2L429.1,285.2L429.1,285.2L429.1,285.2L429.1,285.2L429.1,285.2z M429.1,285.2L429.1,285.2L429.1,285.2L429.1,285.2
		L429.1,285.2L429.1,285.2L429.1,285.2L429.1,285.2L429.1,285.2L429.1,285.2L429.1,285.2L429.1,285.2L429.1,285.2L429.1,285.2
		L429.1,285.2L429.1,285.2L429.1,285.2C429.2,285.2,429.2,285.2,429.1,285.2C429.2,285.2,429.2,285.2,429.1,285.2L429.1,285.2
		L429.1,285.2L429.1,285.2L429.1,285.2L429.1,285.2z M429.1,285.2L429.1,285.2L429.1,285.2L429.1,285.2L429.1,285.2L429.1,285.2
		L429.1,285.2L429.1,285.2L429.1,285.2L429.1,285.2z"/>
</g>
<g>
	<path class="st5" d="M303.8,250.8h3.6v0.7h-2.7v2.2h2.5v0.7h-2.5v3h-0.9V250.8L303.8,250.8z M308.6,250.8h0.9v6h2.9v0.7h-3.8V250.8
		L308.6,250.8z M318.7,254.1c0,2.3-1.4,3.5-3.1,3.5c-1.8,0-3-1.4-3-3.4c0-2.1,1.3-3.5,3.1-3.5C317.5,250.6,318.7,252.1,318.7,254.1
		L318.7,254.1z M313.5,254.2c0,1.4,0.8,2.7,2.2,2.7c1.4,0,2.2-1.3,2.2-2.8c0-1.3-0.7-2.7-2.1-2.7S313.5,252.7,313.5,254.2
		L313.5,254.2z M325.6,254.1c0,2.3-1.4,3.5-3.1,3.5c-1.8,0-3-1.4-3-3.4c0-2.1,1.3-3.5,3.1-3.5C324.4,250.6,325.6,252.1,325.6,254.1
		L325.6,254.1z M320.4,254.2c0,1.4,0.8,2.7,2.2,2.7c1.4,0,2.2-1.3,2.2-2.8c0-1.3-0.7-2.7-2.1-2.7S320.4,252.7,320.4,254.2
		L320.4,254.2z M326.7,250.9c0.4-0.1,1.1-0.1,1.7-0.1c0.9,0,1.5,0.2,1.9,0.6c0.3,0.3,0.5,0.8,0.5,1.3c0,0.9-0.6,1.5-1.3,1.7l0,0
		c0.5,0.2,0.8,0.7,1,1.4c0.2,0.9,0.4,1.6,0.5,1.8h-0.9c-0.1-0.2-0.3-0.8-0.4-1.6c-0.2-0.9-0.6-1.3-1.4-1.3h-0.8v2.9h-0.9
		L326.7,250.9L326.7,250.9z M327.6,253.9h0.9c0.9,0,1.5-0.5,1.5-1.3c0-0.9-0.6-1.2-1.5-1.2c-0.4,0-0.7,0-0.9,0.1V253.9L327.6,253.9z
		 M333.9,257.5V257l0.7-0.7c1.7-1.6,2.4-2.4,2.4-3.4c0-0.7-0.3-1.3-1.3-1.3c-0.6,0-1.1,0.3-1.4,0.6l-0.3-0.6
		c0.4-0.4,1.1-0.7,1.8-0.7c1.4,0,2,1,2,1.9c0,1.2-0.9,2.2-2.2,3.5l-0.5,0.5l0,0h2.9v0.7H333.9L333.9,257.5z"/>
</g>
<g>
	<path class="st6" d="M108.3,187.8h1.7l-0.7-5.7L99,183.5v13h12l-0.5-4.3h-1.7v2l-7.8,0.2l-0.1-8.9h7.4V187.8z"/>
	<g>
		<path class="st7" d="M458.7,82.1v4.7 M459.7,82.1v4.7 M460.7,82.1v4.7 M461.7,82.1v4.7 M462.7,82.1v4.7 M463.7,82.1v4.7
			 M464.7,82.1v4.7 M465.7,82.1v4.7 M466.7,82.1v4.7 M467.8,82.1v4.7 M468.8,82.1v4.7 M469.8,82.1v4.7"/>
	</g>
	<g>
		<path class="st7" d="M458.7,76.3V81 M459.7,76.3V81 M460.7,76.3V81 M461.7,76.3V81 M462.7,76.3V81 M463.7,76.3V81 M464.7,76.3V81
			 M465.7,76.3V81 M466.7,76.3V81 M467.8,76.3V81 M468.8,76.3V81 M469.8,76.3V81"/>
	</g>
	<g>
		<path class="st7" d="M503.4,208v4.7 M504.4,208v4.7 M505.4,208v4.7 M506.4,208v4.7 M507.4,208v4.7 M508.4,208v4.7 M509.4,208v4.7
			 M510.4,208v4.7 M511.4,208v4.7 M512.5,208v4.7 M513.5,208v4.7 M514.5,208v4.7"/>
	</g>
	<g>
		<path class="st7" d="M503.4,202.2v4.7 M504.4,202.2v4.7 M505.4,202.2v4.7 M506.4,202.2v4.7 M507.4,202.2v4.7 M508.4,202.2v4.7
			 M509.4,202.2v4.7 M510.4,202.2v4.7 M511.4,202.2v4.7 M512.5,202.2v4.7 M513.5,202.2v4.7 M514.5,202.2v4.7"/>
	</g>
	<g>
		<path class="st7" d="M422.6,243l-4,2.3 M423.1,243.9l-4,2.3 M423.6,244.7l-4,2.3 M424.1,245.6l-4,2.3 M424.6,246.5l-4,2.3
			 M425.1,247.3l-4,2.3 M425.6,248.2l-4,2.3 M426.1,249.1l-4,2.3 M426.6,249.9l-4,2.3 M427.2,250.9l-4,2.3 M427.7,251.8l-4,2.3
			 M428.2,252.6l-4,2.3"/>
		<g>
			<path class="st7" d="M427.6,240.1l-4,2.3 M428.1,241l-4,2.3 M428.6,241.9l-4,2.3 M429.1,242.7l-4,2.3 M429.6,243.6l-4,2.3
				 M430.1,244.5l-4,2.3 M430.6,245.4l-4,2.3 M431.1,246.2l-4,2.3 M431.6,247.1l-4,2.3 M432.2,248l-4,2.3 M432.7,248.9l-4,2.3
				 M433.1,249.8l-4,2.3"/>
		</g>
	</g>
	<g>
		<path class="st7" d="M201.3,233.6l3.3,3.3 M202,232.9l3.3,3.3 M202.8,232.2l3.3,3.3 M203.5,231.5l3.3,3.3 M204.2,230.8l3.3,3.3
			 M204.9,230.1l3.3,3.3 M205.6,229.4l3.3,3.3 M206.3,228.7l3.3,3.3 M207,228l3.3,3.3 M207.8,227.2l3.3,3.3 M208.5,226.5l3.3,3.3
			 M209.2,225.8l3.3,3.3"/>
	</g>
	<g>
		<path class="st7" d="M189.6,221.9l3.3,3.3 M190.3,221.2l3.3,3.3 M191,220.5l3.3,3.3 M191.7,219.8l3.3,3.3 M192.4,219.1l3.3,3.3
			 M193.2,218.4l3.3,3.3 M193.9,217.7l3.3,3.3 M194.6,217l3.3,3.3 M195.3,216.3l3.3,3.3 M196.1,215.6l3.3,3.3 M196.8,214.9l3.3,3.3
			 M197.5,214.2l3.3,3.3"/>
	</g>
	<path class="st7" d="M63.3,76.6l3.3,3.3 M64,75.9l3.3,3.3 M64.7,75.2l3.3,3.3 M65.4,74.5l3.3,3.3 M66.1,73.8l3.3,3.3 M66.8,73.1
		l3.3,3.3 M67.5,72.4l3.3,3.3 M68.3,71.6l3.3,3.3 M69,70.9l3.3,3.3 M69.7,70.2l3.3,3.3"/>
	<g>
		<path class="st7" d="M62.6,68.5l3.3,3.3 M63.3,67.8l3.3,3.3 M64,67.1l3.3,3.3 M64.7,66.4l3.3,3.3 M65.4,65.7l3.3,3.3 M54.1,77.1
			l3.3,3.3 M54.8,76.4l3.3,3.3 M55.5,75.7l3.3,3.3 M56.2,75l3.3,3.3 M56.9,74.3l3.3,3.3 M57.6,73.5l3.3,3.3 M58.3,72.8l3.3,3.3
			 M59,72.1l3.3,3.3 M59.7,71.4l3.3,3.3 M60.5,70.6l3.3,3.3 M61.2,69.9l3.3,3.3 M61.9,69.2l3.3,3.3"/>
	</g>
	<g>
		<path class="st7" d="M94,195h4.7 M94,194h4.7 M94,193h4.7 M94,192h4.7 M94,191h4.7 M94,190h4.7 M94,189h4.7 M94,188h4.7 M94,187
			h4.7 M94,186h4.7 M94,185h4.7 M94,184h4.7"/>
	</g>
	<g>
		<path class="st7" d="M99.2,196.8v4.7 M100.2,196.8v4.7 M101.2,196.8v4.7 M102.2,196.8v4.7 M103.2,196.8v4.7 M104.2,196.8v4.7"/>
	</g>
	<g>
		<path class="st7" d="M99.5,178.3l0.6,4.6 M100.5,178.1l0.6,4.6 M101.5,178l0.6,4.6 M102.5,177.9l0.6,4.6 M103.5,177.7l0.6,4.6
			 M104.5,177.6l0.6,4.6"/>
	</g>
	<g>
		<path class="st7" d="M207.5,49.8l3.3-3.3 M206.8,49.1l3.3-3.3 M208.9,51.2l3.3-3.3 M208.2,50.5l3.3-3.3 M206.1,48.4l3.3-3.3
			 M205.3,47.6l3.3-3.3 M204.6,46.9l3.3-3.3 M203.9,46.2l3.3-3.3"/>
	</g>
	<g>
		<path class="st7" d="M218,60.1l3.3-3.3 M217.3,59.4l3.3-3.3 M216.6,58.7l3.3-3.3 M215.9,58l3.3-3.3 M215.2,57.2l3.3-3.3"/>
	</g>
	<g>
		<path class="st7" d="M226.7,68.5l3.2-3.4 M226,67.8l3.2-3.4 M225.2,67.2l3.2-3.4 M224.5,66.5l3.2-3.4 M223.8,65.8l3.2-3.4
			 M223.1,65.1l3.2-3.4 M222.4,64.4l3.2-3.4 M221.6,63.7l3.2-3.4 M220.9,63l3.2-3.4 M220.1,62.2l3.2-3.4 M219.4,61.5l3.2-3.4
			 M218.7,60.9l3.2-3.4"/>
	</g>
	<g>
		<path class="st7" d="M334.6,208.1l3.6-3 M334,207.3l3.6-3 M333.3,206.6l3.6-3 M332.7,205.8l3.6-3 M332.1,205l3.6-3 M331.4,204.2
			l3.6-3 M330.8,203.5l3.6-3 M330.2,202.7l3.6-3 M329.5,201.9l3.6-3 M328.8,201.1l3.6-3 M328.2,200.3l3.6-3 M327.6,199.5l3.6-3"/>
	</g>
	<g>
		<path class="st7" d="M321,191l3.6-3 M320.4,190.2l3.6-3 M322.3,192.5l3.6-3 M321.7,191.7l3.6-3 M319.7,189.5l3.6-3 M319,188.6
			l3.6-3 M318.4,187.9l3.6-3 M317.8,187.1l3.6-3"/>
	</g>
	<g>
		<path class="st7" d="M275.8,171.9l3.2-3.4 M275.1,171.2l3.2-3.4 M274.3,170.5l3.2-3.4 M273.6,169.8l3.2-3.4 M272.9,169.1l3.2-3.4
			 M272.2,168.4l3.2-3.4 M271.4,167.7l3.2-3.4 M270.7,167l3.2-3.4 M270,166.3l3.2-3.4 M269.2,165.6l3.2-3.4 M268.5,164.9l3.2-3.4
			 M267.8,164.2l3.2-3.4"/>
	</g>
	<g>
		<path class="st7" d="M281.5,166l3.2-3.4 M280.8,165.3l3.2-3.4 M280.1,164.6l3.2-3.4 M279.4,163.9l3.2-3.4 M278.6,163.2l3.2-3.4
			 M277.9,162.5l3.2-3.4 M277.2,161.8l3.2-3.4 M276.5,161.1l3-3.1 M275.8,160.4l2.2-2.3 M275,159.7l1.8-1.9 M274.2,159l1.5-1.4
			 M273.5,158.3l0.9-0.9"/>
	</g>
	<g>
		<path class="st7" d="M304.8,302.4l3.3-3.3 M304.1,301.7l3.3-3.3 M303.4,301l3.3-3.3 M302.7,300.4l3.3-3.3 M302,299.6l3.3-3.3
			 M301.3,299l3.3-3.3 M300.5,298.3l3.3-3.3 M299.8,297.6l3.3-3.3 M299.1,296.9l3.3-3.3 M298.3,296.1l3.3-3.3 M297.6,295.4l3.3-3.3
			 M296.9,294.7l3.3-3.3"/>
	</g>
	<g>
		<path class="st7" d="M289.4,286.9l3.2-3.4 M288.7,286.2l3.2-3.4 M290.9,288.2l3.2-3.4 M290.2,287.5l3.2-3.4 M288,285.5l3.2-3.4
			 M287.2,284.7l3.2-3.4 M286.5,284.1l3.2-3.4 M285.7,283.4l3.2-3.4"/>
	</g>
	<g>
		<path class="st7" d="M373.7,169.8l4-2.4 M373.2,168.9l4-2.4 M372.7,168.1l4-2.4 M372.2,167.2l4-2.4 M371.7,166.4l4-2.4
			 M371.2,165.5l4-2.4 M370.7,164.6l4-2.4 M370.1,163.8l4-2.4 M369.6,162.9l4-2.4 M369.1,162l4-2.4 M368.6,161.1l4-2.4 M368,160.3
			l4-2.4"/>
	</g>
	<g>
		<path class="st7" d="M378.9,165.3l4-2.4 M378.3,164.4l4-2.4 M377.8,163.6l4-2.4 M377.3,162.7l4-2.4 M376.8,161.9l4-2.4 M376.3,161
			l4-2.4 M375.8,160.1l4-2.4 M375.3,159.3l4-2.4 M374.8,158.4l4-2.4 M374.2,157.5l4-2.4 M373.7,156.6l4-2.4 M373.2,155.8l4-2.4"/>
	</g>
	<path class="st7" d="M277.7,54.9l4-2.4 M277.1,54l4-2.4 M276.6,53.1l4-2.4 M276.1,52.3l4-2.4 M275.6,51.4l4-2.4 M275.1,50.6l4-2.4
		 M274.6,49.7l4-2.4 M293.6,55.7l-2.4-4 M292.7,56.3l-2.4-4 M291.8,56.8l-2.4-4 M291,57.3l-2.4-4 M290,57.8l-2.4-4 M289.2,58.4
		l-2.4-4 M288.3,58.9l-2.4-4 M282.8,41.3v-4.7 M281.8,41.3v-4.7 M280.8,41.3v-4.7 M279.8,41.3v-4.7 M278.8,41.3v-4.7 M277.7,41.3
		v-4.7 M276.7,41.3v-4.7 M275.7,41.3v-4.7"/>
	<g>
		<path class="st7" d="M299.9,99.4l-2.3-4.1 M299,99.9l-2.3-4.1 M298.1,100.4l-2.3-4.1 M297.3,100.9l-2.3-4.1 M296.4,101.4l-2.3-4.1
			 M295.5,101.8l-2.3-4.1 M294.6,102.3l-2.3-4.1 M293.8,102.8l-2.3-4.1 M292.9,103.3l-2.3-4.1 M292,103.9l-2.3-4.1 M291.1,104.4
			l-2.3-4.1 M290.2,104.8l-2.3-4.1"/>
	</g>
	<path class="st7" d="M289.4,105.3l-2.3-4.1 M288.5,105.8l-2.3-4.1 M287.6,106.2l-2.3-4.1 M286.8,106.7l-2.3-4.1 M285.9,107.2
		l-2.3-4.1 M275.4,107.7l3.3-3.3 M274.7,107l3.2-3.4 M274,106.3l3.2-3.3"/>
	<g>
		<path class="st7" d="M363,161.6l-1.3-2.5 M361.4,161.1l1.6,0.5 M363.5,160l-0.5,1.6"/>
		<g>
			<path class="st7" d="M359,160.3l1.3,2.5 M360.6,160.8l-1.6-0.5 M358.5,161.9l0.5-1.6"/>
		</g>
	</g>
	<g>
		<path class="st7" d="M284.4,47.4l1.3,2.6 M286,47.9l-1.6-0.5 M283.9,49l0.5-1.6"/>
		<g>
			<path class="st7" d="M288.5,48.7l-1.3-2.5 M286.9,48.2l1.6,0.5 M289,47.1l-0.5,1.6"/>
		</g>
	</g>
	<g>
		<path class="st7" d="M528.4,110.2h2.9 M529.6,109l-1.2,1.2 M529.6,111.4l-1.2-1.2"/>
		<g>
			<path class="st7" d="M531.4,107.2h-2.9 M530.2,108.4l1.2-1.2 M530.3,106l1.2,1.2"/>
		</g>
	</g>
	<g>
		<path class="st8" d="M103.8,191.5l2.9-0.2 M104.9,190.3l-1.1,1.2 M105,192.7l-1.2-1.1"/>
		<g>
			<path class="st8" d="M106.6,188.4l-2.9,0.2 M105.5,189.6l1.1-1.2 M105.3,187.2l1.2,1.1"/>
		</g>
	</g>
	<g>
		<path class="st8" d="M203.3,225.8l2-2 M203.3,224.2v1.7 M205,225.8h-1.7"/>
		<g>
			<path class="st8" d="M203.2,221.6l-2,2 M203.2,223.2v-1.7 M201.6,221.6h1.7"/>
		</g>
	</g>
</g>
<g>
	<path class="st9" d="M231,65.3l-29.7-29l-77.7,77.3l-55-55.3l-29.3,30l66,65.7l2.7,22.7l-14.5,2v23.2l23.7-0.2l-4.8-41l147,147.2
		l24.8-24.8l21.5,21.7 M81,71.2l-11.8,12 M78.5,68.8L66.1,81.5 M59.3,108.3l12.2-12.2 M67.2,116.2L79.3,104 M75.1,124.1l12.2-12.2
		 M82.8,131.8L95,119.6 M106.8,121.1l12.2-12.2 M111.4,125.8l12.2-12.2 M126.6,134.7l12.2-12.2 M151.9,120.4l10-10 M167.7,104.6
		l10-10 M178.2,71l12.6-12.5 M182.9,89.4l7.9-7.8 M132.8,139.3l13.3-13.2 M141,154.9l85.6-85.5 M202.8,192.8l52-51.7 M231.8,222.3
		l56.9-56.6 M144.1,117.1l17-17 M90.6,139.6l12.2-12.2 M99.3,148.3l12.2-12.2 M120.2,169.2l12.2-12.2 M127.8,176.8l12.2-12.2
		 M135.7,184.7l12.2-12.2 M143.6,192.6l12.2-12.2 M151.4,200.4l12.2-12.2 M159.2,208.2l12.2-12.2 M167,216l12.2-12.2 M175.1,224.1
		l12.5-12.5 M188,222.5l14.7-14.7"/>
	<path class="st9" d="M202.6,216.5l-10.3,10.3l2.2,2.2l3.2-3.1 M210.5,223.8l-10.7,10.5l-2.3-2.5l1.1-1.1l1.7,1.9l1.2-1.1l-0.6-0.8
		l1.5-1.5 M204.1,238.6l14.8-14.9 M202.6,251.6l12.5-12.4 M212,261l12.2-12.2 M219.8,234.6l2.1-2.2 M221.6,239.7l1.9-1.9 M224.4,230
		l1.9-1.9 M218.6,242.8l0.9-0.9 M219.8,268.8l12.2-12.2 M227.8,276.8l12.2-12.2 M235.5,284.5l12.2-12.2 M243.3,292.3l12.2-12.2
		 M251.3,300.3l12.2-12.2 M271.4,285.7l12.2-12.2 M229.3,243.8l12.2-12.2 M221.6,236.1l12.2-12.2 M237.1,251.6l12.2-12.2 M245,259.5
		l12.2-12.2 M252.8,267.3l12.2-12.2 M260.5,275l12.2-12.2 M268.5,283l12.2-12.2 M62,85.5L49.2,98.3 M74.2,99.2L84,109 M76,89.9
		L93.2,107 M90.2,114.9l9.8,9.8 M98.8,112.5l9.2,9.4 M105.4,130.4l9.8,9.8 M129.4,107.9l12.1,12.2 M151.9,85.5L164,97.7 M172.4,99.7
		l12.1,12.2 M164.5,107.6l12.1,12.2 M156.8,115.3l12.1,12.2 M149,123.1l12.1,12.2 M140.9,131.2l63.6,63.5 M180.2,91.9l12.1,12.2
		 M178.9,70.1l8.6,8.6 M188,84.1l12.1,12.2 M190.1,59.1l23.6,23.5 M203.1,46.2l24.2,23.9 M167.2,70.1l12.1,12.2 M122.9,113
		l12.8,12.6 M126.8,151.7l9.8,9.8 M60.9,85.8l7.7,7.7 M66.4,80.4l7.7,7.7 M110,124l7.1,7 M135.8,149.8l7.1,7 M120.7,126.4l7.1,7
		 M148.9,147l4.3,4.2 M133.1,138.9l7.1,7 M142.8,167.7l9.8,9.8 M158.7,183.4l9.8,9.8 M202.1,216.3l7.9,7.7 M174,198.8l5.9,5.9
		 M181.7,206.6l5.8,5.6 M226.9,251.8l9.8,9.8 M242.9,267.7l9.8,9.8 M266.2,290.9l5.1,5.1 M258.2,283.1l5.6,5.6 M232.4,246.4l9.8,9.8
		 M223.5,248.1l1.6,1.6 M228.9,242.7l1.6,1.6 M239.2,263.8l1.6,1.6 M170.6,195.1l1.6,1.6 M154.9,179.8l1.6,1.6 M139,163.8l1.6,1.6
		 M157.5,147.1l-12.2,12.2 M165.4,155l-12.2,12.2 M173.3,162.9L161.1,175 M181.1,170.7L169,182.9 M188.9,178.5l-12.2,12.2
		 M196.7,186.3l-12.2,12.2 M204.8,194.4l-12.5,12.4 M148.4,162.1l9.8,9.8 M164.1,178l9.8,9.8 M179.5,193.3l5.9,5.9 M187.6,201.3
		l5.4,5.5 M175.9,189.9l1.6,1.6 M160.5,174.2l1.6,1.6 M144.5,158.3l1.6,1.6 M102,126.8l1.6,1.6 M189.9,80.8l1.2,1.2 M121.4,126.5
		l-1.6,1.5 M149.9,122.5l-1.6,1.5 M181.1,91.2l-1.6,1.5 M164.7,96.7l-1.6,1.5 M177.4,77.5l-1.6,1.5 M181.7,73.3l-2.1,2.1
		 M179.5,81.9l-1.6,1.5 M165.3,107l-1.6,1.5 M231.1,199.6l10-10 M246.9,183.8l10-10 M262.1,168.6l5.9-5.9 M251.6,179l12.1,12.2
		 M243.7,186.9l12.1,12.2 M236,194.5l12.1,12.2 M218.7,212.2l7-7.1 M218.9,211.7l12.1,12.2 M202.2,207.8l16.5,16.5 M228.2,202.4
		l12.1,12.2 M259.5,171.1l12.1,12.2 M267.2,163.4l12.1,12.2 M281.2,158.7l8.1,8 M229.1,201.7l-1.6,1.5 M260.4,170.5l-1.6,1.5
		 M244.5,186.3l-1.6,1.5 M140.5,145.5l-1.7,1.6 M117.8,130l-1.3,1.2 M136.9,149l-1.3,1.3 M86.5,111.3l1.6,1.6 M70.7,95.5l1.6,1.6
		 M244.6,258.4l1.6,1.6 M254.8,279.2l1.6,1.6 M260,274l1.6,1.6 M270.9,284.8l1.6,1.6 M248.4,262.2l9.8,9.8 M263.7,277.7l5.6,5.6
		 M274,277.2l3.1,2.8 M274.2,288.2l2.4,2.3 M214.5,239.4l7,6.9 M219.9,233.9l7,6.9 M230.4,220.5l87.8,87.8 M183.4,208.4l2.4-2.2
		 M189,202.9l-1.1,1.1 M108,97.9l-12.1,12.2 M176.1,85.1l-9.4,9.5 M96.7,110.7l-1.6-1.6 M117.6,123.2l-1.6-1.6 M145.2,150.7
		l-1.6-1.6 M225.9,194.2l10-10 M241.7,178.4l10-10 M272,161.1l2.3-2.4 M256.9,163.2l5.5-5.5 M265,155.2l6.5-6.6l32.8,3.7l19.5-13.1
		 M246.6,173.8l-12.2-12.1 M238.7,181.6l-12.2-12.1 M231,189.3l-12.2-12.1 M213.4,206.7l7.1-7 M213.8,206.5l-10.6-10.4 M223.2,197.1
		l-12.2-12 M254.4,165.9l-12.2-12.1 M262.7,158.7L250,146.1 M266.9,153.4L254,140.6 M223.8,196.3l-1.5,1.6 M255.1,165l-1.5,1.6
		 M239.3,180.8l-1.5,1.6 M228.9,222.5l1.8-1.7 M270.4,159.8l2.3-2.4l8.7,8.3l-2.3,2.4L270.4,159.8z M272.7,157.4l22.6,3.4l38.6,47.6
		 M321.1,182.6l19.4,24.1c0,0,14.8-13,31.2-19l14.4,24.8"/>
	<path class="st9" d="M358.4,193.9l-3.6-6.2l-1.8,1l3.6,6.4 M438.8,174l-49.3,28.5 M382.5,206.6l-14.4,8.3l53.4,92.5l15-8.7
		 M424.3,278.2l10.4,17.8 M421.9,274.1l1,1.7 M412.4,257.7l8,13.9 M410,253.5l1.1,1.8 M401.3,238.5l7.2,12.5 M408.5,235.8l7.5,13
		 M399.8,220.3l7.5,13 M412,214.8l6.5,11 M398.9,234.4l1,1.8 M390.3,219.4l7.2,12.4 M377,180.8l19.6,34.3 M387.8,215.2l1,1.7
		 M374,224.4l14.4-8.3 M390.2,207.8l2-1.1 M385.2,210.7l2.5-1.4 M400.1,221.4l8.4-4.8 M406.9,232.2l15.3-8.8 M411,215.1l9.4-5.1
		 M395.9,214.9l8.8-5.1 M406.8,208.7l9.4-5.1 M418.5,201.8l8.9-4.9 M423,208.4l10.2-5.7 M384.9,243.6l14.4-8.3 M379.2,234.1
		l14.4-8.3 M390,253.4l14.8-8.6 M411.6,240.9l14.8-8.6 M395.5,263l14.8-8.5 M401.5,272.4l14.4-8.3 M407.8,283.2l14.4-8.3
		 M418.1,302.2l15-8.6 M418.4,253.7l2.5-1.4 M417.7,251.6l1,1.8 M401.1,196l7,12.2 M412.6,189.5l7,12.2 M424,183l7,12.2
		 M423.9,208.1l7,12.2 M429.9,195.3l2.1-1.2 M434,192.9l4.8-2.6 M427.2,268.5l14.4-8.3 M424,262.5l14.4-8.3 M424,262.1l1.8,3.1
		 M426.8,267.1l1.3,2.2 M414.2,239.6l10.2,17.9 M421.2,223.7l36.5,62.9 M415.1,247.1l2.5-1.4 M496.5,174.1h-58 M521.1,174.1h-26.5
		 M421.9,225.1l16.6-9.6l126-0.1V73.6H439.2v41.1h83.9v59.4h-3.7 M557.1,90.2h7.4 M552.2,90.2h2.2 M535,90.2h14.5 M530.1,90.2h2.1
		 M512.9,90.2h14.5 M508,90.2h2.1 M490.8,90.2h14.6 M485.8,90.2h2.2 M457.6,90.2h25.6 M449.6,90.2h1.7 M439.2,90.2h7.6 M552.2,98.1
		h12.4 M547.2,98.1h2.3 M528.8,98.1h11.6 M520.7,98.1h5.8 M515.6,98.1h2.2 M498.4,98.1h14.5 M493.5,98.1h2.2 M476.3,98.1h14.5
		 M471.4,98.1h2.1 M454.1,98.1h14.6 M449.3,98.1h2.1 M439.2,98.1h7.2 M450.4,98.2v16.6 M461.4,98.2v16.6 M472.5,98.2v16.6
		 M483.5,98.2v16.4 M494.6,98.3v16.4 M505.6,98.4v16.2 M516.8,98.2v16.6 M547.8,98.2v33.3 M564.4,124.5h-16.8 M564.4,135.6h-16.8
		 M564.4,146.6h-16.8 M564.4,157.8h-16.8 M564.4,168.8h-16.8 M564.4,179.8h-16.8 M564.4,190.9h-16.8 M525.9,98.2v4.2 M529.4,98.2
		v4.2 M535.9,98v4.4"/>
	<path class="st9" d="M539.9,98.1v4.6H525v12.2h-1.9 M540,189.8v1.5 M540,178.6v8.5 M540,167.7v8.2 M540,156.8v8.2 M540,145.6v8.4
		 M540,134.5v8.2 M540,123.5v8.2 M540,112.2v8.5 M547.8,189.9v1.4 M547.8,178.8v8.2 M547.8,167.7v8.4 M547.8,156.6v8.2 M547.7,145.5
		v8.3 M547.8,134.5v8.4 M523.2,124.6H540 M525.1,113.5H540 M523.2,135.6H540 M523.2,146.7H540 M523.2,157.7H540 M523.2,168.7H540
		 M522.6,179.7H540 M438.3,199.6v16 M438.3,174.5v16.6 M445.7,190.8h-7.5 M450.5,190.8h-2 M467.7,190.8h-14.6 M476.9,190.8h-6.5
		 M503.3,190.8h-12.7 M540.3,190.8h-26.9 M445.5,198.6h-5.6l-4.1,2.2 M450.5,198.6h-2.3 M467.7,198.7h-14.5 M472.6,198.7h-2.2
		 M490,198.7h-14.7 M493.8,198.7h-1.3 M503.6,198.7h-1.9 M527.4,198.7h-17.8 M538.6,198.7h-8.5 M543.4,198.7h-2.1 M554.5,198.7H546
		 M564.7,198.8h-7.5 M449.3,198.7v16.8 M449.3,174.2V191 M460.3,198.6v17 M460.3,174.2v16.7 M471.4,198.4v17 M471.4,174.3V191
		 M482.5,198.8v16.8 M493.4,198.2v17.2 M493.4,174.2v17 M494.8,201.5h-1.3 M497.6,201.4h22.7 M502.3,198.9v2.4 M510.8,198.9v2.6
		 M520.1,198.8v16.7 M493.5,213.3h31.7 M525.2,212.9v2.4 M502.3,213.3v-5.9h1.2 M531.1,198.8v16.7 M542.2,198.9v16.5 M553.3,198.9
		v16.4 M522.3,190.8V176h2.9v-2h-2 M502.8,190.8v-1.2 M513.9,190.7v-1 M508.3,174.2v11.4 M502.8,185.5v1.2 M513.8,185.5v1.2
		 M499.9,185.3h16.6 M476.4,174.2v4.2 M476.4,184.7v6.7 M471.5,176.2h4.8 M471.5,187h9.2 M491.7,187H487 M491.4,174.2v16.7
		 M450.7,73.8v17 M475.8,73.8v16.6 M486.9,73.9v16.4 M450.7,87.4h1.4 M450.7,75.5h25.1 M475.7,87.4h-20.8 M458,90.2v-2.8 M498,73.8
		v16.5 M509,73.8v16.3 M520.2,73.9v16.4 M531.2,90.3V73.8 M542.2,90.2V73.7 M553.3,90.2V73.6 M559,90.2v2.1 M559,95.1V98"/>
	<path class="st9" d="M536.9,103.1v3.2h-3.4V104h-7.9 M537,113.2v-2.6h-1.4v2.2h-1.8v-2.2 M525.9,100.2h3.7 M428,284.8l1.6-1
		 M434.3,280.9l-2.3,1.4 M416,297.8l1.9-1l3.8,6.5l10.9-6.2l-3.9-6.6l1.7-1.1 M437.2,285.4l1.9-1l3.8,6.5l10.9-6.2l-3.9-6.6l1.7-1.1
		 M439.4,290.1l15.6-8.8 M434,295.8l6.8-3.9l-11.4-20.1 M458,286.1l-15.9,9.2 M199.6,227.2l-3.6-3.7 M70.5,84.6l-2.1,2.1 M65.2,89.9
		l1.5-1.5 M278.3,25.8l5.8,9.8L265,35.5L280.3,61l-32.5,19.8l30.5,31.2l22.8-12.7L316,125l12,20.7l2-1.2l-12.2-20.6l12.7-7.3
		l-4.2-7.7"/>
	<path class="st9" d="M257.2,23.8l1.2,2.2h49.3l-1-2.3L257.2,23.8z M350,157.5l-17.3-29.8l2.4-1.4"/>
	<path class="st9" d="M307.3,26L395,178.8l-17,3.4l-0.6-1.1l13.9-8 M339.4,116.1l3.4,5.9 M333.7,106.1l4.4,7.7 M331.3,101.8l1.1,1.9
		 M325.2,91.3l4.7,8.2 M319.1,80.6l4.8,8.4 M312,68.3l6,10.4 M290.7,31.2l18.8,32.7 M287.7,26l1.7,3 M323.9,104.5l1.1,1.9
		 M313.7,86.5l8.9,15.7 M311.7,82.9l0.8,1.5 M291.1,46.8l2.2,3.8 M315,39.5l-14.5,8.4 M316.9,43.2l-14.3,8.5 M312.4,61.6l11.2-6.6
		 M315.3,61.8l-3.8-6.6 M309.2,51.2l-1.6-2.5 M300.7,57.9l-2.4,1.3 M303,56.6l1.4-0.8 M310.1,63l-1.3,0.8 M313.1,68.3l-1.2,0.8
		 M315.4,67.1l2.4-1.5 M316.7,64.3l3.6,6.2 M326.3,60l-9,5.2 M308.8,76.9l-4.7,2.8l1.8,3 M318.8,81.2l15.3-8.5 M317.2,78.5l2.4-1.3
		l1.5,2.7 M325.7,92.3l14.8-8.6 M331.4,103l15.1-8.8 M336.9,112.7l15.1-8.8 M340.3,123.4l13.4-7.7 M356,114.3l1.5-0.8 M309.7,113.9
		l14.8-8.4 M316.1,124.8l1.7-1 M327,118.4l6.8,11"/>
	<path class="st9" d="M369.1,134.3l-7.7,4.5l2.4,4.1 M374.9,144.1l-7.8,4.5 M365.1,145.3l4.3,7.3 M377,147.8L354.2,161 M348.8,160
		l-1-1.8 M351.2,164.2l0.8,1.3 M354.4,169.8l1.1,1.9 M362.3,167.1l-7.4,4.3 M359.1,169.2l-7.3-12.8l-3.8,2.2 M362.3,167.8l-1.9-3.2
		 M355.8,160.5l2.9,5.2l3.7-2.2 M363.2,156.2l2.8,5.1l-1,0.7"/>
	<path class="st9" d="M365.8,161.8l1.5,2.7l1.1-0.6l4.4,7.6l0.8-0.5l-9.1-15.6 M372.4,156.5l9,15.8l2.8-1.6 M386.4,169l2-1.2
		 M276.7,101.2l3.3,3.2L298.1,94l3.2,5.7 M300.1,97.4l14.7-8.6"/>
	<path class="st9" d="M298.1,94.1l2.2-1.3l-1.2-2.1"/>
	<path class="st9" d="M284.6,101.4l-1.2-2.1l20.9-11.7 M310.6,90.8l-3-5.1l4.2-2.3 M258.7,74.6l1.9,2l2.1-1.4l-1.2-2.5 M262.5,75.4
		l2.3,2.5 M266.8,79.9l13.9,14 M282.7,95.9l2.2,2.3 M280.3,61l1.3,2.2l14.1-8.4l12.9,22.7 M276.6,63.4l1.8,2.8l2.5-1.5l-1.7-2.9
		 M306.6,86.2l1.3-0.8 M307.2,85l0.7,1.2 M268.8,41.9l19.6-0.1l1,1.8"/>
	<path class="st9" d="M276,42.1l8.2,13.4l8.8-5.2 M278.2,55.7l4-2.4 M279.8,47.7l8.7-5.2 M395,178.8l9.4,15.4 M283.3,53.6l8.5-5.2
		 M263.1,75.3l33-19.3 M559.1,195.8v0.9 M559.1,192.2v0.9 M559.1,192.1v0.9"/>
</g>
<g>
	<g>
		<g>
			<path class="st10" d="M508.1,187.1c0.9,0,1.7,0,2.6,0c0.6,0,1,0.3,1,1c0,1.7,0,3.4,0,5.1c0,0.6-0.3,0.9-0.9,0.9
				c-1.7,0-3.5,0-5.2,0c-0.6,0-0.9-0.3-0.9-0.9c0-1.8,0-3.5,0-5.3c0-0.5,0.3-0.9,0.9-0.9C506.3,187.1,507.2,187.1,508.1,187.1
				L508.1,187.1z M508.1,187.3c-0.8,0-1.7,0-2.5,0c-0.6,0-0.9,0.3-0.9,0.9v5.1c0,0.6,0.3,0.8,0.8,0.8c1.7,0,3.4,0,5.1,0
				c0.6,0,0.8-0.3,0.8-0.8c0-1.7,0-3.4,0-5.1c0-0.6-0.3-0.8-0.8-0.8L508.1,187.3L508.1,187.3z"/>
			<path class="st1" d="M508.1,187.3h2.6c0.6,0,0.8,0.3,0.8,0.8c0,1.7,0,3.4,0,5.1c0,0.6-0.3,0.8-0.8,0.8c-1.7,0-3.4,0-5.1,0
				c-0.5,0-0.8-0.3-0.8-0.8c0-1.7,0-3.4,0-5.1c0-0.6,0.2-0.9,0.9-0.9C506.4,187.3,507.2,187.3,508.1,187.3L508.1,187.3z
				 M506.7,189.7L506.7,189.7c0.1,0,0.2,0,0.2,0.1c0.1,0.2,0.2,0.5,0.2,0.8c0,0.1,0.1,0.2,0.2,0.2c0.2,0,0.1-0.2,0.1-0.3
				c-0.1-0.3-0.2-0.6-0.3-0.9c-0.1-0.2-0.3-0.4-0.5-0.4s-0.5,0-0.7,0c-0.3,0-0.4,0.1-0.5,0.4c-0.1,0.3-0.2,0.6-0.3,0.9
				c0,0.1-0.1,0.3,0.1,0.3s0.2-0.1,0.2-0.2c0.1-0.3,0.1-0.5,0.2-0.8c0-0.1,0.1-0.1,0.1-0.1s0,0,0.1,0l-0.5,1.7c0.2,0,0.3,0,0.5,0
				c0,0.1,0,0.2,0,0.3c0,0.4,0,0.7,0,1.1c0,0.1,0.1,0.1,0.2,0.2c0,0,0.1-0.1,0.2-0.2c0-0.1,0-0.2,0-0.3c0-0.4,0-0.7,0-1.1h0.1
				c0,0.1,0.1,0.1,0.1,0.2c0,0.4,0,0.8,0,1.2c0,0.1,0,0.2,0.2,0.2c0.1,0,0.2-0.1,0.2-0.2c0-0.1,0-0.3,0-0.5v-0.9h0.5
				C507,190.8,506.9,190.2,506.7,189.7L506.7,189.7z M510.5,191.2L510.5,191.2c0-0.5,0-0.9,0-1.4c0-0.1,0.1-0.1,0.1-0.2
				c0,0.1,0.1,0.1,0.1,0.2c0,0.3,0,0.6,0,0.9c0,0.1,0.1,0.1,0.1,0.2c0-0.1,0.1-0.1,0.1-0.2c0-0.4,0-0.8,0-1.1s-0.2-0.5-0.4-0.5
				c-0.4,0-0.7,0-1.1,0c-0.2,0-0.4,0.2-0.4,0.4c0,0.4,0,0.8,0,1.2c0,0.1,0.1,0.1,0.1,0.2c0-0.1,0.1-0.1,0.1-0.2c0-0.1,0-0.2,0-0.3
				c0-0.2,0-0.5,0-0.7c0-0.1,0.1-0.1,0.1-0.1l0.1,0.1v0.1c0,0.9,0,1.8,0,2.7c0,0.2,0,0.3,0.2,0.3s0.2-0.2,0.2-0.3v-1.4V191
				c0-0.1,0.1-0.1,0.1-0.1l0.1,0.1c0,0.1,0,0.1,0,0.2c0,0.5,0,1,0,1.4c0,0.1,0.1,0.2,0.2,0.2c0,0,0.2,0,0.2-0.1s0-0.1,0-0.2
				C510.5,192.1,510.5,191.7,510.5,191.2L510.5,191.2z M508.3,192.9v-4.7c-0.1,0-0.2,0-0.3,0c0,1.6,0,3.1,0,4.7
				C508.1,192.9,508.2,192.9,508.3,192.9C508.3,192.9,508.3,192.9,508.3,192.9L508.3,192.9z M510.4,188.6c0-0.2-0.2-0.4-0.4-0.4
				c-0.2,0-0.4,0.1-0.4,0.4l0,0c0,0.2,0.2,0.4,0.4,0.4C510.2,189,510.4,188.9,510.4,188.6L510.4,188.6L510.4,188.6z M506.3,188.3
				c-0.2,0-0.4,0.2-0.4,0.4l0,0c0,0.2,0.2,0.4,0.4,0.4c0.2,0,0.4-0.2,0.4-0.4l0,0C506.6,188.4,506.5,188.3,506.3,188.3L506.3,188.3z
				"/>
			<path class="st10" d="M506.7,189.7c0.2,0.6,0.3,1.1,0.5,1.7h-0.5c0,0.3,0,0.6,0,0.9c0,0.1,0,0.3,0,0.4c0,0.1,0,0.2-0.2,0.2
				c-0.1,0-0.2-0.1-0.2-0.2c0-0.4,0-0.8,0-1.2c0-0.1-0.1-0.1-0.1-0.2h-0.1v1.1c0,0.1,0,0.2,0,0.3s-0.1,0.2-0.2,0.2s-0.2-0.1-0.2-0.2
				c0-0.4,0-0.7,0-1.1v-0.3c-0.2,0-0.3,0-0.5,0l0.5-1.7c0,0,0,0-0.1,0l-0.1,0.1c-0.1,0.3-0.2,0.5-0.2,0.8c0,0.1-0.1,0.2-0.2,0.2
				c-0.2,0-0.1-0.2-0.1-0.3c0.1-0.3,0.2-0.6,0.3-0.9c0.1-0.2,0.2-0.4,0.5-0.4c0.2,0,0.5,0,0.7,0c0.3,0,0.4,0.1,0.5,0.4
				c0.1,0.3,0.2,0.6,0.3,0.9c0,0.1,0.1,0.2-0.1,0.3c-0.2,0-0.2-0.1-0.2-0.2C506.9,190.2,506.8,190,506.7,189.7
				C506.9,189.7,506.8,189.7,506.7,189.7C506.7,189.6,506.7,189.7,506.7,189.7L506.7,189.7z M510.5,191.2c0,0.5,0,0.9,0,1.4
				c0,0.1,0,0.2,0,0.2c0,0.1-0.2,0.1-0.2,0.1c-0.1,0-0.2-0.2-0.2-0.2c0-0.5,0-1,0-1.4c0-0.1,0-0.1,0-0.2c0-0.1-0.1-0.1-0.1-0.1
				l-0.1,0.1v0.1v1.4c0,0.2,0,0.3-0.2,0.3s-0.2-0.2-0.2-0.3v-2.7v-0.1c0-0.1-0.1-0.1-0.1-0.1c0,0.1-0.1,0.1-0.1,0.2
				c0,0.2,0,0.5,0,0.7c0,0.1,0,0.2,0,0.3s-0.1,0.1-0.1,0.2c0-0.1-0.1-0.1-0.1-0.2c0-0.4,0-0.8,0-1.2c0-0.2,0.2-0.4,0.4-0.4
				c0.4,0,0.7,0,1.1,0c0.3,0,0.4,0.2,0.4,0.5c0,0.4,0,0.8,0,1.1c0,0.1-0.1,0.1-0.1,0.2c-0.1-0.1-0.1-0.1-0.1-0.2c0-0.3,0-0.6,0-0.9
				c0-0.1-0.1-0.1-0.1-0.2c0,0.1-0.1,0.1-0.1,0.2C510.5,190.3,510.5,190.7,510.5,191.2L510.5,191.2z M508.3,192.9h-0.1
				c-0.1,0-0.2,0-0.2,0v-4.7h0.3L508.3,192.9L508.3,192.9z M510.4,188.6c0,0.2-0.2,0.4-0.4,0.4l0,0c-0.2,0-0.4-0.2-0.4-0.4
				s0.2-0.4,0.4-0.4l0,0C510.2,188.3,510.4,188.4,510.4,188.6L510.4,188.6z M506.3,188.3c0.2,0,0.4,0.2,0.4,0.4l0,0
				c0,0.2-0.2,0.4-0.4,0.4l0,0c-0.2,0-0.4-0.2-0.4-0.4l0,0C505.9,188.5,506,188.3,506.3,188.3L506.3,188.3L506.3,188.3z"/>
		</g>
	</g>
	<g>
		<g>
			<path class="st10" d="M311.3,62.2c0.9,0,1.7,0,2.6,0c0.6,0,1,0.3,1,1c0,1.7,0,3.4,0,5.1c0,0.6-0.3,0.9-0.9,0.9
				c-1.7,0-3.5,0-5.2,0c-0.6,0-0.9-0.3-0.9-0.9c0-1.8,0-3.5,0-5.3c0-0.5,0.3-0.9,0.9-0.9C309.5,62.2,310.4,62.2,311.3,62.2
				L311.3,62.2z M311.2,62.3c-0.8,0-1.7,0-2.5,0c-0.6,0-0.9,0.3-0.9,0.9c0,1.7,0,3.4,0,5.1c0,0.6,0.3,0.8,0.8,0.8c1.7,0,3.4,0,5.1,0
				c0.6,0,0.8-0.3,0.8-0.8c0-1.7,0-3.4,0-5.1c0-0.6-0.3-0.8-0.8-0.8L311.2,62.3L311.2,62.3z"/>
			<path class="st1" d="M311.2,62.3h2.6c0.6,0,0.8,0.3,0.8,0.8c0,1.7,0,3.4,0,5.1c0,0.6-0.3,0.8-0.8,0.8c-1.7,0-3.4,0-5.1,0
				c-0.5,0-0.8-0.3-0.8-0.8c0-1.7,0-3.4,0-5.1c0-0.6,0.2-0.9,0.9-0.9C309.6,62.3,310.4,62.3,311.2,62.3z M309.9,64.7L309.9,64.7
				c0.1,0,0.2,0,0.2,0.1c0.1,0.2,0.2,0.5,0.2,0.8c0,0.1,0.1,0.2,0.2,0.2c0.2,0,0.1-0.2,0.1-0.3c-0.1-0.3-0.2-0.6-0.3-0.9
				c-0.1-0.2-0.3-0.4-0.5-0.4s-0.5,0-0.7,0c-0.3,0-0.4,0.1-0.5,0.4s-0.2,0.6-0.3,0.9c0,0.1-0.1,0.3,0.1,0.3s0.2-0.1,0.2-0.2
				c0.1-0.3,0.1-0.5,0.2-0.8c0-0.1,0.1-0.1,0.1-0.1s0,0,0.1,0l-0.5,1.7c0.2,0,0.3,0,0.5,0v0.3c0,0.4,0,0.7,0,1.1
				c0,0.1,0.1,0.1,0.2,0.2c0,0,0.1-0.1,0.2-0.2c0-0.1,0-0.2,0-0.3v-1.1h0.1c0,0.1,0.1,0.1,0.1,0.2c0,0.4,0,0.8,0,1.2
				c0,0.1,0,0.2,0.2,0.2c0.1,0,0.2-0.1,0.2-0.2c0-0.2,0-0.3,0-0.4v-0.9h0.5C310.2,65.8,310,65.3,309.9,64.7L309.9,64.7z M313.7,66.2
				L313.7,66.2c0-0.5,0-0.9,0-1.4c0-0.1,0.1-0.1,0.1-0.2c0,0.1,0.1,0.1,0.1,0.2c0,0.3,0,0.6,0,0.9c0,0.1,0.1,0.1,0.1,0.2
				c0-0.1,0.1-0.1,0.1-0.2c0-0.4,0-0.8,0-1.1c0-0.3-0.2-0.5-0.4-0.5c-0.4,0-0.7,0-1.1,0c-0.2,0-0.4,0.2-0.4,0.4c0,0.4,0,0.8,0,1.2
				c0,0.1,0.1,0.1,0.1,0.2c0-0.1,0.1-0.1,0.1-0.2s0-0.2,0-0.3c0-0.2,0-0.5,0-0.7c0-0.1,0.1-0.1,0.1-0.2l0.1,0.1v0.1v2.7
				c0,0.2,0,0.3,0.2,0.3s0.2-0.2,0.2-0.3c0-0.5,0-0.9,0-1.4v-0.1c0-0.1,0.1-0.1,0.1-0.1l0.1,0.1c0,0.1,0,0.1,0,0.2c0,0.5,0,1,0,1.4
				c0,0.1,0.1,0.2,0.2,0.2c0,0,0.2,0,0.2-0.1s0-0.1,0-0.2C313.7,67.1,313.7,66.7,313.7,66.2L313.7,66.2z M311.5,67.9v-4.7
				c-0.1,0-0.2,0-0.3,0v4.7C311.3,67.9,311.4,67.9,311.5,67.9C311.4,68,311.4,67.9,311.5,67.9L311.5,67.9z M313.5,63.6
				c0-0.2-0.2-0.4-0.4-0.4c-0.2,0-0.4,0.2-0.4,0.4l0,0c0,0.2,0.2,0.4,0.4,0.4S313.5,63.9,313.5,63.6
				C313.5,63.7,313.5,63.6,313.5,63.6L313.5,63.6z M309.4,63.3c-0.2,0-0.4,0.2-0.4,0.4l0,0c0,0.2,0.2,0.4,0.4,0.4
				c0.2,0,0.4-0.2,0.4-0.4l0,0C309.8,63.5,309.6,63.3,309.4,63.3L309.4,63.3z"/>
			<path class="st10" d="M309.9,64.7c0.2,0.6,0.3,1.1,0.5,1.7h-0.5v0.9c0,0.2,0,0.3,0,0.5c0,0.1,0,0.2-0.2,0.2
				c-0.1,0-0.2-0.1-0.2-0.2c0-0.4,0-0.8,0-1.2c0-0.1-0.1-0.1-0.1-0.2h-0.1v1.1c0,0.1,0,0.2,0,0.3c0,0.1-0.1,0.2-0.2,0.2
				s-0.2-0.1-0.2-0.2c0-0.4,0-0.7,0-1.1c0-0.1,0-0.2,0-0.3h-0.5l0.5-1.7h-0.1l-0.1,0.1c-0.1,0.3-0.2,0.5-0.2,0.8
				c0,0.1-0.1,0.2-0.2,0.2c-0.2,0-0.1-0.2-0.1-0.3c0.1-0.3,0.2-0.6,0.3-0.9c0.1-0.2,0.2-0.4,0.5-0.4c0.2,0,0.5,0,0.7,0
				c0.3,0,0.5,0.1,0.5,0.4c0.1,0.3,0.2,0.6,0.3,0.9c0,0.1,0.1,0.2-0.1,0.3c-0.2,0-0.2-0.1-0.2-0.2c-0.1-0.3-0.2-0.5-0.2-0.8
				C310,64.7,310,64.7,309.9,64.7L309.9,64.7L309.9,64.7z M313.7,66.2c0,0.5,0,0.9,0,1.4c0,0.1,0,0.2,0,0.2c0,0.1-0.2,0.1-0.2,0.1
				c-0.1,0-0.2-0.2-0.2-0.2c0-0.5,0-1,0-1.4c0-0.1,0-0.1,0-0.2l-0.1-0.1l-0.1,0.1v0.1v1.4c0,0.2,0,0.3-0.2,0.3s-0.2-0.2-0.2-0.3
				v-2.7v-0.1c0-0.1-0.1-0.1-0.1-0.1c0,0.1-0.1,0.1-0.1,0.2c0,0.2,0,0.5,0,0.7c0,0.1,0,0.2,0,0.3c0,0.1-0.1,0.1-0.1,0.2
				c0-0.1-0.1-0.1-0.1-0.2c0-0.4,0-0.8,0-1.2c0-0.2,0.2-0.4,0.4-0.4c0.4,0,0.7,0,1.1,0c0.3,0,0.4,0.2,0.4,0.5c0,0.4,0,0.8,0,1.1
				c0,0.1-0.1,0.1-0.1,0.2C314,66,314,66,314,65.9c0-0.3,0-0.6,0-0.9c0-0.1-0.1-0.1-0.1-0.2c0,0.1-0.1,0.1-0.1,0.2
				C313.7,65.3,313.7,65.7,313.7,66.2L313.7,66.2L313.7,66.2z M311.5,67.9h-0.1c-0.1,0-0.2,0-0.2,0v-4.7h0.3
				C311.5,63.3,311.5,67.9,311.5,67.9z M313.5,63.6c0,0.2-0.2,0.4-0.4,0.4l0,0c-0.2,0-0.4-0.2-0.4-0.4s0.2-0.4,0.4-0.4l0,0
				C313.3,63.3,313.5,63.4,313.5,63.6L313.5,63.6z M309.4,63.3c0.2,0,0.4,0.2,0.4,0.4l0,0c0,0.2-0.2,0.4-0.4,0.4l0,0
				c-0.2,0-0.4-0.2-0.4-0.4l0,0C309,63.5,309.2,63.3,309.4,63.3L309.4,63.3z"/>
		</g>
	</g>
	<g>
		<g>
			<path class="st10" d="M120.5,128.5c0.9,0,1.7,0,2.6,0c0.6,0,1,0.3,1,1c0,1.7,0,3.4,0,5.1c0,0.6-0.3,0.9-0.9,0.9
				c-1.7,0-3.5,0-5.2,0c-0.6,0-0.9-0.3-0.9-0.9c0-1.8,0-3.5,0-5.3c0-0.5,0.3-0.9,0.9-0.9C118.8,128.5,119.6,128.5,120.5,128.5
				L120.5,128.5z M120.5,128.6c-0.8,0-1.7,0-2.5,0c-0.6,0-0.9,0.3-0.9,0.9c0,1.7,0,3.4,0,5.1c0,0.6,0.3,0.8,0.8,0.8h5.1
				c0.6,0,0.8-0.3,0.8-0.8c0-1.7,0-3.4,0-5.1c0-0.6-0.3-0.8-0.8-0.8C122.2,128.6,121.3,128.6,120.5,128.6L120.5,128.6z"/>
			<path class="st1" d="M120.5,128.6h2.6c0.6,0,0.8,0.3,0.8,0.8c0,1.7,0,3.4,0,5.1c0,0.6-0.3,0.8-0.8,0.8c-1.7,0-3.4,0-5.1,0
				c-0.5,0-0.8-0.3-0.8-0.8c0-1.7,0-3.4,0-5.1c0-0.6,0.2-0.9,0.9-0.9C118.8,128.6,119.7,128.6,120.5,128.6L120.5,128.6z M119.1,131
				L119.1,131c0.1,0,0.2,0,0.2,0.1c0.1,0.2,0.2,0.5,0.2,0.8c0,0.1,0.1,0.2,0.2,0.2c0.2,0,0.1-0.2,0.1-0.3c-0.1-0.3-0.2-0.6-0.3-0.9
				c-0.1-0.2-0.3-0.4-0.5-0.4s-0.5,0-0.7,0c-0.3,0-0.4,0.1-0.5,0.4c-0.1,0.3-0.2,0.6-0.3,0.9c0,0.1-0.1,0.3,0.1,0.3s0.2-0.1,0.2-0.2
				c0.1-0.3,0.1-0.5,0.2-0.8c0-0.1,0.1-0.1,0.1-0.1h0.1c-0.2,0.6-0.3,1.1-0.5,1.7h0.5v0.3c0,0.4,0,0.7,0,1.1c0,0.1,0.1,0.1,0.2,0.2
				c0,0,0.1-0.1,0.2-0.2c0-0.1,0-0.2,0-0.3c0-0.4,0-0.7,0-1.1h0.1c0,0.1,0.1,0.1,0.1,0.2c0,0.4,0,0.8,0,1.2c0,0.1,0,0.2,0.2,0.2
				c0.1,0,0.2-0.1,0.2-0.2c0-0.1,0-0.3,0-0.5v-0.9h0.5C119.4,132.1,119.3,131.6,119.1,131L119.1,131z M122.9,132.5
				c0-0.5,0-0.9,0-1.4c0-0.1,0.1-0.1,0.1-0.2c0,0.1,0.1,0.1,0.1,0.2c0,0.3,0,0.6,0,0.9c0,0.1,0.1,0.1,0.2,0.2c0-0.1,0.1-0.1,0.1-0.2
				c0-0.4,0-0.8,0-1.1s-0.2-0.5-0.4-0.5c-0.4,0-0.7,0-1.1,0c-0.2,0-0.4,0.2-0.4,0.4c0,0.4,0,0.8,0,1.2c0,0.1,0.1,0.1,0.1,0.2
				c0-0.1,0.1-0.1,0.1-0.2c0-0.1,0-0.2,0-0.3c0-0.2,0-0.5,0-0.7c0-0.1,0.1-0.1,0.1-0.2l0.1,0.1v0.1c0,0.9,0,1.8,0,2.7
				c0,0.2,0,0.3,0.2,0.3s0.2-0.2,0.2-0.3v-1.4v-0.1c0-0.1,0.1-0.1,0.1-0.1l0.1,0.1c0,0.1,0,0.1,0,0.2c0,0.5,0,1,0,1.4
				c0,0.1,0.1,0.2,0.2,0.2c0,0,0.2,0,0.2-0.1s0-0.1,0-0.2C122.9,133.4,122.9,133,122.9,132.5L122.9,132.5z M120.8,134.3v-4.7h-0.3
				c0,1.6,0,3.1,0,4.7c0.1,0,0.2,0,0.2,0S120.7,134.3,120.8,134.3z M122.8,130c0-0.2-0.2-0.4-0.4-0.4c-0.2,0-0.4,0.1-0.4,0.4l0,0
				c0,0.2,0.2,0.4,0.4,0.4C122.6,130.3,122.8,130.2,122.8,130L122.8,130L122.8,130z M118.7,129.6c-0.2,0-0.4,0.2-0.4,0.4l0,0
				c0,0.2,0.2,0.4,0.4,0.4c0.2,0,0.4-0.2,0.4-0.4l0,0C119.1,129.8,118.9,129.6,118.7,129.6L118.7,129.6L118.7,129.6z"/>
			<path class="st10" d="M119.1,131c0.2,0.6,0.3,1.1,0.5,1.7h-0.5c0,0.3,0,0.6,0,0.9c0,0.1,0,0.3,0,0.4c0,0.1,0,0.2-0.2,0.2
				c-0.1,0-0.2-0.1-0.2-0.2c0-0.4,0-0.8,0-1.2c0-0.1-0.1-0.1-0.1-0.2h-0.1v1.1c0,0.1,0,0.2,0,0.3s-0.1,0.2-0.2,0.2s-0.2-0.1-0.2-0.2
				c0-0.4,0-0.7,0-1.1v-0.3h-0.5l0.5-1.7H118l-0.1,0.1c-0.1,0.3-0.2,0.5-0.2,0.8c0,0.1-0.1,0.2-0.2,0.2c-0.2,0-0.1-0.2-0.1-0.3
				c0.1-0.3,0.2-0.6,0.3-0.9c0.1-0.2,0.2-0.4,0.5-0.4c0.2,0,0.5,0,0.7,0c0.3,0,0.4,0.1,0.5,0.4c0.1,0.3,0.2,0.6,0.3,0.9
				c0,0.1,0.1,0.2-0.1,0.3c-0.2,0-0.2-0.1-0.2-0.2c-0.1-0.3-0.2-0.5-0.2-0.8C119.3,131,119.2,131,119.1,131L119.1,131L119.1,131z
				 M122.9,132.5c0,0.5,0,0.9,0,1.4c0,0.1,0,0.2,0,0.2c0,0.1-0.2,0.1-0.2,0.1c-0.1-0.1-0.2-0.2-0.2-0.2c0-0.5,0-1,0-1.4
				c0-0.1,0-0.1,0-0.2l-0.1-0.1l-0.1,0.1v0.1v1.4c0,0.2,0,0.3-0.2,0.3s-0.2-0.2-0.2-0.3c0-0.9,0-1.8,0-2.7v-0.1
				c0-0.1-0.1-0.1-0.1-0.1c0,0.1-0.1,0.1-0.1,0.2c0,0.2,0,0.5,0,0.7c0,0.1,0,0.2,0,0.3s-0.1,0.1-0.1,0.2c-0.1-0.1-0.1-0.1-0.1-0.2
				c0-0.4,0-0.8,0-1.2c0-0.2,0.2-0.4,0.4-0.4c0.4,0,0.7,0,1.1,0c0.3,0,0.4,0.2,0.4,0.5c0,0.4,0,0.8,0,1.1c0,0.1-0.1,0.1-0.1,0.2
				c-0.1-0.1-0.1-0.1-0.2-0.2c0-0.3,0-0.6,0-0.9c0-0.1-0.1-0.1-0.1-0.2c0,0.1-0.1,0.1-0.1,0.2C122.9,131.6,122.9,132.1,122.9,132.5
				L122.9,132.5L122.9,132.5z M120.8,134.2C120.7,134.3,120.7,134.3,120.8,134.2c-0.2,0-0.3,0-0.3,0v-4.7c0.1,0,0.2,0,0.3,0
				C120.7,129.6,120.8,134.2,120.8,134.2z M122.8,130c0,0.2-0.2,0.4-0.4,0.4l0,0c-0.2,0-0.4-0.2-0.4-0.4s0.2-0.4,0.4-0.4l0,0
				C122.6,129.6,122.8,129.8,122.8,130L122.8,130z M118.7,129.6c0.2,0,0.4,0.2,0.4,0.4l0,0c0,0.2-0.2,0.4-0.4,0.4l0,0
				c-0.2,0-0.4-0.2-0.4-0.4l0,0C118.3,129.8,118.5,129.6,118.7,129.6L118.7,129.6L118.7,129.6z"/>
		</g>
	</g>
	<g>
		<g>
			<path class="st10" d="M135,142.2c0.9,0,1.7,0,2.6,0c0.6,0,1,0.3,1,1c0,1.7,0,3.4,0,5.1c0,0.6-0.3,0.9-0.9,0.9c-1.7,0-3.5,0-5.2,0
				c-0.6,0-0.9-0.3-0.9-0.9c0-1.8,0-3.5,0-5.3c0-0.5,0.3-0.9,0.9-0.9C133.2,142.2,134.1,142.2,135,142.2L135,142.2z M135,142.3
				c-0.8,0-1.7,0-2.5,0c-0.6,0-0.9,0.3-0.9,0.9v5.1c0,0.6,0.3,0.8,0.8,0.8c1.7,0,3.4,0,5.1,0c0.6,0,0.8-0.3,0.8-0.8
				c0-1.7,0-3.4,0-5.1c0-0.6-0.3-0.8-0.8-0.8L135,142.3L135,142.3z"/>
			<path class="st1" d="M135,142.3h2.6c0.6,0,0.8,0.3,0.8,0.8c0,1.7,0,3.4,0,5.1c0,0.6-0.3,0.8-0.8,0.8c-1.7,0-3.4,0-5.1,0
				c-0.5,0-0.8-0.3-0.8-0.8c0-1.7,0-3.4,0-5.1c0-0.6,0.2-0.9,0.9-0.9C133.3,142.3,134.1,142.3,135,142.3L135,142.3z M133.6,144.7
				L133.6,144.7c0.1,0,0.2,0,0.2,0.1c0.1,0.2,0.2,0.5,0.2,0.8c0,0.1,0.1,0.2,0.2,0.2c0.2,0,0.1-0.2,0.1-0.3
				c-0.1-0.3-0.2-0.6-0.3-0.9c-0.1-0.2-0.3-0.4-0.5-0.4s-0.5,0-0.7,0c-0.3,0-0.4,0.1-0.5,0.4c-0.1,0.3-0.2,0.6-0.3,0.9
				c0,0.1-0.1,0.3,0.1,0.3c0.2,0,0.2-0.1,0.2-0.2c0.1-0.3,0.1-0.5,0.2-0.8c0-0.1,0.1-0.1,0.1-0.1s0,0,0.1,0l-0.5,1.7
				c0.2,0,0.3,0,0.5,0v0.3c0,0.4,0,0.7,0,1.1c0,0.1,0.1,0.1,0.2,0.2c0,0,0.1-0.1,0.2-0.2c0-0.1,0-0.2,0-0.3v-1.1h0.1
				c0,0.1,0.1,0.1,0.1,0.2c0,0.4,0,0.8,0,1.2c0,0.1,0,0.2,0.2,0.2c0.1,0,0.2-0.1,0.2-0.2c0-0.1,0-0.3,0-0.4v-0.9h0.5L133.6,144.7
				L133.6,144.7z M137.4,146.2L137.4,146.2c0-0.5,0-0.9,0-1.4c0-0.1,0.1-0.1,0.1-0.2c0,0.1,0.1,0.1,0.1,0.2c0,0.3,0,0.6,0,0.9
				c0,0.1,0.1,0.1,0.1,0.2c0-0.1,0.1-0.1,0.1-0.2c0-0.4,0-0.8,0-1.1s-0.2-0.5-0.4-0.5c-0.4,0-0.7,0-1.1,0c-0.2,0-0.4,0.2-0.4,0.4
				c0,0.4,0,0.8,0,1.2c0,0.1,0.1,0.1,0.1,0.2c0-0.1,0.1-0.1,0.1-0.2c0-0.1,0-0.2,0-0.3c0-0.2,0-0.5,0-0.7c0-0.1,0.1-0.1,0.1-0.2
				l0.1,0.1v0.1v2.7c0,0.2,0,0.3,0.2,0.3s0.2-0.2,0.2-0.3c0-0.5,0-0.9,0-1.4v-0.1c0-0.1,0.1-0.1,0.1-0.1l0.1,0.1c0,0.1,0,0.1,0,0.2
				c0,0.5,0,1,0,1.4c0,0.1,0.1,0.2,0.2,0.2c0,0,0.2,0,0.2-0.1s0-0.1,0-0.2C137.4,147.1,137.4,146.7,137.4,146.2z M135.2,147.9v-4.7
				c-0.1,0-0.2,0-0.3,0v4.7C135,147.9,135.1,148,135.2,147.9C135.2,148,135.2,147.9,135.2,147.9L135.2,147.9z M137.3,143.6
				c0-0.2-0.2-0.4-0.4-0.4s-0.4,0.1-0.4,0.4l0,0c0,0.2,0.2,0.4,0.4,0.4S137.2,143.9,137.3,143.6
				C137.3,143.7,137.3,143.6,137.3,143.6L137.3,143.6z M133.2,143.3c-0.2,0-0.4,0.2-0.4,0.4l0,0c0,0.2,0.2,0.4,0.4,0.4
				s0.4-0.2,0.4-0.4l0,0C133.5,143.5,133.4,143.3,133.2,143.3L133.2,143.3z"/>
			<path class="st10" d="M133.6,144.7l0.5,1.7h-0.5v0.9c0,0.1,0,0.3,0,0.5c0,0.1,0,0.2-0.2,0.2c-0.1,0-0.2-0.1-0.2-0.2
				c0-0.4,0-0.8,0-1.2c0-0.1-0.1-0.1-0.1-0.2H133v1.1c0,0.1,0,0.2,0,0.3s-0.1,0.2-0.2,0.2c-0.1,0-0.2-0.1-0.2-0.2c0-0.4,0-0.7,0-1.1
				c0-0.1,0-0.2,0-0.3h-0.5c0.2-0.6,0.3-1.1,0.5-1.7c0,0,0,0-0.1,0l-0.1,0.1c-0.1,0.3-0.2,0.5-0.2,0.8c0,0.1-0.1,0.2-0.2,0.2
				c-0.2,0-0.1-0.2-0.1-0.3c0.1-0.3,0.2-0.6,0.3-0.9c0.1-0.2,0.2-0.4,0.5-0.4c0.2,0,0.5,0,0.7,0c0.3,0,0.4,0.1,0.5,0.4
				c0.1,0.3,0.2,0.6,0.3,0.9c0,0.1,0.1,0.2-0.1,0.3c-0.2,0-0.2-0.1-0.2-0.2c-0.1-0.3-0.2-0.5-0.2-0.8
				C133.8,144.7,133.7,144.7,133.6,144.7L133.6,144.7L133.6,144.7z M137.4,146.2c0,0.5,0,0.9,0,1.4c0,0.1,0,0.2,0,0.2
				c0,0.1-0.2,0.1-0.2,0.1c-0.1,0-0.2-0.2-0.2-0.2c0-0.5,0-1,0-1.4c0-0.1,0-0.1,0-0.2l-0.1-0.1l-0.1,0.1v0.1v1.4
				c0,0.2,0,0.3-0.2,0.3s-0.2-0.2-0.2-0.3v-2.7v-0.1c0-0.1-0.1-0.1-0.1-0.1c0,0.1-0.1,0.1-0.1,0.2c0,0.2,0,0.5,0,0.7
				c0,0.1,0,0.2,0,0.3s-0.1,0.1-0.1,0.2c-0.1-0.1-0.1-0.1-0.1-0.2c0-0.4,0-0.8,0-1.2c0-0.2,0.2-0.4,0.4-0.4c0.4,0,0.7,0,1.1,0
				c0.3,0,0.4,0.2,0.4,0.5c0,0.4,0,0.8,0,1.1c0,0.1-0.1,0.1-0.1,0.2c-0.1-0.1-0.1-0.1-0.1-0.2c0-0.3,0-0.6,0-0.9
				c0-0.1-0.1-0.1-0.1-0.2c0,0.1-0.1,0.1-0.1,0.2C137.4,145.3,137.4,145.7,137.4,146.2L137.4,146.2L137.4,146.2z M135.2,147.9h-0.1
				c-0.1,0-0.2,0-0.2,0v-4.7h0.3V147.9L135.2,147.9z M137.3,143.6c0,0.2-0.2,0.4-0.4,0.4l0,0c-0.2,0-0.4-0.2-0.4-0.4
				s0.2-0.4,0.4-0.4l0,0C137.1,143.3,137.3,143.4,137.3,143.6z M133.2,143.3c0.2,0,0.4,0.2,0.4,0.4l0,0c0,0.2-0.2,0.4-0.4,0.4l0,0
				c-0.2,0-0.4-0.2-0.4-0.4l0,0C132.8,143.5,132.9,143.3,133.2,143.3L133.2,143.3z"/>
		</g>
	</g>
</g>
<text transform="matrix(1 -8.827203e-04 8.827203e-04 1 440.6027 83.646)" class="st2 st3 st4">2297</text>
<text transform="matrix(1 -8.827203e-04 8.827203e-04 1 477.1722 83.594)" class="st2 st3 st4">2293</text>
<text transform="matrix(1 -8.827203e-04 8.827203e-04 1 487.9573 83.6672)" class="st2 st3 st4">2291</text>
<text transform="matrix(1 -8.827203e-04 8.827203e-04 1 510.2997 83.646)" class="st2 st3 st4">2287</text>
<text transform="matrix(1 -8.827203e-04 8.827203e-04 1 521.0832 83.6672)" class="st2 st3 st4">2285</text>
<text transform="matrix(1 -8.827203e-04 8.827203e-04 1 543.3518 83.594)" class="st2 st3 st4">2281</text>
<text transform="matrix(1 -8.827203e-04 8.827203e-04 1 554.4372 83.594)" class="st2 st3 st4">2279</text>
<text transform="matrix(1 -8.827203e-04 8.827203e-04 1 527 131.7)" class="st2 st3 st4">2272</text>
<text transform="matrix(1 -8.827203e-04 8.827203e-04 1 551.7001 165.001)" class="st2 st3 st4">2267</text>
<text transform="matrix(1 -8.827203e-04 8.827203e-04 1 551.6994 176.1009)" class="st2 st3 st4">2265</text>
<text transform="matrix(1 -8.827203e-04 8.827203e-04 1 543.4001 210.8005)" class="st2 st3 st4">2259</text>
<text transform="matrix(1 -8.827199e-04 8.827199e-04 1 504.1004 200.0694)" class="st2 st3 st11">2253</text>
<text transform="matrix(1 -8.827203e-04 8.827203e-04 1 483.3528 210.3005)" class="st2 st3 st4">2251</text>
<text transform="matrix(1 -8.827203e-04 8.827203e-04 1 461.2002 210.4011)" class="st2 st3 st4">2247</text>
<text transform="matrix(1 -8.827203e-04 8.827203e-04 1 450.4001 210.4015)" class="st2 st3 st4">2245</text>
<text transform="matrix(1 -8.827203e-04 8.827203e-04 1 439.3001 210.4011)" class="st2 st3 st4">2243</text>
<text transform="matrix(1 -8.827203e-04 8.827203e-04 1 428.1001 212.9005)" class="st2 st3 st4">2241</text>
<text transform="matrix(0.867 -0.4983 0.4983 0.867 430.4845 264.7968)" class="st2 st3 st4">2232</text>
<text transform="matrix(0.8597 -0.5108 0.5108 0.8597 437.2005 277.4998)" class="st2 st3 st4">2234</text>
<text transform="matrix(1 -8.827203e-04 8.827203e-04 1 415.1709 288.1005)" class="st2 st3 st4">2235</text>
<text transform="matrix(1 -8.827203e-04 8.827203e-04 1 407.8001 275.3005)" class="st2 st3 st4">2233</text>
<text transform="matrix(1 -8.827203e-04 8.827203e-04 1 401.7002 264.2005)" class="st2 st3 st4">2231</text>
<text transform="matrix(1 -8.827203e-04 8.827203e-04 1 396.5002 255.1505)" class="st2 st3 st4">2229</text>
<text transform="matrix(1 -8.827203e-04 8.827203e-04 1 390.7002 245.9005)" class="st2 st3 st4">2227</text>
<text transform="matrix(1 -8.827203e-04 8.827203e-04 1 385.2002 235.6005)" class="st2 st3 st4">2225</text>
<text transform="matrix(1 -8.827203e-04 8.827203e-04 1 379.2002 226.8005)" class="st2 st3 st4">2223</text>
<text transform="matrix(1 -8.827203e-04 8.827203e-04 1 374.0002 216.6005)" class="st2 st3 st4">2221</text>
<text transform="matrix(1 -8.827203e-04 8.827203e-04 1 394.8001 206.1505)" class="st2 st3 st4">2236</text>
<text transform="matrix(1 -8.827203e-04 8.827203e-04 1 405.9027 200.2005)" class="st2 st3 st4">2238</text>
<text transform="matrix(1 -8.827203e-04 8.827203e-04 1 417.1003 193.6005)" class="st2 st3 st4">2240</text>
<text transform="matrix(1 -8.827203e-04 8.827203e-04 1 427.6002 186.1005)" class="st2 st3 st4">2242</text>
<text transform="matrix(1 -8.827203e-04 8.827203e-04 1 439.3002 183.9005)" class="st2 st3 st4">2244</text>
<text transform="matrix(1 -8.827203e-04 8.827203e-04 1 450.5588 183.9011)" class="st2 st3 st4">2246</text>
<text transform="matrix(1 -8.827203e-04 8.827203e-04 1 461.2003 183.9011)" class="st2 st3 st4">2248</text>
<text transform="matrix(1 -8.827203e-04 8.827203e-04 1 491.7001 196.2505)" class="st0 st3 st4">2200</text>
<text transform="matrix(-8.827199e-04 -1 1 -8.827199e-04 474.8008 185.5001)" class="st2 st3 st12">2250A</text>
<text transform="matrix(1 -8.827203e-04 8.827203e-04 1 496.5001 182.5502)" class="st2 st3 st4">2252</text>
<text transform="matrix(1 -8.827203e-04 8.827203e-04 1 511 182.3997)" class="st2 st3 st4">2256</text>
<text transform="matrix(1 -8.827199e-04 8.827199e-04 1 363.3521 144.6956)" class="st2 st3 st13">2216A</text>
<text transform="matrix(1 -8.827203e-04 8.827203e-04 1 347.4001 138.6002)" class="st2 st3 st4">2216</text>
<text transform="matrix(1 -8.827203e-04 8.827203e-04 1 342.4001 114.6002)" class="st2 st3 st4">2214</text>
<text transform="matrix(1 -8.827203e-04 8.827203e-04 1 337.0001 104.5002)" class="st2 st3 st4">2212</text>
<text transform="matrix(1 -8.827203e-04 8.827203e-04 1 332.0002 94.9003)" class="st2 st3 st4">2210</text>
<text transform="matrix(1 -8.827203e-04 8.827203e-04 1 325.8001 84.3002)" class="st2 st3 st4">2208</text>
<text transform="matrix(1 -8.827203e-04 8.827203e-04 1 320.9001 72.8002)" class="st2 st3 st4">2206</text>
<text transform="matrix(0.8809 -0.4734 0.4734 0.8809 318.2003 62.8602)" class="st2 st3 st14">2205</text>
<text transform="matrix(1 -8.827203e-04 8.827203e-04 1 310.6252 53.8002)" class="st2 st3 st4">2204</text>
<text transform="matrix(1 -8.827203e-04 8.827203e-04 1 298.3001 36.6002)" class="st2 st3 st4">2202</text>
<text transform="matrix(1 -8.827203e-04 8.827203e-04 1 284.1501 75.2002)" class="st2 st3 st4">2203</text>
<text transform="matrix(1 -8.827199e-04 8.827199e-04 1 307.3026 81.9375)" class="st0 st3 st15">2200A</text>
<text transform="matrix(1 -8.827203e-04 8.827203e-04 1 307.2501 102.8002)" class="st2 st3 st4">2209</text>
<text transform="matrix(1 -8.827203e-04 8.827203e-04 1 314.8001 116.9255)" class="st2 st3 st4">2211</text>
<text transform="matrix(0.8731 -0.4876 0.4876 0.8731 301.8386 94.3498)" class="st2 st3 st16">2203A</text>
<text transform="matrix(0.8701 -0.4928 0.4928 0.8701 310.1675 88.0001)" class="st2 st3 st17">2207</text>
<text transform="matrix(0.5157 0.8568 -0.8568 0.5157 352.0001 162.7005)" class="st2 st3 st18">2218</text>
<text transform="matrix(0.6796 0.7336 -0.7336 0.6796 253.5996 147.001)" class="st2 st3 st4">2156</text>
<text transform="matrix(1 -8.827203e-04 8.827203e-04 1 265.0501 174.5502)" class="st2 st3 st4">2155</text>
<text transform="matrix(1 -8.827203e-04 8.827203e-04 1 256.9001 182.1997)" class="st2 st3 st4">2153</text>
<text transform="matrix(1 -8.827203e-04 8.827203e-04 1 249.3001 189.5997)" class="st2 st3 st4">2151</text>
<text transform="matrix(1 -8.827203e-04 8.827203e-04 1 241.1001 197.8997)" class="st2 st3 st4">2149</text>
<text transform="matrix(1 -8.827203e-04 8.827203e-04 1 233.2001 205.7997)" class="st2 st3 st4">2147</text>
<text transform="matrix(1 -8.827203e-04 8.827203e-04 1 224.9001 214.5997)" class="st2 st3 st4">2145</text>
<text transform="matrix(1 -8.827203e-04 8.827203e-04 1 247.6001 156.7999)" class="st2 st3 st4">2154</text>
<text transform="matrix(1 -8.827203e-04 8.827203e-04 1 239.3001 165.0008)" class="st2 st3 st4">2152</text>
<text transform="matrix(1 -8.827203e-04 8.827203e-04 1 231.6001 172.8005)" class="st2 st3 st4">2150</text>
<text transform="matrix(1 -8.827203e-04 8.827203e-04 1 223.8001 180.7497)" class="st2 st3 st4">2148</text>
<text transform="matrix(1 -8.827203e-04 8.827203e-04 1 216.0501 188.7997)" class="st2 st3 st4">2146</text>
<text transform="matrix(1 -8.827203e-04 8.827203e-04 1 207.9501 197.8997)" class="st2 st3 st4">2144</text>
<text transform="matrix(0.7077 -0.7065 0.7065 0.7077 238.5509 188.3496)" class="st0 st3 st4">2100A</text>
<text transform="matrix(1 -8.827203e-04 8.827203e-04 1 226.9001 235.2497)" class="st2 st3 st4">2158</text>
<text transform="matrix(1 -8.827203e-04 8.827203e-04 1 234.9001 242.3497)" class="st2 st3 st4">2160</text>
<text transform="matrix(1 -8.827203e-04 8.827203e-04 1 242.9001 250.695)" class="st2 st3 st4">2162</text>
<text transform="matrix(1 -8.827203e-04 8.827203e-04 1 250.2001 258.8497)" class="st2 st3 st4">2164</text>
<text transform="matrix(1 -8.827203e-04 8.827203e-04 1 258.2001 266.4)" class="st2 st3 st4">2166</text>
<text transform="matrix(1 -8.827203e-04 8.827203e-04 1 265.4001 274.7997)" class="st2 st3 st4">2168</text>
<text transform="matrix(1 -8.827203e-04 8.827203e-04 1 256.4001 300.0497)" class="st2 st3 st4">2169</text>
<text transform="matrix(1 -8.827203e-04 8.827203e-04 1 248.2001 292.2997)" class="st2 st3 st4">2167</text>
<text transform="matrix(1 -8.827203e-04 8.827203e-04 1 241.1003 283.7997)" class="st2 st3 st4">2165</text>
<text transform="matrix(1 -8.827203e-04 8.827203e-04 1 233.1999 276.0502)" class="st2 st3 st4">2163</text>
<text transform="matrix(1 -8.827203e-04 8.827203e-04 1 225.5001 268.4497)" class="st2 st3 st4">2161</text>
<text transform="matrix(1 -8.827203e-04 8.827203e-04 1 217.9001 259.4997)" class="st2 st3 st4">2159</text>
<text transform="matrix(1 -8.827203e-04 8.827203e-04 1 209.2001 251.5997)" class="st2 st3 st4">2157</text>
<text transform="matrix(0.6923 -0.7216 0.7216 0.6923 227.3437 228.4435)" class="st2 st3 st19">2171</text>
<text transform="matrix(1 -8.827203e-04 8.827203e-04 1 190.2001 197.9997)" class="st2 st3 st4">2142</text>
<text transform="matrix(1 -8.827203e-04 8.827203e-04 1 172.2001 215.2997)" class="st2 st3 st4">2143</text>
<text transform="matrix(1 -8.827203e-04 8.827203e-04 1 182.1001 190.1997)" class="st2 st3 st4">2140</text>
<text transform="matrix(1 -8.827203e-04 8.827203e-04 1 174.3001 182.6997)" class="st2 st3 st4">2138</text>
<text transform="matrix(1 -8.827203e-04 8.827203e-04 1 166.0001 174.9497)" class="st2 st3 st4">2136</text>
<text transform="matrix(1 -8.827203e-04 8.827203e-04 1 158.2001 166.5997)" class="st2 st3 st4">2134</text>
<text transform="matrix(1 -8.827203e-04 8.827203e-04 1 150.4 158.8)" class="st2 st3 st4">2132</text>
<text transform="matrix(0.7141 -0.7 0.7 0.7141 145 156.5998)" class="st2 st3 st20">2130</text>
<text transform="matrix(1 -8.827203e-04 8.827203e-04 1 139.0001 142.4002)" class="st2 st3 st4">2113</text>
<text transform="matrix(1 -8.827203e-04 8.827203e-04 1 146.1001 134.3002)" class="st2 st3 st4">2115</text>
<text transform="matrix(1 -8.827203e-04 8.827203e-04 1 155.0501 126.5002)" class="st2 st3 st4">2117</text>
<text transform="matrix(1 -8.827203e-04 8.827203e-04 1 162.7001 118.6002)" class="st2 st3 st4">2119</text>
<text transform="matrix(1 -8.827203e-04 8.827203e-04 1 169.4001 110.9698)" class="st2 st3 st4">2121</text>
<text transform="matrix(1 -8.827203e-04 8.827203e-04 1 177.4001 103.3002)" class="st2 st3 st4">2123</text>
<text transform="matrix(1 -8.827203e-04 8.827203e-04 1 185.0376 95.6002)" class="st2 st3 st4">2125</text>
<text transform="matrix(1 -8.827203e-04 8.827203e-04 1 190.8001 76.9002)" class="st2 st3 st4">2127</text>
<text transform="matrix(1 -8.827203e-04 8.827203e-04 1 160.3999 85.4)" class="st2 st3 st4">2120</text>
<text transform="matrix(1 -8.827203e-04 8.827203e-04 1 146.6001 97.0002)" class="st2 st3 st4">2118</text>
<text transform="matrix(1 -8.827203e-04 8.827203e-04 1 137.8002 110.97)" class="st2 st3 st4">2116</text>
<text transform="matrix(1 -8.827199e-04 8.827199e-04 1 129.2027 118.1941)" class="st2 st3 st21">2114</text>
<text transform="matrix(1 -8.827203e-04 8.827203e-04 1 121.5001 124.9502)" class="st2 st3 st4">2112</text>
<text transform="matrix(1 -8.827200e-04 8.827200e-04 1 111.9021 119.1305)" class="st2 st3 st22">2110</text>
<text transform="matrix(1 -8.827203e-04 8.827203e-04 1 103.6001 111.3002)" class="st2 st3 st4">2108</text>
<text transform="matrix(1 -8.827203e-04 8.827203e-04 1 84.2001 94.6002)" class="st2 st3 st4">2102</text>
<text transform="matrix(1 -8.827203e-04 8.827203e-04 1 97.202 139.3002)" class="st2 st3 st4">2111</text>
<text transform="matrix(1 -8.827203e-04 8.827203e-04 1 89.0626 130.7002)" class="st2 st3 st4">2109</text>
<text transform="matrix(1 -8.827203e-04 8.827203e-04 1 80.8501 123.2002)" class="st2 st3 st4">2107</text>
<text transform="matrix(1 -8.827203e-04 8.827203e-04 1 72.3001 115.8002)" class="st2 st3 st4">2105</text>
<text transform="matrix(1 -8.827203e-04 8.827203e-04 1 64.9501 107.7002)" class="st2 st3 st4">2103</text>
<text transform="matrix(1 -8.827203e-04 8.827203e-04 1 55.7501 98.5502)" class="st2 st3 st4">2101</text>
<text transform="matrix(1 -8.827203e-04 8.827203e-04 1 119.7252 142.2002)" class="st0 st3 st4">2100</text>
<text transform="matrix(1 -8.827203e-04 8.827203e-04 1 117.5001 160.8002)" class="st0 st3 st4">2129</text>
<text transform="matrix(0.6985 -0.7532 0.7333 0.6799 271.4447 284.1052)" class="st2 st3 st23">2170</text>
<text transform="matrix(0.7387 0.674 -0.674 0.7387 243.8431 266.4004)" class="st0 st3 st24">2100B</text>
<text transform="matrix(0.4821 0.8761 -0.8761 0.4821 316.5191 28.2092)" class="st25 st26">History and Economics Advising</text>
<text transform="matrix(1 -4.463015e-03 4.463015e-03 1 452.0994 68.5003)" class="st25 st26">Philosophy Faculty Offices</text>
<text transform="matrix(1 -4.463015e-03 4.463015e-03 1 463.7001 226.8008)" class="st25 st26">Sociology Faculty Offices</text>
<text transform="matrix(0.4993 0.8664 -0.8664 0.4993 367.9879 237.2215)" class="st25 st26">DSS Service Center</text>
<text transform="matrix(1 -4.463015e-03 4.463015e-03 1 254.1201 80.8776)" class="st27"><tspan x="0" y="0" class="st25 st26">Andrews </tspan><tspan x="-4.9" y="9.2" class="st25 st26">Conference </tspan><tspan x="6.4" y="18.5" class="st25 st26">Room</tspan></text>
<text transform="matrix(0.6987 -0.7154 0.7154 0.6987 178.2435 129.9342)" class="st27"><tspan x="0" y="0" class="st25 st26">Cheddar </tspan><tspan x="-8.6" y="9.2" class="st25 st26">HR/Personnel</tspan><tspan x="3.6" y="18.5" class="st25 st26">Offices</tspan></text>
<text transform="matrix(0.7154 0.6987 -0.6987 0.7154 99.9239 67.8392)" class="st27"><tspan x="0" y="0" class="st25 st28">ARE </tspan><tspan x="-17.3" y="7" class="st25 st28">Main Conference </tspan><tspan x="-1.3" y="14" class="st25 st28">Room</tspan></text>
<text transform="matrix(1 -4.463015e-03 4.463015e-03 1 119.0998 103.1003)" class="st25 st26">ARE Main Office</text>
</svg>
