<?xml version="1.0" encoding="utf-8"?>
<!-- Generator: Adobe Illustrator 20.0.0, SVG Export Plug-In . SVG Version: 6.00 Build 0)  -->
<svg version="1.1" id="Layer_1" xmlns="http://www.w3.org/2000/svg" xmlns:xlink="http://www.w3.org/1999/xlink" x="0px" y="0px"
	 viewBox="0 0 646 346" style="enable-background:new 0 0 646 346;" xml:space="preserve">
<style type="text/css">
	.st0{fill:none;stroke:#878686;stroke-width:0.709;stroke-linecap:round;stroke-linejoin:round;stroke-miterlimit:10;}
	.st1{fill:none;stroke:#CCCACA;stroke-width:0.709;stroke-linecap:round;stroke-linejoin:round;stroke-miterlimit:10;}
	.st2{fill:none;stroke:#878686;stroke-width:0.774;stroke-linecap:round;stroke-miterlimit:2;}
	.st3{fill:#C6C4C4;}
	.st4{fill:#F9F9F9;}
	.st5{font-family:'Helvetica';}
	.st6{font-size:3.5681px;}
	.st7{font-size:4px;}
	.st8{font-size:3.7589px;}
	.st9{fill:#CCCACA;}
	.st10{fill:#FFFFFF;}
	.st11{font-size:4.1245px;}
	.st12{font-size:2px;}
	.st13{font-size:3px;}
	.st14{font-size:2.2071px;}
	.st15{font-size:1.7986px;}
	.st16{font-size:2.9934px;}
	.st17{font-size:3.4712px;}
	.st18{font-size:3.5905px;}
	.st19{font-size:2.4697px;}
	.st20{font-size:1.4755px;}
	.st21{fill:none;stroke:#878686;stroke-width:2;stroke-miterlimit:10;}
	.st22{fill:none;stroke:#878686;stroke-width:2;stroke-miterlimit:2;}
	.st23{fill:none;stroke:#878686;stroke-width:1.9999;stroke-miterlimit:10;}
	.st24{fill:#878686;}
</style>
<path class="st0" d="M528,168.3h-0.2 M528,168.3v-8.7 M527.8,168.3h0.2 M527.8,159.8v8.5 M522.5,168.3h0.2 M522.5,168.3v-3.2
	 M522.7,168.3h-0.2 M522.7,164.9v3.4 M527.8,160.1h-0.3 M527.8,161.1h-1.3 M527.8,162.1h-2.6 M527.8,163.1h-3.3 M527.8,164.1h-4.4
	 M527.8,165.2h-5.2 M527.8,166.2h-5.2 M527.8,167.2h-5.2 M527.8,168.2h-5.2 M59.3,220.1l0,0.1 M59.5,219.7c-0.1,0.1-0.1,0.3-0.2,0.4
	 M62,219.4c-0.1,0.4-0.3,0.7-0.4,1.1"/>
<path class="st1" d="M86.3,293.9l0.5-0.1 M84.7,220.8c-0.7,1.3-1.4,2.6-2,4 M87.4,222.8c-0.7,1.3-1.4,2.7-2,4 M90.1,224.9
	c-0.7,1.3-1.4,2.7-1.9,4.1 M71,218.3c-0.7,1.5-1.3,3-2,4.5 M74.9,217.8c-0.7,1.5-1.4,2.9-2.1,4.4 M79,217.3c-0.8,1.5-1.6,3-2.3,4.5
	 M61.5,220.5c-0.4,1-0.7,2-1.1,3 M67.1,218.7c-0.7,1.5-1.3,2.9-1.8,4.4 M63.3,219.2c-0.6,1.5-1.2,2.9-1.7,4.4 M65.9,218.8
	c-1.4,3.2-2.6,6.5-3.5,9.8 M78.7,221.6l-18.2,2.1 M82.1,218.6c-0.7,1.3-1.4,2.6-2.1,3.9 M101.6,231.7c-1,1.9-1.8,3.9-2.5,5.9
	 M105.1,232.3c-1.3,2.4-2.4,5-3.1,7.6 M84.2,242.8c-0.2,1.6-0.4,3.1-0.5,4.7 M87.6,243c-0.2,1.6-0.4,3.1-0.5,4.7 M98.1,231.3
	c-0.7,1.4-1.2,2.8-1.8,4.2 M102,261.8c0.5,1.5,1,3,1.6,4.4 M94.3,243.4c-0.3,1.6-0.4,3.1-0.5,4.7 M91,243.2
	c-0.2,1.6-0.4,3.1-0.5,4.7 M101,243.8c-0.3,1.5-0.5,3.1-0.6,4.7 M97.7,243.6c-0.3,1.6-0.5,3.1-0.5,4.7 M77.5,242.5
	c-0.2,1.5-0.4,3.1-0.4,4.6 M80.9,242.7c-0.2,1.6-0.4,3.1-0.5,4.7 M70.9,242.1c-0.2,1.5-0.3,3.1-0.4,4.6 M74.2,242.3
	c-0.2,1.5-0.3,3.1-0.4,4.7 M67.5,241.9c0,0.2-0.1,0.4-0.1,0.6 M67.2,241.9l33.8,1.9 M99,278.4c0.8,1.1,1.6,2.2,2.5,3.2 M101.2,275.6
	c0.8,1.1,1.6,2.2,2.4,3.3 M103.3,272.8c1.1,1.8,2.3,3.4,3.7,5 M105.6,270c1.3,2.3,2.9,4.5,4.7,6.5 M82.8,267.6c0.5,1.5,1,3,1.5,4.4
	 M86,266.6c0.5,1.5,1,3,1.6,4.5 M96.8,281.1c0.8,1.1,1.6,2.2,2.5,3.2 M92.5,286.5c0.8,1.1,1.7,2.1,2.6,3.1 M90.4,289.2
	c0.8,1.1,1.7,2.1,2.6,3.1 M88.3,291.9c0.8,1,1.7,2,2.6,3 M84.3,288.4c1.8,2.6,3.8,5.1,5.9,7.4 M86.8,293.8l18.8-23.8 M94.7,283.8
	c0.8,1.1,1.6,2.1,2.5,3.1 M79.6,268.5c0.5,1.5,1,3,1.5,4.5 M97.2,230.5c-7.8,16.1-5.6,35.4,5.7,49.3 M100.4,231.6
	c-7.6,15.3-5.4,33.6,5.5,46.7 M89.2,265.6c0.5,1.5,1,3,1.6,4.4 M92.4,264.7c0.5,1.5,1,3,1.6,4.5 M104,232c-7.8,14.6-5.7,32.6,5.3,45
	 M95.6,263.7c0.5,1.5,1,3,1.6,4.5 M98.8,262.8c0.5,1.5,1,3,1.6,4.5 M101.9,261.8l-24.7,7.4 M78.9,273.7l24.7-7.4 M83.9,220
	c-13.2,23.7-9.8,53.1,8.5,73.1 M86.5,222.1c-12.1,22.2-8.9,49.6,7.9,68.4 M89.2,224.2c-11,20.7-8.1,46,7.4,63.6 M91.9,226.3
	c-9.9,19.2-7.3,42.5,6.8,58.9 M94.5,228.4c-8.8,17.7-6.4,38.9,6.2,54.1 M95.4,229.2c-0.7,1.3-1.3,2.7-1.8,4.1 M78.7,221.6L102,240
	 M69.7,218.4c-2.3,5-4.1,10.3-5.3,15.7 M73.7,217.9c-3.5,7.1-5.9,14.6-7.1,22.4 M77.6,217.6c-5,9.3-7.8,19.5-8.3,30 M81.2,217.9
	c-6.8,12-9.7,25.8-8.3,39.5 M92.7,227c-0.7,1.3-1.3,2.7-1.9,4.1 M153.3,312.7l6.9,1.2 M153.1,313.7l7.1,1.2 M153.4,311.7l-0.3,2
	 M153.8,309.7l6.4,1.1 M153.6,310.7l6.5,1.1 M153.9,308.7l-0.3,2 M133.7,286.4l2.3,19.2 M132.4,286.8l2.2,18.5 M131.2,287.3
	l2.1,17.8 M131.9,304.9l28.2,5 M129.9,287.7l2.1,17.1 M124.3,289.6l1.7,17.2 M123.1,290l1.6,16.6 M121.8,290.4l1.6,16 M122.1,306.2
	l38.1,6.7 M120.5,290.8l1.5,15.3 M114.7,292.6l1.3,15.6 M113.4,292.9l1.3,15 M112.1,293.3l1.2,14.5 M112,307.5l48.1,8.4
	 M110.9,293.6l1.2,13.9"/>
<path class="st0" d="M101,199.5v0.3 M104.1,197.2v0.2 M104.1,197.2H100 M104.1,197.4v-0.2 M100.1,197.4h4 M104.1,202v-0.2
	 M104.1,202h-1.3 M104.1,201.8v0.2 M102.7,201.8h1.4 M101,197.4v1.4 M102,197.4v3.2 M103,197.4v4.5 M104,197.4v4.5 M200.5,233.6
	l0.1,0.1 M200.5,233.6l2.9-2.9 M200.6,233.8l-0.1-0.1 M203.6,230.8l-3,3 M204.5,237.6l-0.1-0.1 M204.5,237.6l5.2-5.2 M204.3,237.5
	l0.1,0.1 M209.4,232.3l-5.1,5.1 M209.4,232.3L209.4,232.3 M207,231.3l1.7,1.7 M205.5,231.3l2.5,2.5 M203.6,230.8l3.7,3.7
	 M202.9,231.6l3.7,3.7 M202.1,232.3l3.7,3.7 M201.4,233l3.7,3.7 M200.7,233.7l3.7,3.7 M278.2,220.7l-0.1-0.1 M278.2,220.6l-2.3,2.3
	 M278.1,220.5l0.1,0.1 M275.7,222.9l2.4-2.4 M274.5,217l0.1,0.1 M274.5,216.9l-4.7,4.7 M274.7,217.1l-0.1-0.1 M270.1,221.6l4.6-4.6
	 M272.9,222.7l-1.9-1.9 M274.3,222.6l-2.6-2.6 M275.9,222.7l-3.4-3.4 M276.6,222l-3.4-3.4 M277.3,221.3l-3.4-3.4 M278,220.6
	l-3.4-3.4 M250.8,135.8l-1.2,1.2 M249.6,129.6l-0.1,0.1 M249.6,129.6l2.2,2.2 M249.5,129.7l0.1-0.1 M251.8,132l-2.3-2.3
	 M245.7,133.5l0.1-0.1 M245.7,133.5l4.5,4.4 M245.9,133.4l-0.1,0.1 M250.2,137.8l-4.4-4.4 M251.4,135.1l-0.2,0.2 M251.3,133.8
	l-2.5,2.5 M251.7,132l-3.6,3.7 M251,131.2l-3.6,3.7 M250.3,130.5l-3.6,3.7 M249.6,129.8l-3.6,3.7 M352.6,176l-0.2,0.1 M352.6,176
	l-3.4-6 M352.5,176.1l0.2-0.1 M349.1,170.2l3.4,5.9 M347.8,178.8l0.2-0.1 M347.8,178.8l-1.8-3.1 M348,178.7l-0.2,0.1 M346.1,175.5
	l1.9,3.2 M349.4,170.7l-0.8,0.5 M349.9,171.6l-2.2,1.3 M350.4,172.5l-3.8,2.2 M350.9,173.4l-4.5,2.6 M351.4,174.3l-4.5,2.6
	 M351.9,175.1l-4.5,2.6 M352.4,176l-4.5,2.6 M431.6,176.4l0.1,0.2 M431.7,176.4l-5.5,3.2 M431.8,176.6l-0.1-0.2 M426.3,179.7
	l5.4-3.1"/>
<g>
	<path class="st0" d="M434.4,181.2l-0.1-0.2"/>
</g>
<g>
	<path class="st0" d="M434.4,181.2l-2.8,1.6"/>
</g>
<g>
	<path class="st0" d="M434.3,181l0.1,0.2"/>
</g>
<g>
	<path class="st0" d="M431.5,182.7l2.8-1.6"/>
</g>
<g>
	<path class="st0" d="M427.3,179.2l1.3,2.2"/>
</g>
<g>
	<path class="st0" d="M428.2,178.7l1.9,3.2"/>
</g>
<g>
	<path class="st0" d="M429,178.1l2.7,4.6"/>
</g>
<g>
	<path class="st0" d="M429.9,177.6l2.6,4.5"/>
</g>
<g>
	<path class="st0" d="M430.8,177.1l2.6,4.5"/>
</g>
<g>
	<path class="st0" d="M431.7,176.6l2.6,4.5"/>
</g>
<g>
	<path class="st0" d="M507,217.2h-3.5"/>
</g>
<g>
	<path class="st0" d="M508.7,214.2v-1.8"/>
</g>
<g>
	<path class="st0" d="M509.8,212.4h-6.3"/>
</g>
<g>
	<path class="st0" d="M503.5,217.4v-0.2"/>
</g>
<g>
	<path class="st0" d="M503.5,217.4h3.4"/>
</g>
<g>
	<path class="st0" d="M503.5,217.2v0.2"/>
</g>
<g>
	<path class="st0" d="M503.5,212.3v0.2"/>
</g>
<g>
	<path class="st0" d="M503.5,212.3h6.3"/>
</g>
<g>
	<path class="st0" d="M503.5,212.4v-0.2"/>
</g>
<g>
	<path class="st0" d="M508.7,215.5L508.7,215.5"/>
</g>
<g>
	<path class="st0" d="M507.6,216.1v-3.6"/>
</g>
<g>
	<path class="st0" d="M506.6,217.2v-4.7"/>
</g>
<g>
	<path class="st0" d="M505.6,217.2v-4.7"/>
</g>
<g>
	<path class="st0" d="M504.6,217.2v-4.7"/>
</g>
<g>
	<path class="st0" d="M503.6,217.2v-4.7"/>
</g>
<g>
	<path class="st0" d="M490.4,75.3v-8.8"/>
</g>
<g>
	<path class="st0" d="M495.2,89.5h0.2"/>
</g>
<g>
	<path class="st0" d="M495.2,89.5V83"/>
</g>
<g>
	<path class="st0" d="M495.4,89.5h-0.2"/>
</g>
<g>
	<path class="st0" d="M495.4,83v6.5"/>
</g>
<g>
	<path class="st0" d="M521.7,89.5h-0.2"/>
</g>
<g>
	<path class="st0" d="M521.7,89.5V83"/>
</g>
<g>
	<path class="st0" d="M521.5,89.5h0.2"/>
</g>
<g>
	<path class="st0" d="M521.5,83v6.5"/>
</g>
<g>
	<path class="st1" d="M530.7,57.5v17.8 M486.2,75.3V57.5 M495.2,75.3h26.5 M504.5,66.5v-2.2h8.1v2.2 M512.6,65.4h-8.1 M512.6,62.1
		h-8.1 M504.5,63.2V61h8.1v2.2 M512.6,58.7h-8.1 M504.5,59.8v-2.2h8.1v2.2 M491.7,75.3v-8.8 M493,75.3v-8.8 M524.1,75.3v-8.8
		 M525.4,75.3v-8.8 M490.4,75.3v-8.8h36.3v8.8 M489.1,75.3V63.2 M487.8,75.3V63.2 M530.5,63.2h-44 M528,75.3V63.2 M529.2,75.3V63.2"
		/>
	<path class="st1" d="M486.5,75.3V59.8h44v15.5 M486.2,57.5h44.5 M495.4,83.4h26.1 M495.4,84.6h26.1 M495.4,85.8h26.1 M495.4,87
		h26.1 M495.4,88.2h26.1 M495.4,89.4h26.1"/>
</g>
<g>
	<path class="st0" d="M457.6,77.9v0.2"/>
</g>
<g>
	<path class="st0" d="M457.6,77.9h3.4"/>
</g>
<g>
	<path class="st0" d="M457.6,78.1v-0.2"/>
</g>
<g>
	<path class="st0" d="M461.1,78.1h-3.5"/>
</g>
<g>
	<path class="st0" d="M457.6,83.5v-0.2"/>
</g>
<g>
	<path class="st0" d="M457.6,83.5h6.2"/>
</g>
<g>
	<path class="st0" d="M457.6,83.3v0.2"/>
</g>
<g>
	<path class="st0" d="M463.6,83.3h-6.1"/>
</g>
<g>
	<path class="st0" d="M461.8,79.5v3.8"/>
</g>
<g>
	<path class="st0" d="M460.7,78.1v5.2"/>
</g>
<g>
	<path class="st0" d="M459.7,78.1v5.2"/>
</g>
<g>
	<path class="st0" d="M458.7,78.1v5.2"/>
</g>
<g>
	<path class="st0" d="M457.7,78.1v5.2"/>
</g>
<g>
	<path class="st0" d="M316.4,76.7l0.1,0.2"/>
</g>
<g>
	<path class="st0" d="M316.4,76.7l3.2-1.8"/>
</g>
<g>
	<path class="st0" d="M316.5,76.9l-0.1-0.2"/>
</g>
<g>
	<path class="st0" d="M319.8,75l-3.3,1.9"/>
</g>
<g>
	<path class="st0" d="M318.8,80.8l-0.1-0.2"/>
</g>
<g>
	<path class="st0" d="M318.8,80.8l5.4-3.1"/>
</g>
<g>
	<path class="st0" d="M318.7,80.6l0.1,0.2"/>
</g>
<g>
	<path class="st0" d="M322.1,76.1l1.1,1.9"/>
</g>
<g>
	<path class="st0" d="M320.1,74.8l2.2,3.7"/>
</g>
<g>
	<path class="st0" d="M319.2,75.3l2.2,3.7"/>
</g>
<g>
	<path class="st0" d="M318.4,75.8l2.2,3.7"/>
</g>
<g>
	<path class="st0" d="M317.5,76.3l2.2,3.7"/>
</g>
<g>
	<path class="st0" d="M316.6,76.8l2.2,3.7"/>
</g>
<g>
	<path class="st0" d="M209.5,93l1.1,1.2"/>
</g>
<g>
	<path class="st0" d="M203.2,94.1l0.1,0.1"/>
</g>
<g>
	<path class="st0" d="M203.2,94.1l2.2-2.2"/>
</g>
<g>
	<path class="st0" d="M203.4,94.2l-0.1-0.1"/>
</g>
<g>
	<path class="st0" d="M205.7,91.9l-2.3,2.3"/>
</g>
<g>
	<path class="st0" d="M207.1,98l-0.1-0.1"/>
</g>
<g>
	<path class="st0" d="M207.1,98l4.4-4.4"/>
</g>
<g>
	<path class="st0" d="M206.9,97.8l0.1,0.1"/>
</g>
<g>
	<path class="st0" d="M211.3,93.6l-4.3,4.3"/>
</g>
<g>
	<path class="st0" d="M209,92.5l0.4,0.4"/>
</g>
<g>
	<path class="st0" d="M207.5,92.5l2.4,2.5"/>
</g>
<g>
	<path class="st0" d="M205.6,92l3.6,3.6"/>
</g>
<g>
	<path class="st0" d="M204.9,92.7l3.6,3.6"/>
</g>
<g>
	<path class="st0" d="M204.2,93.4l3.6,3.6"/>
</g>
<g>
	<path class="st0" d="M203.4,94.2l3.6,3.6"/>
</g>
<g>
	<path class="st2" d="M526.6,111.3l2.9,0 M527.8,110.1l-1.2,1.2 M527.8,112.5l-1.2-1.2"/>
	<g>
		<path class="st2" d="M529.6,108.3l-2.9,0 M528.4,109.5l1.2-1.2 M528.4,107.1l1.2,1.2"/>
	</g>
</g>
<g>
	<path class="st2" d="M101.6,192.1l2.9,0 M102.8,190.9l-1.2,1.2 M102.8,193.3l-1.2-1.2"/>
	<g>
		<path class="st2" d="M104.6,189.1l-2.9,0 M103.4,190.3l1.2-1.2 M103.4,187.9l1.2,1.2"/>
	</g>
</g>
<g>
	<path class="st2" d="M201.8,226.8l2-2 M201.8,225.1l0,1.7 M203.5,226.8l-1.7,0"/>
	<g>
		<path class="st2" d="M201.8,222.6l-2,2 M201.8,224.2l0-1.7 M200.1,222.6l1.7,0"/>
	</g>
</g>
<g>
	<path class="st2" d="M283.7,52.3l2.5-1.4 M284.1,50.7l-0.4,1.6 M285.3,52.7l-1.6-0.4"/>
</g>
<g>
	<path class="st2" d="M285.9,48.7l-2.5,1.4 M285.4,50.3l0.4-1.6 M284.2,48.2l1.6,0.4"/>
</g>
<g>
	<path class="st2" d="M363,165.8l-1.4-2.5 M361.4,165.3l1.6,0.5 M363.5,164.1l-0.5,1.6"/>
	<g>
		<path class="st2" d="M359,164.6l1.4,2.5 M360.6,165l-1.6-0.5 M358.5,166.2l0.5-1.6"/>
	</g>
</g>
<g>
	<path class="st3" d="M79.8,163.2H52.5V202h40.8v-23.5l-13,2L79.8,163.2z M98.2,184l10.5-1l0.5,5.2H106l0.2-2l-6.2,0.2l-0.2,8.8
		l6.2-0.5l0.5-2h3.5l0.8,4.8L98,197.2L98.2,184z M81.8,216.5l16.2,14l6.2,1l-1-8l6-1.2l-2.5-5l8.8-1.5l-0.5-3L81.8,216.5z
		 M122,211.8v2.8l2,0.2l0.8,6.5l3.5-0.8l-1-9.8L122,211.8z M125.8,228v4l4-0.2l-0.5-4.5L125.8,228z M130.8,272.8l4.2-0.5v3.5
		l-3.8,0.2L130.8,272.8z M89.8,297.8l14-18.5l5.8-2l1.2,8.5l9.5-1.8l-1,6.8L89.8,297.8z M132,282.5l0.2,3.8l3.2-1l-0.2-3.2
		L132,282.5z M113,174.2l10-0.8l10-10.2l-12.2-11.8l-9,9.8L113,174.2z M151.8,197.2l-2.5,2.2l25,25.2l2-2.2l-4.2-4.2l25.2-25.5
		l4,4.2l2.5-2l-25-24.2l-2.2,2.2l4.5,4l-25.2,25L151.8,197.2z M163.5,320.5l-3.5,0.2l0.2-36.8c0,0,42.5-17.2,82.5-58.8l15.8,16.5
		c0,0-30.8,37-95.2,66.2L163.5,320.5z M209,132l-12,12l39.2,39.5L248,171L209,132z M226.2,114.8l-12.2,12l39.8,39.2l16.5-16.5
		l-2.8-3l-4.5,4.8L226.2,114.8z M242,188.2l11.8,12.2l33.8-33.8l-3.8-3.8l-1.8,2.5l-6.5-6l2.6-2.5l-2.6-2.2L242,188.2z M141.8,154.8
		l75.8-75.2l4,4.8l3.2-3l-16-17L130,142.5L141.8,154.8z M94.2,144.2l11,11.2L208.8,53.8l-12-11.5L94.2,144.2z M280.2,66.2l-22-38.2
		l47.5,0.2l15.8,27h-19.2l-11-19l-6.5,3.8l2.2,4.2l-8.8,4.8l4.2,7.5l9-4.8l3.8,5.8L280.2,66.2z M315.2,44h122v31.2L424,75l-0.2-5.2
		h-11.5l-0.2,5.5L378.8,75l0.2-19.2l-57.5-0.5L315.2,44z"/>
	<path class="st3" d="M371.2,75L371,63.2l-46.8,0.5l6,10.5l-12.5,8l9.3,15.8l14.3-9.2l-8.7-14.1L371.2,75z M437.2,100l0.2,9.8l7,7.5
		l17.2-0.2l0.2-16.8L437.2,100z"/>
	<path class="st3" d="M471,100v17l24-0.2L494.8,76l-20-0.2v7.5l-19,0.2V89l27-0.2l0.2,3.5l5-0.2v7.8L471,100z M449.8,92.2l-0.2-16.5
		l-12.2-0.5l-0.5,17.2L449.8,92.2z M328,169.8L310.2,184l19,23.5l19.2,23.2l34-19.5l-17.8-32l-19.2,11.2L328,169.8z M361,153.5
		l2.8,5.8l-10,5.5l-3.8-7L361,153.5z"/>
	<path class="st3" d="M305.5,177.2l-10-12c0,0,12.5-11.5,30.8-22.8s61-23.8,105.8-21.8l7.5,7.2v8.8c0,0-49-3.2-82.5,9.8
		S305.5,177.2,305.5,177.2z"/>
	<path class="st3" d="M439.5,144.2v17.2c0,0-38.5-1.2-62.2,5.2l-4.2-17C373,149.8,392,142.2,439.5,144.2z M376.8,186l19.5,34
		l41.8-24.8h42.8l-0.2-7.8l7.2-0.2l-0.2,8.5h21.9l0.1,7.5l-7.7,0v3l19.8-0.2l-0.2-27.2l-82,0.2l-35,20.5l-12.8-22.2L376.8,186z"/>
	<path class="st3" d="M496.2,203.5v15.8l-56.8-0.2l0.5-16.2h18.2l6.4,0.1v6.4h6.8V203L496.2,203.5z M358,171l2.2-1.5l1.8,3.2
		l-2.8,1.8L358,171z M407.2,190l3.2-2l3,5.5l-3.5,2L407.2,190z M264.6,92.6l-11.2,6.6l40.2,40.5c0,0,28.2-21.7,59.4-30.5l-8.8-14.2
		l-52.4,30.5c0,0-4.2-10.4-13-19S264.6,92.6,264.6,92.6L264.6,92.6z"/>
</g>
<text transform="matrix(1 -8.827222e-04 8.827222e-04 1 174.6473 200.4999)" class="st4 st5 st6">0128</text>
<g>
	<text transform="matrix(1 -8.827226e-04 8.827226e-04 1 335.3751 50.5831)" class="st4 st5 st7">0222</text>
	<text transform="matrix(1 -8.827219e-04 8.827219e-04 1 473.2566 109.2185)" class="st4 st5 st8">0239</text>
	<text transform="matrix(1 -8.827219e-04 8.827219e-04 1 439.8816 109.2183)" class="st4 st5 st8">0235</text>
	<text transform="matrix(1 -8.827226e-04 8.827226e-04 1 413.5001 59.6251)" class="st4 st5 st7">0233</text>
	<text transform="matrix(1 -8.827226e-04 8.827226e-04 1 319.1251 116.1251)" class="st4 st5 st7">0209</text>
	<g>
		<text transform="matrix(1 -8.827226e-04 8.827226e-04 1 295.5001 100.0501)" class="st9 st5 st7">0201</text>
	</g>
	<g>
		<path class="st10" d="M247,190.1c0-0.3,0-0.6,0.1-0.8c0.1-0.2,0.2-0.4,0.3-0.5c0.2-0.1,0.3-0.2,0.5-0.2c0.1,0,0.3,0,0.4,0.1
			c0.1,0.1,0.2,0.2,0.3,0.3c0.1,0.1,0.1,0.3,0.2,0.4c0,0.2,0.1,0.4,0.1,0.7c0,0.3,0,0.6-0.1,0.8s-0.2,0.4-0.3,0.5
			c-0.2,0.1-0.3,0.2-0.5,0.2c-0.3,0-0.5-0.1-0.7-0.3C247.1,191.1,247,190.7,247,190.1L247,190.1z M247.3,190.1c0,0.5,0.1,0.8,0.2,1
			c0.1,0.2,0.2,0.2,0.4,0.2c0.2,0,0.3-0.1,0.4-0.2c0.1-0.2,0.2-0.5,0.2-1c0-0.5-0.1-0.8-0.2-1c-0.1-0.2-0.3-0.2-0.4-0.2
			c-0.2,0-0.3,0.1-0.4,0.2C247.4,189.3,247.3,189.7,247.3,190.1L247.3,190.1z M250.6,191.6h-0.4v-2.3c-0.2,0.2-0.5,0.3-0.7,0.4v-0.3
			c0.2-0.1,0.4-0.2,0.5-0.3c0.1-0.1,0.3-0.3,0.3-0.4h0.2L250.6,191.6L250.6,191.6z M252.6,191.6v-0.7h-1.3v-0.3l1.3-1.9h0.3v1.9h0.4
			v0.3H253v0.7H252.6L252.6,191.6z M252.6,190.5v-1.3l-0.9,1.3L252.6,190.5L252.6,190.5z M255.1,191.6h-0.4v-2.3
			c-0.2,0.2-0.5,0.3-0.7,0.4v-0.3c0.2-0.1,0.4-0.2,0.5-0.3c0.1-0.1,0.3-0.3,0.3-0.4h0.2L255.1,191.6L255.1,191.6z"/>
	</g>
	<text transform="matrix(1 -8.827216e-04 8.827216e-04 1 387.1331 156.0502)" class="st4 st5 st11">0259</text>
	<text transform="matrix(1 -8.827216e-04 8.827216e-04 1 429.2486 131.1296)" class="st4 st5 st11">0266</text>
	<text transform="matrix(1 -8.827216e-04 8.827216e-04 1 406.4166 129.9462)" class="st4 st5 st11">0262</text>
	<text transform="matrix(1 -8.827216e-04 8.827216e-04 1 300.2526 168.7961)" class="st4 st5 st11">0242</text>
	<text transform="matrix(1 -8.827216e-04 8.827216e-04 1 459.7526 188.6908)" class="st4 st5 st11">0288</text>
	<text transform="matrix(1 -8.827216e-04 8.827216e-04 1 417.0859 198.2128)" class="st4 st5 st11">0280</text>
	<g>
		<path class="st9" d="M124,256.6c-0.3,0-0.6,0-0.8-0.1c-0.2-0.1-0.4-0.2-0.5-0.3c-0.1-0.2-0.2-0.3-0.2-0.5c0-0.3,0.1-0.6,0.4-0.7
			c0.1-0.1,0.3-0.1,0.4-0.2c0.2,0,0.4-0.1,0.7-0.1c0.3,0,0.6,0,0.8,0.1s0.4,0.2,0.5,0.3c0.1,0.1,0.2,0.3,0.2,0.5
			c0,0.3-0.1,0.5-0.3,0.7C124.9,256.5,124.5,256.6,124,256.6L124,256.6z M124,256.2c0.5,0,0.8-0.1,1-0.2c0.2-0.1,0.2-0.2,0.2-0.4
			s-0.1-0.3-0.2-0.4c-0.2-0.1-0.5-0.2-1-0.2c-0.5,0-0.8,0.1-1,0.2s-0.2,0.3-0.2,0.4c0,0.2,0.1,0.3,0.2,0.4
			C123.1,256.1,123.5,256.2,124,256.2L124,256.2z M125.4,252.9v0.4h-2.3c0.2,0.2,0.3,0.5,0.4,0.7h-0.3c-0.1-0.2-0.2-0.4-0.3-0.5
			c-0.1-0.1-0.2-0.2-0.4-0.3v-0.2L125.4,252.9L125.4,252.9z M124,252c-0.3,0-0.6,0-0.8-0.1s-0.4-0.2-0.5-0.3s-0.2-0.3-0.2-0.5
			c0-0.2,0-0.3,0.1-0.4c0.1-0.1,0.2-0.2,0.3-0.3c0.1-0.1,0.3-0.1,0.4-0.2s0.4-0.1,0.7-0.1c0.3,0,0.6,0,0.8,0.1s0.4,0.2,0.5,0.3
			c0.1,0.2,0.2,0.3,0.2,0.5c0,0.3-0.1,0.5-0.3,0.7C124.9,251.9,124.5,252,124,252L124,252z M124,251.7c0.5,0,0.8-0.1,1-0.2
			c0.2-0.1,0.2-0.2,0.2-0.4c0-0.2-0.1-0.3-0.2-0.4c-0.2-0.1-0.5-0.2-1-0.2c-0.5,0-0.8,0.1-1,0.2c-0.2,0.1-0.2,0.3-0.2,0.4
			c0,0.2,0.1,0.3,0.2,0.4C123.1,251.6,123.5,251.7,124,251.7z M124,249.8c-0.3,0-0.6,0-0.8-0.1c-0.2-0.1-0.4-0.2-0.5-0.3
			s-0.2-0.3-0.2-0.5c0-0.1,0-0.3,0.1-0.4c0.1-0.1,0.2-0.2,0.3-0.3c0.1-0.1,0.3-0.1,0.4-0.2c0.2,0,0.4-0.1,0.7-0.1
			c0.3,0,0.6,0,0.8,0.1s0.4,0.2,0.5,0.3c0.1,0.1,0.2,0.3,0.2,0.5c0,0.3-0.1,0.5-0.3,0.7C124.9,249.7,124.5,249.8,124,249.8
			L124,249.8z M124,249.4c0.5,0,0.8-0.1,1-0.2c0.2-0.1,0.2-0.3,0.2-0.4c0-0.2-0.1-0.3-0.2-0.4c-0.2-0.1-0.5-0.2-1-0.2
			c-0.5,0-0.8,0.1-1,0.2c-0.2,0.1-0.2,0.3-0.2,0.4c0,0.2,0.1,0.3,0.2,0.4C123.1,249.3,123.5,249.4,124,249.4L124,249.4z"/>
	</g>
	<g>
		<path class="st10" d="M52,163.4L52,163.4L52,163.4L52,163.4L52,163.4L52,163.4L52,163.4L52,163.4L52,163.4z M52.1,163.3
			L52.1,163.3L52.1,163.3C52.1,163.3,52.1,163.3,52.1,163.3C52.1,163.3,52.1,163.3,52.1,163.3C52.1,163.3,52.1,163.3,52.1,163.3
			C52.1,163.3,52.1,163.3,52.1,163.3C52.1,163.3,52.1,163.3,52.1,163.3C52.1,163.3,52.1,163.3,52.1,163.3
			C52.1,163.3,52.1,163.3,52.1,163.3L52.1,163.3L52.1,163.3L52.1,163.3L52.1,163.3L52.1,163.3z M52.1,163.3L52.1,163.3L52.1,163.3
			C52.1,163.3,52.1,163.3,52.1,163.3L52.1,163.3C52.1,163.3,52.1,163.3,52.1,163.3L52.1,163.3L52.1,163.3L52.1,163.3L52.1,163.3
			L52.1,163.3z M52.1,163.3L52.1,163.3C52.1,163.3,52.1,163.3,52.1,163.3L52.1,163.3C52.1,163.3,52.1,163.3,52.1,163.3L52.1,163.3
			C52.1,163.3,52.1,163.3,52.1,163.3L52.1,163.3C52.1,163.3,52.1,163.3,52.1,163.3z M52.2,163.3L52.2,163.3L52.2,163.3L52.2,163.3
			L52.2,163.3C52.2,163.3,52.2,163.3,52.2,163.3C52.2,163.3,52.2,163.3,52.2,163.3C52.1,163.3,52.1,163.3,52.2,163.3
			C52.1,163.3,52.1,163.3,52.2,163.3C52.1,163.3,52.1,163.3,52.2,163.3C52.1,163.3,52.1,163.3,52.2,163.3
			C52.2,163.3,52.2,163.3,52.2,163.3C52.2,163.3,52.2,163.3,52.2,163.3C52.2,163.3,52.2,163.3,52.2,163.3
			C52.2,163.3,52.2,163.3,52.2,163.3L52.2,163.3C52.2,163.3,52.2,163.3,52.2,163.3L52.2,163.3C52.2,163.3,52.2,163.3,52.2,163.3
			C52.2,163.3,52.2,163.3,52.2,163.3L52.2,163.3L52.2,163.3C52.1,163.3,52.1,163.3,52.2,163.3C52.1,163.3,52.1,163.3,52.2,163.3
			C52.2,163.3,52.2,163.3,52.2,163.3C52.2,163.3,52.2,163.3,52.2,163.3C52.2,163.3,52.2,163.3,52.2,163.3L52.2,163.3L52.2,163.3
			L52.2,163.3L52.2,163.3z M52.2,163.4L52.2,163.4L52.2,163.4L52.2,163.4L52.2,163.4L52.2,163.4L52.2,163.4L52.2,163.4L52.2,163.4
			L52.2,163.4z M52.2,163.3C52.2,163.3,52.2,163.3,52.2,163.3C52.2,163.3,52.2,163.3,52.2,163.3C52.3,163.3,52.3,163.3,52.2,163.3
			C52.3,163.3,52.3,163.3,52.2,163.3C52.3,163.3,52.3,163.3,52.2,163.3L52.2,163.3C52.3,163.3,52.3,163.3,52.2,163.3
			C52.3,163.3,52.3,163.3,52.2,163.3C52.3,163.3,52.3,163.3,52.2,163.3C52.3,163.3,52.3,163.3,52.2,163.3
			C52.2,163.3,52.2,163.3,52.2,163.3L52.2,163.3z M52.3,163.3C52.3,163.3,52.3,163.3,52.3,163.3C52.3,163.3,52.3,163.3,52.3,163.3
			C52.3,163.3,52.3,163.3,52.3,163.3C52.3,163.3,52.3,163.3,52.3,163.3C52.3,163.3,52.3,163.3,52.3,163.3
			C52.3,163.3,52.3,163.3,52.3,163.3C52.3,163.3,52.3,163.3,52.3,163.3C52.3,163.3,52.3,163.3,52.3,163.3z M52.3,163.3
			C52.3,163.3,52.3,163.3,52.3,163.3C52.3,163.3,52.3,163.3,52.3,163.3C52.3,163.3,52.3,163.3,52.3,163.3
			C52.3,163.3,52.3,163.3,52.3,163.3L52.3,163.3C52.3,163.3,52.3,163.3,52.3,163.3C52.3,163.3,52.3,163.3,52.3,163.3
			C52.3,163.3,52.3,163.3,52.3,163.3C52.3,163.3,52.3,163.3,52.3,163.3C52.3,163.3,52.3,163.3,52.3,163.3
			C52.3,163.3,52.3,163.3,52.3,163.3L52.3,163.3z M52.3,163.3C52.3,163.3,52.3,163.3,52.3,163.3C52.3,163.3,52.3,163.3,52.3,163.3
			C52.3,163.3,52.3,163.3,52.3,163.3C52.3,163.3,52.3,163.3,52.3,163.3C52.3,163.3,52.3,163.3,52.3,163.3
			C52.3,163.3,52.3,163.3,52.3,163.3C52.3,163.3,52.3,163.3,52.3,163.3C52.3,163.3,52.3,163.3,52.3,163.3z M52.4,163.3
			C52.4,163.3,52.4,163.3,52.4,163.3C52.4,163.3,52.4,163.3,52.4,163.3C52.4,163.3,52.4,163.3,52.4,163.3
			C52.4,163.3,52.4,163.3,52.4,163.3C52.4,163.3,52.4,163.3,52.4,163.3L52.4,163.3C52.4,163.3,52.4,163.3,52.4,163.3
			C52.4,163.3,52.4,163.3,52.4,163.3C52.4,163.3,52.4,163.3,52.4,163.3C52.4,163.3,52.4,163.3,52.4,163.3
			C52.4,163.3,52.4,163.3,52.4,163.3L52.4,163.3z M52.4,163.3C52.4,163.3,52.4,163.3,52.4,163.3C52.4,163.3,52.4,163.3,52.4,163.3
			C52.4,163.3,52.4,163.3,52.4,163.3C52.4,163.3,52.4,163.3,52.4,163.3C52.4,163.3,52.4,163.3,52.4,163.3
			C52.4,163.3,52.4,163.3,52.4,163.3C52.4,163.3,52.4,163.3,52.4,163.3C52.4,163.3,52.4,163.3,52.4,163.3L52.4,163.3z M52.4,163.3
			C52.4,163.3,52.4,163.3,52.4,163.3C52.4,163.3,52.4,163.3,52.4,163.3C52.4,163.3,52.4,163.3,52.4,163.3
			C52.4,163.3,52.4,163.3,52.4,163.3C52.4,163.3,52.5,163.3,52.4,163.3L52.4,163.3C52.5,163.3,52.5,163.3,52.4,163.3L52.4,163.3
			C52.4,163.3,52.4,163.3,52.4,163.3C52.4,163.3,52.4,163.3,52.4,163.3C52.4,163.3,52.4,163.3,52.4,163.3L52.4,163.3z M52.4,163.3
			C52.4,163.3,52.4,163.3,52.4,163.3C52.4,163.3,52.4,163.3,52.4,163.3C52.4,163.3,52.4,163.3,52.4,163.3
			C52.4,163.3,52.5,163.3,52.4,163.3C52.5,163.3,52.4,163.3,52.4,163.3C52.4,163.3,52.4,163.3,52.4,163.3
			C52.4,163.3,52.4,163.3,52.4,163.3C52.4,163.3,52.4,163.3,52.4,163.3z"/>
	</g>
	<g>
		<text transform="matrix(1 -8.827226e-04 8.827226e-04 1 114.3531 171.8875)" class="st4 st5 st12">0101</text>
	</g>
	<text transform="matrix(1 -8.827226e-04 8.827226e-04 1 293.0651 32.9268)" class="st4 st5 st7">0216</text>
	<g>
		<path class="st9" d="M250,89.7c0-0.3,0-0.5,0.1-0.7c0-0.2,0.1-0.3,0.3-0.4c0.1-0.1,0.3-0.1,0.4-0.1c0.1,0,0.2,0,0.3,0.1
			c0.1,0.1,0.2,0.1,0.2,0.2c0.1,0.1,0.1,0.2,0.1,0.3c0,0.1,0.1,0.3,0.1,0.6c0,0.3,0,0.5-0.1,0.7c0,0.2-0.1,0.3-0.3,0.4
			c-0.1,0.1-0.3,0.1-0.4,0.1c-0.2,0-0.4-0.1-0.5-0.2C250,90.5,250,90.2,250,89.7z M250.3,89.7c0,0.4,0,0.6,0.1,0.8
			c0.1,0.1,0.2,0.2,0.3,0.2s0.2-0.1,0.3-0.2s0.1-0.4,0.1-0.8c0-0.4,0-0.6-0.1-0.8c-0.1-0.1-0.2-0.2-0.3-0.2c-0.1,0-0.2,0.1-0.3,0.2
			C250.3,89.1,250.3,89.3,250.3,89.7z M253.3,90.6v0.3h-1.5c0-0.1,0-0.1,0-0.2c0-0.1,0.1-0.2,0.2-0.3c0.1-0.1,0.2-0.2,0.4-0.4
			c0.3-0.2,0.4-0.4,0.5-0.5s0.1-0.2,0.1-0.3c0-0.1,0-0.2-0.1-0.3s-0.2-0.1-0.3-0.1c-0.1,0-0.2,0-0.3,0.1c-0.1,0.1-0.1,0.2-0.1,0.3
			l-0.3,0c0-0.2,0.1-0.4,0.2-0.5s0.3-0.2,0.5-0.2c0.2,0,0.4,0.1,0.5,0.2s0.2,0.3,0.2,0.5c0,0.1,0,0.2-0.1,0.3c0,0.1-0.1,0.2-0.2,0.3
			c-0.1,0.1-0.2,0.2-0.4,0.4c-0.2,0.1-0.3,0.2-0.3,0.3s-0.1,0.1-0.1,0.2L253.3,90.6L253.3,90.6z M253.6,89.7c0-0.3,0-0.5,0.1-0.7
			c0-0.2,0.1-0.3,0.3-0.4c0.1-0.1,0.3-0.1,0.4-0.1c0.1,0,0.2,0,0.3,0.1c0.1,0.1,0.2,0.1,0.2,0.2c0.1,0.1,0.1,0.2,0.1,0.3
			c0,0.1,0.1,0.3,0.1,0.6c0,0.3,0,0.5-0.1,0.7c0,0.2-0.1,0.3-0.3,0.4c-0.1,0.1-0.3,0.1-0.4,0.1c-0.2,0-0.4-0.1-0.5-0.2
			C253.7,90.5,253.6,90.2,253.6,89.7L253.6,89.7z M253.9,89.7c0,0.4,0,0.6,0.1,0.8c0.1,0.1,0.2,0.2,0.3,0.2s0.2-0.1,0.3-0.2
			s0.1-0.4,0.1-0.8c0-0.4,0-0.6-0.1-0.8c-0.1-0.1-0.2-0.2-0.3-0.2c-0.1,0-0.2,0.1-0.3,0.2C253.9,89.1,253.9,89.3,253.9,89.7
			L253.9,89.7z M255.4,89.7c0-0.3,0-0.5,0.1-0.7c0-0.2,0.1-0.3,0.3-0.4c0.1-0.1,0.3-0.1,0.4-0.1c0.1,0,0.2,0,0.3,0.1
			c0.1,0.1,0.2,0.1,0.2,0.2c0.1,0.1,0.1,0.2,0.1,0.3c0,0.1,0.1,0.3,0.1,0.6c0,0.3,0,0.5-0.1,0.7c0,0.2-0.1,0.3-0.3,0.4
			c-0.1,0.1-0.3,0.1-0.4,0.1c-0.2,0-0.4-0.1-0.5-0.2C255.5,90.5,255.4,90.2,255.4,89.7L255.4,89.7z M255.7,89.7c0,0.4,0,0.6,0.1,0.8
			c0.1,0.1,0.2,0.2,0.3,0.2s0.2-0.1,0.3-0.2s0.1-0.4,0.1-0.8c0-0.4,0-0.6-0.1-0.8c-0.1-0.1-0.2-0.2-0.3-0.2c-0.1,0-0.2,0.1-0.3,0.2
			C255.8,89.1,255.7,89.3,255.7,89.7z"/>
	</g>
	<g>
		<path d="M482.8,296.8h3.6v0.7h-2.8v2.2h2.5v0.7h-2.5v3h-0.9V296.8L482.8,296.8z M487.6,296.8h0.9v6h2.9v0.7h-3.8V296.8
			L487.6,296.8z M497.7,300.1c0,2.3-1.4,3.5-3.1,3.5c-1.8,0-3-1.4-3-3.4c0-2.1,1.3-3.5,3.1-3.5C496.5,296.6,497.7,298.1,497.7,300.1
			z M492.5,300.2c0,1.5,0.8,2.7,2.2,2.7s2.2-1.3,2.2-2.8c0-1.3-0.7-2.7-2.1-2.7S492.5,298.7,492.5,300.2L492.5,300.2z M504.6,300.1
			c0,2.3-1.4,3.5-3.1,3.5c-1.8,0-3-1.4-3-3.4c0-2.1,1.3-3.5,3.1-3.5C503.4,296.6,504.6,298.1,504.6,300.1L504.6,300.1z M499.4,300.2
			c0,1.5,0.8,2.7,2.2,2.7s2.2-1.3,2.2-2.8c0-1.3-0.7-2.7-2.1-2.7S499.4,298.7,499.4,300.2L499.4,300.2z M505.7,296.9
			c0.4-0.1,1.1-0.1,1.7-0.1c0.9,0,1.5,0.2,1.9,0.5c0.3,0.3,0.5,0.8,0.5,1.3c0,0.9-0.6,1.5-1.3,1.7v0c0.5,0.2,0.8,0.7,1,1.4
			c0.2,0.9,0.4,1.6,0.5,1.8h-0.9c-0.1-0.2-0.3-0.8-0.4-1.6c-0.2-0.9-0.6-1.3-1.4-1.3h-0.8v2.9h-0.9V296.9L505.7,296.9z M506.6,299.9
			h0.9c0.9,0,1.5-0.5,1.5-1.3c0-0.9-0.6-1.2-1.5-1.2c-0.4,0-0.7,0-0.9,0.1L506.6,299.9L506.6,299.9z M517.3,300.2
			c0,2.2-0.8,3.4-2.3,3.4c-1.3,0-2.1-1.2-2.2-3.3c0-2.2,1-3.4,2.3-3.4C516.5,296.9,517.3,298.1,517.3,300.2L517.3,300.2z
			 M513.7,300.3c0,1.7,0.5,2.6,1.3,2.6c0.9,0,1.3-1,1.3-2.7c0-1.6-0.4-2.6-1.3-2.6C514.3,297.6,513.7,298.5,513.7,300.3L513.7,300.3
			z"/>
	</g>
	<text transform="matrix(1 -8.827226e-04 8.827226e-04 1 62.3131 184.0775)" class="st4 st5 st7">0160</text>
	<text transform="matrix(1 -8.827226e-04 8.827226e-04 1 54.2501 200.1375)" class="st4 st5 st12">0160A</text>
	<text transform="matrix(1 -8.827226e-04 8.827226e-04 1 120.4361 164.7498)" class="st4 st5 st7">0105</text>
	<text transform="matrix(1 -8.827226e-04 8.827226e-04 1 115.6864 130.3138)" class="st4 st5 st7">0104</text>
	<text transform="matrix(1 -8.827226e-04 8.827226e-04 1 136.3945 111.6248)" class="st4 st5 st7">0106</text>
	<text transform="matrix(1 -8.827226e-04 8.827226e-04 1 162.2049 86.0403)" class="st4 st5 st7">0118</text>
	<text transform="matrix(1 -8.827226e-04 8.827226e-04 1 170.3749 78.2688)" class="st4 st5 st7">0120</text>
	<text transform="matrix(1 -8.827226e-04 8.827226e-04 1 177.707 69.3738)" class="st4 st5 st7">0122</text>
	<text transform="matrix(1 -8.827226e-04 8.827226e-04 1 186.5624 61.6238)" class="st4 st5 st7">0124</text>
	<text transform="matrix(1 -8.827226e-04 8.827226e-04 1 194.5231 53.9998)" class="st4 st5 st7">0126</text>
	<text transform="matrix(1 -8.827226e-04 8.827226e-04 1 135.457 146.1238)" class="st4 st5 st7">0107</text>
	<text transform="matrix(1 -8.827226e-04 8.827226e-04 1 143.4204 138.4018)" class="st4 st5 st7">0109</text>
	<text transform="matrix(1 -8.827226e-04 8.827226e-04 1 150.8749 130.3136)" class="st4 st5 st7">0111</text>
	<text transform="matrix(1 -8.827226e-04 8.827226e-04 1 158.6829 122.6238)" class="st4 st5 st7">0113</text>
	<text transform="matrix(1 -8.827226e-04 8.827226e-04 1 166.9059 114.6658)" class="st4 st5 st7">0115</text>
	<text transform="matrix(1 -8.827226e-04 8.827226e-04 1 182.5195 99.2488)" class="st4 st5 st7">0119</text>
	<text transform="matrix(1 -8.827226e-04 8.827226e-04 1 190.582 91.7598)" class="st4 st5 st7">0121</text>
	<text transform="matrix(1 -8.827226e-04 8.827226e-04 1 205.9359 76.0178)" class="st4 st5 st7">0125</text>
	<text transform="matrix(1 -8.827226e-04 8.827226e-04 1 220.2509 125.9163)" class="st4 st5 st7">0130</text>
	<text transform="matrix(1 -8.827226e-04 8.827226e-04 1 227.6079 134.1973)" class="st4 st5 st7">0132</text>
	<text transform="matrix(1 -8.827226e-04 8.827226e-04 1 235.8749 142.0528)" class="st4 st5 st7">0134</text>
	<text transform="matrix(1 -8.827226e-04 8.827226e-04 1 249.1884 170.6251)" class="st3 st5 st7">0004</text>
	<text transform="matrix(1 -8.827226e-04 8.827226e-04 1 255.0441 184.0776)" class="st4 st5 st7">0143</text>
	<text transform="matrix(1 -8.827226e-04 8.827226e-04 1 263.1537 175.9685)" class="st4 st5 st7">0145</text>
	<text transform="matrix(1 -8.827226e-04 8.827226e-04 1 271.1671 168.6071)" class="st4 st5 st7">0147</text>
	<text transform="matrix(1 -8.827226e-04 8.827226e-04 1 257.7501 100.7451)" class="st4 st5 st7">0202</text>
	<text transform="matrix(1 -8.827226e-04 8.827226e-04 1 264.4291 107.45)" class="st4 st5 st7">0203</text>
	<text transform="matrix(1 -8.827226e-04 8.827226e-04 1 271.4411 114.6659)" class="st4 st5 st7">0204</text>
	<text transform="matrix(1 -8.827226e-04 8.827226e-04 1 283.7351 127.2501)" class="st4 st5 st12">0205A</text>
	<text transform="matrix(1 -8.827226e-04 8.827226e-04 1 289.0704 133.6251)" class="st4 st5 st7">0206</text>
	<text transform="matrix(1 -8.827226e-04 8.827226e-04 1 299.4341 126.9471)" class="st4 st5 st7">0207</text>
	<text transform="matrix(1 -8.827226e-04 8.827226e-04 1 309.5626 121.0751)" class="st4 st5 st7">0208</text>
	<text transform="matrix(1 -8.827226e-04 8.827226e-04 1 339.7951 105.9141)" class="st4 st5 st7">0211</text>
	<text transform="matrix(1 -8.827226e-04 8.827226e-04 1 322.2911 82.9268)" class="st4 st5 st7">0213</text>
	<text transform="matrix(1 -8.827226e-04 8.827226e-04 1 293.1954 66.2501)" class="st9 st5 st7">0001</text>
	<text transform="matrix(1 -8.827226e-04 8.827226e-04 1 332.0001 70.6251)" class="st4 st5 st7">0221</text>
	<text transform="matrix(1 -8.827226e-04 8.827226e-04 1 346.4454 70.4161)" class="st4 st5 st7">0223</text>
	<text transform="matrix(1 -8.827226e-04 8.827226e-04 1 360.8372 70.6251)" class="st4 st5 st7">0227</text>
	<text transform="matrix(1 -8.827226e-04 8.827226e-04 1 384.3204 62.3018)" class="st4 st5 st7">0232</text>
	<text transform="matrix(1 -8.827226e-04 8.827226e-04 1 368.3204 50.2826)" class="st4 st5 st7">0230</text>
	<text transform="matrix(1 -8.827226e-04 8.827226e-04 1 354.1881 50.4937)" class="st4 st5 st7">0226</text>
	<text transform="matrix(1 -8.827226e-04 8.827226e-04 1 318.9791 49.1671)" class="st4 st5 st7">0220</text>
	<text transform="matrix(1 -8.827226e-04 8.827226e-04 1 301.2501 47.2441)" class="st4 st5 st7">0217</text>
	<text transform="matrix(1 -8.827226e-04 8.827226e-04 1 269.1954 37.1671)" class="st4 st5 st7">0215</text>
	<text transform="matrix(1 -8.827226e-04 8.827226e-04 1 282.7921 60.5841)" class="st4 st5 st13">0214</text>
	<text transform="matrix(1 -8.827226e-04 8.827226e-04 1 311.3131 52.2941)" class="st4 st5 st13">0219</text>
	<text transform="matrix(1 -8.827226e-04 8.827226e-04 1 305.3205 54.1247)" class="st4 st5 st12">0218</text>
	<text transform="matrix(1 -8.827226e-04 8.827226e-04 1 438.5001 85.0671)" class="st4 st5 st7">0234</text>
	<text transform="matrix(1 -8.827219e-04 8.827219e-04 1 457.4353 87.4551)" class="st4 st5 st14">0236</text>
	<text transform="matrix(1 -8.827219e-04 8.827219e-04 1 476.3197 80.9401)" class="st4 st5 st15">0238A</text>
	<text transform="matrix(1 -8.827223e-04 8.827223e-04 1 475.5037 87.1122)" class="st4 st5 st16">0238</text>
	<text transform="matrix(1 -8.827223e-04 8.827223e-04 1 486.2257 89.9872)" class="st4 st5 st16">0240</text>
	<text transform="matrix(1 -8.827223e-04 8.827223e-04 1 486.9998 105.914)" class="st4 st5 st16">0241</text>
	<text transform="matrix(1 -8.827219e-04 8.827219e-04 1 451.6941 109.2183)" class="st4 st5 st8">0237</text>
	<text transform="matrix(1 -8.827219e-04 8.827219e-04 1 464.9057 95.281)" class="st3 st5 st8">0002</text>
	<text transform="matrix(1 -8.827216e-04 8.827216e-04 1 309.6256 161.9382)" class="st4 st5 st11">0244</text>
	<text transform="matrix(1 -8.827216e-04 8.827216e-04 1 319.9196 155.6252)" class="st4 st5 st11">0246</text>
	<text transform="matrix(1 -8.827216e-04 8.827216e-04 1 329.1882 149.6595)" class="st4 st5 st11">0248</text>
	<text transform="matrix(1 -8.827216e-04 8.827216e-04 1 339.9362 144.6252)" class="st4 st5 st11">0250</text>
	<text transform="matrix(1 -8.827216e-04 8.827216e-04 1 361.0539 137.0302)" class="st4 st5 st11">0254</text>
	<text transform="matrix(1 -8.827216e-04 8.827216e-04 1 372.1121 134.1975)" class="st4 st5 st11">0256</text>
	<text transform="matrix(1 -8.827216e-04 8.827216e-04 1 383.6506 132.6294)" class="st4 st5 st11">0258</text>
	<text transform="matrix(1 -8.827216e-04 8.827216e-04 1 395.1506 131.1294)" class="st4 st5 st11">0260</text>
	<text transform="matrix(1 -8.827216e-04 8.827216e-04 1 418.0836 129.6872)" class="st4 st5 st11">0264</text>
	<text transform="matrix(1 -8.827216e-04 8.827216e-04 1 375.7512 157.8752)" class="st4 st5 st11">0257</text>
	<text transform="matrix(1 -8.827216e-04 8.827216e-04 1 397.4105 155.0634)" class="st4 st5 st11">0261</text>
	<text transform="matrix(1 -8.827216e-04 8.827216e-04 1 418.0836 154.4582)" class="st4 st5 st11">0265</text>
	<text transform="matrix(1 -8.827216e-04 8.827216e-04 1 429.0921 154.4582)" class="st4 st5 st11">0267</text>
	<text transform="matrix(1 -8.827216e-04 8.827216e-04 1 368.321 177.7282)" class="st3 st5 st11">0003</text>
	<text transform="matrix(1 -8.827216e-04 8.827216e-04 1 320.1676 179.8747)" class="st4 st5 st11">0243</text>
	<text transform="matrix(1 -8.827216e-04 8.827216e-04 1 327.7526 188.6402)" class="st4 st5 st11">0245</text>
	<text transform="matrix(1 -8.827216e-04 8.827216e-04 1 334.2506 197.5842)" class="st4 st5 st11">0247</text>
	<text transform="matrix(1 -8.827216e-04 8.827216e-04 1 338.7506 205.6672)" class="st4 st5 st11">0251</text>
	<text transform="matrix(1 -8.827216e-04 8.827216e-04 1 354.0594 215.9187)" class="st4 st5 st11">0273</text>
	<text transform="matrix(1 -8.827216e-04 8.827216e-04 1 353.9386 191.6252)" class="st4 st5 st11">0249</text>
	<text transform="matrix(1 -8.827216e-04 8.827216e-04 1 386.5001 194.1672)" class="st4 st5 st11">0270</text>
	<text transform="matrix(1 -8.827216e-04 8.827216e-04 1 511.2526 194.1674)" class="st4 st5 st11">0296</text>
	<text transform="matrix(1 -8.827216e-04 8.827216e-04 1 499.5637 188.4957)" class="st4 st5 st11">0294</text>
	<text transform="matrix(1 -8.827216e-04 8.827216e-04 1 482.7526 213.3012)" class="st4 st5 st11">0289</text>
	<text transform="matrix(1 -8.827216e-04 8.827216e-04 1 488.7526 188.4587)" class="st4 st5 st11">0292</text>
	<text transform="matrix(1 -8.827216e-04 8.827216e-04 1 470.3696 188.4589)" class="st4 st5 st11">0290</text>
	<text transform="matrix(1 -8.827213e-04 8.827213e-04 1 450.4875 188.6398)" class="st4 st5 st17">0286</text>
	<text transform="matrix(1 -8.827213e-04 8.827213e-04 1 440.8861 188.6908)" class="st4 st5 st18">0284</text>
	<text transform="matrix(1 -8.827216e-04 8.827216e-04 1 428.1546 190.2961)" class="st4 st5 st11">0282</text>
	<text transform="matrix(1 -8.827216e-04 8.827216e-04 1 405.9192 204.9172)" class="st4 st5 st11">0278</text>
	<text transform="matrix(1 -8.827213e-04 8.827213e-04 1 398.2565 208.595)" class="st4 st5 st19">0276</text>
	<text transform="matrix(1 -8.827209e-04 8.827209e-04 1 358.347 158.5045)" class="st4 st5 st20">0255</text>
	<text transform="matrix(1 -8.827209e-04 8.827209e-04 1 352.8262 160.5046)" class="st4 st5 st20">0253</text>
	<text transform="matrix(1 -8.827216e-04 8.827216e-04 1 444.2526 213.3009)" class="st4 st5 st11">0285</text>
	<text transform="matrix(1 -8.827213e-04 8.827213e-04 1 465.5837 214.9592)" class="st4 st5 st19">0291</text>
	<text transform="matrix(1 -8.827213e-04 8.827213e-04 1 503.5777 205.0632)" class="st4 st5 st19">0293</text>
</g>
<g>
	<path class="st21" d="M374.1,141.6c-2.6,0.6-5.2,1.2-7.8,1.9 M384.9,139.6c-2.7,0.4-5.4,0.9-8.1,1.5 M395.9,138.1
		c-2.7,0.3-5.5,0.7-8.3,1.1 M407,137c-2.8,0.2-5.6,0.5-8.4,0.8 M418.1,136.4c-2.6,0.1-5.4,0.2-8.4,0.4 M429.2,136.2
		c-2.5,0-5.4,0-8.6,0.1"/>
	<path class="st21" d="M305.9,178.1l-10.4-12.8c6.6-3.9,42.1-47.4,137-44.8l7.1,7.2v8.8c0,0-2.8-0.2-7.6-0.2 M330.2,208.3
		l-20.6-25.5"/>
	<path class="st22" d="M522.2,139.8h5.7v35.9h-6.4v43.5h-81.6v-16.2l-46.1,27.4l-11.2-19.7l-34,20.2l-16.6-20.6"/>
	<path class="st21" d="M522,108.2l0-32.4h22.8 M522,170.3v-58.7"/>
	<path class="st21" d="M521.1,107.8h3v-2.6h8.2v9.3h-8.2v-2.4H521 M448.2,92.3h1.4V75.5 M437.2,81.9v10.4h8.3"/>
	<path class="st21" d="M481.7,117h13.3V75.8h-57.7v7.6 M470.2,117h13.2 M447.8,117l14.5,0.1 M437.4,102.8v6.9l7.2,7.2h8.5"/>
	<path class="st21" d="M446.8,100l-9.4-0.1v4 M457.6,100l-8.2,0 M462.7,100l-2.4,0 M472.2,100.1l-2.7,0 M483.3,117.2v-17.1l-8.5,0
		 M470.7,118l0-17.8 M461.8,118l0-18.5 M450.4,117.2v-17.1 M483.1,107.8h5.7 M484.3,100.2h-1 M482,88.9h1.2 M467.1,88.9h12.3
		 M460.9,88.9h3.8 M453.6,88.9h4.7 M449.5,88.9h1.5 M487,92.3h1.2v7.8H487 M483.1,75.6v16.8h1.3 M482.9,85.8h5.6 M495.2,96.4h-7.1
		 M474.7,75.5v13.8 M482.1,83.8h1.1 M455.9,89.1v-5.3h23.5"/>
	<path class="st21" d="M464.2,89.2v-2.2h3.3v2.5 M442.2,99.2v1.1 M442.2,97.1v2.6 M442.2,92.2v2.3 M469.9,108.4h1 M467.6,108.4h3.3
		 M461.9,108.4h3 M461.5,108.4h1.1 M437.2,75.8v-32H315l-9.6-15.9h-47l22.2,38.4l-32.2,18.2L238.9,67l-8.8,8.5l-33.2-33.2
		l-102.8,102l11.4,11.5l-1.8,1.6l2.5,25.8l-8,0.6v13.4l12.4,0.2l-0.6-4.6l-3.9-0.1"/>
	<path class="st21" d="M106.2,187.2v1.1h3l-0.5-5.4l-2.5,0.1 M207.8,54.8l0.8-0.8 M199.6,62.9l6.2-6.1 M191.5,70.9l6.1-6
		 M183.4,78.9l6.2-6.1 M175.3,86.8l6.1-6 M167.3,94.8l6.2-6.1 M132.6,129l32.7-32.3 M129,132.5l1.5-1.5 M118.8,142.6l8.3-8.2
		 M105.5,155.8l11.4-11.2 M219.7,86.2l-13.9,13.6 M207.6,65.6l1.1-1.1l16,16.8l-3.4,3.3 M199.7,73.4l6-5.9 M192,81.2l5.8-5.8
		 M184.2,88.9l5.8-5.8 M176.3,96.8l5.9-5.9 M168.4,104.6l6-5.9 M160.7,112.2l5.9-5.9 M152.8,120.1l5.9-5.8 M144.9,128l6-6
		 M137.1,135.7l5.9-5.9 M129.2,143.4l6-5.8 M120.4,152.2l1.4-1.5 M114.4,158.2l4.1-4.1 M111.8,166l-0.6-4.6l1.3-1.3 M133.4,163
		l-10.6,10.5l-10,0.6l-0.7-5.4 M222.3,74.6L141.5,155 M133.6,162.8l-5.1,5.1 M145.5,151l-4.1,4.1 M154.9,141.6l-6.9,6.8
		 M160.1,136.5l-3.5,3.5 M168,128.6l-5.2,5.1 M173.7,123l-2.9,2.9 M178.5,118.2l-3.3,3.3 M183.7,113.1l-3.7,3.6 M191.5,105.3l-5.1,5
		 M199.4,97.5l-5.2,5.1 M215.5,81.4L202,94.9 M221,76l-4.2,4.1 M222.3,74.6l-0.6,0.6 M225.6,71.4l-1.3,1.2 M123.1,173.1l-11.4-11.6
		 M121.8,137.9l0.9,0.9 M111.4,127.2l8.6,8.8 M118.5,120.2l11.4,11.6 M156.8,82.5l11.4,11.8 M164.6,74.5l11.5,11.8 M172.8,66.5
		l11.4,11.8 M180.8,58.5l11.6,11.8 M188.9,50.5l11.4,11.6 M200.8,73l11.9,11.5 M192.8,80.6l11.9,11.6 M185.1,88.4l11.5,11.8
		 M177.2,96.1l11.6,11.8 M169.4,103.9l12,12 M161.5,111.6l11.6,12 M153.8,119.4l11.6,12 M145.9,127.2l11.6,11.8 M138.1,135.1
		l11.6,11.8 M130.2,143l12.4,12.3 M121.4,151.6l12.7,12.2 M115.6,157.2l3.1,3.2l-4.1,4.2 M217.5,79.9l4.2,4.4 M215,82.1l4.4,4.6
		 M132.5,146.6l0.9-0.9 M130.9,148.1l2.2-2.2 M124.5,154.6l2.2-2.2 M124.3,154.7l0.8-0.8 M239.5,127.9l19.7,19.8l4.4-4.6l-15-15.2
		 M232.2,120.5l4.7,4.7"/>
	<path class="st21" d="M221.8,119.2l4.6-4.6l20.2,20.2 M214,126.9l12.4-12.3 M204.4,136.5l5.2-5.1 M236.6,183.2L197,143.8l12.1-12
		 M207.6,154.4l-5.1-5.1 M215.5,162.3l-5.1-5.1 M222.7,169.5l-4.6-4.5 M231.7,178.4l-7.3-7.3 M236.8,183.6l-3.6-3.6 M287,166.9
		l-33.2,33.5l-12.3-12.3 M264.5,189.6l-5.2,5.3 M272.3,181.8l-5.1,5.1 M280,173.9l-5.1,5.1 M287.8,166.1l-5.1,5.2"/>
	<path class="st21" d="M243.1,166.1l5,5.1l-11.8,12.1 M239.6,162.6l1.6,1.6 M227.6,150.5l10.1,10.2 M224.1,146.9l1.6,1.6
		 M216.4,139.1l5.8,5.8 M209.4,132.2l5,5 M217.4,139.8l-12.2,12.3 M234.2,122.9l-11.8,11.9 M225,147.8L212.8,160 M242.3,130.4
		l-12.1,12.1 M232.8,155.6l-12.2,12.1 M250.1,138.3l-12,11.9 M240.6,163.2l-12.1,12.3 M257.8,145.9l-12,12.1 M283.6,163.2l3.6,3.6
		 M268,162.4l7.5-7.5l2.5,2.5 M264.7,165.6l1.4-1.4 M252.6,177.8l10.2-10.2 M249.2,181.2l1.3-1.3 M241.3,189.4l6-6.2 M249.7,180.6
		l12.2,12.2 M257.7,172.7l12,12.1 M265.5,164.8l12,12 M273.5,157.2l11.7,11.8 M273.2,157.1l2.6,2.6 M278.2,156.4l-2.9,3.1
		 M284.6,162.8l-3.1,3.1 M244,183.5l1.5,1.5 M240.1,179.6l2,2 M239.9,179.4l0.8,0.8 M219.7,131.9l-5.1-5 M227.5,139.7l-5.8-5.8
		 M231,143.2l-1.5-1.5 M243.1,155.3L233,145.1 M246.6,158.7l-1.5-1.5 M267.1,155.4l-1.3-1.3l-2.8-2.8l4.5-4.4l2.7,2.5l-16.4,16.3
		l-5.1-5.1 M270.8,159.1l-1.8-1.8 M271.2,159.5l-0.7-0.7 M217.3,130.8l0.6-0.6 M216,132.2l2-1.9 M212.8,135.5l1.4-1.4 M259,147.5
		l6.5,6.3 M371.3,74.9l-38.3,0 M362.5,74.9h-8.3 M361.4,63.2h9.9v11.6h-5 M347.7,63.2h11 M342.8,63.2h2.2 M314.4,77.4l8.5-4.9
		l-2.2-3.8h-10.8l-3-5.4h6.8v2h3.6v-2.1H340 M373.7,55.4h5.2 M359.4,55.4h11.5 M340.9,55.4h15.9 M328.1,55.4h9.9 M316.4,55.4h8.9
		 M311.3,55.4h2.3 M365.3,43.7v11.8 M351.7,43.7v11.8 M329,43.9v11.7 M321.9,55.4L315,43.8 M357.4,63.2v11.9 M343.8,63.1v12.1
		 M312.6,55.6l-3.4-5.8 M316.2,45.6l-14.9,8.6 M324,63.2l6.8,11.5 M108.9,169.7l4.4-0.4 M105.1,170.1l1.1-0.1 M373.3,70.4h-1.8
		 M376,70.4h3.2 M379.1,60.7V75h33.1V64.6 M379.1,43.9v13.3 M398.6,43.9v31.2 M414.9,70h-2.8 M420.9,69.8h3.2v5.1h13.2 M288.4,46.2
		l-5.3-9 M292.6,53.2l-2.3-4 M280.9,66.1l14.3-8.3l-1.3-2.3 M277.3,60.6l14.9-8.4 M276.1,49.7l10.8-6.1 M272.3,51.8l1.5-0.8
		 M277.9,49.2l3.9,6.7l1,1.7 M290.7,50.8l-8.9,5.1 M287.2,44.9l-8.6,5 M297,46.1l5.4,9.3h6.1 M294.4,41.6l1.3,2.2 M286.6,28.1
		l6.5,11.2 M309.1,34.5l-14.2,8.2 M297.8,34.2l5.9,10.2 M313.1,88.8l-10.5-18.1L270,89.4l1.4,1.6l-1.4,1.4 M297.1,122.4l-1,0.6
		l6.1,10.6 M312.4,113.5l-13,7.6 M316.7,111.1l-1.9,1.1 M332,102.1l-13,7.6 M336.2,99.7l-1.9,1.1"/>
	<path class="st21" d="M268.2,96l-3.6-3.4l-11.4,6.6l40.4,40.4c0,0,21.1-18.1,59.1-30.4L344.2,95l-5.7,3.3 M335.4,100.4l7.2,12.5
		 M325.1,106.2l6.5,11.1 M315.8,111.6l6.1,10.4 M305.9,117.5l5.9,9.8 M272.4,100.1l-2.1-2.1 M282.7,110.3l-8.3-8.3"/>
	<path class="st21" d="M274.1,120.2l11.7-6.5l-1.2-1.6 M260,106.2l11.8-6.9 M267.1,113.1l11.5-6.8 M321.3,88.2l5.2,9 M337.4,92.6
		l-1-1.7l4.2-2.5L332.9,75l-1.5,0.9l-0.8-1.4L317.8,82l2.2,3.8 M340.2,97.4l-1.4-2.4 M319.1,84.6l-3.1,1.9 M321.9,89.2l14.4-8.5
		 M193.6,205l9.8-9.9l-24.8-24.5l-9.2,9.2 M158.9,190.2l-9.4,9.2l24.9,25l9.7-10 M196.5,193.5l2.6-2.6 M185.5,204.5l9.2-9.2
		 M174.4,215.4l9.2-9.1 M169.6,220.2l2.9-2.9 M180.5,177.4l2.5-2.5 M158.4,199.5l20.3-20.3 M153.6,204.2l2.9-2.9 M165.8,192.2
		l16.2,16.1 M171.4,186.6l16,16 M176.1,193.3l1-1 M171.4,198.1l2.9-2.9 M171.7,218.1l4.5,4.6 M151.6,197.6l4.2,4.3 M197.3,192.6
		l4.4,4.4 M177,172.4l4.2,4.2 M203.7,239.1l14.2-14.3l-16.1-16l-14.1,14l6.2,6.4l2.6-2.5l-1.8-2l7.1-7l7,7.1l-9.8,9.6 M163.2,308.3
		c26.9-10.5,55.5-32.1,55.5-32.1c26.1-18.2,68.2-63.5,68.2-63.5l30.5,29.8l22-22"/>
	<path class="st21" d="M163.2,282.9v37.6h-3v-36.2c0,0,8.2-3.8,14.5-7.2 M189.8,295l-11.2-20.2 M218.8,276.2l-13.5-18.5
		 M201.7,260.2c-14.3,10.1-24.2,15-24.2,15 M221.1,245.3c-5.4,4.6-11,9-16.8,13.1 M239.2,228.7c-5.1,5.1-10.4,10.1-15.9,14.8
		 M258.5,241.5L242.8,225c-0.5,0.5-1,1.1-1.6,1.6 M275.5,215L254,237 M355.9,146.7c2.5-0.9,5-1.7,7.6-2.4 M345.9,150.9
		c2.4-1.2,4.9-2.3,7.4-3.3 M336.1,156.1c2.5-1.4,5-2.7,7.5-4 M326.9,161.5c2.3-1.5,4.6-2.9,6.9-4.2 M317.5,167.9
		c2.3-1.7,4.7-3.3,7.1-4.9 M313.5,170.8c0.6-0.5,1.2-0.9,1.8-1.3 M305.2,177.2c0,0,2.2-1.9,6-4.8 M304.8,157.9l9.6,12.4
		 M314.8,150.4l9,13.2 M324.8,143.9l8.1,14 M335.4,138.4l7,14.4 M346.4,133.8l5.9,14.4 M357.9,129.6l4.8,15 M369.5,126.6L373,142
		 M381.1,124.1l2.6,15.5 M392.8,122.1l2.1,16 M404.6,121.1l1.2,16 M416.5,120.6l0.5,16 M428,120.5l0.2,15.9 M431.9,143.9
		c2.5,0,5,0.1,7.6,0.2v17.3c0,0-35.4-1.4-62.2,5l-4.2-16.9c0,0,2.8-0.7,7.8-1.7 M421.6,143.9c2.4,0,4.8-0.1,7.3,0 M410.7,144.3
		c2.4-0.1,4.9-0.3,7.4-0.3 M399.9,145.2c2.4-0.2,4.9-0.5,7.3-0.6 M389.3,146.5c2.2-0.3,4.7-0.6,7.3-0.9 M383.9,147.4
		c0.7-0.1,1.4-0.2,2.2-0.4 M428,144v17.4 M417.1,144.2l0.6,17.5 M406.4,144.9l1.3,17.2 M395.6,145.8l2.4,17.2 M384.9,147.2l3.2,17.2
		 M434.8,137.8v-1.4 M434.8,144.1v-2.4 M521,178.9h-81.6l-50,28.9 M508.7,203.2h3.9 M500.8,203.2h5.7 M470.6,203.2l26.5,0.1
		 M464.1,203.2h1 M459.1,203.2l6.5-0.1 M439.2,203.2h19.8 M458.6,213.6v-10.2 M458.6,219.4v-2.6 M464.6,205.1v-1.7 M464.6,219.5
		v-11.8 M471.7,204.6v-1 M471.7,219.2v-11 M469.4,209.2h2.3 M464.7,209.2h2 M477.6,217v2.4 M477.6,203.4v10.2 M496.2,203.3V219
		 M512.4,201.1v5 M509.8,200.8v2.6 M521.4,206h-21.9 M501.8,203.3v8.5h13.4 M508.8,195.6h1.3 M497.6,195.6h8.4 M486.6,195.6h8.4
		 M479.5,195.5h2.3 M468.6,195.6h8.4 M457.6,195.6h8.4 M449.1,195.6h5.8"/>
	<path class="st21" d="M434.7,197.5l3.4-2h8.3 M430.2,200.1l2.2-1.3 M418.8,206.7l9.3-5.4 M407.3,213.3l9.3-5.3 M400.4,217.3
		l4.7-2.7 M383.3,197.2l13,22.5l1.9-1.1 M509.8,179v18.9 M498.8,179.1v16.7 M487.6,179.1v16.5 M480.8,179.1v16.7 M469.8,195.7v-16.6
		 M458.7,179.1v16.6 M450.1,179.1v16.6 M439.6,195.5v-16.6 M484.6,187.2h3.1 M480.9,187.2h0.8 M424.4,187.7l7,11.9 M413,194.2
		l6.9,12.1 M408.3,212.8l-6.8-12 M401.4,216.8l-6.8-11.8 M433.3,175l-18,10.5l3.2,5.7 M410.6,195.7l-3.2-5.7l3.4-2l3.2,5.6
		 M380.1,178.2l1.2,4.9 M377.3,166.5l1.4,5.9 M404.2,199l-12.6-21.6l-14.6,8.5l4.8,8.8 M313.3,177.6l22.7,28l12.8-10.5 M310.1,173.7
		l1.3,1.6 M329.1,197l13.2-10.8 M322.1,188.4l13.2-10.8"/>
	<path class="st21" d="M315,179.6l13.1-10l4.3,5.5 M334.2,177.1l5.2,6.6 M341.2,185.8l1.3,1.8 M344.2,189.7l9.8,12.1
		c0,0-8.9,5.2-17.8,14 M310,183.8l4.7-3.7 M312.2,186.2l4.8-3.8 M315.3,190.1l4.8-3.8 M319.2,194.9l4.6-3.8 M322.4,198.8l4.6-3.8
		 M326.2,203.6l4.7-3.8 M329.5,207.3l4.7-3.9 M348.7,188.1l16-8.9l16.2,28 M344.7,190.6l1-0.8 M367.5,192.9l-14.2,7.9 M359.4,154.1
		l1.4-0.5l8.4,14.7l-2.2,1.1l-1.7-3.1 M356.7,155.1l-2.2,0.9 M359.1,161.8l-3.6-6.2 M364,159.1l-10.1,5.8 M351.9,157.1l-13.1,6.6
		l9.9,17.2"/>
	<path class="st21" d="M346.9,165.3l6.9,12.1l1.3-0.8l-1.1-1.8l2.8-1.6l1.1,1.8l3.9-2.3l-1.8-2.9 M350,158.4l9.4,15.5 M362.2,168.5
		l-4.4,2.6 M352.7,175.1l5.5-3.2 M105.8,177.5l-26,3.3 M109,205.2l-0.5-2.8H84.7 M93.2,202.3v-23.2 M81.3,202.3H80v-38.7H52.5v38.7
		h19.3v15.2"/>
	<path class="st21" d="M60.1,195.5h1.4v6.7 M52.5,195.5h1.8 M80,188.9h13.2 M80.1,197.5h13.1 M58.4,219.2l46.6-5.4l4.4,8.8"/>
	<path class="st21" d="M81.1,217l17.2,13.8l6.1,0.8l-1-8.5l10.2-1.1 M105,213.9l9.9-1.1l0.5,2.8l-9.1,1.3 M109.6,211.4l0.2,2
		 M122.3,214.8l-0.4-3.4l5.4-0.6l1.2,9.9l-3.6,0.4l-0.8-6.5L122.3,214.8z M129.3,227.4l-3.6,0.4l0.4,4.2l3.8-0.4L129.3,227.4z
		 M116.4,228.9l-2.9,0.4c0,0,8.6,22.3,5.6,47.4 M87.8,298.2c0,0,26.1-4.2,47.8-13.2l-0.3-3l-3.1,0.6l0.4,3.3"/>
	<path class="st21" d="M119.2,290.6l1.6-6.7l-8.6,1.4l-1.4,0.2l-1-8.5l-5.8,2.2l-14.4,18.2 M115.2,291.9l1.8-7.3"/>
	<path class="st23" d="M130.9,272.6l4-0.4l0.3,3.3l-4,0.4L130.9,272.6z"/>
	<path class="st21" d="M106.2,188.4v-2.1l-6.3-0.1v8.9l6.4-0.1l0.1-2.8 M126.8,238.8l4-0.5 M127.6,245.6l4-0.5 M128.3,252.4l4-0.5
		 M129.2,259.2l4-0.5 M129.9,266l4-0.5 M280.8,126.3l9.2-4.9l-2.6-4.5 M285,130.6l7.1-4.4l-0.7-1.3 M333.2,94.2l-7,4.3"/>
	<g>
		<path class="st24" d="M468.1,197.6c0.9,0,1.7,0,2.6,0c0.6,0,1,0.3,1,1c0,1.7,0,3.4,0,5.1c0,0.6-0.3,0.9-0.9,0.9
			c-1.7,0-3.5,0-5.2,0c-0.6,0-0.9-0.3-0.9-0.9c0-1.8,0-3.5,0-5.3c0-0.5,0.3-0.9,0.9-0.9C466.3,197.6,467.2,197.6,468.1,197.6
			L468.1,197.6L468.1,197.6z M468.1,197.7c-0.8,0-1.7,0-2.5,0c-0.6,0-0.9,0.3-0.9,0.9l0,5.1c0,0.6,0.3,0.8,0.8,0.8
			c1.7,0,3.4,0,5.1,0c0.6,0,0.8-0.3,0.8-0.8c0-1.7,0-3.4,0-5.1c0-0.6-0.3-0.8-0.8-0.8L468.1,197.7L468.1,197.7z"/>
		<path class="st10" d="M468.1,197.7l2.6,0c0.6,0,0.8,0.3,0.8,0.8c0,1.7,0,3.4,0,5.1c0,0.6-0.3,0.8-0.8,0.8c-1.7,0-3.4,0-5.1,0
			c-0.5,0-0.8-0.3-0.8-0.8l0-5.1c0-0.6,0.2-0.9,0.9-0.9C466.4,197.7,467.3,197.7,468.1,197.7L468.1,197.7z M466.7,200.1L466.7,200.1
			c0.1,0,0.2,0,0.2,0.1c0.1,0.2,0.2,0.5,0.2,0.8c0,0.1,0.1,0.2,0.2,0.2c0.2,0,0.1-0.2,0.1-0.3c-0.1-0.3-0.2-0.6-0.3-0.9
			c-0.1-0.2-0.3-0.4-0.5-0.4c-0.2,0-0.5,0-0.7,0c-0.3,0-0.4,0.1-0.5,0.4c-0.1,0.3-0.2,0.6-0.3,0.9c0,0.1-0.1,0.3,0.1,0.3
			c0.2,0,0.2-0.1,0.2-0.2c0.1-0.3,0.1-0.5,0.2-0.8c0-0.1,0.1-0.1,0.1-0.1l0.1,0l-0.5,1.7l0.5,0c0,0.1,0,0.2,0,0.3c0,0.4,0,0.7,0,1.1
			c0,0.1,0.1,0.1,0.2,0.2c0,0,0.1-0.1,0.2-0.2c0-0.1,0-0.2,0-0.3l0-1.1l0.1,0c0,0.1,0.1,0.1,0.1,0.2c0,0.4,0,0.8,0,1.2
			c0,0.1,0,0.2,0.2,0.2c0.1,0,0.2-0.1,0.2-0.2c0-0.1,0-0.3,0-0.5c0-0.3,0-0.6,0-0.9l0.5,0C467,201.3,466.9,200.7,466.7,200.1
			L466.7,200.1z M470.5,201.6c0-0.5,0-0.9,0-1.4c0-0.1,0.1-0.1,0.1-0.2c0,0.1,0.1,0.1,0.1,0.2c0,0.3,0,0.6,0,0.9
			c0,0.1,0.1,0.1,0.1,0.2c0-0.1,0.1-0.1,0.1-0.2c0-0.4,0-0.8,0-1.1c0-0.3-0.2-0.5-0.4-0.5c-0.4,0-0.7,0-1.1,0
			c-0.2,0-0.4,0.2-0.4,0.4c0,0.4,0,0.8,0,1.2c0,0.1,0.1,0.1,0.1,0.2c0-0.1,0.1-0.1,0.1-0.2c0-0.1,0-0.2,0-0.3c0-0.2,0-0.5,0-0.7
			c0-0.1,0.1-0.1,0.1-0.2c0,0,0.1,0.1,0.1,0.1c0,0,0,0.1,0,0.1c0,0.9,0,1.8,0,2.7c0,0.2,0,0.3,0.2,0.3c0.2,0,0.2-0.2,0.2-0.3l0-1.4
			c0,0,0-0.1,0-0.1c0-0.1,0.1-0.1,0.1-0.1c0,0,0.1,0.1,0.1,0.1c0,0.1,0,0.1,0,0.2c0,0.5,0,1,0,1.4c0,0.1,0.1,0.2,0.2,0.2
			c0,0,0.2,0,0.2-0.1c0-0.1,0-0.1,0-0.2C470.5,202.6,470.5,202.1,470.5,201.6L470.5,201.6z M468.3,203.4l0-4.7l-0.3,0
			c0,1.6,0,3.1,0,4.7c0.1,0,0.2,0,0.2,0C468.3,203.4,468.3,203.4,468.3,203.4L468.3,203.4z M470.4,199.1c0-0.2-0.2-0.4-0.4-0.4
			c-0.2,0-0.4,0.1-0.4,0.4c0,0,0,0,0,0c0,0.2,0.2,0.4,0.4,0.4C470.2,199.5,470.4,199.3,470.4,199.1
			C470.4,199.1,470.4,199.1,470.4,199.1L470.4,199.1z M466.3,198.7c-0.2,0-0.4,0.2-0.4,0.4c0,0,0,0,0,0c0,0.2,0.2,0.4,0.4,0.4
			c0.2,0,0.4-0.2,0.4-0.4c0,0,0,0,0,0C466.7,198.9,466.5,198.7,466.3,198.7L466.3,198.7z"/>
		<path class="st24" d="M466.7,200.1c0.2,0.6,0.3,1.1,0.5,1.7l-0.5,0c0,0.3,0,0.6,0,0.9c0,0.1,0,0.3,0,0.4c0,0.1,0,0.2-0.2,0.2
			c-0.1,0-0.2-0.1-0.2-0.2c0-0.4,0-0.8,0-1.2c0-0.1-0.1-0.1-0.1-0.2l-0.1,0l0,1.1c0,0.1,0,0.2,0,0.3c0,0.1-0.1,0.2-0.2,0.2
			c-0.1,0-0.2-0.1-0.2-0.2c0-0.4,0-0.7,0-1.1l0-0.3c-0.2,0-0.3,0-0.5,0l0.5-1.7l-0.1,0c0,0-0.1,0.1-0.1,0.1
			c-0.1,0.3-0.2,0.5-0.2,0.8c0,0.1-0.1,0.2-0.2,0.2c-0.2,0-0.1-0.2-0.1-0.3c0.1-0.3,0.2-0.6,0.3-0.9c0.1-0.2,0.2-0.4,0.5-0.4
			c0.2,0,0.5,0,0.7,0c0.3,0,0.5,0.1,0.5,0.4c0.1,0.3,0.2,0.6,0.3,0.9c0,0.1,0.1,0.2-0.1,0.3c-0.2,0-0.2-0.1-0.2-0.2
			c-0.1-0.3-0.2-0.5-0.2-0.8C466.9,200.2,466.8,200.1,466.7,200.1L466.7,200.1L466.7,200.1z M470.5,201.6c0,0.5,0,0.9,0,1.4
			c0,0.1,0,0.2,0,0.2c0,0.1-0.2,0.1-0.2,0.1c-0.1-0.1-0.2-0.2-0.2-0.2c0-0.5,0-1,0-1.4c0-0.1,0-0.1,0-0.2c0,0-0.1-0.1-0.1-0.1
			c0,0-0.1,0.1-0.1,0.1c0,0,0,0.1,0,0.1l0,1.4c0,0.2,0,0.3-0.2,0.3c-0.2,0-0.2-0.2-0.2-0.3l0-2.7c0,0,0-0.1,0-0.1
			c0-0.1-0.1-0.1-0.1-0.1c0,0.1-0.1,0.1-0.1,0.2c0,0.2,0,0.5,0,0.7c0,0.1,0,0.2,0,0.3c0,0.1-0.1,0.1-0.1,0.2c0-0.1-0.1-0.1-0.1-0.2
			c0-0.4,0-0.8,0-1.2c0-0.2,0.2-0.4,0.4-0.4c0.4,0,0.7,0,1.1,0c0.3,0,0.4,0.2,0.4,0.5c0,0.4,0,0.8,0,1.1c0,0.1-0.1,0.1-0.1,0.2
			c-0.1-0.1-0.1-0.1-0.1-0.2c0-0.3,0-0.6,0-0.9c0-0.1-0.1-0.1-0.1-0.2c0,0.1-0.1,0.1-0.1,0.2C470.5,200.7,470.5,201.2,470.5,201.6
			L470.5,201.6L470.5,201.6z M468.3,203.4c0,0-0.1,0-0.1,0c-0.1,0-0.2,0-0.2,0c0-1.6,0-3.1,0-4.7l0.3,0L468.3,203.4L468.3,203.4z
			 M470.4,199.1c0,0.2-0.2,0.4-0.4,0.4c0,0,0,0,0,0c-0.2,0-0.4-0.2-0.4-0.4c0-0.2,0.2-0.4,0.4-0.4c0,0,0,0,0,0
			C470.2,198.7,470.4,198.9,470.4,199.1L470.4,199.1z M466.3,198.7c0.2,0,0.4,0.2,0.4,0.4c0,0,0,0,0,0c0,0.2-0.2,0.4-0.4,0.4
			c0,0,0,0,0,0c-0.2,0-0.4-0.2-0.4-0.4c0,0,0,0,0,0C465.9,198.9,466.1,198.7,466.3,198.7C466.3,198.7,466.3,198.7,466.3,198.7
			L466.3,198.7z"/>
	</g>
	<g>
		<path class="st24" d="M189.3,207c0.9,0,1.7,0,2.6,0c0.6,0,1,0.3,1,1c0,1.7,0,3.4,0,5.1c0,0.6-0.3,0.9-0.9,0.9c-1.7,0-3.5,0-5.2,0
			c-0.6,0-0.9-0.3-0.9-0.9c0-1.8,0-3.5,0-5.3c0-0.5,0.3-0.9,0.9-0.9C187.6,207,188.5,207,189.3,207L189.3,207z M189.3,207.2
			c-0.8,0-1.7,0-2.5,0c-0.6,0-0.9,0.3-0.9,0.9l0,5.1c0,0.6,0.3,0.8,0.8,0.8c1.7,0,3.4,0,5.1,0c0.6,0,0.8-0.3,0.8-0.8
			c0-1.7,0-3.4,0-5.1c0-0.6-0.3-0.8-0.8-0.8C191,207.1,190.2,207.1,189.3,207.2L189.3,207.2z"/>
		<path class="st10" d="M189.3,207.2l2.6,0c0.6,0,0.8,0.3,0.8,0.8c0,1.7,0,3.4,0,5.1c0,0.6-0.3,0.8-0.8,0.8c-1.7,0-3.4,0-5.1,0
			c-0.5,0-0.8-0.3-0.8-0.8l0-5.1c0-0.6,0.2-0.9,0.9-0.9C187.6,207.2,188.5,207.2,189.3,207.2L189.3,207.2z M187.9,209.6
			C188,209.5,188,209.5,187.9,209.6c0.1,0,0.2,0,0.2,0.1c0.1,0.2,0.2,0.5,0.2,0.8c0,0.1,0.1,0.2,0.2,0.2c0.2,0,0.1-0.2,0.1-0.3
			c-0.1-0.3-0.2-0.6-0.3-0.9c-0.1-0.2-0.3-0.4-0.5-0.4c-0.2,0-0.5,0-0.7,0c-0.3,0-0.4,0.1-0.5,0.4c-0.1,0.3-0.2,0.6-0.3,0.9
			c0,0.1-0.1,0.3,0.1,0.3c0.2,0,0.2-0.1,0.2-0.2c0.1-0.3,0.1-0.5,0.2-0.8c0-0.1,0.1-0.1,0.1-0.1l0.1,0l-0.5,1.7l0.5,0l0,0.3
			c0,0.4,0,0.7,0,1.1c0,0.1,0.1,0.1,0.2,0.2c0,0,0.1-0.1,0.2-0.2c0-0.1,0-0.2,0-0.3c0-0.4,0-0.7,0-1.1l0.1,0c0,0.1,0.1,0.1,0.1,0.2
			c0,0.4,0,0.8,0,1.2c0,0.1,0,0.2,0.2,0.2c0.1,0,0.2-0.1,0.2-0.2c0-0.1,0-0.3,0-0.5l0-0.9l0.5,0L187.9,209.6L187.9,209.6z
			 M191.7,211.1L191.7,211.1c0-0.5,0-0.9,0-1.4c0-0.1,0.1-0.1,0.1-0.2c0,0.1,0.1,0.1,0.1,0.2c0,0.3,0,0.6,0,0.9
			c0,0.1,0.1,0.1,0.1,0.2c0-0.1,0.1-0.1,0.1-0.2c0-0.4,0-0.8,0-1.1c0-0.3-0.2-0.5-0.4-0.5c-0.4,0-0.7,0-1.1,0
			c-0.2,0-0.4,0.2-0.4,0.4c0,0.4,0,0.8,0,1.2c0,0.1,0.1,0.1,0.1,0.2c0-0.1,0.1-0.1,0.1-0.2c0-0.1,0-0.2,0-0.3c0-0.2,0-0.5,0-0.7
			c0-0.1,0.1-0.1,0.1-0.2c0,0,0.1,0.1,0.1,0.1c0,0,0,0.1,0,0.1l0,2.7c0,0.2,0,0.3,0.2,0.3c0.2,0,0.2-0.2,0.2-0.3l0-1.4
			c0,0,0-0.1,0-0.1c0-0.1,0.1-0.1,0.1-0.1c0,0,0.1,0.1,0.1,0.1c0,0.1,0,0.1,0,0.2c0,0.5,0,1,0,1.4c0,0.1,0.1,0.2,0.2,0.2
			c0,0,0.2,0,0.2-0.1c0-0.1,0-0.1,0-0.2C191.8,212,191.7,211.5,191.7,211.1L191.7,211.1z M189.6,212.8l0-4.7c-0.1,0-0.2,0-0.3,0
			l0,4.7C189.3,212.8,189.4,212.8,189.6,212.8C189.5,212.8,189.5,212.8,189.6,212.8L189.6,212.8z M191.6,208.5
			c0-0.2-0.2-0.4-0.4-0.4c-0.2,0-0.4,0.2-0.4,0.4c0,0,0,0,0,0c0,0.2,0.2,0.4,0.4,0.4C191.4,208.9,191.6,208.7,191.6,208.5
			C191.6,208.5,191.6,208.5,191.6,208.5L191.6,208.5z M187.5,208.1c-0.2,0-0.4,0.2-0.4,0.4c0,0,0,0,0,0c0,0.2,0.2,0.4,0.4,0.4
			c0.2,0,0.4-0.2,0.4-0.4c0,0,0,0,0,0C187.9,208.3,187.7,208.1,187.5,208.1z"/>
		<path class="st24" d="M187.9,209.6l0.5,1.7l-0.5,0l0,0.9c0,0.1,0,0.3,0,0.4c0,0.1,0,0.2-0.2,0.2c-0.1,0-0.2-0.1-0.2-0.2
			c0-0.4,0-0.8,0-1.2c0-0.1-0.1-0.1-0.1-0.2l-0.1,0l0,1.1c0,0.1,0,0.2,0,0.3c0,0.1-0.1,0.2-0.2,0.2c-0.1,0-0.2-0.1-0.2-0.2
			c0-0.4,0-0.7,0-1.1c0-0.1,0-0.2,0-0.3c-0.2,0-0.3,0-0.5,0l0.5-1.7l-0.1,0c0,0-0.1,0.1-0.1,0.1c-0.1,0.3-0.2,0.5-0.2,0.8
			c0,0.1-0.1,0.2-0.2,0.2c-0.2,0-0.1-0.2-0.1-0.3c0.1-0.3,0.2-0.6,0.3-0.9c0.1-0.2,0.2-0.4,0.5-0.4c0.2,0,0.5,0,0.7,0
			c0.3,0,0.4,0.1,0.5,0.4c0.1,0.3,0.2,0.6,0.3,0.9c0,0.1,0.1,0.2-0.1,0.3c-0.2,0-0.2-0.1-0.2-0.2c-0.1-0.3-0.2-0.5-0.2-0.8
			C188.1,209.6,188,209.5,187.9,209.6L187.9,209.6L187.9,209.6z M191.7,211.1c0,0.5,0,0.9,0,1.4c0,0.1,0,0.2,0,0.2
			c0,0.1-0.2,0.1-0.2,0.1c-0.1-0.1-0.2-0.2-0.2-0.2c0-0.5,0-1,0-1.4c0-0.1,0-0.1,0-0.2c0,0-0.1-0.1-0.1-0.1c0,0-0.1,0.1-0.1,0.1
			c0,0,0,0.1,0,0.1l0,1.4c0,0.2,0,0.3-0.2,0.3c-0.2,0-0.2-0.2-0.2-0.3l0-2.7c0,0,0-0.1,0-0.1c0-0.1-0.1-0.1-0.1-0.1
			c0,0.1-0.1,0.1-0.1,0.2c0,0.2,0,0.5,0,0.7c0,0.1,0,0.2,0,0.3c0,0.1-0.1,0.1-0.1,0.2c-0.1-0.1-0.1-0.1-0.1-0.2c0-0.4,0-0.8,0-1.2
			c0-0.2,0.2-0.4,0.4-0.4c0.4,0,0.7,0,1.1,0c0.3,0,0.4,0.2,0.4,0.5c0,0.4,0,0.8,0,1.1c0,0.1-0.1,0.1-0.1,0.2
			c-0.1-0.1-0.1-0.1-0.1-0.2c0-0.3,0-0.6,0-0.9c0-0.1-0.1-0.1-0.1-0.2c0,0.1-0.1,0.1-0.1,0.2C191.7,210.1,191.7,210.6,191.7,211.1
			L191.7,211.1L191.7,211.1z M189.6,212.8c0,0-0.1,0-0.1,0c-0.1,0-0.2,0-0.2,0l0-4.7l0.3,0L189.6,212.8L189.6,212.8z M191.6,208.5
			c0,0.2-0.2,0.4-0.4,0.4c0,0,0,0,0,0c-0.2,0-0.4-0.2-0.4-0.4c0-0.2,0.2-0.4,0.4-0.4c0,0,0,0,0,0
			C191.4,208.1,191.6,208.3,191.6,208.5z M187.5,208.1c0.2,0,0.4,0.2,0.4,0.4c0,0,0,0,0,0c0,0.2-0.2,0.4-0.4,0.4c0,0,0,0,0,0
			c-0.2,0-0.4-0.2-0.4-0.4c0,0,0,0,0,0C187.1,208.3,187.3,208.2,187.5,208.1C187.5,208.1,187.5,208.1,187.5,208.1z"/>
	</g>
	<g>
		<path class="st24" d="M165,181.4c0.9,0,1.7,0,2.6,0c0.6,0,1,0.3,1,1c0,1.7,0,3.4,0,5.1c0,0.6-0.3,0.9-0.9,0.9c-1.7,0-3.5,0-5.2,0
			c-0.6,0-0.9-0.3-0.9-0.9c0-1.8,0-3.5,0-5.3c0-0.5,0.3-0.9,0.9-0.9C163.2,181.4,164.1,181.4,165,181.4L165,181.4z M165,181.5
			c-0.8,0-1.7,0-2.5,0c-0.6,0-0.9,0.3-0.9,0.9l0,5.1c0,0.6,0.3,0.8,0.8,0.8c1.7,0,3.4,0,5.1,0c0.6,0,0.8-0.3,0.8-0.8
			c0-1.7,0-3.4,0-5.1c0-0.6-0.3-0.8-0.8-0.8L165,181.5L165,181.5z"/>
		<path class="st10" d="M165,181.5l2.6,0c0.6,0,0.8,0.3,0.8,0.8c0,1.7,0,3.4,0,5.1c0,0.6-0.3,0.8-0.8,0.8c-1.7,0-3.4,0-5.1,0
			c-0.5,0-0.8-0.3-0.8-0.8l0-5.1c0-0.6,0.2-0.9,0.9-0.9C163.3,181.5,164.1,181.5,165,181.5L165,181.5z M163.6,183.9L163.6,183.9
			c0.1,0,0.2,0,0.2,0.1c0.1,0.2,0.2,0.5,0.2,0.8c0,0.1,0.1,0.2,0.2,0.2c0.2,0,0.1-0.2,0.1-0.3c-0.1-0.3-0.2-0.6-0.3-0.9
			c-0.1-0.2-0.3-0.4-0.5-0.4c-0.2,0-0.5,0-0.7,0c-0.3,0-0.4,0.1-0.5,0.4c-0.1,0.3-0.2,0.6-0.3,0.9c0,0.1-0.1,0.3,0.1,0.3
			c0.2,0,0.2-0.1,0.2-0.2c0.1-0.3,0.1-0.5,0.2-0.8c0-0.1,0.1-0.1,0.1-0.1c0,0,0,0,0.1,0l-0.5,1.7c0.2,0,0.3,0,0.5,0l0,0.3
			c0,0.4,0,0.7,0,1.1c0,0.1,0.1,0.1,0.2,0.2c0,0,0.1-0.1,0.2-0.2c0-0.1,0-0.2,0-0.3c0-0.4,0-0.7,0-1.1l0.1,0c0,0.1,0.1,0.1,0.1,0.2
			c0,0.4,0,0.8,0,1.2c0,0.1,0,0.2,0.2,0.2c0.1,0,0.2-0.1,0.2-0.2c0-0.1,0-0.3,0-0.5l0-0.9l0.5,0C163.9,185,163.8,184.5,163.6,183.9
			L163.6,183.9z M167.4,185.4L167.4,185.4c0-0.5,0-0.9,0-1.4c0-0.1,0.1-0.1,0.1-0.2c0,0.1,0.1,0.1,0.1,0.2c0,0.3,0,0.6,0,0.9
			c0,0.1,0.1,0.1,0.1,0.2c0-0.1,0.1-0.1,0.1-0.2c0-0.4,0-0.8,0-1.1c0-0.3-0.2-0.5-0.4-0.5c-0.4,0-0.7,0-1.1,0
			c-0.2,0-0.4,0.2-0.4,0.4c0,0.4,0,0.8,0,1.2c0,0.1,0.1,0.1,0.1,0.2c0-0.1,0.1-0.1,0.1-0.2c0-0.1,0-0.2,0-0.3c0-0.2,0-0.5,0-0.7
			c0-0.1,0.1-0.1,0.1-0.2c0,0,0.1,0.1,0.1,0.1c0,0,0,0.1,0,0.1l0,2.7c0,0.2,0,0.3,0.2,0.3c0.2,0,0.2-0.2,0.2-0.3l0-1.4
			c0,0,0-0.1,0-0.1c0-0.1,0.1-0.1,0.1-0.1c0,0,0.1,0.1,0.1,0.1c0,0.1,0,0.1,0,0.2c0,0.5,0,1,0,1.4c0,0.1,0.1,0.2,0.2,0.2
			c0,0,0.2,0,0.2-0.1c0-0.1,0-0.1,0-0.2C167.4,186.3,167.4,185.9,167.4,185.4L167.4,185.4z M165.2,187.1l0-4.7c-0.1,0-0.2,0-0.3,0
			l0,4.7C165,187.2,165.1,187.2,165.2,187.1C165.2,187.2,165.2,187.1,165.2,187.1L165.2,187.1z M167.3,182.8c0-0.2-0.2-0.4-0.4-0.4
			c-0.2,0-0.4,0.2-0.4,0.4c0,0,0,0,0,0c0,0.2,0.2,0.4,0.4,0.4C167.1,183.2,167.2,183.1,167.3,182.8
			C167.3,182.9,167.3,182.9,167.3,182.8L167.3,182.8z M163.2,182.5c-0.2,0-0.4,0.2-0.4,0.4c0,0,0,0,0,0c0,0.2,0.2,0.4,0.4,0.4
			c0.2,0,0.4-0.2,0.4-0.4c0,0,0,0,0,0C163.5,182.7,163.4,182.5,163.2,182.5C163.2,182.5,163.2,182.5,163.2,182.5z"/>
		<path class="st24" d="M163.6,183.9l0.5,1.7l-0.5,0c0,0.3,0,0.6,0,0.9c0,0.1,0,0.3,0,0.5c0,0.1,0,0.2-0.2,0.2
			c-0.1,0-0.2-0.1-0.2-0.2c0-0.4,0-0.8,0-1.2c0-0.1-0.1-0.1-0.1-0.2l-0.1,0l0,1.1c0,0.1,0,0.2,0,0.3c0,0.1-0.1,0.2-0.2,0.2
			c-0.1,0-0.2-0.1-0.2-0.2c0-0.4,0-0.7,0-1.1c0-0.1,0-0.2,0-0.3l-0.5,0c0.2-0.6,0.3-1.1,0.5-1.7l-0.1,0c0,0-0.1,0.1-0.1,0.1
			c-0.1,0.3-0.2,0.5-0.2,0.8c0,0.1-0.1,0.2-0.2,0.2c-0.2,0-0.1-0.2-0.1-0.3c0.1-0.3,0.2-0.6,0.3-0.9c0.1-0.2,0.2-0.4,0.5-0.4
			c0.2,0,0.5,0,0.7,0c0.3,0,0.4,0.1,0.5,0.4c0.1,0.3,0.2,0.6,0.3,0.9c0,0.1,0.1,0.2-0.1,0.3c-0.2,0-0.2-0.1-0.2-0.2
			c-0.1-0.3-0.2-0.5-0.2-0.8C163.8,183.9,163.7,183.9,163.6,183.9C163.6,183.9,163.6,183.9,163.6,183.9L163.6,183.9z M167.4,185.4
			c0,0.5,0,0.9,0,1.4c0,0.1,0,0.2,0,0.2c0,0.1-0.2,0.1-0.2,0.1c-0.1,0-0.2-0.2-0.2-0.2c0-0.5,0-1,0-1.4c0-0.1,0-0.1,0-0.2
			c0-0.1-0.1-0.1-0.1-0.1c0,0-0.1,0.1-0.1,0.1c0,0,0,0.1,0,0.1l0,1.4c0,0.2,0,0.3-0.2,0.3c-0.2,0-0.2-0.2-0.2-0.3l0-2.7
			c0,0,0-0.1,0-0.1c0-0.1-0.1-0.1-0.1-0.1c0,0.1-0.1,0.1-0.1,0.2c0,0.2,0,0.5,0,0.7c0,0.1,0,0.2,0,0.3c0,0.1-0.1,0.1-0.1,0.2
			c-0.1-0.1-0.1-0.1-0.1-0.2c0-0.4,0-0.8,0-1.2c0-0.2,0.2-0.4,0.4-0.4c0.4,0,0.7,0,1.1,0c0.3,0,0.4,0.2,0.4,0.5c0,0.4,0,0.8,0,1.1
			c0,0.1-0.1,0.1-0.1,0.2c-0.1-0.1-0.1-0.1-0.1-0.2c0-0.3,0-0.6,0-0.9c0-0.1-0.1-0.1-0.1-0.2c0,0.1-0.1,0.1-0.1,0.2
			C167.4,184.5,167.4,184.9,167.4,185.4L167.4,185.4L167.4,185.4z M165.2,187.1c0,0-0.1,0-0.1,0c-0.1,0-0.2,0-0.2,0l0-4.7l0.3,0
			L165.2,187.1L165.2,187.1z M167.3,182.8c0,0.2-0.2,0.4-0.4,0.4c0,0,0,0,0,0c-0.2,0-0.4-0.2-0.4-0.4c0-0.2,0.2-0.4,0.4-0.4
			c0,0,0,0,0,0C167.1,182.5,167.3,182.6,167.3,182.8z M163.2,182.5c0.2,0,0.4,0.2,0.4,0.4c0,0,0,0,0,0c0,0.2-0.2,0.4-0.4,0.4
			c0,0,0,0,0,0c-0.2,0-0.4-0.2-0.4-0.4c0,0,0,0,0,0C162.8,182.7,162.9,182.5,163.2,182.5C163.2,182.5,163.2,182.5,163.2,182.5z"/>
	</g>
	<g>
		<path class="st24" d="M484.8,92.4c0.9,0,1.7,0,2.6,0c0.6,0,1,0.3,1,1c0,1.7,0,3.4,0,5.1c0,0.6-0.3,0.9-0.9,0.9c-1.7,0-3.5,0-5.2,0
			c-0.6,0-0.9-0.3-0.9-0.9c0-1.8,0-3.5,0-5.3c0-0.5,0.3-0.9,0.9-0.9C483,92.4,483.9,92.4,484.8,92.4L484.8,92.4z M484.7,92.5
			c-0.8,0-1.7,0-2.5,0c-0.6,0-0.9,0.3-0.9,0.9c0,1.7,0,3.4,0,5.1c0,0.6,0.3,0.8,0.8,0.8c1.7,0,3.4,0,5.1,0c0.6,0,0.8-0.3,0.8-0.8
			c0-1.7,0-3.4,0-5.1c0-0.6-0.3-0.8-0.8-0.8C487.3,92.5,484.7,92.5,484.7,92.5z"/>
		<path class="st10" d="M484.7,92.5l2.6,0c0.6,0,0.8,0.3,0.8,0.8c0,1.7,0,3.4,0,5.1c0,0.6-0.3,0.8-0.8,0.8c-1.7,0-3.4,0-5.1,0
			c-0.5,0-0.8-0.3-0.8-0.8c0-1.7,0-3.4,0-5.1c0-0.6,0.2-0.9,0.9-0.9C483.1,92.5,483.9,92.5,484.7,92.5z M483.4,94.9L483.4,94.9
			c0.1,0,0.2,0,0.2,0.1c0.1,0.2,0.2,0.5,0.2,0.8c0,0.1,0.1,0.2,0.2,0.2c0.2,0,0.1-0.2,0.1-0.3c-0.1-0.3-0.2-0.6-0.3-0.9
			c-0.1-0.2-0.3-0.4-0.5-0.4c-0.2,0-0.5,0-0.7,0c-0.3,0-0.4,0.1-0.5,0.4c-0.1,0.3-0.2,0.6-0.3,0.9c0,0.1-0.1,0.3,0.1,0.3
			c0.2,0,0.2-0.1,0.2-0.2c0.1-0.3,0.1-0.5,0.2-0.8c0-0.1,0.1-0.1,0.1-0.1c0,0,0,0,0.1,0c-0.2,0.6-0.3,1.1-0.5,1.7c0.2,0,0.3,0,0.5,0
			l0,0.3c0,0.4,0,0.7,0,1.1c0,0.1,0.1,0.1,0.2,0.2c0,0,0.1-0.1,0.2-0.2c0-0.1,0-0.2,0-0.3c0-0.4,0-0.7,0-1.1l0.1,0
			c0,0.1,0.1,0.1,0.1,0.2c0,0.4,0,0.8,0,1.2c0,0.1,0,0.2,0.2,0.2c0.1,0,0.2-0.1,0.2-0.2c0-0.2,0-0.3,0-0.5l0-0.9l0.5,0
			C483.7,96.1,483.5,95.5,483.4,94.9L483.4,94.9z M487.2,96.4c0-0.5,0-0.9,0-1.4c0-0.1,0.1-0.1,0.1-0.2c0,0.1,0.1,0.1,0.1,0.2
			c0,0.3,0,0.6,0,0.9c0,0.1,0.1,0.1,0.1,0.2c0-0.1,0.1-0.1,0.1-0.2c0-0.4,0-0.8,0-1.1c0-0.3-0.2-0.5-0.4-0.5c-0.4,0-0.7,0-1.1,0
			c-0.2,0-0.4,0.2-0.4,0.4c0,0.4,0,0.8,0,1.2c0,0.1,0.1,0.1,0.1,0.2c0-0.1,0.1-0.1,0.1-0.2c0-0.1,0-0.2,0-0.3c0-0.2,0-0.5,0-0.7
			c0-0.1,0.1-0.1,0.1-0.2c0,0,0.1,0.1,0.1,0.1c0,0,0,0.1,0,0.1c0,0.9,0,1.8,0,2.7c0,0.2,0,0.3,0.2,0.3c0.2,0,0.2-0.2,0.2-0.3l0-1.4
			c0,0,0-0.1,0-0.1c0-0.1,0.1-0.1,0.1-0.1c0,0,0.1,0.1,0.1,0.1c0,0.1,0,0.1,0,0.2c0,0.5,0,1,0,1.4c0,0.1,0.1,0.2,0.2,0.2
			c0,0,0.2,0,0.2-0.1c0-0.1,0-0.1,0-0.2C487.2,97.4,487.2,96.9,487.2,96.4L487.2,96.4z M485,98.2l0-4.7c-0.1,0-0.2,0-0.3,0
			c0,1.6,0,3.1,0,4.7c0.1,0,0.2,0,0.2,0C484.9,98.2,485,98.2,485,98.2L485,98.2z M487,93.9c0-0.2-0.2-0.4-0.4-0.4
			c-0.2,0-0.4,0.1-0.4,0.4c0,0,0,0,0,0c0,0.2,0.2,0.4,0.4,0.4C486.8,94.3,487,94.1,487,93.9C487,93.9,487,93.9,487,93.9L487,93.9z
			 M482.9,93.5c-0.2,0-0.4,0.2-0.4,0.4c0,0,0,0,0,0c0,0.2,0.2,0.4,0.4,0.4c0.2,0,0.4-0.2,0.4-0.4c0,0,0,0,0,0
			C483.3,93.7,483.1,93.5,482.9,93.5C482.9,93.5,482.9,93.5,482.9,93.5z"/>
		<path class="st24" d="M483.4,94.9c0.2,0.6,0.3,1.1,0.5,1.7l-0.5,0c0,0.3,0,0.6,0,0.9c0,0.2,0,0.3,0,0.4c0,0.1,0,0.2-0.2,0.2
			c-0.1,0-0.2-0.1-0.2-0.2c0-0.4,0-0.8,0-1.2c0-0.1-0.1-0.1-0.1-0.2l-0.1,0l0,1.1c0,0.1,0,0.2,0,0.3c0,0.1-0.1,0.2-0.2,0.2
			c-0.1,0-0.2-0.1-0.2-0.2c0-0.4,0-0.7,0-1.1l0-0.3c-0.2,0-0.3,0-0.5,0l0.5-1.7c0,0,0,0-0.1,0c0,0-0.1,0.1-0.1,0.1
			c-0.1,0.3-0.2,0.5-0.2,0.8c0,0.1-0.1,0.2-0.2,0.2c-0.2,0-0.1-0.2-0.1-0.3c0.1-0.3,0.2-0.6,0.3-0.9c0.1-0.2,0.2-0.4,0.5-0.4
			c0.2,0,0.5,0,0.7,0c0.3,0,0.4,0.1,0.5,0.4c0.1,0.3,0.2,0.6,0.3,0.9c0,0.1,0.1,0.2-0.1,0.3c-0.2,0-0.2-0.1-0.2-0.2
			c-0.1-0.3-0.2-0.5-0.2-0.8C483.5,95,483.5,94.9,483.4,94.9L483.4,94.9L483.4,94.9z M487.2,96.4c0,0.5,0,0.9,0,1.4
			c0,0.1,0,0.2,0,0.2c0,0.1-0.2,0.1-0.2,0.1c-0.1-0.1-0.2-0.2-0.2-0.2c0-0.5,0-1,0-1.4c0-0.1,0-0.1,0-0.2c0-0.1-0.1-0.1-0.1-0.1
			c0,0-0.1,0.1-0.1,0.1c0,0,0,0.1,0,0.1l0,1.4c0,0.2,0,0.3-0.2,0.3c-0.2,0-0.2-0.2-0.2-0.3l0-2.7c0,0,0-0.1,0-0.1
			c0-0.1-0.1-0.1-0.1-0.1c0,0.1-0.1,0.1-0.1,0.2c0,0.2,0,0.5,0,0.7c0,0.1,0,0.2,0,0.3c0,0.1-0.1,0.1-0.1,0.2c0-0.1-0.1-0.1-0.1-0.2
			c0-0.4,0-0.8,0-1.2c0-0.2,0.2-0.4,0.4-0.4c0.4,0,0.7,0,1.1,0c0.3,0,0.4,0.2,0.4,0.5c0,0.4,0,0.8,0,1.1c0,0.1-0.1,0.1-0.1,0.2
			c-0.1-0.1-0.1-0.1-0.1-0.2c0-0.3,0-0.6,0-0.9c0-0.1-0.1-0.1-0.1-0.2c0,0.1-0.1,0.1-0.1,0.2C487.2,95.5,487.2,96,487.2,96.4
			L487.2,96.4L487.2,96.4z M485,98.2c0,0-0.1,0-0.1,0c-0.1,0-0.2,0-0.2,0l0-4.7l0.3,0L485,98.2L485,98.2z M487,93.9
			c0,0.2-0.2,0.4-0.4,0.4c0,0,0,0,0,0c-0.2,0-0.4-0.2-0.4-0.4c0-0.2,0.2-0.4,0.4-0.4c0,0,0,0,0,0C486.9,93.5,487,93.7,487,93.9
			L487,93.9z M482.9,93.5c0.2,0,0.4,0.2,0.4,0.4c0,0,0,0,0,0c0,0.2-0.2,0.4-0.4,0.4c0,0,0,0,0,0c-0.2,0-0.4-0.2-0.4-0.4c0,0,0,0,0,0
			C482.5,93.7,482.7,93.5,482.9,93.5C482.9,93.5,482.9,93.5,482.9,93.5z"/>
	</g>
	<g>
		<path class="st24" d="M295.4,40.3c0.9,0,1.7,0,2.6,0c0.6,0,1,0.3,1,1c0,1.7,0,3.4,0,5.1c0,0.6-0.3,0.9-0.9,0.9c-1.7,0-3.5,0-5.2,0
			c-0.6,0-0.9-0.3-0.9-0.9c0-1.8,0-3.5,0-5.3c0-0.5,0.3-0.9,0.9-0.9C293.7,40.3,294.6,40.3,295.4,40.3L295.4,40.3z M295.4,40.4
			c-0.8,0-1.7,0-2.5,0c-0.6,0-0.9,0.3-0.9,0.9l0,5.1c0,0.5,0.3,0.8,0.8,0.8c1.7,0,3.4,0,5.1,0c0.6,0,0.8-0.3,0.8-0.8
			c0-1.7,0-3.4,0-5.1c0-0.6-0.3-0.8-0.8-0.8L295.4,40.4L295.4,40.4z"/>
		<path class="st10" d="M295.4,40.4l2.6,0c0.6,0,0.8,0.3,0.8,0.8c0,1.7,0,3.4,0,5.1c0,0.6-0.3,0.8-0.8,0.8c-1.7,0-3.4,0-5.1,0
			c-0.5,0-0.8-0.3-0.8-0.8l0-5.1c0-0.6,0.2-0.9,0.9-0.9C293.8,40.4,294.6,40.4,295.4,40.4L295.4,40.4z M294,42.8L294,42.8
			c0.1,0,0.2,0,0.2,0.1c0.1,0.2,0.2,0.5,0.2,0.8c0,0.1,0.1,0.2,0.2,0.2c0.2,0,0.1-0.2,0.1-0.3c-0.1-0.3-0.2-0.6-0.3-0.9
			c-0.1-0.2-0.3-0.4-0.5-0.4c-0.2,0-0.5,0-0.7,0c-0.3,0-0.4,0.1-0.5,0.4c-0.1,0.3-0.2,0.6-0.3,0.9c0,0.1-0.1,0.3,0.1,0.3
			c0.2,0,0.2-0.1,0.2-0.2c0.1-0.3,0.1-0.5,0.2-0.8c0-0.1,0.1-0.1,0.1-0.1c0,0,0,0,0.1,0l-0.5,1.7c0.2,0,0.3,0,0.5,0
			c0,0.1,0,0.2,0,0.3c0,0.4,0,0.7,0,1.1c0,0.1,0.1,0.1,0.2,0.2c0,0,0.1-0.1,0.2-0.2c0-0.1,0-0.2,0-0.3l0-1.1l0.1,0
			c0,0.1,0.1,0.1,0.1,0.2c0,0.4,0,0.8,0,1.2c0,0.1,0,0.2,0.2,0.2c0.1,0,0.2-0.1,0.2-0.2c0-0.2,0-0.3,0-0.5c0-0.3,0-0.6,0-0.9l0.5,0
			C294.4,43.9,294.2,43.4,294,42.8L294,42.8z M297.9,44.3L297.9,44.3c0-0.5,0-0.9,0-1.4c0-0.1,0.1-0.1,0.1-0.2
			c0,0.1,0.1,0.1,0.1,0.2c0,0.3,0,0.6,0,0.9c0,0.1,0.1,0.1,0.1,0.2c0-0.1,0.1-0.1,0.1-0.2c0-0.4,0-0.8,0-1.1c0-0.3-0.2-0.5-0.4-0.5
			c-0.4,0-0.7,0-1.1,0c-0.2,0-0.4,0.2-0.4,0.4c0,0.4,0,0.8,0,1.2c0,0.1,0.1,0.1,0.1,0.2c0-0.1,0.1-0.1,0.1-0.2c0-0.1,0-0.2,0-0.3
			c0-0.2,0-0.5,0-0.7c0-0.1,0.1-0.1,0.1-0.2c0,0,0.1,0.1,0.1,0.1c0,0,0,0.1,0,0.1c0,0.9,0,1.8,0,2.7c0,0.2,0,0.3,0.2,0.3
			c0.2,0,0.2-0.2,0.2-0.3l0-1.4c0,0,0-0.1,0-0.1c0,0,0.1-0.1,0.1-0.1c0,0,0.1,0.1,0.1,0.1c0,0.1,0,0.1,0,0.2c0,0.5,0,1,0,1.4
			c0,0.1,0.1,0.2,0.2,0.2c0,0,0.2,0,0.2-0.1c0-0.1,0-0.1,0-0.2C297.9,45.2,297.9,44.8,297.9,44.3z M295.7,46l0-4.7l-0.3,0
			c0,1.6,0,3.1,0,4.7c0.1,0,0.2,0,0.2,0C295.6,46.1,295.6,46.1,295.7,46L295.7,46z M297.7,41.8c0-0.2-0.2-0.4-0.4-0.4
			c-0.2,0-0.4,0.1-0.4,0.4c0,0,0,0,0,0c0,0.2,0.2,0.4,0.4,0.4C297.5,42.1,297.7,42,297.7,41.8C297.7,41.8,297.7,41.8,297.7,41.8
			L297.7,41.8z M293.6,41.4c-0.2,0-0.4,0.2-0.4,0.4c0,0,0,0,0,0c0,0.2,0.2,0.4,0.4,0.4c0.2,0,0.4-0.2,0.4-0.4c0,0,0,0,0,0
			C294,41.6,293.8,41.4,293.6,41.4C293.6,41.4,293.6,41.4,293.6,41.4L293.6,41.4z"/>
		<path class="st24" d="M294,42.8c0.2,0.6,0.3,1.1,0.5,1.7c-0.2,0-0.3,0-0.5,0c0,0.3,0,0.6,0,0.9c0,0.2,0,0.3,0,0.5
			c0,0.1,0,0.2-0.2,0.2c-0.1,0-0.2-0.1-0.2-0.2c0-0.4,0-0.8,0-1.2c0-0.1-0.1-0.1-0.1-0.2c0,0-0.1,0-0.1,0l0,1.1c0,0.1,0,0.2,0,0.3
			c0,0.1-0.1,0.2-0.2,0.2c-0.1,0-0.2-0.1-0.2-0.2c0-0.4,0-0.7,0-1.1l0-0.3l-0.5,0l0.5-1.7c0,0,0,0-0.1,0c0,0-0.1,0.1-0.1,0.1
			c-0.1,0.3-0.2,0.5-0.2,0.8c0,0.1-0.1,0.2-0.2,0.2c-0.2,0-0.1-0.2-0.1-0.3c0.1-0.3,0.2-0.6,0.3-1c0.1-0.2,0.2-0.4,0.5-0.4
			c0.2,0,0.5,0,0.7,0c0.3,0,0.5,0.1,0.5,0.4c0.1,0.3,0.2,0.6,0.3,0.9c0,0.1,0.1,0.2-0.1,0.3c-0.2,0-0.2-0.1-0.2-0.2
			c-0.1-0.3-0.2-0.5-0.2-0.8C294.2,42.8,294.2,42.8,294,42.8C294.1,42.8,294.1,42.8,294,42.8L294,42.8z M297.9,44.3
			c0,0.5,0,0.9,0,1.4c0,0.1,0,0.2,0,0.2c0,0.1-0.2,0.1-0.2,0.1c-0.1,0-0.2-0.2-0.2-0.2c0-0.5,0-1,0-1.4c0-0.1,0-0.1,0-0.2
			c0,0-0.1-0.1-0.1-0.1c0,0-0.1,0.1-0.1,0.1c0,0,0,0.1,0,0.1l0,1.4c0,0.2,0,0.3-0.2,0.3c-0.2,0-0.2-0.2-0.2-0.3l0-2.7
			c0,0,0-0.1,0-0.1c0,0-0.1-0.1-0.1-0.1c0,0-0.1,0.1-0.1,0.2c0,0.2,0,0.5,0,0.7c0,0.1,0,0.2,0,0.3c0,0.1-0.1,0.1-0.1,0.2
			c0-0.1-0.1-0.1-0.1-0.2c0-0.4,0-0.8,0-1.2c0-0.2,0.2-0.4,0.4-0.4c0.4,0,0.7,0,1.1,0c0.3,0,0.4,0.2,0.4,0.5c0,0.4,0,0.8,0,1.1
			c0,0.1-0.1,0.1-0.1,0.2c-0.1-0.1-0.1-0.1-0.1-0.2c0-0.3,0-0.6,0-0.9c0-0.1-0.1-0.1-0.1-0.2c0,0.1-0.1,0.1-0.1,0.2
			C297.8,43.4,297.8,43.8,297.9,44.3L297.9,44.3L297.9,44.3z M295.7,46c0,0-0.1,0-0.1,0c-0.1,0-0.2,0-0.2,0c0-1.6,0-3.1,0-4.7l0.3,0
			L295.7,46L295.7,46z M297.7,41.8c0,0.2-0.2,0.4-0.4,0.4c0,0,0,0,0,0c-0.2,0-0.4-0.2-0.4-0.4c0-0.2,0.2-0.4,0.4-0.4c0,0,0,0,0,0
			C297.5,41.4,297.7,41.6,297.7,41.8L297.7,41.8z M293.6,41.4c0.2,0,0.4,0.2,0.4,0.4c0,0,0,0,0,0c0,0.2-0.2,0.4-0.4,0.4c0,0,0,0,0,0
			c-0.2,0-0.4-0.2-0.4-0.4c0,0,0,0,0,0C293.2,41.6,293.4,41.4,293.6,41.4C293.6,41.4,293.6,41.4,293.6,41.4z"/>
	</g>
	<path class="st21" d="M250.2,96.3l5.7,5.6 M248.4,84.5l-6.4,3.7l5,4.9 M256.4,84.9l-3-2.9 M264.6,92.6l-2.4-2.2"/>
</g>
<text transform="matrix(1 -8.827226e-04 8.827226e-04 1 171.0999 294.0236)" class="st4 st5 st7">0070</text>
<text transform="matrix(1 -8.827226e-04 8.827226e-04 1 194.5232 279.5001)" class="st4 st5 st7">0080</text>
<text transform="matrix(1 -8.827226e-04 8.827226e-04 1 228.8566 252.9061)" class="st4 st5 st7">0090</text>
<text transform="matrix(1 -8.827226e-04 8.827226e-04 1 164.3609 208.1233)" class="st4 st5 st7">0129</text>
<text transform="matrix(1 -8.827226e-04 8.827226e-04 1 182 190.875)" class="st4 st5 st7">0127</text>
<text transform="matrix(1 -8.827226e-04 8.827226e-04 1 83.7214 200.4994)" class="st4 st5 st12">0160B</text>
<text transform="matrix(1 -8.827226e-04 8.827226e-04 1 112.5381 160.9998)" class="st4 st5 st12">0103</text>
<text transform="matrix(1 -8.827226e-04 8.827226e-04 1 103.1559 143.1561)" class="st4 st5 st7">0102</text>
<text transform="matrix(1 -8.827226e-04 8.827226e-04 1 174.4199 107.1238)" class="st4 st5 st7">0117</text>
<text transform="matrix(1 -8.827226e-04 8.827226e-04 1 198.3945 83.8283)" class="st4 st5 st7">0123</text>
<text transform="matrix(1 -8.827226e-04 8.827226e-04 1 243.1459 149.6593)" class="st4 st5 st7">0136</text>
<text transform="matrix(1 -8.827226e-04 8.827226e-04 1 251.0049 158.0227)" class="st4 st5 st7">0138</text>
<text transform="matrix(1 -8.827226e-04 8.827226e-04 1 202.5059 143.1758)" class="st4 st5 st7">0131</text>
<text transform="matrix(1 -8.827226e-04 8.827226e-04 1 210.3952 151.5089)" class="st4 st5 st7">0133</text>
<text transform="matrix(1 -8.827226e-04 8.827226e-04 1 218.1982 159.1247)" class="st4 st5 st7">0135</text>
<text transform="matrix(1 -8.827226e-04 8.827226e-04 1 226.6755 166.5472)" class="st4 st5 st7">0137</text>
<text transform="matrix(1 -8.827226e-04 8.827226e-04 1 234.5704 174.5518)" class="st4 st5 st7">0139</text>
<text transform="matrix(1 -8.827226e-04 8.827226e-04 1 278.2501 121.6251)" class="st4 st5 st7">0205</text>
<text transform="matrix(1 -8.827226e-04 8.827226e-04 1 329.1876 110.0541)" class="st4 st5 st7">0210</text>
<text transform="matrix(1 -8.827226e-04 8.827226e-04 1 326.2505 91.5107)" class="st4 st5 st7">0212</text>
<text transform="matrix(1 -8.827226e-04 8.827226e-04 1 274.3341 54.5631)" class="st4 st5 st12">0215A</text>
<text transform="matrix(1 -8.827216e-04 8.827216e-04 1 350.3866 140.3472)" class="st4 st5 st11">0252</text>
<text transform="matrix(1 -8.827216e-04 8.827216e-04 1 407.3635 154.4582)" class="st4 st5 st11">0263</text>
<text transform="matrix(1 -8.827213e-04 8.827213e-04 1 392.0065 212.7502)" class="st4 st5 st19">0274</text>
</svg>
