<?xml version="1.0" encoding="utf-8"?>
<!-- Generator: Adobe Illustrator 20.0.0, SVG Export Plug-In . SVG Version: 6.00 Build 0)  -->
<svg version="1.1" id="Layer_1" xmlns="http://www.w3.org/2000/svg" xmlns:xlink="http://www.w3.org/1999/xlink" x="0px" y="0px"
	 viewBox="0 0 643 343" style="enable-background:new 0 0 643 343;" xml:space="preserve">
<style type="text/css">
	.floor4_st0{fill:none;}
	.floor4_st1{fill:none;stroke:#231F20;stroke-width:0.3;}
	.floor4_st2{fill:none;stroke:#878686;stroke-width:0.709;stroke-linecap:round;stroke-linejoin:round;stroke-miterlimit:10;}
	.floor4_st3{fill:url(#SVGID_2_);}
	.floor4_st4{fill:#C6C4C4;}
	.floor4_st5{fill:#FFFFFF;}
	.floor4_st6{display:none;}
	.floor4_st7{display:inline;fill:#FFFFFF;}
	.floor4_st8{fill:none;stroke:#878686;stroke-width:0.774;stroke-linecap:round;stroke-miterlimit:2;}
	.floor4_st9{fill:none;stroke:#878686;stroke-width:2;stroke-miterlimit:10;}
	.floor4_st10{fill:none;stroke:#878686;stroke-width:2;stroke-miterlimit:2;}
	.floor4_st11{fill:#878686;}
	.floor4_st12{font-family:'Helvetica';font-weight:bold;}
	.floor4_st13{font-size:7.6986px;}
	.floor4_st14{font-size:7.6985px;}
	.floor4_st15{fill:#F9F9F9;}
	.floor4_st16{font-family:'Helvetica';}
	.floor4_st17{font-size:3.3822px;}
	.floor4_st18{font-size:2.6857px;}
	.floor4_st19{font-size:2.4072px;}
</style>
<pattern  y="343" width="57.6" height="57.6" patternUnits="userSpaceOnUse" id="SVGID_1_" viewBox="0 -57.6 57.6 57.6" style="overflow:visible;">
	<g>
		<rect y="-57.6" class="floor4_st0" width="57.6" height="57.6"/>
		<g>
			<rect y="-57.6" class="floor4_st0" width="57.6" height="57.6"/>
			<g>
				<path class="floor4_st0" d="M0-57.6h57.6V0H0V-57.6z"/>
				<path class="floor4_st1" d="M52.5-54h3 M38.1-54h3 M23.7-54h3 M9.3-54h3 M45.3-46.8h3 M30.9-46.8h3 M16.5-46.8h3 M2.1-46.8h3
					 M52.5-39.6h3 M38.1-39.6h3 M23.7-39.6h3 M9.3-39.6h3 M45.3-32.4h3 M30.9-32.4h3 M16.5-32.4h3 M2.1-32.4h3 M52.5-25.2h3
					 M38.1-25.2h3 M23.7-25.2h3 M9.3-25.2h3 M45.3-18h3 M30.9-18h3 M16.5-18h3 M2.1-18h3 M52.5-10.8h3 M38.1-10.8h3 M23.7-10.8h3
					 M9.3-10.8h3 M45.3-3.6h3 M30.9-3.6h3 M16.5-3.6h3 M2.1-3.6h3 M54-55.5v3 M39.6-55.5v3 M25.2-55.5v3 M10.8-55.5v3 M46.8-48.3v3
					 M32.4-48.3v3 M18-48.3v3 M3.6-48.3v3 M54-41.1v3 M39.6-41.1v3 M25.2-41.1v3 M10.8-41.1v3 M46.8-33.9v3 M32.4-33.9v3 M18-33.9v3
					 M3.6-33.9v3 M54-26.7v3 M39.6-26.7v3 M25.2-26.7v3 M10.8-26.7v3 M46.8-19.5v3 M32.4-19.5v3 M18-19.5v3 M3.6-19.5v3 M54-12.3v3
					 M39.6-12.3v3 M25.2-12.3v3 M10.8-12.3v3 M46.8-5.1v3 M32.4-5.1v3 M18-5.1v3 M3.6-5.1v3"/>
			</g>
		</g>
	</g>
</pattern>
<g>
	<path class="floor4_st2" d="M377.6,166.6l4.9-2.8 M378.2,167.5l4.9-2.8 M378.7,168.4l4.9-2.8 M377.1,165.7l4.9-2.8 M372.2,160.1l-4.8,2.8
		 M376.3,167.2l-4.8,2.8 M374.8,164.5l-4.8,2.8 M375.3,165.4l-4.8,2.8 M375.8,166.3l-4.8,2.8 M374.3,163.7l-4.8,2.8 M372.7,161
		l-4.8,2.8 M373.2,161.9l-4.8,2.8 M373.8,162.8l-4.8,2.8 M376.8,168.1l-4.8,2.8 M377.3,169l-4.8,2.8 M374.6,161.3l4.9-2.8
		 M375.1,162.2l4.9-2.8 M375.6,163.1l4.9-2.8 M376.1,163.9l4.9-2.8 M376.6,164.8l4.9-2.8 M377.8,169.8l-4.8,2.8 M374.1,160.4
		l4.9-2.8 M373.1,158.6l4.9-2.8 M373.6,159.5l4.9-2.8"/>
</g>
<pattern  id="SVGID_2_" xlink:href="#SVGID_1_" patternTransform="matrix(0.32 0 0 0.32 -16009.6299 -381.8751)">
</pattern>
<path class="floor4_st3" d="M400.7,191.3L367,212l20.3,35l-1.7,1.7l36,63.3l36.7-21.3L400.7,191.3z"/>
<g>
	<path class="floor4_st4" d="M77.7,73.2L60.3,91l-3.7-3.3L45,99.7l54,54.2l5.5-6.3l9.5,9.3l23.2-23.8L77.7,73.2z M353.2,192.3l11.3,20
		l36.7-21.2l-11.3-20l-14.8,9l2.3,4l-7,3.8l-2.8-4.3L353.2,192.3z M332.2,155.8l14.5-8.7L310.5,85l-14.2,8.3L332.2,155.8z M332,72.3
		L317.5,81l27.3,47.8l5.7-3l5.2,9.8l-4.8,2.8l10.5,18.2l15.5-7.7L332,72.3z M284.8,25.2l16.4,28.1l14.9-8.8l-11.2-19.3L284.8,25.2z"
		/>
</g>
<g>
	<path class="floor4_st5" d="M98.4,193.5v-0.3h-0.5v-0.1l0.5-0.8h0.1v0.8h0.2v0.1h-0.2L98.4,193.5C98.6,193.5,98.4,193.5,98.4,193.5z
		 M98.4,193.1v-0.5l-0.4,0.5H98.4z M98.9,193.5v-1.2h0.8v0.1H99v0.4h0.6v0.1H99v0.4h0.7v0.1L98.9,193.5L98.9,193.5z M100,193.5v-1.2
		h0.2v1h0.6v0.1L100,193.5L100,193.5z M100.9,193.2L100.9,193.2c0.1,0.1,0.1,0.1,0.2,0.2l0.1,0.1c0.1,0,0.2-0.1,0.2-0.2l0,0
		c0-0.1,0-0.1-0.1-0.2c0,0-0.1-0.1-0.2-0.1H101v-0.1l0,0c0.1,0,0.1,0,0.2,0l0.1-0.1c0,0,0-0.1-0.1-0.1l-0.1-0.1
		c-0.1,0-0.1,0-0.1,0.1s-0.1,0.1-0.1,0.2h-0.1c0-0.1,0.1-0.2,0.1-0.2c0.1-0.1,0.1-0.1,0.2-0.1s0.1,0,0.2,0s0.2,0.2,0.2,0.3
		s0,0.1,0,0.1l-0.1,0.1c0.1,0,0.1,0.1,0.2,0.1s0.1,0.1,0.1,0.2c0,0.1,0,0.2-0.1,0.3s-0.2,0.1-0.3,0.1
		C101,193.5,100.9,193.4,100.9,193.2L100.9,193.2z"/>
</g>
<g>
	<path class="floor4_st5" d="M262.9,36L262.9,36L262.9,36L262.9,36L262.9,36L262.9,36L262.9,36L262.9,36L262.9,36L262.9,36z M263,36L263,36
		L263,36C263,35.9,263,35.9,263,36C263,35.9,263,35.9,263,36C263,35.9,263,35.9,263,36C263,35.9,263,35.9,263,36
		C263,35.9,263,35.9,263,36C263,35.9,263,35.9,263,36C263,35.9,263,35.9,263,36L263,36L263,36L263,36L263,36L263,36z M263,35.9
		L263,35.9L263,35.9L263,35.9L263,35.9L263,35.9L263,35.9L263,35.9L263,35.9L263,35.9z M263,35.9L263,35.9L263,35.9L263,35.9
		L263,35.9L263,35.9L263,35.9L263,35.9L263,35.9z M263.1,35.9L263.1,35.9L263.1,35.9L263.1,35.9L263.1,35.9
		C263.1,36,263.1,36,263.1,35.9C263,36,263,36,263.1,35.9C263,35.9,263,35.9,263.1,35.9C263,35.9,263,35.9,263.1,35.9
		C263,35.9,263,35.9,263.1,35.9C263,35.9,263,35.9,263.1,35.9C263,35.9,263,35.9,263.1,35.9L263.1,35.9L263.1,35.9L263.1,35.9
		L263.1,35.9L263.1,35.9L263.1,35.9L263.1,35.9C263,35.9,263,35.9,263.1,35.9L263.1,35.9L263.1,35.9C263,35.9,263,35.9,263.1,35.9
		C263,35.9,263,35.9,263.1,35.9C263,35.9,263,35.9,263.1,35.9C263,35.9,263,35.9,263.1,35.9L263.1,35.9L263.1,35.9L263.1,35.9
		L263.1,35.9L263.1,35.9z M263.1,36L263.1,36L263.1,36L263.1,36L263.1,36L263.1,36L263.1,36L263.1,36C263.1,35.9,263.1,36,263.1,36z
		 M263.2,36L263.2,36L263.2,36L263.2,36L263.2,36L263.2,36L263.2,36L263.2,36L263.2,36L263.2,36L263.2,36L263.2,36L263.2,36z
		 M263.2,35.9L263.2,35.9L263.2,35.9L263.2,35.9z M263.2,35.9L263.2,35.9L263.2,35.9L263.2,35.9L263.2,35.9L263.2,35.9L263.2,35.9
		L263.2,35.9L263.2,35.9C263.2,36,263.2,36,263.2,35.9C263.2,36,263.2,36,263.2,35.9L263.2,35.9L263.2,35.9z M263.2,35.9L263.2,35.9
		L263.2,35.9L263.2,35.9L263.2,35.9L263.2,35.9L263.2,35.9L263.2,35.9L263.2,35.9L263.2,35.9z M263.2,35.9L263.2,35.9L263.2,35.9
		C263.2,35.9,263.3,35.9,263.2,35.9C263.3,35.9,263.3,35.9,263.2,35.9C263.3,35.9,263.3,35.9,263.2,35.9L263.2,35.9
		C263.3,35.9,263.3,35.9,263.2,35.9C263.3,35.9,263.3,35.9,263.2,35.9C263.3,36,263.3,36,263.2,35.9C263.3,36,263.2,36,263.2,35.9
		L263.2,35.9L263.2,35.9z M263.2,35.9L263.2,35.9C263.3,35.9,263.3,35.9,263.2,35.9C263.3,35.9,263.3,35.9,263.2,35.9
		C263.3,35.9,263.3,35.9,263.2,35.9C263.3,35.9,263.3,35.9,263.2,35.9C263.3,35.9,263.3,35.9,263.2,35.9
		C263.3,35.9,263.3,35.9,263.2,35.9L263.2,35.9L263.2,35.9z M263.3,35.9L263.3,35.9L263.3,35.9L263.3,35.9L263.3,35.9L263.3,35.9
		L263.3,35.9L263.3,35.9L263.3,35.9C263.3,36,263.3,36,263.3,35.9C263.3,36,263.3,36,263.3,35.9L263.3,35.9z M263.3,35.9L263.3,35.9
		L263.3,35.9L263.3,35.9L263.3,35.9L263.3,35.9L263.3,35.9L263.3,35.9L263.3,35.9L263.3,35.9z"/>
</g>
<g>
	<path class="floor4_st5" d="M285.2,24.7L285.2,24.7L285.2,24.7L285.2,24.7L285.2,24.7L285.2,24.7L285.2,24.7L285.2,24.7
		C285.3,24.7,285.2,24.7,285.2,24.7z M285.3,24.7L285.3,24.7L285.3,24.7C285.3,24.6,285.3,24.6,285.3,24.7
		C285.3,24.6,285.3,24.6,285.3,24.7L285.3,24.7L285.3,24.7L285.3,24.7L285.3,24.7L285.3,24.7L285.3,24.7L285.3,24.7L285.3,24.7
		L285.3,24.7L285.3,24.7z M285.3,24.7L285.3,24.7L285.3,24.7L285.3,24.7L285.3,24.7L285.3,24.7L285.3,24.7L285.3,24.7L285.3,24.7z
		 M285.3,24.7L285.3,24.7L285.3,24.7L285.3,24.7L285.3,24.7L285.3,24.7L285.3,24.7L285.3,24.7L285.3,24.7z M285.4,24.7L285.4,24.7
		L285.4,24.7L285.4,24.7L285.4,24.7L285.4,24.7L285.4,24.7C285.3,24.7,285.3,24.7,285.4,24.7C285.3,24.7,285.3,24.7,285.4,24.7
		C285.3,24.7,285.3,24.7,285.4,24.7C285.3,24.7,285.3,24.6,285.4,24.7C285.4,24.6,285.4,24.6,285.4,24.7
		C285.4,24.6,285.4,24.6,285.4,24.7C285.4,24.6,285.4,24.6,285.4,24.7L285.4,24.7L285.4,24.7L285.4,24.7L285.4,24.7
		C285.4,24.6,285.4,24.6,285.4,24.7C285.4,24.6,285.4,24.6,285.4,24.7L285.4,24.7L285.4,24.7C285.3,24.7,285.3,24.7,285.4,24.7
		C285.3,24.7,285.3,24.7,285.4,24.7L285.4,24.7L285.4,24.7L285.4,24.7L285.4,24.7L285.4,24.7L285.4,24.7L285.4,24.7z M285.4,24.7
		L285.4,24.7L285.4,24.7L285.4,24.7L285.4,24.7L285.4,24.7L285.4,24.7L285.4,24.7C285.4,24.6,285.4,24.7,285.4,24.7z M285.5,24.7
		L285.5,24.7L285.5,24.7L285.5,24.7L285.5,24.7L285.5,24.7L285.5,24.7L285.5,24.7L285.5,24.7L285.5,24.7L285.5,24.7L285.5,24.7
		L285.5,24.7z M285.5,24.7L285.5,24.7L285.5,24.7L285.5,24.7z M285.5,24.7L285.5,24.7C285.5,24.7,285.5,24.6,285.5,24.7
		C285.5,24.6,285.5,24.6,285.5,24.7C285.5,24.6,285.5,24.6,285.5,24.7L285.5,24.7L285.5,24.7L285.5,24.7L285.5,24.7L285.5,24.7
		L285.5,24.7L285.5,24.7z M285.5,24.7L285.5,24.7L285.5,24.7L285.5,24.7L285.5,24.7L285.5,24.7C285.5,24.6,285.5,24.6,285.5,24.7
		C285.5,24.6,285.5,24.6,285.5,24.7L285.5,24.7L285.5,24.7z M285.6,24.7L285.6,24.7C285.6,24.7,285.6,24.6,285.6,24.7
		C285.6,24.6,285.6,24.6,285.6,24.7C285.6,24.6,285.6,24.6,285.6,24.7L285.6,24.7L285.6,24.7L285.6,24.7L285.6,24.7L285.6,24.7
		L285.6,24.7L285.6,24.7z M285.6,24.7L285.6,24.7L285.6,24.7L285.6,24.7L285.6,24.7L285.6,24.7C285.6,24.6,285.6,24.6,285.6,24.7
		C285.6,24.6,285.6,24.6,285.6,24.7L285.6,24.7L285.6,24.7z M285.6,24.7L285.6,24.7L285.6,24.7L285.6,24.7L285.6,24.7L285.6,24.7
		L285.6,24.7C285.6,24.6,285.6,24.6,285.6,24.7L285.6,24.7C285.6,24.6,285.6,24.7,285.6,24.7z"/>
</g>
<g class="floor4_st6">
	<path class="floor4_st7" d="M95.3,186.7L95.3,186.7L95.3,186.7L95.3,186.7L95.3,186.7L95.3,186.7L95.3,186.7L95.3,186.7L95.3,186.7
		L95.3,186.7z M95.3,186.7L95.3,186.7L95.3,186.7C95.4,186.6,95.4,186.6,95.3,186.7C95.4,186.6,95.4,186.6,95.3,186.7
		C95.4,186.6,95.4,186.6,95.3,186.7C95.4,186.6,95.4,186.6,95.3,186.7C95.4,186.6,95.4,186.6,95.3,186.7
		C95.4,186.6,95.4,186.6,95.3,186.7C95.4,186.6,95.4,186.6,95.3,186.7L95.3,186.7L95.3,186.7L95.3,186.7L95.3,186.7L95.3,186.7z
		 M95.3,186.6L95.3,186.6C95.4,186.6,95.4,186.6,95.3,186.6L95.3,186.6L95.3,186.6C95.4,186.6,95.4,186.6,95.3,186.6L95.3,186.6
		L95.3,186.6L95.3,186.6L95.3,186.6z M95.3,186.7L95.3,186.7C95.4,186.7,95.4,186.7,95.3,186.7L95.3,186.7
		C95.4,186.6,95.4,186.6,95.3,186.7L95.3,186.7C95.4,186.6,95.3,186.6,95.3,186.7L95.3,186.7C95.3,186.6,95.3,186.7,95.3,186.7z
		 M95.4,186.6L95.4,186.6L95.4,186.6L95.4,186.6L95.4,186.6C95.4,186.7,95.4,186.7,95.4,186.6C95.4,186.7,95.4,186.7,95.4,186.6
		C95.4,186.7,95.4,186.7,95.4,186.6L95.4,186.6L95.4,186.6L95.4,186.6L95.4,186.6L95.4,186.6L95.4,186.6L95.4,186.6L95.4,186.6
		L95.4,186.6L95.4,186.6L95.4,186.6L95.4,186.6L95.4,186.6L95.4,186.6L95.4,186.6L95.4,186.6C95.4,186.6,95.4,186.7,95.4,186.6
		C95.4,186.7,95.4,186.7,95.4,186.6C95.4,186.7,95.4,186.7,95.4,186.6L95.4,186.6L95.4,186.6L95.4,186.6L95.4,186.6z M95.5,186.7
		L95.5,186.7L95.5,186.7L95.5,186.7L95.5,186.7L95.5,186.7L95.5,186.7L95.5,186.7L95.5,186.7L95.5,186.7z M95.5,186.7L95.5,186.7
		L95.5,186.7L95.5,186.7L95.5,186.7L95.5,186.7L95.5,186.7L95.5,186.7L95.5,186.7L95.5,186.7L95.5,186.7L95.5,186.7L95.5,186.7z
		 M95.5,186.6L95.5,186.6L95.5,186.6L95.5,186.6z M95.5,186.6L95.5,186.6C95.6,186.6,95.6,186.6,95.5,186.6
		C95.6,186.6,95.6,186.6,95.5,186.6C95.6,186.6,95.6,186.6,95.5,186.6L95.5,186.6C95.6,186.6,95.6,186.6,95.5,186.6
		C95.6,186.6,95.6,186.6,95.5,186.6C95.6,186.7,95.6,186.7,95.5,186.6C95.6,186.7,95.6,186.7,95.5,186.6
		C95.6,186.7,95.6,186.7,95.5,186.6L95.5,186.6L95.5,186.6z M95.6,186.6L95.6,186.6C95.6,186.7,95.6,186.7,95.6,186.6
		C95.6,186.7,95.6,186.7,95.6,186.6L95.6,186.6L95.6,186.6L95.6,186.6L95.6,186.6L95.6,186.6L95.6,186.6z M95.6,186.6L95.6,186.6
		L95.6,186.6L95.6,186.6L95.6,186.6L95.6,186.6L95.6,186.6C95.7,186.6,95.7,186.6,95.6,186.6L95.6,186.6
		C95.6,186.7,95.6,186.7,95.6,186.6C95.6,186.7,95.6,186.7,95.6,186.6L95.6,186.6L95.6,186.6z M95.6,186.6L95.6,186.6
		C95.6,186.7,95.6,186.7,95.6,186.6C95.6,186.7,95.6,186.7,95.6,186.6L95.6,186.6L95.6,186.6L95.6,186.6L95.6,186.6L95.6,186.6z
		 M95.7,186.7L95.7,186.7L95.7,186.7L95.7,186.7L95.7,186.7L95.7,186.7L95.7,186.7L95.7,186.7L95.7,186.7L95.7,186.7L95.7,186.7
		L95.7,186.7L95.7,186.7z M95.7,186.6L95.7,186.6L95.7,186.6L95.7,186.6z"/>
</g>
<g>
	<path class="floor4_st5" d="M44.4,99.7L44.4,99.7L44.4,99.7L44.4,99.7L44.4,99.7L44.4,99.7L44.4,99.7L44.4,99.7
		C44.5,99.7,44.4,99.7,44.4,99.7z M44.5,99.7L44.5,99.7L44.5,99.7L44.5,99.7C44.5,99.6,44.5,99.6,44.5,99.7
		C44.5,99.6,44.5,99.6,44.5,99.7C44.5,99.6,44.5,99.6,44.5,99.7L44.5,99.7L44.5,99.7L44.5,99.7L44.5,99.7L44.5,99.7L44.5,99.7
		L44.5,99.7L44.5,99.7L44.5,99.7z M44.5,99.7L44.5,99.7L44.5,99.7L44.5,99.7C44.5,99.6,44.5,99.6,44.5,99.7L44.5,99.7L44.5,99.7
		L44.5,99.7L44.5,99.7L44.5,99.7z M44.5,99.7L44.5,99.7L44.5,99.7L44.5,99.7L44.5,99.7L44.5,99.7L44.5,99.7L44.5,99.7L44.5,99.7
		L44.5,99.7z M44.6,99.7L44.6,99.7L44.6,99.7L44.6,99.7L44.6,99.7L44.6,99.7L44.6,99.7C44.5,99.7,44.5,99.7,44.6,99.7
		C44.5,99.7,44.5,99.7,44.6,99.7C44.5,99.7,44.5,99.6,44.6,99.7C44.5,99.6,44.5,99.6,44.6,99.7C44.6,99.6,44.6,99.6,44.6,99.7
		C44.6,99.6,44.6,99.6,44.6,99.7C44.6,99.6,44.6,99.6,44.6,99.7C44.6,99.6,44.6,99.6,44.6,99.7L44.6,99.7
		C44.6,99.6,44.6,99.6,44.6,99.7C44.6,99.6,44.6,99.6,44.6,99.7C44.6,99.6,44.6,99.6,44.6,99.7C44.6,99.6,44.6,99.6,44.6,99.7
		L44.6,99.7L44.6,99.7C44.5,99.7,44.5,99.7,44.6,99.7C44.5,99.7,44.5,99.7,44.6,99.7L44.6,99.7L44.6,99.7L44.6,99.7L44.6,99.7
		L44.6,99.7L44.6,99.7z M44.6,99.7L44.6,99.7L44.6,99.7L44.6,99.7L44.6,99.7L44.6,99.7L44.6,99.7L44.6,99.7
		C44.6,99.6,44.6,99.7,44.6,99.7z M44.7,99.7L44.7,99.7L44.7,99.7L44.7,99.7L44.7,99.7L44.7,99.7L44.7,99.7L44.7,99.7L44.7,99.7
		L44.7,99.7L44.7,99.7L44.7,99.7z M44.7,99.7L44.7,99.7L44.7,99.7L44.7,99.7z M44.7,99.7C44.7,99.7,44.7,99.6,44.7,99.7
		C44.7,99.6,44.7,99.6,44.7,99.7C44.7,99.6,44.7,99.6,44.7,99.7L44.7,99.7L44.7,99.7C44.7,99.6,44.7,99.6,44.7,99.7L44.7,99.7
		L44.7,99.7L44.7,99.7L44.7,99.7L44.7,99.7z M44.7,99.7L44.7,99.7L44.7,99.7L44.7,99.7L44.7,99.7C44.7,99.7,44.7,99.6,44.7,99.7
		C44.7,99.6,44.7,99.6,44.7,99.7C44.7,99.6,44.7,99.6,44.7,99.7C44.7,99.6,44.7,99.6,44.7,99.7L44.7,99.7z M44.8,99.7
		C44.8,99.7,44.8,99.6,44.8,99.7C44.8,99.6,44.8,99.6,44.8,99.7C44.8,99.6,44.8,99.6,44.8,99.7L44.8,99.7
		C44.8,99.6,44.8,99.6,44.8,99.7L44.8,99.7L44.8,99.7L44.8,99.7L44.8,99.7L44.8,99.7L44.8,99.7z M44.8,99.7L44.8,99.7L44.8,99.7
		L44.8,99.7L44.8,99.7C44.8,99.7,44.8,99.6,44.8,99.7C44.8,99.6,44.8,99.6,44.8,99.7C44.8,99.6,44.8,99.6,44.8,99.7
		C44.8,99.6,44.8,99.6,44.8,99.7L44.8,99.7z M44.8,99.7L44.8,99.7L44.8,99.7L44.8,99.7L44.8,99.7C44.9,99.7,44.9,99.7,44.8,99.7
		C44.9,99.7,44.9,99.7,44.8,99.7L44.8,99.7L44.8,99.7L44.8,99.7L44.8,99.7L44.8,99.7L44.8,99.7L44.8,99.7L44.8,99.7L44.8,99.7
		C44.8,99.7,44.8,99.6,44.8,99.7C44.8,99.6,44.9,99.7,44.8,99.7C44.9,99.7,44.9,99.7,44.8,99.7C44.9,99.7,44.8,99.7,44.8,99.7
		L44.8,99.7L44.8,99.7z"/>
</g>
<g>
	<path class="floor4_st5" d="M38.2,89.6L38.2,89.6L38.2,89.6L38.2,89.6L38.2,89.6L38.2,89.6L38.2,89.6L38.2,89.6L38.2,89.6L38.2,89.6z
		 M38.3,89.6L38.3,89.6L38.3,89.6L38.3,89.6C38.2,89.6,38.2,89.6,38.3,89.6C38.2,89.6,38.2,89.6,38.3,89.6
		C38.2,89.6,38.2,89.6,38.3,89.6C38.2,89.6,38.2,89.5,38.3,89.6C38.2,89.5,38.2,89.5,38.3,89.6C38.2,89.5,38.2,89.5,38.3,89.6
		C38.3,89.5,38.3,89.5,38.3,89.6C38.3,89.5,38.3,89.5,38.3,89.6L38.3,89.6C38.3,89.5,38.3,89.5,38.3,89.6
		C38.3,89.5,38.2,89.5,38.3,89.6C38.2,89.5,38.2,89.5,38.3,89.6C38.2,89.5,38.2,89.5,38.3,89.6C38.2,89.6,38.2,89.6,38.3,89.6
		C38.2,89.6,38.2,89.6,38.3,89.6C38.2,89.6,38.2,89.6,38.3,89.6C38.2,89.6,38.2,89.6,38.3,89.6C38.2,89.6,38.3,89.6,38.3,89.6
		L38.3,89.6z M38.3,89.6L38.3,89.6L38.3,89.6L38.3,89.6L38.3,89.6L38.3,89.6L38.3,89.6L38.3,89.6L38.3,89.6
		C38.3,89.6,38.3,89.5,38.3,89.6C38.3,89.5,38.3,89.5,38.3,89.6C38.3,89.5,38.3,89.5,38.3,89.6C38.3,89.5,38.3,89.5,38.3,89.6
		C38.3,89.5,38.3,89.5,38.3,89.6C38.3,89.5,38.3,89.5,38.3,89.6L38.3,89.6C38.3,89.5,38.3,89.5,38.3,89.6L38.3,89.6
		C38.3,89.5,38.3,89.5,38.3,89.6C38.3,89.5,38.3,89.5,38.3,89.6L38.3,89.6L38.3,89.6L38.3,89.6L38.3,89.6L38.3,89.6L38.3,89.6
		L38.3,89.6L38.3,89.6L38.3,89.6L38.3,89.6L38.3,89.6z M38.4,89.6L38.4,89.6L38.4,89.6L38.4,89.6L38.4,89.6L38.4,89.6L38.4,89.6
		L38.4,89.6C38.4,89.5,38.4,89.6,38.4,89.6z M38.4,89.6L38.4,89.6L38.4,89.6L38.4,89.6L38.4,89.6L38.4,89.6L38.4,89.6L38.4,89.6
		L38.4,89.6L38.4,89.6L38.4,89.6L38.4,89.6L38.4,89.6z M38.4,89.6L38.4,89.6L38.4,89.6L38.4,89.6z M38.4,89.6
		C38.4,89.6,38.4,89.5,38.4,89.6C38.5,89.5,38.5,89.5,38.4,89.6C38.5,89.5,38.5,89.5,38.4,89.6L38.4,89.6
		C38.5,89.5,38.5,89.5,38.4,89.6L38.4,89.6C38.5,89.6,38.5,89.6,38.4,89.6C38.5,89.6,38.5,89.6,38.4,89.6
		C38.5,89.6,38.5,89.6,38.4,89.6C38.5,89.6,38.5,89.6,38.4,89.6L38.4,89.6L38.4,89.6z M38.5,89.6L38.5,89.6L38.5,89.6L38.5,89.6
		L38.5,89.6C38.5,89.5,38.5,89.5,38.5,89.6C38.5,89.5,38.5,89.5,38.5,89.6C38.5,89.5,38.5,89.5,38.5,89.6
		C38.5,89.5,38.5,89.5,38.5,89.6L38.5,89.6z M38.5,89.6C38.5,89.6,38.5,89.5,38.5,89.6C38.5,89.5,38.5,89.5,38.5,89.6
		C38.5,89.5,38.5,89.5,38.5,89.6L38.5,89.6L38.5,89.6C38.5,89.5,38.5,89.5,38.5,89.6C38.6,89.6,38.6,89.6,38.5,89.6L38.5,89.6
		L38.5,89.6L38.5,89.6L38.5,89.6L38.5,89.6z M38.5,89.6L38.5,89.6L38.5,89.6L38.5,89.6L38.5,89.6C38.5,89.5,38.5,89.5,38.5,89.6
		C38.5,89.5,38.5,89.5,38.5,89.6C38.5,89.5,38.5,89.5,38.5,89.6C38.5,89.5,38.5,89.5,38.5,89.6z M38.6,89.6L38.6,89.6L38.6,89.6
		C38.6,89.5,38.6,89.5,38.6,89.6L38.6,89.6L38.6,89.6C38.6,89.5,38.6,89.5,38.6,89.6L38.6,89.6L38.6,89.6
		C38.6,89.5,38.6,89.6,38.6,89.6z"/>
</g>
<g>
	<path class="floor4_st4" d="M338.4,131.3v-0.6h-1v-0.3l1.1-1.5h0.2v1.5h0.3v0.3h-0.3v0.6H338.4L338.4,131.3z M338.4,130.4v-1.1l-0.7,1.1
		H338.4z M339.3,130.1c0-0.3,0-0.5,0.1-0.7c0-0.2,0.1-0.3,0.3-0.4c0.1-0.1,0.3-0.1,0.4-0.1s0.2,0,0.3,0.1s0.2,0.1,0.2,0.2
		c0.1,0.1,0.1,0.2,0.1,0.3s0.1,0.3,0.1,0.6s0,0.5-0.1,0.7c0,0.2-0.1,0.3-0.3,0.4c-0.1,0.1-0.3,0.1-0.4,0.1c-0.2,0-0.4-0.1-0.5-0.2
		C339.4,130.9,339.3,130.6,339.3,130.1L339.3,130.1z M339.6,130.1c0,0.4,0,0.6,0.1,0.8s0.2,0.2,0.3,0.2s0.2-0.1,0.3-0.2
		s0.1-0.4,0.1-0.8c0-0.4,0-0.6-0.1-0.8c-0.1-0.1-0.2-0.2-0.3-0.2c-0.1,0-0.2,0.1-0.3,0.2C339.6,129.5,339.6,129.7,339.6,130.1
		L339.6,130.1z M341.1,130.1c0-0.3,0-0.5,0.1-0.7s0.1-0.3,0.3-0.4c0.1-0.1,0.3-0.1,0.4-0.1s0.2,0,0.3,0.1c0.1,0.1,0.2,0.1,0.2,0.2
		c0.1,0.1,0.1,0.2,0.1,0.3s0.1,0.3,0.1,0.6s0,0.5-0.1,0.7c0,0.2-0.1,0.3-0.3,0.4c-0.1,0.1-0.3,0.1-0.4,0.1c-0.2,0-0.4-0.1-0.5-0.2
		C341.2,130.9,341.1,130.6,341.1,130.1L341.1,130.1z M341.4,130.1c0,0.4,0,0.6,0.1,0.8s0.2,0.2,0.3,0.2s0.2-0.1,0.3-0.2
		s0.1-0.4,0.1-0.8c0-0.4,0-0.6-0.1-0.8c-0.1-0.1-0.2-0.2-0.3-0.2c-0.1,0-0.2,0.1-0.3,0.2C341.4,129.5,341.4,129.7,341.4,130.1
		L341.4,130.1z M342.9,130.1c0-0.3,0-0.5,0.1-0.7c0-0.2,0.1-0.3,0.3-0.4c0.1-0.1,0.3-0.1,0.4-0.1s0.2,0,0.3,0.1s0.2,0.1,0.2,0.2
		c0.1,0.1,0.1,0.2,0.1,0.3s0.1,0.3,0.1,0.6s0,0.5-0.1,0.7c0,0.2-0.1,0.3-0.3,0.4c-0.1,0.1-0.3,0.1-0.4,0.1c-0.2,0-0.4-0.1-0.5-0.2
		C343,130.9,342.9,130.6,342.9,130.1L342.9,130.1z M343.2,130.1c0,0.4,0,0.6,0.1,0.8s0.2,0.2,0.3,0.2s0.2-0.1,0.3-0.2
		s0.1-0.4,0.1-0.8c0-0.4,0-0.6-0.1-0.8c-0.1-0.1-0.2-0.2-0.3-0.2c-0.1,0-0.2,0.1-0.3,0.2C343.3,129.5,343.2,129.7,343.2,130.1
		L343.2,130.1z"/>
</g>
<g>
	<path class="floor4_st5" d="M102.2,158.9L102.2,158.9L102.2,158.9L102.2,158.9L102.2,158.9L102.2,158.9L102.2,158.9L102.2,158.9
		L102.2,158.9L102.2,158.9z M102.3,158.8L102.3,158.8C102.3,158.9,102.3,158.9,102.3,158.8C102.3,158.9,102.3,158.9,102.3,158.8
		C102.2,158.9,102.2,158.9,102.3,158.8C102.2,158.9,102.2,158.9,102.3,158.8C102.2,158.8,102.2,158.8,102.3,158.8
		C102.2,158.8,102.2,158.8,102.3,158.8C102.2,158.8,102.2,158.8,102.3,158.8C102.2,158.8,102.2,158.8,102.3,158.8L102.3,158.8
		L102.3,158.8L102.3,158.8L102.3,158.8C102.3,158.8,102.2,158.8,102.3,158.8C102.2,158.8,102.2,158.8,102.3,158.8
		C102.2,158.8,102.2,158.8,102.3,158.8C102.2,158.8,102.2,158.8,102.3,158.8C102.2,158.8,102.2,158.8,102.3,158.8
		C102.2,158.9,102.2,158.9,102.3,158.8C102.2,158.9,102.2,158.9,102.3,158.8C102.2,158.9,102.3,158.9,102.3,158.8
		C102.3,158.9,102.3,158.8,102.3,158.8L102.3,158.8z M102.3,158.8L102.3,158.8L102.3,158.8L102.3,158.8L102.3,158.8
		C102.3,158.9,102.3,158.9,102.3,158.8C102.3,158.9,102.3,158.9,102.3,158.8C102.3,158.9,102.3,158.9,102.3,158.8L102.3,158.8
		L102.3,158.8L102.3,158.8L102.3,158.8L102.3,158.8L102.3,158.8L102.3,158.8L102.3,158.8L102.3,158.8L102.3,158.8L102.3,158.8
		L102.3,158.8L102.3,158.8L102.3,158.8L102.3,158.8L102.3,158.8C102.3,158.9,102.3,158.9,102.3,158.8L102.3,158.8
		C102.3,158.9,102.3,158.9,102.3,158.8L102.3,158.8L102.3,158.8L102.3,158.8L102.3,158.8z M102.4,158.9L102.4,158.9L102.4,158.9
		L102.4,158.9L102.4,158.9L102.4,158.9L102.4,158.9L102.4,158.9L102.4,158.9L102.4,158.9z M102.4,158.9L102.4,158.9L102.4,158.9
		L102.4,158.9L102.4,158.9L102.4,158.9L102.4,158.9L102.4,158.9L102.4,158.9L102.4,158.9L102.4,158.9L102.4,158.9L102.4,158.9z
		 M102.4,158.8L102.4,158.8L102.4,158.8L102.4,158.8z M102.4,158.8L102.4,158.8C102.5,158.8,102.5,158.8,102.4,158.8
		C102.5,158.8,102.5,158.8,102.4,158.8L102.4,158.8C102.5,158.8,102.5,158.8,102.4,158.8L102.4,158.8
		C102.5,158.8,102.5,158.8,102.4,158.8C102.5,158.9,102.5,158.9,102.4,158.8C102.5,158.9,102.5,158.9,102.4,158.8
		C102.5,158.9,102.5,158.9,102.4,158.8C102.4,158.9,102.4,158.8,102.4,158.8L102.4,158.8z M102.5,158.8
		C102.5,158.8,102.5,158.9,102.5,158.8C102.5,158.9,102.5,158.9,102.5,158.8C102.5,158.9,102.5,158.9,102.5,158.8
		C102.5,158.9,102.5,158.8,102.5,158.8L102.5,158.8L102.5,158.8L102.5,158.8L102.5,158.8z M102.5,158.8L102.5,158.8L102.5,158.8
		L102.5,158.8L102.5,158.8L102.5,158.8L102.5,158.8C102.6,158.8,102.6,158.8,102.5,158.8C102.5,158.9,102.5,158.9,102.5,158.8
		C102.5,158.9,102.5,158.9,102.5,158.8C102.5,158.9,102.5,158.9,102.5,158.8C102.5,158.9,102.5,158.8,102.5,158.8L102.5,158.8z
		 M102.5,158.8C102.5,158.8,102.5,158.9,102.5,158.8C102.5,158.9,102.5,158.9,102.5,158.8C102.5,158.9,102.5,158.9,102.5,158.8
		C102.5,158.9,102.5,158.8,102.5,158.8L102.5,158.8L102.5,158.8L102.5,158.8L102.5,158.8z M102.6,158.9L102.6,158.9L102.6,158.9
		L102.6,158.9L102.6,158.9L102.6,158.9C102.6,158.8,102.6,158.8,102.6,158.9C102.6,158.8,102.6,158.8,102.6,158.9
		C102.6,158.8,102.6,158.8,102.6,158.9C102.6,158.8,102.6,158.8,102.6,158.9C102.6,158.8,102.6,158.8,102.6,158.9
		C102.6,158.8,102.6,158.8,102.6,158.9L102.6,158.9C102.6,158.8,102.6,158.8,102.6,158.9C102.6,158.8,102.6,158.8,102.6,158.9
		C102.6,158.8,102.6,158.8,102.6,158.9C102.6,158.8,102.6,158.8,102.6,158.9C102.6,158.8,102.6,158.8,102.6,158.9
		C102.6,158.8,102.6,158.8,102.6,158.9L102.6,158.9L102.6,158.9L102.6,158.9L102.6,158.9L102.6,158.9z"/>
</g>
<g>
	<path class="floor4_st5" d="M277.8,26.8L277.8,26.8L277.8,26.8L277.8,26.8L277.8,26.8L277.8,26.8L277.8,26.8L277.8,26.8L277.8,26.8
		L277.8,26.8z M277.9,26.8L277.9,26.8L277.9,26.8L277.9,26.8L277.9,26.8L277.9,26.8C277.8,26.8,277.8,26.8,277.9,26.8
		C277.8,26.7,277.8,26.7,277.9,26.8C277.9,26.7,277.9,26.7,277.9,26.8C277.9,26.7,277.9,26.7,277.9,26.8
		C277.9,26.7,277.9,26.7,277.9,26.8C277.9,26.7,277.9,26.7,277.9,26.8L277.9,26.8C277.9,26.7,277.9,26.7,277.9,26.8
		C277.9,26.7,277.9,26.7,277.9,26.8C277.9,26.7,277.9,26.7,277.9,26.8C277.9,26.7,277.9,26.7,277.9,26.8
		C277.9,26.7,277.9,26.7,277.9,26.8L277.9,26.8L277.9,26.8L277.9,26.8L277.9,26.8L277.9,26.8L277.9,26.8z M278,26.8L278,26.8
		L278,26.8L278,26.8L278,26.8L278,26.8C278,26.8,277.9,26.8,278,26.8C277.9,26.8,277.9,26.8,278,26.8
		C277.9,26.8,277.9,26.8,278,26.8C277.9,26.7,277.9,26.7,278,26.8C277.9,26.7,277.9,26.7,278,26.8C277.9,26.7,278,26.7,278,26.8
		C278,26.7,278,26.7,278,26.8C278,26.7,278,26.7,278,26.8C278,26.7,278,26.7,278,26.8L278,26.8C278,26.7,278,26.7,278,26.8L278,26.8
		C278,26.7,278,26.7,278,26.8C278,26.7,277.9,26.7,278,26.8L278,26.8L278,26.8C277.9,26.7,277.9,26.7,278,26.8
		C277.9,26.8,277.9,26.8,278,26.8C277.9,26.8,277.9,26.8,278,26.8C277.9,26.8,278,26.8,278,26.8L278,26.8L278,26.8L278,26.8
		L278,26.8L278,26.8z M278,26.8L278,26.8L278,26.8L278,26.8L278,26.8L278,26.8L278,26.8L278,26.8C278,26.7,278,26.8,278,26.8z
		 M278.1,26.8L278.1,26.8L278.1,26.8L278.1,26.8L278.1,26.8L278.1,26.8L278.1,26.8L278.1,26.8L278.1,26.8L278.1,26.8L278.1,26.8
		L278.1,26.8L278.1,26.8z M278.1,26.8L278.1,26.8L278.1,26.8L278.1,26.8z M278.1,26.8C278.1,26.7,278.1,26.7,278.1,26.8
		C278.1,26.7,278.1,26.7,278.1,26.8C278.1,26.7,278.1,26.7,278.1,26.8C278.1,26.7,278.1,26.7,278.1,26.8L278.1,26.8
		C278.1,26.7,278.1,26.7,278.1,26.8C278.1,26.7,278.1,26.8,278.1,26.8L278.1,26.8L278.1,26.8L278.1,26.8L278.1,26.8z M278.1,26.8
		L278.1,26.8L278.1,26.8L278.1,26.8L278.1,26.8C278.1,26.7,278.1,26.7,278.1,26.8C278.1,26.7,278.1,26.7,278.1,26.8
		C278.1,26.7,278.1,26.7,278.1,26.8C278.1,26.7,278.1,26.7,278.1,26.8L278.1,26.8z M278.1,26.8C278.1,26.7,278.1,26.7,278.1,26.8
		C278.1,26.7,278.1,26.7,278.1,26.8C278.2,26.7,278.2,26.7,278.1,26.8C278.2,26.7,278.2,26.7,278.1,26.8L278.1,26.8
		C278.2,26.7,278.2,26.7,278.1,26.8C278.2,26.7,278.2,26.8,278.1,26.8C278.2,26.8,278.2,26.8,278.1,26.8
		C278.2,26.8,278.2,26.8,278.1,26.8C278.2,26.8,278.2,26.8,278.1,26.8L278.1,26.8z M278.2,26.8L278.2,26.8L278.2,26.8L278.2,26.8
		L278.2,26.8C278.2,26.7,278.2,26.7,278.2,26.8C278.2,26.7,278.2,26.7,278.2,26.8C278.2,26.7,278.2,26.7,278.2,26.8
		C278.2,26.7,278.1,26.7,278.2,26.8L278.2,26.8z M278.2,26.8L278.2,26.8L278.2,26.8L278.2,26.8L278.2,26.8L278.2,26.8L278.2,26.8
		L278.2,26.8L278.2,26.8L278.2,26.8L278.2,26.8C278.2,26.7,278.2,26.7,278.2,26.8C278.2,26.7,278.2,26.7,278.2,26.8
		C278.2,26.7,278.2,26.7,278.2,26.8C278.2,26.7,278.2,26.7,278.2,26.8C278.2,26.7,278.2,26.7,278.2,26.8
		C278.2,26.7,278.2,26.7,278.2,26.8L278.2,26.8C278.2,26.7,278.2,26.7,278.2,26.8C278.2,26.7,278.2,26.7,278.2,26.8
		C278.2,26.7,278.2,26.7,278.2,26.8C278.2,26.7,278.2,26.7,278.2,26.8C278.2,26.7,278.2,26.7,278.2,26.8
		C278.2,26.7,278.2,26.7,278.2,26.8C278.2,26.7,278.2,26.7,278.2,26.8L278.2,26.8L278.2,26.8L278.2,26.8L278.2,26.8L278.2,26.8
		L278.2,26.8L278.2,26.8z"/>
</g>
<g>
	<g>
		<path class="floor4_st8" d="M284.2,51.8l2.5-1.4 M284.6,50.2l-0.4,1.6 M285.8,52.3l-1.6-0.4"/>
		<g>
			<path class="floor4_st8" d="M285.3,47.7l-2.5,1.4 M284.9,49.3l0.4-1.6 M283.7,47.3l1.6,0.4"/>
		</g>
	</g>
	<path class="floor4_st2" d="M276.5,56.9l4.7-2.9 M276,56l4.7-2.9 M275.5,55.1l4.7-2.9 M274.9,54.3l4.7-2.9 M274.4,53.4l4.7-2.9
		 M273.9,52.5l4.7-2.9 M272.9,52.6l5.5-4.6 M280.8,37.5v5.6 M279.8,37.5v5.6 M278.8,37.5v5.6 M277.8,37.5v5.6 M276.8,37.5v5.6
		 M275.7,37.5v5.6 M275.1,36.9l-1,6.7 M289.9,52.7l2.7,4.6 M289,53.2l2.7,4.6 M288.1,53.7l2.7,4.6 M287.3,54.2l2.7,4.6 M286.4,54.7
		l2.7,4.6 M285.5,55.2l2.7,4.6 M284.6,55.7l2.7,4.6"/>
	<path class="floor4_st9" d="M295.5,56.4L280.6,65l-16.4-28.4l19.1,0.5l-6.7-11.6"/>
	<path class="floor4_st10" d="M268.5,43.4l18.6,0.3l-8.7,5"/>
	<path class="floor4_st10" d="M275.1,43.8l7.3,12.7l9.3-5.4 M255.9,25.2h48.9L316,44.6"/>
	<path class="floor4_st9" d="M303.6,46.9l10.4-6 M316.9,44.2l-15.7,9l-11.9-20"/>
	<path class="floor4_st2" d="M310.4,83.7l-15.1-26.2 M316.8,79.9l-15.1-26.2 M303.9,58.3l-4,6.3 M304.5,72.8l6-3.4 M308.5,79.5l6-3.4
		 M302.2,68.9l6-3.4 M300,65.1l6-3.4 M297.8,61.3l6-3.4"/>
	<path class="floor4_st9" d="M287.7,30.3l-2.8-5 M314.3,91l-3.7-6.3l-14.3,8.5l35.7,62.7l14.7-8.8 M344.7,143.8l-4-7.2 M339.3,134.3
		l-1.2-1.8 M330.1,151.3l15-8.8 M324.2,141.7l14.4-8.2 M319,131.8l14.2-8.2 M313.4,122l14.1-8.1 M307.8,112.3l14.2-8.1 M302.3,102.5
		l14-8 M316.9,95.4l-1.1-2 M318.2,97.7l7.5,13 M327.1,113l1,1.9 M329.4,117.2l7.4,12.9 M349.1,151.3l-2.9-5.1 M350.3,153.6l4.5,8.1
		 M353.2,162.3l4,7l3.5-2.2 M352.3,162.8l24.8-14.4 M360.7,155.5l0.7,1.4 M359.3,153.1l-8.4-14.7l1.5-0.9 M356.7,147.8l14.4-8.3
		 M368.9,152.8l-1.6-2.9l7.8-4.4 M364.1,165.2l3.1-1.8l-3.7-6.7 M354.7,136.2l1.1-0.6 M349.1,126.5l0.9-0.5 M348.2,122.6l9.4,16.2
		 M353.4,130.4l9.5-5.3 M361.6,126.5l2.2,4.2l1.9-1.1 M346.8,127.8l-1.6,0.9 M336.4,113.3l9.3,16.2 M354.5,111.3l-13.8,8 M335,111
		l-1.2-2 M334.7,109.8l14.4-8.4 M332.5,106.6l-7.4-12.9 M343.4,91.7l-14.2,8.2 M323.8,91.5l-1.1-1.9 M337.9,82l-14.4,8.4
		 M321.3,87.2l-4.2-7.1 M332.8,71.7l-16.1,9.5 M317.4,86.5l2-1.1 M315,87.8l-1.5,0.9"/>
	<path class="floor4_st9" d="M331.7,71.3l126.7,219.3L422,312l-90-156.2 M367.1,210.2l-2.6,1.6 M369.5,209l30.6-17.6 M399.5,192.8
		l21.2,36.6 M385.2,247.4l34-19.4"/>
	<path class="floor4_st9" d="M365.9,210.2l22,38l-2,1.1 M352.1,192.5l15.6-8.6l2.5,4.2l2.1-1.2 M374.8,185.6l2.6-1.5l-2.4-4.2l14.4-8.5"/>
	<path class="floor4_st2" d="M312.1,73.1l-4,6.3 M306.7,75.9l6-3.4"/>
	<path class="floor4_st9" d="M108.5,162.2l4.9,43.4l-24.1-0.3l-0.2-23.8l14.9-1.6l-2.9-24.3"/>
	<path class="floor4_st9" d="M104.7,195l0.1,2.6l-9.6,0.1L95,187l9.6-1l0.6,5"/>
	<path class="floor4_st2" d="M88.6,198.2h5.1 M88.6,197.2h5.1 M88.6,196.2h5.1 M88.6,195.2h5.1 M88.6,194.2h5.1 M88.5,193.1h5.2
		 M88.5,192.1h5.2 M88.5,191.1h5.2 M88.5,190.1h5.2 M88.5,189.1h5.2 M88.5,188.1h5.2 M88.5,187h5.3 M98.8,199.6v5.3 M97.8,199.6v5.3
		 M96.8,199.6v5.3 M95.7,199.6v5.3 M94.7,199.6v5.3 M93.7,199.6v5.3 M97.2,180.6l0.6,5.2 M94.2,181l0.6,5.2 M95.2,180.9l0.6,5.2
		 M96.2,180.8l0.6,5.2 M98.2,180.5l0.6,5.2 M99.2,180.4l0.6,5.2"/>
	<g>
		<path class="floor4_st8" d="M99.2,193.4h2.9 M100.4,192.3l-1.2,1.2 M100.4,194.6l-1.2-1.2"/>
		<g>
			<path class="floor4_st8" d="M102.2,190.4h-2.9 M101,191.6l1.2-1.2 M101,189.2l1.2,1.2"/>
		</g>
	</g>
	<path class="floor4_st9" d="M103.1,205.1l-0.2-7.4 M112.1,197.3h-1.6 M106.9,197.1h-2.2 M102.7,157.3L34.8,89.2l29.6-29.5L164.3,160
		 M45,99l12.3-12.3 M63.7,87.2l13.6-13.5"/>
	<path class="floor4_st2" d="M57.2,67.2l3.6,3.6 M55.8,68.6l3.6,3.6 M56.5,67.9l3.6,3.6 M55.1,69.3l3.6,3.6 M58,66.4l3.6,3.6 M58.6,65.8
		l3.6,3.6 M60.6,72.1l3.6,3.7 M57.7,75l3.6,3.7 M57,75.7l3.6,3.6 M59.9,72.8l3.6,3.7 M59.2,73.5l3.6,3.6 M58.4,74.3l3.6,3.6
		 M47.8,76.5l3.6,3.6 M50.7,73.6l3.6,3.6 M48.5,75.7l3.6,3.6 M49.3,75l3.6,3.6 M50,74.3l3.6,3.6 M51.4,72.9l3.6,3.6 M52.2,72.2
		l3.6,3.6 M52.9,71.5l3.6,3.6 M53.6,70.7l3.6,3.6 M62.8,70l3.6,3.6 M62.1,70.7l3.6,3.6 M54.3,70l3.6,3.6 M61.3,71.4l3.6,3.6"/>
	<path class="floor4_st9" d="M65.3,85.7l-8.8-9.3 M62,82.3l12.5-12.7 M60.8,91.5l-4.2-4.2 M61.7,89.8l-2,1.8 M101.8,150.3l-3.2,3.5
		 M109.7,160.5l-2.3,2.3 M107.3,161.5l27.7,28l29.8-30 M137.3,133l-25.5,25.7 M114,156.8l-9.7-9.5l12-11.3l5.8,6 M124.2,144.2
		l1.2,1.2"/>
	<g>
		<path class="floor4_st8" d="M358.5,162.5l1.4,2.5 M360.1,162.9l-1.6-0.4 M358,164.1l0.4-1.6"/>
		<g>
			<path class="floor4_st8" d="M362.6,163.6l-1.4-2.5 M361,163.2l1.6,0.4 M363,161.9l-0.4,1.6"/>
		</g>
	</g>
	<g>
		<path class="floor4_st11" d="M351.5,131c0.4,0.7,0.9,1.5,1.3,2.2c0.3,0.5,0.2,1-0.3,1.3c-1.5,0.9-3,1.7-4.4,2.6c-0.5,0.3-1,0.2-1.3-0.3
			c-0.9-1.5-1.8-3-2.6-4.5c-0.3-0.5-0.2-1,0.3-1.2c1.5-0.9,3-1.8,4.5-2.7c0.5-0.3,0.9-0.1,1.2,0.3
			C350.6,129.5,351.1,130.2,351.5,131L351.5,131z M351.4,131l-1.3-2.2c-0.3-0.5-0.7-0.6-1.2-0.3l-4.4,2.6c-0.5,0.3-0.6,0.6-0.3,1.1
			c0.9,1.5,1.7,2.9,2.6,4.4c0.3,0.5,0.6,0.6,1.1,0.3l4.4-2.6c0.5-0.3,0.6-0.7,0.3-1.2L351.4,131L351.4,131z"/>
		<path class="floor4_st5" d="M351.4,131l1.3,2.2c0.3,0.5,0.2,0.9-0.3,1.2c-1.5,0.9-2.9,1.7-4.4,2.6c-0.5,0.3-0.9,0.2-1.1-0.3
			c-0.9-1.5-1.7-2.9-2.6-4.4c-0.3-0.5-0.2-0.8,0.3-1.1l4.4-2.6c0.5-0.3,0.9-0.2,1.2,0.3C350.5,129.6,351,130.3,351.4,131L351.4,131z
			 M348.6,131.1L348.6,131.1c0.1,0.1,0.1,0.2,0,0.2c-0.2,0.2-0.4,0.4-0.5,0.6c-0.1,0.1-0.2,0.2-0.1,0.3s0.2,0,0.3-0.1
			c0.2-0.2,0.5-0.5,0.7-0.7s0.2-0.4,0.1-0.7c-0.1-0.2-0.2-0.4-0.4-0.6c-0.1-0.2-0.3-0.3-0.6-0.2c-0.3,0.1-0.6,0.1-1,0.2
			c-0.1,0-0.3,0.1-0.2,0.2c0,0.2,0.2,0.1,0.3,0.1c0.3-0.1,0.5-0.1,0.8-0.2c0.1,0,0.1,0,0.2,0c0,0,0,0,0,0.1l-1.7,0.5l0.2,0.4
			l-0.2,0.1c-0.3,0.2-0.6,0.4-0.9,0.6c-0.1,0-0.1,0.2-0.1,0.2s0.1,0.1,0.2,0.1s0.2-0.1,0.2-0.1l0.9-0.6l0.1,0.1
			c0,0.1-0.1,0.1-0.1,0.2c-0.3,0.2-0.7,0.4-1,0.6c-0.1,0.1-0.2,0.1-0.1,0.2c0.1,0.1,0.2,0.1,0.3,0.1c0.1-0.1,0.3-0.1,0.4-0.2
			c0.2-0.1,0.5-0.3,0.7-0.4c0.1,0.1,0.2,0.2,0.3,0.4C347.8,131.9,348.2,131.5,348.6,131.1L348.6,131.1z M349.2,135.1
			c0.4-0.2,0.8-0.5,1.2-0.7c0.1,0,0.1,0,0.2,0c0,0.1-0.1,0.1-0.1,0.2c-0.2,0.2-0.5,0.3-0.8,0.5c-0.1,0-0.1,0.2-0.1,0.2
			c0.1,0,0.2,0,0.2,0c0.3-0.2,0.7-0.4,1-0.6c0.2-0.1,0.3-0.4,0.2-0.6c-0.2-0.3-0.4-0.7-0.6-1c-0.1-0.2-0.4-0.3-0.6-0.1
			c-0.4,0.2-0.7,0.4-1,0.6c0,0-0.1,0.1-0.1,0.2c0.1,0,0.2,0,0.2,0c0.1,0,0.2-0.1,0.2-0.1c0.2-0.1,0.4-0.2,0.6-0.3c0,0,0.1,0,0.2,0
			c0,0,0,0.1-0.1,0.1c0,0-0.1,0-0.1,0.1l-2.3,1.4c-0.1,0.1-0.3,0.2-0.2,0.3c0.1,0.2,0.3,0.1,0.4,0l1.2-0.7c0,0,0.1,0,0.1-0.1
			c0.1,0,0.1,0,0.2,0c0,0.1,0,0.1-0.1,0.1l-0.1,0.1c-0.4,0.2-0.8,0.5-1.2,0.7c-0.1,0-0.1,0.2-0.1,0.3c0,0,0.1,0.1,0.2,0.1
			s0.1,0,0.2-0.1C348.4,135.6,348.8,135.3,349.2,135.1L349.2,135.1z M346.6,134.1l4-2.4c-0.1-0.1-0.1-0.2-0.2-0.3l-4,2.4
			C346.5,133.9,346.5,133.9,346.6,134.1C346.6,134,346.6,134.1,346.6,134.1L346.6,134.1z M351.4,133.7c0.2-0.1,0.2-0.3,0.1-0.5
			s-0.3-0.3-0.5-0.2l0,0c-0.2,0.1-0.2,0.3-0.1,0.5C350.9,133.7,351.2,133.8,351.4,133.7L351.4,133.7z M349.6,130
			c-0.1-0.2-0.3-0.2-0.5-0.1l0,0c-0.2,0.1-0.2,0.3-0.1,0.5l0,0c0.1,0.2,0.4,0.2,0.5,0.1C349.6,130.3,349.7,130.1,349.6,130
			L349.6,130z"/>
		<path class="floor4_st11" d="M348.6,131.1l-1.2,1.3l-0.3-0.4c-0.3,0.1-0.5,0.3-0.7,0.4c-0.1,0.1-0.3,0.2-0.4,0.2
			c-0.1,0.1-0.2,0.1-0.3-0.1c-0.1-0.1,0-0.2,0.1-0.2c0.3-0.2,0.7-0.4,1-0.6c0.1,0,0.1-0.1,0.1-0.2l-0.1-0.1l-0.9,0.6
			c-0.1,0-0.2,0.1-0.2,0.1c-0.1,0-0.2,0-0.2-0.1s0-0.2,0.1-0.2c0.3-0.2,0.6-0.4,0.9-0.6l0.2-0.1l-0.2-0.4l1.7-0.5v-0.1
			c-0.1,0-0.1-0.1-0.2,0c-0.3,0.1-0.5,0.1-0.8,0.2c-0.1,0-0.2,0.1-0.3-0.1c0-0.2,0.1-0.2,0.2-0.2c0.3-0.1,0.6-0.2,1-0.2
			c0.3-0.1,0.4,0,0.6,0.2c0.1,0.2,0.2,0.4,0.4,0.6c0.1,0.2,0.1,0.5-0.1,0.7s-0.4,0.5-0.7,0.7c-0.1,0.1-0.2,0.2-0.3,0.1
			c-0.1-0.1,0-0.2,0.1-0.3C348.3,131.6,348.5,131.4,348.6,131.1C348.7,131.2,348.7,131.1,348.6,131.1L348.6,131.1L348.6,131.1z
			 M349.2,135.1c-0.4,0.2-0.8,0.5-1.2,0.7c-0.1,0-0.1,0.1-0.2,0.1s-0.2-0.1-0.2-0.1c0-0.1,0-0.2,0.1-0.3c0.4-0.3,0.8-0.5,1.2-0.7
			l0.1-0.1c0,0,0-0.1,0.1-0.1c-0.1,0-0.1,0-0.2,0c0,0-0.1,0-0.1,0.1l-1.2,0.7c-0.1,0.1-0.3,0.2-0.4,0s0-0.3,0.2-0.3l2.3-1.4
			c0,0,0.1,0,0.1-0.1l0.1-0.1c-0.1,0-0.1,0-0.2,0c-0.2,0.1-0.4,0.2-0.6,0.3c-0.1,0-0.2,0.1-0.2,0.1c-0.1,0-0.2,0-0.2,0
			c0-0.1,0-0.2,0.1-0.2c0.3-0.2,0.7-0.4,1-0.6c0.2-0.1,0.5-0.1,0.6,0.1c0.2,0.3,0.4,0.6,0.6,1c0.1,0.2,0,0.5-0.2,0.6
			c-0.3,0.2-0.6,0.4-1,0.6c-0.1,0-0.2,0-0.2,0c0-0.1,0-0.2,0.1-0.2c0.2-0.2,0.5-0.3,0.8-0.5c0.1,0,0.1-0.1,0.1-0.2
			c-0.1,0-0.2,0-0.2,0C350,134.6,349.6,134.9,349.2,135.1L349.2,135.1L349.2,135.1z M346.6,134.1C346.6,134.1,346.6,134,346.6,134.1
			c-0.1-0.1-0.1-0.2-0.2-0.3l4-2.4l0.2,0.3L346.6,134.1z M351.4,133.7c-0.2,0.1-0.4,0-0.5-0.1l0,0c-0.1-0.2,0-0.4,0.1-0.5
			c0.2-0.1,0.4-0.1,0.5,0.1l0,0C351.6,133.4,351.5,133.6,351.4,133.7L351.4,133.7z M349.6,130c0.1,0.2,0.1,0.4-0.1,0.5
			s-0.4,0.1-0.5-0.1l0,0c-0.1-0.2,0-0.4,0.1-0.5l0,0C349.3,129.7,349.5,129.8,349.6,130L349.6,130L349.6,130z"/>
	</g>
	<g>
		<path d="M233.8,175.1h3.6v0.7h-2.7v2.2h2.5v0.7h-2.5v3h-0.9L233.8,175.1L233.8,175.1z M238.6,175.1h0.9v6h2.9v0.7h-3.8
			L238.6,175.1L238.6,175.1z M248.7,178.4c0,2.3-1.4,3.6-3.1,3.6c-1.8,0-3-1.4-3-3.4c0-2.1,1.3-3.5,3.1-3.5
			C247.5,175,248.7,176.4,248.7,178.4L248.7,178.4z M243.5,178.5c0,1.4,0.8,2.7,2.2,2.7s2.2-1.3,2.2-2.8c0-1.3-0.7-2.7-2.1-2.7
			S243.5,177,243.5,178.5z M255.6,178.4c0,2.3-1.4,3.6-3.1,3.6c-1.8,0-3-1.4-3-3.4c0-2.1,1.3-3.5,3.1-3.5
			C254.4,175,255.6,176.4,255.6,178.4L255.6,178.4z M250.4,178.5c0,1.4,0.8,2.7,2.2,2.7s2.2-1.3,2.2-2.8c0-1.3-0.7-2.7-2.1-2.7
			S250.4,177,250.4,178.5L250.4,178.5z M256.7,175.2c0.6-0.1,1.1-0.1,1.7-0.1c0.9,0,1.5,0.2,1.9,0.6c0.3,0.3,0.5,0.8,0.5,1.3
			c0,0.9-0.6,1.5-1.3,1.7l0,0c0.5,0.2,0.8,0.7,1,1.4c0.2,0.9,0.4,1.6,0.5,1.8h-0.9c-0.1-0.2-0.3-0.8-0.4-1.6
			c-0.2-0.9-0.6-1.3-1.4-1.3h-0.8v2.9h-0.9L256.7,175.2L256.7,175.2z M257.6,178.3h0.9c0.9,0,1.5-0.5,1.5-1.3c0-0.9-0.6-1.2-1.5-1.2
			c-0.4,0-0.7,0-0.9,0.1V178.3L257.6,178.3z M266.6,181.8V180h-3v-0.6l2.9-4.1h0.9v4h0.9v0.7h-0.9v1.8L266.6,181.8L266.6,181.8z
			 M266.6,179.4v-2.2c0-0.3,0-0.7,0-1l0,0c-0.2,0.4-0.4,0.7-0.5,1l-1.6,2.2l0,0H266.6L266.6,179.4z"/>
	</g>
</g>
<text transform="matrix(0.5087 0.861 -0.861 0.5087 341.9947 193.9936)" class="floor4_st12 floor4_st13">History </text>
<text transform="matrix(0.5087 0.861 -0.861 0.5087 336.8011 198.5729)" class="floor4_st12 floor4_st13">Library</text>
<text transform="matrix(0.6997 0.7145 -0.7145 0.6997 113.9867 74.6653)" class="floor4_st12 floor4_st14">Giannini Library</text>
<text transform="matrix(0.6997 0.7145 -0.7145 0.6997 124.9089 98.6817)" class="floor4_st12 floor4_st14">of </text>
<text transform="matrix(0.6997 0.7145 -0.7145 0.6997 72.9975 58.5369)" class="floor4_st12 floor4_st14">Agricultural and Resource Economics</text>
<text transform="matrix(1 -8.827200e-04 8.827200e-04 1 297.6367 37.568)" class="floor4_st15 floor4_st16 floor4_st17">4202</text>
<text transform="matrix(1 -8.827200e-04 8.827200e-04 1 324.4955 81.9592)" class="floor4_st15 floor4_st16 floor4_st17">4204</text>
<text transform="matrix(1 -8.827200e-04 8.827200e-04 1 335.459 102.1358)" class="floor4_st15 floor4_st16 floor4_st17">4208</text>
<text transform="matrix(1 -8.827200e-04 8.827200e-04 1 340.801 111.6138)" class="floor4_st15 floor4_st16 floor4_st17">4210</text>
<text transform="matrix(1 -8.827200e-04 8.827200e-04 1 358.481 150.2542)" class="floor4_st15 floor4_st16 floor4_st17">4216</text>
<text transform="matrix(1 -8.827200e-04 8.827200e-04 1 325.125 134.3898)" class="floor4_st15 floor4_st16 floor4_st17">4211</text>
<text transform="matrix(1 -8.827200e-04 8.827200e-04 1 303.3031 94.5462)" class="floor4_st15 floor4_st16 floor4_st17">4203</text>
<text transform="matrix(1 -8.827200e-04 8.827200e-04 1 111.2539 147.0382)" class="floor4_st15 floor4_st16 floor4_st17">4101A</text>
<text id="MTEXT" transform="matrix(0.5087 0.861 -0.861 0.5087 340.2575 78.4063)" class="floor4_st12 floor4_st13">History Faculty Offices</text>
<text transform="matrix(1 -8.827200e-04 8.827200e-04 1 85.1367 116.4802)" class="floor4_st15 floor4_st16 floor4_st17">4101</text>
<text transform="matrix(1 -8.827200e-04 8.827200e-04 1 375.6073 194.5677)" class="floor4_st15 floor4_st16 floor4_st17">4217</text>
<text transform="matrix(0.8346 -0.5509 0.5509 0.8346 337.0482 151.4971)" class="floor4_st15 floor4_st16 floor4_st18">4215</text>
<text transform="matrix(1 -8.827200e-04 8.827200e-04 1 330.617 143.3083)" class="floor4_st15 floor4_st16 floor4_st17">4213</text>
<text transform="matrix(1 -8.827200e-04 8.827200e-04 1 319.3781 123.6989)" class="floor4_st15 floor4_st16 floor4_st17">4209</text>
<text transform="matrix(1 -8.827200e-04 8.827200e-04 1 313.969 113.8967)" class="floor4_st15 floor4_st16 floor4_st17">4207</text>
<text transform="matrix(1 -8.827200e-04 8.827200e-04 1 308.945 104.1662)" class="floor4_st15 floor4_st16 floor4_st17">4205</text>
<text transform="matrix(1 -8.827200e-04 8.827200e-04 1 349.5625 121.3917)" class="floor4_st15 floor4_st16 floor4_st17">4212</text>
<text transform="matrix(1 -8.827200e-04 8.827200e-04 1 330.084 92.1852)" class="floor4_st15 floor4_st16 floor4_st17">4206</text>
<text id="MTXT_1_" transform="matrix(1 -8.827200e-04 8.827200e-04 1 359.454 139.4582)" class="floor4_st15 floor4_st16 floor4_st17">4214</text>
<text id="MTXT" transform="matrix(0.8821 -0.4711 0.4711 0.8821 306.6336 48.4447)" class="floor4_st15 floor4_st16 floor4_st19">4202A</text>
</svg>
